<svg width="256" height="256" viewBox="0 0 256 256" fill="none" xmlns="http://www.w3.org/2000/svg">
<g clip-path="url(#clip0_1031_3)">
<path d="M126.844 47.2429C132.079 46.5805 137.415 53.0243 141.855 54.46C145.244 55.5562 151.44 54.0229 154.896 55.0973C163.892 57.8926 162.679 64.5545 167.099 69.1488C168.885 71.0054 177.272 72.8183 179.421 77.8487C181.356 82.3761 180.572 84.9351 179.213 89.277C181.593 95.1633 185.02 95.5334 186.81 101.535C188.869 108.433 185.4 113.53 182.237 119.278C183.575 137.239 183.464 133.086 170.618 144.24C169.955 144.817 189.561 190.743 188.332 195.431C187.825 196.119 186.675 197.123 186.083 197.072C182.873 196.799 168.134 191.82 166.144 190.619C163.465 195.708 160.437 200.884 157.291 205.69C156.061 207.852 153.276 208.991 151.97 206.147C146.159 193.5 143.059 178.91 137.295 166.287C134.777 167.6 132.882 167.952 130.131 168.441C127.423 169.539 121.251 167.583 118.679 166.407C116.348 173.726 113.265 181.043 110.805 188.338C110.183 190.181 104.032 210.304 101.037 207.834C97.5087 204.926 92.211 195.536 89.926 191.052C84.0299 193.059 75.9809 196.345 69.9188 196.955C66.3774 196.004 68.5321 190.478 68.9862 189.133C74.1403 173.877 80.1234 158.922 85.8189 143.873C78.1822 139.011 71.5839 135.729 73.211 124.967C73.477 123.207 74.1592 120.887 73.6593 119.164C72.5315 115.276 69.1965 112.301 68.5849 108.171C67.1256 99.2524 73.3756 96.2607 75.7733 90.421C77.0866 87.2228 73.377 82.4542 77.9421 76.4644C82.1713 70.9154 84.5664 72.4018 89.3426 68.2729C91.2083 66.66 92.6133 62.2825 94.3047 59.9915C100.077 52.1723 108.021 56.5061 115.119 53.8943C118.921 52.4958 122.011 48.0911 126.844 47.2429ZM129.538 163.988C135.487 163.771 140.09 158.809 145.55 156.736C150.944 154.689 157.471 155.481 161.619 151.183C164.235 148.472 164.946 144.46 166.997 141.385C170.666 136.213 178.494 135.641 178.716 127.493C178.777 125.255 177.275 121.483 177.594 119.581C178.575 113.728 183.54 110.438 182.878 104.04C182.292 98.3741 176.355 96.9222 175.429 91.5956C174.821 88.102 175.765 84.8413 175.826 81.3834C172.148 73.8932 167.339 76.4794 162.41 70.8051C159.469 67.4197 159.52 61.1299 154.053 59.4919C149.167 58.0285 144.815 60.047 139.805 58.6128C136.046 57.5369 130.941 51.7018 127.737 51.58C122.626 53.7144 120.069 57.2446 115.083 58.8003C110.174 60.3274 105.604 57.6802 100.876 60.1413C96.6228 62.127 96.3299 67.4899 93.675 70.6984C90.8019 74.1705 85.9555 74.6642 82.729 77.9776C78.4697 81.8962 81.7381 87.5611 80.3567 92.2757C78.7591 97.7279 73.3455 98.5738 73.1025 105.086C72.8662 111.425 76.8082 112.7 78.3099 118.07C79.4837 122.267 76.5899 128.017 78.6205 132.306C80.2363 136.128 85.112 137.472 87.9167 140.04C92.2072 143.968 91.5015 150.946 97.8668 153.452C100.821 154.615 104.727 154.484 107.709 155.447C113.633 157.36 118.541 162.306 124.433 163.864C125.244 164.079 128.568 164.002 129.538 163.988ZM91.3679 186.311C95.2614 190.649 95.2594 192.046 98.1702 196.15C99.306 198.055 100.423 199.972 101.522 201.899C102.379 197.04 106.454 186.481 108.28 181.518C109.962 176.942 112.846 168.653 114.833 164.349C112.801 162.99 109.603 160.772 107.346 160C102.186 158.237 97.225 158.973 92.57 155.502C90.6592 154.077 89.2952 150.853 88.3426 149.993C85.2662 157.88 82.3848 166.288 79.3654 174.237C78.1672 177.391 73.3576 189.411 72.9644 191.923L73.1603 192.123C77.4213 190.687 87.3451 187.07 91.3679 186.311ZM154.526 202.177C155.522 200.116 156.286 198.679 157.463 196.717C158.412 195.021 162.771 186.774 164.025 186.597C167.27 186.141 180.433 190.826 183.727 192.101C181.959 188.191 168.405 150.559 167.583 149.722C164.342 157.801 157.801 158.589 150.363 159.852C147.14 160.4 143.738 162.444 140.958 164.114C142.805 166.398 153.88 197.741 154.526 202.177Z" fill="#D2B56D"/>
<path d="M152.838 88.9648C155.373 89.0825 156.381 91.6675 154.604 93.3704C144.328 103.219 134.682 113.67 124.542 123.651C123.061 125.108 121.813 126.29 120.06 127.412C113.915 122.405 108.29 116.252 102.644 111.561C100.774 110.036 99.4761 108.852 99.9132 106.142C100.891 104.921 102.667 105.679 103.664 106.505C109.038 110.958 115.568 116.762 120.373 121.76C128.672 112.509 137.589 103.865 146.345 95.055C148.399 92.9888 150.531 90.7344 152.838 88.9648Z" fill="#D2B56D"/>
</g>
<defs>
<clipPath id="clip0_1031_3">
<rect width="256" height="256" fill="white"/>
</clipPath>
</defs>
</svg>
