<svg width="256" height="256" viewBox="0 0 256 256" fill="none" xmlns="http://www.w3.org/2000/svg">
<path d="M125.675 58.3665C126.023 58.3509 126.372 58.3449 126.72 58.3488C128.779 58.3748 138.325 64.4828 140.796 65.922L154.804 74.1133C156.825 75.3108 158.91 76.4296 160.827 77.7884C163.105 79.4022 162.557 82.9513 162.543 85.4703L162.509 93.5056C162.488 101.453 162.64 109.754 162.485 117.657C165.662 119.557 194.492 135.514 194.818 136.865C195.485 139.626 195.217 142.689 195.209 145.507L195.197 155.428C195.199 159.93 195.67 175.271 194.718 178.195C193.531 179.496 187.997 182.557 186.258 183.574L172.74 191.441C169.248 193.468 165.768 195.522 162.259 197.518C161.272 198.079 159.886 198.462 158.816 197.931C155.246 196.16 151.851 194.017 148.419 191.992L138.122 186.035C136.384 185.022 128.134 180.341 127.05 179.368C126.088 179.376 122.033 181.979 120.932 182.619L103.851 192.52C100.944 194.206 98.052 195.931 95.1039 197.541C93.2633 198.557 91.9078 198.248 90.1657 197.259C80.2115 191.609 70.3776 185.742 60.4516 180.042C59.2079 179.328 58.1748 178.23 58.0666 176.75C57.8906 174.347 57.928 171.94 57.9245 169.529L57.9492 156.887L57.9472 145.227C57.9259 142.472 57.8002 139.703 57.99 136.959C59.5348 134.728 66.9099 130.888 69.5996 129.337L85.3472 120.147C86.5245 119.464 89.5311 118.169 90.2122 117.136C90.8097 116.229 90.4669 93.2761 90.4559 90.0953C90.4478 87.7694 89.9795 80.7447 90.98 78.9185C91.4024 78.1471 92.7774 77.3675 93.5105 76.891C99.0912 73.2637 105.069 70.1 110.809 66.7221C113.773 64.9478 116.749 63.1928 119.736 61.4578C121.479 60.4466 123.813 58.9848 125.675 58.3665ZM125.537 135.147L125.484 115.013C125.508 110.464 125.739 105.772 125.46 101.24C125.429 100.738 125.457 100.297 125.094 99.9183C124.162 98.9461 94.0901 81.4138 92.8364 81.1357C93.128 86.1251 92.5062 115.575 93.2585 117.057C94.3443 118.02 99.0205 120.566 100.526 121.42L111.35 127.688C114.059 129.268 116.769 130.881 119.494 132.437C121.184 133.402 123.38 134.984 125.087 135.744L125.417 135.685C125.459 135.52 125.525 135.311 125.537 135.147ZM60.7342 177.384C64.2241 179.347 91.1532 195.005 91.494 194.987C91.5115 194.915 91.5875 194.631 91.5822 194.579C91.9725 187.819 91.5232 179.763 91.6008 172.918C91.6257 170.725 91.7941 159.783 91.4456 158.37C89.5577 156.579 83.3214 153.367 80.7153 151.881L68.8152 144.995C67.4815 144.226 61.1835 140.378 60.2374 140.048C60.3631 145.909 59.5827 174.143 60.7342 177.384ZM128.04 177.374C132.323 179.515 136.773 182.307 140.941 184.707C143.344 186.09 145.921 187.464 148.276 188.892L154.53 192.609C155.865 193.415 157.219 194.351 158.598 195.054C158.653 195.018 158.81 194.932 158.829 194.886C159.071 187.396 158.835 178.941 158.839 171.375L158.862 163.135C158.868 161.737 158.94 159.454 158.742 158.129C157.539 157.238 155.294 156.027 153.924 155.24L145.269 150.258L134.157 143.786C133.098 143.166 128.882 140.666 128.003 140.331C128.156 142.02 128.051 144.495 128.034 146.259C128.011 149.217 128.002 152.175 128.009 155.134L128.017 170.138C128.021 172.428 128.125 175.137 128.04 177.374ZM78.6238 127.09C82.6575 129.128 86.7067 131.525 90.6097 133.81C94.2557 135.946 97.9849 137.997 101.62 140.134L107.841 143.814C108.685 144.317 110.436 145.622 111.325 145.488C114.933 143.338 120.495 139.949 124.223 138.186C117.124 134.189 110.124 129.878 103.035 125.862C101.426 124.95 92.6017 119.474 91.4494 119.543C88.1082 121.433 81.5691 125.036 78.6238 127.09ZM113.216 68.3981C115.172 69.1643 118.5 71.2125 120.437 72.326C125.692 75.3785 130.93 78.4608 136.15 81.5727C137.589 82.4345 144.544 86.818 145.554 86.7337C148.368 85.0231 151.204 83.3506 154.062 81.7166C155.118 81.1082 157.417 79.8963 158.321 79.2556C152.296 75.4214 146.307 72.1924 140.241 68.577C137.202 66.737 134.139 64.9352 131.054 63.1717C129.994 62.5578 127.08 60.6187 126.063 60.7352C123.609 62.1894 121.143 63.6248 118.667 65.041C116.989 66.0048 114.697 67.2389 113.216 68.3981ZM148.465 127.166L170.193 139.888C171.745 140.791 177.756 144.875 179.071 144.846C180.326 144.333 181.4 143.675 182.542 142.953C185.561 141.046 188.781 139.446 191.837 137.607C188.961 135.817 161.552 119.917 161.105 119.89C156.85 122.243 152.636 124.668 148.465 127.166ZM176.749 146.514C175.301 145.832 173.902 145.016 172.521 144.207C164.375 139.435 156.196 134.719 148.103 129.858C147.62 129.569 146.438 128.674 146.016 128.52C141.16 131.705 134.592 135.104 129.424 138.189L150.203 150.085C151.729 150.977 158.967 155.669 160.245 156.001C164.117 153.549 168.054 151.2 172.05 148.956C173.499 148.155 175.247 147.078 176.749 146.514ZM110.213 148.944C109.137 149.514 108.131 150.039 107.098 150.685C107.07 151.856 106.876 158.322 107.044 159.059L110.356 156.968C110.37 156.021 110.501 149.36 110.213 148.944ZM93.3558 155.862C95.9387 154.243 98.4413 152.846 101.097 151.354C103.364 150.08 106.266 148.12 108.679 147.196C105.069 145.218 76.9377 128.45 76.0605 128.51C72.7574 130.63 69.0473 132.55 65.6691 134.573C64.2305 135.434 62.1188 136.51 60.8324 137.522C69.4463 142.344 78.0109 147.253 86.5247 152.25C87.503 152.816 92.2592 155.839 92.9232 155.987L93.3558 155.862ZM144.562 90.1857C143.651 90.6883 142.018 91.5455 141.2 92.1467C141.233 93.2095 141.057 100.19 141.216 100.455C142.219 99.7931 144.019 98.8462 144.785 98.2217C144.763 96.9096 144.626 92.0506 144.764 90.4182C144.696 90.3407 144.629 90.2633 144.562 90.1857ZM112.815 147.447C112.992 149.429 113.364 156.649 112.442 158.331C111.918 159.288 106.916 162.361 105.146 161.286C104.091 160.194 104.476 153.611 104.698 152.017C101.645 154.01 97.8275 155.863 94.8617 157.799C93.6927 158.561 94.1112 166.205 94.1117 167.914L94.1207 187.608C94.1305 189.532 94.3302 193.878 93.9416 195.445C100.526 191.743 107.323 187.443 113.925 183.653C116.056 182.43 123.901 178.286 125.527 176.984C125.645 173.515 125.618 140.738 125.315 140.307L125.149 140.28C122.499 142.029 115.695 145.973 112.815 147.447ZM178.124 156.838C178.129 154.85 178.215 150.627 178.026 148.759C177.785 148.564 177.915 148.589 177.65 148.609C176.624 149.165 175.23 149.866 174.26 150.458C174.445 152.528 174.302 156.658 174.247 158.867L174.563 158.923C175.841 158.311 176.872 157.517 178.124 156.838ZM110.649 69.757L94.9367 79.0941C96.2395 80.1598 98.2638 81.1656 99.7686 82.015L106.215 85.7069C107.978 86.7072 109.738 87.8728 111.513 88.9074C116.456 91.788 121.642 94.6487 126.529 97.5969C126.754 97.5583 126.851 97.5692 127.038 97.4546C129.987 95.7657 132.924 94.0582 135.851 92.3325C137.518 91.3479 141.165 89.1627 142.886 88.476C137.214 84.8103 129.601 80.7188 123.621 77.1729L114.832 72.056C114.154 71.6574 111.211 69.7311 110.649 69.757ZM180.579 146.974C180.846 148.999 180.622 155.071 180.6 157.39C179.07 159.705 177.407 159.882 175.231 161.201C172.852 162.642 171.964 161.569 171.827 158.892C171.716 156.721 171.722 154.073 171.846 151.836C168.617 153.969 165.343 155.712 162.037 157.69C161.867 157.992 161.486 158.682 161.471 159.004C161.341 161.73 161.381 164.652 161.383 167.372L161.409 184.932C161.418 187.729 161.576 192.66 161.282 195.277C171.061 189.12 181.314 183.577 191.309 177.784C191.648 177.587 192.562 176.988 192.618 176.577C192.727 173.228 192.645 169.196 192.643 165.888L192.637 149.149C192.637 146.538 192.75 142.824 192.604 140.285L192.367 140.105C188.955 142.14 183.679 144.882 180.579 146.974ZM128.012 127.24C128.016 129.937 128.12 133.425 127.97 136.061C130.206 135.109 136.763 130.882 139.279 129.436L153.086 121.622C154.604 120.765 158.899 118.465 160.004 117.489L159.986 85.5304C159.982 84.8396 160.136 81.751 159.887 81.3642L159.686 81.3488C156.335 83.1145 153.109 85.1626 149.811 87.0299C148.901 87.545 147.871 88.1108 147.048 88.7332C147.045 90.7933 147.517 98.4618 146.307 99.8816C145.414 100.929 140.85 103.652 139.307 102.804C138.239 101.574 138.699 95.915 138.55 93.6916C136.58 94.7849 129.68 98.5486 128.041 99.7413L128.012 127.24Z" fill="#ECC06B"/>
<path d="M71.5607 176.176C73.0777 176.442 79.328 179.799 79.7027 181.315C79.579 181.899 79.3564 182.104 78.9775 182.565C77.5138 182.424 70.9309 178.899 70.6875 177.42C70.7841 176.878 71.1706 176.574 71.5607 176.176Z" fill="#ECC06B"/>
<path d="M138.818 176.215C140.236 176.327 145.063 179.289 146.311 180.272C147.364 181.101 146.732 181.925 145.982 182.685C145.435 182.404 144.892 182.117 144.353 181.821C143.025 181.099 138.222 178.713 137.863 177.5C137.994 176.984 138.442 176.605 138.818 176.215Z" fill="#ECC06B"/>
<path d="M154.612 114.035C155.427 114.44 155.812 114.752 155.827 115.671C155.564 116.55 149.65 119.651 148.292 120.474C147.718 120.405 147.462 120.146 147.102 119.726C146.535 117.522 152.837 115.042 154.612 114.035Z" fill="#ECC06B"/>
<path d="M119.907 173.145C120.809 173.05 120.941 173.037 121.603 173.564C121.71 173.849 121.856 174.08 121.698 174.371C120.894 175.853 116.086 178.161 114.594 178.939C114.34 179.016 114.09 179.061 113.829 179.116C113.291 178.9 113.19 178.871 112.847 178.381C112.834 178.192 112.784 177.893 112.848 177.75C113.503 176.29 118.512 173.673 119.907 173.145Z" fill="#ECC06B"/>
<path d="M186.995 173.147C187.651 173.074 188.265 173.042 188.816 173.424C189.604 175.162 183.749 177.88 182.266 178.747C181.738 178.958 181.655 178.994 181.065 178.984C177.556 177.411 185.926 173.617 186.995 173.147Z" fill="#ECC06B"/>
</svg>
