<svg width="256" height="256" viewBox="0 0 256 256" fill="none" xmlns="http://www.w3.org/2000/svg">
<g clip-path="url(#clip0_1031_19)">
<path d="M171.094 148.507C186.845 148.073 199.986 160.447 200.497 176.194C201.008 191.942 188.697 205.143 172.952 205.73C157.098 206.323 143.788 193.908 143.273 178.052C142.758 162.196 155.237 148.945 171.094 148.507ZM173.472 202.026C187.267 201.136 197.702 189.188 196.728 175.399C195.753 161.609 183.741 151.247 169.958 152.307C156.294 153.356 146.04 165.242 147.007 178.913C147.973 192.584 159.797 202.909 173.472 202.026Z" fill="#CCB182"/>
<path d="M184.548 166.607C186.72 166.551 187.387 168.137 186.086 169.788C184.483 171.823 182.337 173.486 180.506 175.312L172.916 182.925C171.747 184.092 168.843 187.361 167.375 187.602C165.979 187.226 160.729 181.685 159.221 180.241C158.708 179.806 156.875 177.827 156.931 177.337C157.137 175.578 159.045 175.19 160.303 176.208C162.838 178.263 165.042 180.846 167.465 183.058C170.932 179.286 174.603 175.701 178.395 172.262C180.049 170.76 182.758 167.552 184.548 166.607Z" fill="#CCB182"/>
<path d="M125.202 48.3598C129.269 47.7936 133.755 48.9837 136.679 51.8742C138.196 53.3718 140.079 56.2742 140.08 58.4909L140.079 58.6442C141.71 59.9502 153.597 55.8902 152.712 66.5188C155.376 66.3703 158.293 66.4672 160.999 66.4714C164.629 66.556 168.4 66.2355 171.994 66.7809C176.352 67.4423 180.913 71.618 181.488 76.0632C181.936 79.5184 181.742 83.3799 181.741 86.8701V105.555L181.739 131.785L181.748 139.94C181.752 141.769 182.525 147.246 179.32 146.688C177.4 146.354 177.947 141.661 177.965 140.128C177.979 138.027 177.981 135.925 177.969 133.823L177.967 94.5693L177.977 83.2935C177.978 81.3528 178.138 79.229 177.877 77.3101C177.688 75.9156 177.058 74.5808 176.19 73.4807C175.297 72.3487 174.14 71.4087 172.78 70.9105C168.367 69.2941 157.867 70.778 152.656 70.1847C152.965 72.7936 153.023 76.4113 151.033 78.4186C148.569 80.9028 145.652 80.5033 142.391 80.5012L135.33 80.4959C126.865 80.462 118.4 80.472 109.935 80.5253C101.867 80.5508 102.027 76.6753 102.1 70.2152C100.643 70.3371 99.0952 70.1733 97.6842 70.2671C93.457 70.5479 86.7405 69.5945 82.8229 70.6137C81.4515 70.9835 80.1962 71.6953 79.1746 72.682C76.2546 75.559 76.7053 79.0976 76.7034 82.8562L76.7014 91.2064L76.7059 123.551L76.7091 166.832L76.6994 179.506C76.6974 181.91 76.5412 184.472 76.8303 186.856C77.2058 189.954 79.5396 192.321 82.4379 193.258C84.7016 193.99 93.2372 193.625 95.9689 193.625L127.652 193.621H137.907C139.677 193.621 141.317 193.601 143.222 193.646C145.107 193.691 146.043 194.978 144.927 196.753C144.664 197.171 142.573 197.211 141.945 197.211C128.506 197.217 115.065 197.204 101.624 197.212L89.355 197.217C87.2859 197.219 84.05 197.433 82.1238 197.012C75.851 195.64 72.9851 190.461 72.9618 184.69L72.9753 110.01L72.9663 87.7028C72.9629 84.158 72.8575 80.1004 73.1079 76.5922C73.4145 74.1426 74.8198 71.6964 76.497 69.9813C80.5236 65.8639 85.8084 66.4707 91.0765 66.4661L102.11 66.4816C102.094 66.0235 102.085 65.565 102.083 65.1066C102.088 57.7085 109.707 58.8559 114.759 58.8887C115.686 53.0188 119.434 49.4438 125.202 48.3598ZM105.814 75.0064C106.102 75.5536 106.528 76.5312 107.159 76.632C109.813 77.0561 113.179 76.8979 115.884 76.8959L129.153 76.8872L141.14 76.9019C142.207 76.9028 143.304 76.9282 144.364 76.9038C145.652 76.8329 146.958 77.1694 147.967 76.1406C148.922 75.1662 148.806 73.8315 148.823 72.5805C148.861 69.8782 148.716 67.1354 148.826 64.4398C148.016 63.2668 147.841 62.972 146.409 62.6445C143.882 62.0849 139.039 63.6751 137.156 61.7716C136.488 61.0964 136.271 58.7265 135.931 57.7802C134.069 52.5897 130.051 51.8251 125.37 52.0723C122.729 52.932 120.939 53.9014 119.486 56.487C118.322 58.5595 119.061 61.4293 116.601 62.4543C114.408 63.3676 107.168 61.4123 106.247 63.8059C105.314 66.2282 106.099 72.3387 105.814 75.0064Z" fill="#CCB182"/>
<path d="M123.875 131.216C135.133 130.921 146.592 131.348 157.874 131.204C161.165 131.162 160.698 134.555 158.231 134.833L134.676 134.831L127.404 134.846C125.926 134.851 124.03 134.917 122.597 134.761C120.844 133.004 121.229 131.297 123.875 131.216Z" fill="#CCB182"/>
<path d="M122.835 102.339C124.634 102.229 127.33 102.309 129.206 102.309L141.171 102.315L152.112 102.305C154.241 102.303 157.746 102.064 159.671 102.734C159.685 102.759 159.698 102.785 159.71 102.81L159.773 102.939C160.452 104.307 160.359 104.924 159.047 105.761C157.644 105.998 154.431 105.917 152.853 105.918L141.723 105.924L129.53 105.924C127.436 105.923 125.095 106.011 123.033 105.822C121.113 105.646 121.162 103.372 122.835 102.339Z" fill="#CCB182"/>
<path d="M109.428 153.393C112.526 153.2 112.089 155.745 110.45 157.402C107.173 160.729 103.86 164.024 100.558 167.325C99.6946 168.188 98.6382 169.253 97.353 169.309C96.3101 169.004 92.9639 165.384 91.9981 164.403C91.408 163.847 89.603 162.26 89.8093 161.527C90.8432 157.852 93.6003 160.652 94.9894 162.163C95.9251 163.18 96.7943 164.036 97.6135 164.918C99.9433 162.508 102.296 160.12 104.672 157.755C105.974 156.461 107.965 154.358 109.428 153.393Z" fill="#CCB182"/>
<path d="M109.311 94.6449C111.429 94.419 112.385 95.8292 111.166 97.6467C110.816 98.2056 110.362 98.6055 109.896 99.0583C106.297 102.551 102.854 106.225 99.191 109.647C98.7821 110.029 98.2216 110.344 97.6729 110.456C96.3769 110.311 93.3034 106.86 92.2541 105.81C91.5684 105.132 87.7319 101.902 91.3561 100.838C93.0458 100.342 96.0604 104.546 97.7319 105.806L97.8757 105.912C98.6681 104.823 108.171 95.363 109.311 94.6449Z" fill="#CCB182"/>
<path d="M109.741 123.863C110.631 123.882 111.552 124.618 111.805 125.427C112.187 126.652 110.121 128.25 109.384 128.984L104.751 133.592C103.299 135.019 99.1591 139.612 97.473 139.931C96.0537 139.687 93.306 136.572 92.1722 135.432C90.7985 134.111 90.1962 133.733 89.7227 131.89C90.0093 131.508 90.3757 131.031 90.8106 130.841C92.9096 129.921 96.2671 134.135 97.5212 135.558C97.8332 135.194 98.6458 134.33 98.9697 134.068C101.562 131.973 107.132 125.008 109.741 123.863Z" fill="#CCB182"/>
<path d="M122.735 160.576C124.972 160.391 137.367 160.309 138.729 160.778C139.086 160.901 139.302 161.157 139.448 161.5C139.667 162.01 139.717 162.739 139.475 163.249C139.292 163.632 139.036 163.878 138.648 164.035C137.077 164.516 126.186 164.143 123.869 164.236C123.267 164.185 122.443 164.219 122.043 163.679C121.674 163.181 121.633 162.697 121.633 162.105C121.632 161.345 122.174 160.975 122.735 160.576Z" fill="#CCB182"/>
</g>
<defs>
<clipPath id="clip0_1031_19">
<rect width="256" height="256" fill="white"/>
</clipPath>
</defs>
</svg>
