<svg width="256" height="256" viewBox="0 0 256 256" fill="none" xmlns="http://www.w3.org/2000/svg">
<g clip-path="url(#clip0_1031_44)">
<path d="M144.56 61.6381C146.405 61.2525 149.372 61.6553 151.202 61.9826C158.938 63.3665 165.107 67.74 169.02 74.552C170.61 77.3192 170.861 80.7838 172.746 83.1007C176.052 86.075 185.33 86.7928 188.011 88.6551C189.123 89.4143 189.875 90.5959 190.092 91.9246C190.457 94.0529 189.935 96.4528 188.642 98.2045C187.241 100.117 185.246 101.512 182.968 102.17C180.483 102.873 177.954 102.574 175.431 102.626C170.944 102.717 165.135 102.28 160.78 102.905C160.821 103.881 161.006 106.048 161.53 106.787C164.02 110.306 168.258 113.539 171.138 116.856C177.844 124.426 182.226 133.378 181.347 143.701C179.607 164.13 160.701 176.135 141.673 177.704C137.906 178.015 134.587 178.475 130.794 178.223C131.637 182.715 130.062 184.824 136.182 184.665C142.152 184.511 148.351 185.622 149.995 192.358C148.596 198.678 143.004 197.371 137.892 197.363L124.405 197.345C122.72 197.368 119.798 197.596 118.406 197.33C108.545 195.444 113.882 189.129 116.979 183.976C117.521 183.074 117.641 179.317 117.735 178.126C97.9721 176.575 79.6002 165.745 73.0605 146.154C72.2533 143.736 71.8688 141.278 71.4207 138.776C65.4997 133.143 62.5588 128.335 63.5896 119.687C64.3793 113.059 71.7728 117.333 75.4291 118.49C87.371 122.267 100.206 119.444 112.291 117.867C121.288 116.611 127.036 115.21 136.199 117.096C129.952 108.72 122.523 101.27 121.379 90.3476C119.807 75.342 129.743 63.2805 144.56 61.6381ZM68.2854 120.813C68.6197 129.398 69.9242 131.257 76.1127 136.072C76.8815 136.67 76.8731 141.916 77.2613 142.958C79.9854 152.817 86.7412 161.381 95.5239 166.562C100.903 170.086 110.283 172.718 116.678 173.364C120.074 173.707 125.214 173.481 128.809 173.558C135.473 173.701 140.83 173.395 147.393 172.06C156.825 170.141 166.656 164.56 171.994 156.38C175.991 150.295 177.407 142.872 175.93 135.743C174.84 130.689 172.397 126.122 169.157 122.124C167.551 120.151 165.84 118.267 164.031 116.479C159.56 112.091 153.169 107.384 157.373 99.9044C158.611 98.0187 160.368 96.471 161.838 94.7812C164.992 91.1548 167.598 86.4515 166.426 81.4812C164.651 73.9514 157.574 67.6737 149.89 66.7687C148.759 66.6356 147.147 66.4513 146.027 66.5573C143.096 66.8247 140.781 67.0585 138.064 68.3369C124.736 74.6074 123.309 89.9858 130.624 101.595C133.479 106.126 142.919 115.738 141.831 120.763C139.69 123.319 137.328 121.791 134.461 121.466C131.98 121.185 129.268 120.552 126.747 120.759C110.658 122.082 94.2617 127.22 78.1124 124.079C74.9316 123.461 71.1366 122.418 68.2854 120.813ZM117.108 192.7C124.725 192.729 132.546 192.853 140.15 192.716C141.93 192.722 143.888 192.772 145.645 192.607C143.859 190.566 141.775 189.279 139.023 189.311C130.048 189.416 126.068 188.599 126.395 178.224C124.861 178.286 123.769 178.336 122.244 178.214C122.506 186.427 120.903 186.22 117.108 192.7ZM179.218 98.013C182.252 98.1399 185.287 96.4852 185.435 93.1898C185.223 92.6483 185.316 92.5876 184.721 92.3873C180.055 90.8141 175.482 90.528 171.246 87.6375C170.093 91.5405 168.043 95.4124 165.12 98.2853C167.753 97.7716 175.939 98.1141 179.218 98.013Z" fill="#C2A76E"/>
<path d="M90.171 136.389C92.1202 136.318 94.6261 138.309 96.5124 139.035C98.5749 139.829 100.208 140.396 102.439 140.597C108.675 141.16 114.889 140.904 121.135 140.959C125.106 140.994 129.911 140.451 132.97 143.515C137.422 147.975 134.34 155.216 130.484 158.981C124.687 164.873 118.005 163.895 110.438 163.853C106.431 163.936 106.479 160.27 108.86 159.698C114.075 158.445 120.114 160.789 125.038 157.422C128.305 155.187 129.589 152.648 130.422 148.938C129.887 147.365 129.502 145.754 127.515 145.68C119.345 145.375 111.138 146.034 102.984 145.239C98.1635 144.716 92.5277 143.547 88.9905 139.96C87.6608 138.611 89.13 137.172 90.171 136.389Z" fill="#C2A76E"/>
<path d="M149.117 77.142C152.203 76.5842 155.153 78.6416 155.696 81.7292C156.24 84.8169 154.169 87.7577 151.079 88.2868C148.009 88.8126 145.091 86.7582 144.551 83.6906C144.012 80.623 146.052 77.696 149.117 77.142ZM150.457 85.2535C151.422 85.1282 152.238 84.4781 152.575 83.5655C152.912 82.6529 152.716 81.6285 152.064 80.9058C151.412 80.1834 150.414 79.8819 149.471 80.1235C148.131 80.4668 147.29 81.7938 147.551 83.1523C147.812 84.5109 149.085 85.4315 150.457 85.2535Z" fill="#C2A76E"/>
</g>
<defs>
<clipPath id="clip0_1031_44">
<rect width="256" height="256" fill="white"/>
</clipPath>
</defs>
</svg>
