<svg width="256" height="256" viewBox="0 0 256 256" fill="none" xmlns="http://www.w3.org/2000/svg">
<path d="M122.558 65.5062C127.127 64.7158 138.213 67.8669 141.509 70.8528C145.052 74.0631 151.719 78.5587 154.747 82.0165C165.13 93.8704 171.614 109.327 176.132 124.231C179.188 133.063 178.129 142.215 178.001 151.449C177.79 166.761 173.497 181.625 160.266 190.617C152.632 195.805 149.892 196.696 140.545 197.189C136.208 197.418 132.595 197.905 128.007 197.743C114.131 197.384 104.354 195.427 92.7969 186.915C87.2886 183.218 84.4554 179.229 80.7383 174.062C75.7467 167.123 73.4232 161.763 72.185 153.141C70.5569 141.806 73.0041 130.418 76.6923 119.705C77.9232 116.129 79.9237 112.48 81.3577 108.952C88.5397 92.0946 102.742 68.2508 122.558 65.5062ZM128.042 192.28C137.599 192.569 151.006 191.747 158.418 184.601C163.983 179.236 166.331 176.117 168.774 168.709C173.349 154.836 173.21 140.044 170.128 125.832C167.773 116.481 161.371 102.241 156.122 94.0714C153.654 90.1794 150.796 86.5498 147.59 83.2391C143.629 79.0665 138.46 75.5677 133.268 73.1583C129.924 71.6058 126.331 71.6743 122.73 71.7776C99.8765 73.9532 78.8005 121.905 77.9366 142.855C77.7686 146.928 78.3855 154.987 79.6623 158.858C86.861 180.688 105.398 191.437 128.042 192.28Z" fill="#726948"/>
<path d="M166.965 130.223C167.285 130.188 167.223 130.207 167.544 130.317C168.22 132.18 167.984 146.399 167.422 148.79C165.857 155.444 152.755 180.71 146.942 184.2C145.822 184.872 145.083 184.988 143.828 184.682C143.409 184.371 142.488 183.668 142.537 183.169C143.503 177.67 149.065 171.626 152.077 166.957C158.282 157.339 162.512 149.118 161.616 137.241C161.17 131.344 161.086 130.845 166.965 130.223Z" fill="#726948"/>
</svg>
