<svg width="256" height="256" viewBox="0 0 256 256" fill="none" xmlns="http://www.w3.org/2000/svg">
<g clip-path="url(#clip0_1031_63)">
<path d="M126.365 53.0559C127.385 52.961 128.414 52.9721 129.432 53.0894C138.076 54.0526 147.32 62.3429 152.45 68.9279C162.473 81.7944 168.261 98.7789 168.367 115.075C168.388 118.308 168.065 121.429 167.71 124.628L168.05 124.816C171.047 124.088 182.426 124.687 185.631 125.337C196.564 127.555 206.273 129.036 193.845 139.624C185.886 146.393 176.612 151.444 166.608 154.459C161.364 156.087 155.924 157.402 150.803 159.421C145.422 161.543 140.415 164.341 135.579 167.504C146.668 172.13 160.06 171.699 171.825 171.871C177.797 166.795 178.674 165.748 183.167 159.407L183.056 159.468C176.239 163.215 167.132 164.098 159.485 164.566C157.673 164.677 155.681 164.926 153.875 164.72C153.009 164.621 151.933 164.358 151.405 163.597C151.131 163.204 151.039 162.67 151.142 162.204C151.22 161.848 151.415 161.566 151.657 161.301C152.352 160.539 160.905 160.54 162.628 160.393C168.598 159.881 179.989 157.428 185.016 154.42L185.091 154.375C185.153 152.707 184.637 149.967 185.269 148.528C186.167 147.044 188.908 147.567 189.193 149.347C189.906 153.803 187.929 158.528 185.85 162.302C183.966 165.672 179.882 170.449 176.702 172.791C179.696 173.88 182.7 174.699 185.378 176.55C186.954 177.639 185.139 180.74 183.458 179.88C180.036 178.129 176.621 176.329 172.749 175.848C166.626 180.126 162.087 182.94 154.734 185.075C136.924 190.246 118.045 188.264 100.659 182.423C93.9808 180.178 89.5202 178.732 83.1842 175.336C81.3214 176.171 79.2926 176.822 77.2423 177.728C76.4899 177.937 72.3341 180.494 71.8941 180.28C65.5584 177.196 78.0797 173.351 80.1874 172.355C76.7299 169.883 71.1649 162.852 68.9379 159.172C67.6892 157.108 64.3352 152.073 64.8694 149.595C65.1911 148.103 67.6363 146.387 68.9698 145.596C64.1239 142.39 59.1428 139.716 55.4685 135.007C53.4686 132.444 54.6461 130.954 57.0617 129.495C62.4283 126.255 69.4571 125.105 75.6497 124.667C79.4754 124.397 83.6256 124.636 87.4678 124.687C87.5739 124.618 87.6801 124.549 87.7862 124.48C87.8794 123.655 87.4963 121.618 87.3956 120.705C87.0385 117.464 87.2038 113.8 87.4881 110.564C88.7612 95.8415 94.1923 81.7839 103.149 70.0295C108.533 62.9795 117.301 54.2748 126.365 53.0559ZM97.5353 139.674C106.628 141.74 120.431 145.887 129.317 145.995C135.155 145.761 138.516 143.773 143.93 141.885C148.064 140.443 152.585 139.506 156.845 138.526C158.914 138.083 159.686 135.28 160.498 133.618C163.135 127.192 164.494 119.991 164.215 113.042C163.229 94.6096 155.575 75.2686 141.113 63.3279C137.186 60.0851 131.961 56.9004 126.72 57.1597C124.539 57.7078 123.051 58.1203 121.043 59.1993C113.571 63.2126 105.994 72.2791 101.738 79.5487C93.3994 93.7946 88.8178 112.783 93.1532 129.007C94.3013 133.303 95.7264 135.862 97.5353 139.674ZM166.361 128.923C165.617 131.972 164.67 134.351 163.375 137.189C165.784 136.611 168.16 136.092 170.569 135.48C172.659 134.948 175.404 133.93 177.452 133.676C179.559 135.98 178.643 137.184 176.031 137.966C162.988 141.87 149.58 143.262 136.994 148.852C131.575 151.259 124.346 149.906 118.752 148.765C104.92 145.504 91.0206 142.182 77.37 138.23C73.8028 137.197 76.0965 133.909 77.3723 134.332C82.0616 135.884 87.831 136.794 92.412 138.31C91.1123 135.468 89.4353 131.929 88.8167 128.882C79.3808 128.632 68.0646 128.193 59.217 132.613C59.1156 132.663 59.0228 132.863 58.9755 132.959C59.2288 134.23 65.0963 138.432 66.3975 139.282C81.0999 148.884 98.3621 153.352 115.588 155.691C117.627 155.968 124.934 156.351 122.747 159.791C121.444 161.84 113.649 159.491 111.481 159.132C101.707 157.727 90.4809 155.008 81.3146 151.307C78.4701 150.159 75.5908 148.751 72.7926 147.474C71.4473 148.576 69.9906 149.657 68.6944 150.726C70.8024 154.547 72.9246 158.019 75.6171 161.478C77.3093 163.651 79.2459 165.66 80.9788 167.763C83.5644 166.842 109.403 163.149 110.958 163.912C111.383 164.12 111.775 164.396 111.947 164.859C112.136 165.366 112.172 166.089 111.895 166.562C111.465 167.296 110.582 167.581 109.802 167.744C105.836 168.573 101.525 168.665 97.4859 169.154C92.9629 169.702 88.2386 170.772 83.6927 170.841C88.8969 174.581 98.2074 178.144 104.674 177.122C117.086 175.162 127.526 167.978 137.88 161.363C145.453 156.507 153.251 154.087 161.87 151.706C175.041 148.066 186.336 142.159 195.731 132.053C189.077 129.787 184.17 128.739 177.097 128.691C176.606 128.687 174.118 128.615 173.801 128.668C171.338 128.788 168.778 128.77 166.361 128.923ZM131.762 169.958C127.02 173.425 120.703 176.48 115.207 178.53C113.423 179.196 109.784 180.102 108.357 180.865C116.007 182.45 122.932 183.712 130.758 183.864C134.93 183.944 139.066 183.409 142.983 183.45C149.042 182.692 154.96 181.072 160.56 178.638C162.582 177.747 164.558 176.604 166.544 175.752C159.217 176.851 146.261 174.705 138.953 172.844C137.94 172.586 131.834 169.964 131.762 169.958Z" fill="#D4B471"/>
<path d="M155.175 109.031C156.845 109.06 156.803 109.278 157.717 110.576C157.927 113.81 157.636 117.057 156.852 120.201C155.516 125.676 151.623 133.063 146.723 136.049C146.554 136.078 146.387 136.101 146.214 136.093C145.649 136.072 145.122 135.8 144.777 135.352C143.288 133.447 146.057 131.446 147.276 130.032C148.116 129.049 148.876 128.001 149.55 126.898C152.76 121.66 153.641 116.834 153.58 110.954C153.571 110.108 154.513 109.507 155.175 109.031Z" fill="#D4B471"/>
<path d="M107.343 79.2266C112.121 79.7506 108.445 86.5027 106.597 87.6948C101.788 86.7419 105.206 80.8171 107.343 79.2266Z" fill="#D4B471"/>
</g>
<defs>
<clipPath id="clip0_1031_63">
<rect width="256" height="256" fill="white"/>
</clipPath>
</defs>
</svg>
