<svg width="256" height="256" viewBox="0 0 256 256" fill="none" xmlns="http://www.w3.org/2000/svg">
<g clip-path="url(#clip0_1031_79)">
<path d="M95.885 95.5469C98.323 95.668 104.416 100.228 106.762 101.6C109.418 103.153 112.998 105.14 115.509 106.932C116.324 107.51 117.061 108.191 117.7 108.958C120.255 112.033 124.045 120.249 125.24 124.238C125.578 125.366 124.204 125.917 123.89 126.893C123.692 127.508 123.705 128.373 123.696 129.049C123.637 133.128 123.625 137.208 123.658 141.287C123.662 143.549 123.746 146.496 123.55 148.688C126.635 148.597 129.502 148.91 132.575 149.174C130.069 144.863 131.196 138.158 135.821 135.841C137 135.251 137.771 135.022 139.037 134.657C138.965 134.43 138.899 134.201 138.839 133.97C137.806 129.994 138.353 126.047 141.621 123.279C143.694 121.523 145.395 121.172 147.91 120.571C151.517 113.337 158.458 110.683 165.457 115.948C167.601 117.561 169.507 120.531 169.737 123.262C169.826 123.189 169.917 123.117 170.009 123.048C171.918 121.621 174.201 121.139 176.548 121.483C179.072 121.852 181.338 123.223 182.837 125.287C184.006 126.894 184.983 129.975 184.616 131.971C185.453 131.919 186.308 131.872 187.126 131.86C192.361 131.783 195.986 135.725 195.36 140.921C195.131 142.819 194.63 143.823 193.878 145.551C195.892 148.504 194.957 147.815 194.598 150.835C194.201 154.176 194.374 157.933 194.234 161.346C192.127 162.252 187.774 162.837 184.858 163.958C175.522 167.55 169.553 173.103 162.035 179.214C163.876 178.949 166.754 179.034 168.681 179.038L179.027 179.073C181.926 179.092 184.823 179.092 187.721 179.073C189.329 179.047 193.475 178.332 194.188 180.032C194.396 180.541 194.386 181.114 194.159 181.615C193.002 182.622 188.032 182.318 186.296 182.319L175.623 182.316L140.664 182.315L90.8582 182.336C86.4714 182.305 82.0846 182.296 77.6976 182.31C75.4416 182.32 68.7166 182.782 67.1508 181.46C66.5796 180.296 67.7394 179.106 68.856 179.119C75.7068 179.196 83.1165 178.753 89.9162 179.097C95.692 174.567 99.8467 171.164 106.011 166.944C104.691 166.8 102.6 166.298 101.225 166.04C99.0215 165.641 96.8052 165.313 94.58 165.057C86.9953 164.15 79.2369 164.389 71.6146 164.551C70.2109 164.581 67.2509 165.145 66.178 164.362C65.7672 163.629 65.5428 162.347 66.2407 161.728C67.854 160.915 72.079 160.978 74.031 160.906C85.8119 160.473 98.093 161.137 109.47 164.423C112.608 162.098 116.037 160.166 119.407 158.197C104.39 151.405 84.0937 151.911 68.0405 153.188C66.8611 153.282 65.849 152.823 65.5977 151.624C66.098 149.443 68.7639 149.541 70.4975 149.679C70.283 148.065 70.3372 145.068 70.33 143.351C70.3105 139.807 70.3119 136.263 70.3345 132.719C70.3437 131.215 70.445 128.912 70.2042 127.448C70.1589 127.174 68.8502 125.688 68.5462 125.3C68.7545 124.668 68.9782 124.041 69.2171 123.419C70.671 119.56 74.4818 110.69 77.3591 107.962C80.2592 105.213 88.3859 100.888 91.7841 98.1138C92.5605 97.4799 95.011 95.9423 95.885 95.5469ZM73.6164 149.489C76.6763 149.134 79.4143 148.913 82.5116 149.008C82.2532 147.122 82.3054 141.205 82.3558 139.112C82.4253 136.233 82.1881 131.597 82.3705 128.831C83.0199 128.243 83.4017 127.895 84.1348 127.394C87.6757 127.019 93.2417 127.267 96.9568 127.238C100.433 127.235 107.647 126.925 110.602 127.688C111.054 128.158 111.575 128.745 111.645 129.429C112.212 135.007 111.734 140.768 111.843 146.385C111.854 146.918 111.791 147.6 111.713 148.106C113.657 148.027 118.325 148.221 120.466 148.312C120.378 143.679 120.346 139.044 120.371 134.41C120.368 131.286 119.923 126.275 121.397 123.591C119.952 120.096 118.334 116.913 116.524 113.606C114.703 110.28 112.951 109.259 109.739 107.473C107.257 106.093 104.87 104.229 102.312 102.942C100.916 102.258 97.4612 99.5148 96.2717 99.2292C92.7724 101.976 88.9831 104.213 85.3055 106.748C84.2049 107.507 80.594 109.64 79.8506 110.678C77.1806 114.41 74.4705 119.531 73.0524 123.928C72.8972 124.409 74.0291 127.516 73.8953 128.287C73.8883 131.931 73.9708 135.709 73.9112 139.344C73.8616 142.369 74.0966 146.609 73.6164 149.489ZM144.717 166.207C146.664 167.713 149.778 169.372 151.951 170.845C153.852 172.092 158.353 174.935 159.767 176.339C161.926 174.678 164.062 172.65 166.24 170.926C173.818 164.924 181.466 160.417 191.142 158.789C191.014 157.434 191.233 152.271 190.814 151.829L190.396 151.861C177.737 151.921 167.165 154.213 155.799 160.112C153.574 161.265 151.377 162.472 149.211 163.733C147.939 164.469 146.022 165.7 144.717 166.207ZM129.011 179.067L146.899 179.039C149.86 179.025 155.024 178.809 157.711 179.252C148.614 173.013 139.877 166.902 129.749 162.393C128.403 161.793 124.708 159.985 123.441 159.586C118.903 162.673 114.401 165.21 109.798 168.466C106.71 170.65 103.639 172.858 100.584 175.088C98.9526 176.288 96.5166 178.215 94.8521 179.225C98.6622 178.857 104.094 179.028 108.062 179.041L129.011 179.067ZM192.6 148.535C187.27 145.187 179.679 145.305 173.548 145.295C172.255 145.293 169.848 145.46 168.688 145.362C156.805 146.34 148.093 147.935 136.928 152.753C133.735 154.131 130.053 156.128 127.026 157.377C129.949 158.573 139.092 162.777 141.503 164.349C143.45 163.089 145.633 161.613 147.632 160.494C152.726 157.602 157.824 154.933 163.351 152.919C171.499 149.95 180.118 148.47 188.786 148.407C190.037 148.398 191.375 148.584 192.6 148.535ZM126.867 153.82C127.958 153.259 129.052 152.704 130.15 152.157C124.093 152.148 116.541 151.125 110.69 151.501L110.609 151.683C111.456 152.097 112.994 152.476 113.968 152.776C116.425 153.534 120.696 154.677 122.884 155.973C124.194 155.248 125.529 154.486 126.867 153.82ZM104.013 144.3C105.625 146.159 107.09 146.958 108.736 148.565C108.761 146.913 108.926 133.018 108.53 132.417C106.415 134.46 101.782 138.773 99.5263 140.457C100.769 141.532 102.935 143.253 104.013 144.3ZM97.1689 138.216C98.5628 136.833 100.843 134.762 102.37 133.509C103.158 132.829 104.644 131.636 105.201 130.848L105.175 130.66L94.1832 130.663C92.696 130.662 89.6983 130.763 88.3641 130.548C89.1509 131.627 95.67 136.91 97.1689 138.216ZM187.379 134.95C186.673 135.088 186.159 135.193 185.469 135.41C184.329 135.769 182.565 137.143 181.437 136.749C180.219 135.726 181.396 132.37 181.23 130.802C180.87 127.406 178.518 124.561 174.936 124.705C171.537 124.6 169.802 129.201 167.828 128.271C167.164 127.468 166.852 125.359 166.61 124.309C165.599 119.904 162.081 116.226 157.292 116.629C155.031 117.269 153.432 117.917 152.207 120.09C151.438 121.454 150.746 123.678 149.026 124.064C146.663 124.595 144.077 124.679 142.729 127.166C141.856 128.776 141.412 130.497 141.884 132.342C142.324 134.059 144.307 135.909 144.091 137.249C143.708 137.697 143.29 137.969 142.7 137.937C138.088 137.691 134.53 139.236 134.791 144.503C134.89 146.488 135.498 147.497 136.051 149.441C141.956 146.967 150.025 144.05 156.378 143.367C156.196 141.513 156.195 139.795 156.285 137.935C154.833 136.515 150.517 132.8 150.444 131.037C150.646 130.342 151.429 129.807 152.015 129.377C153.647 130.466 155.232 131.876 156.413 133.449C156.19 132.04 156.29 128.051 156.131 127.371C155.382 124.163 158.511 122.335 159.088 123.826C159.787 125.633 159.44 132.304 159.399 134.671C160.826 133.206 161.28 132.644 163.049 131.615C165.837 133.409 164.492 134.305 162.512 136.03C161.438 136.977 160.535 137.878 159.503 138.832C159.374 140.425 159.507 141.528 159.441 142.961C162.283 142.128 170.645 141.771 173.76 141.829C173.735 141.005 173.731 139.796 173.663 139.006C173.01 138.694 166.734 136.398 170.493 134.596C170.993 134.356 173.032 135.346 173.731 135.688C173.699 133.856 172.967 127.814 176.642 130.093C177.185 131.199 176.951 140.52 176.777 141.947C180.379 141.636 187.624 142.576 190.934 143.9C193.202 139.352 192.327 136.539 187.379 134.95ZM85.621 132.706C85.5113 138.047 85.6857 143.459 85.5706 148.783C86.9842 147.392 88.7693 145.602 90.2571 144.318C91.6494 143.377 93.2779 141.652 94.6254 140.535C91.6778 138.359 88.4856 134.751 85.621 132.706ZM96.7888 142.838C94.7242 144.749 91.7525 147.664 89.4684 149.169C91.4249 148.962 97.3978 149.471 99.4328 149.742C101.676 149.9 103.673 150.106 105.854 150.679C104.945 149.866 97.1231 142.851 96.7888 142.838Z" fill="#CCAB5E"/>
<path d="M91.6476 110.439C94.4496 110.331 100.486 110.058 102.817 110.89C103.462 113.289 103.719 119.34 102.952 121.863C102.74 122.56 101.762 122.821 101.106 123.031C98.9282 123.256 93.311 123.177 91.2205 122.766C88.97 122.325 89.5579 115.028 89.727 113.225C89.8535 111.878 90.2544 110.99 91.6476 110.439ZM93.1809 119.819C95.1387 119.736 98.1812 119.595 100.125 119.763C99.8943 118.006 99.9748 115.386 100.071 113.596C98.2807 113.656 94.9224 113.794 93.187 113.613C93.2334 115.525 93.3388 117.943 93.1809 119.819Z" fill="#CCAB5E"/>
<path d="M130.51 58.8677C134.382 58.4223 139.776 59.7464 143.1 61.7254C145.471 63.1366 149.032 66.3204 149.773 69.0879C159.889 67.645 168.695 78.1334 165.577 87.52C173.2 87.1105 179.614 89.3433 184.396 95.6259C187.318 99.4646 188.468 104.262 188.169 109.019C188.05 110.892 185.845 111.798 185.043 110.127C184.953 109.93 184.854 107.563 184.847 107.235C184.642 97.1214 174.88 89.115 164.921 91.0972C163.49 91.3794 160.945 92.7357 159.86 92.3974C159.363 91.9579 159.132 91.3269 158.855 90.7213C159.8 89.1993 160.876 88.6257 162.343 87.5872C162.624 84.3211 162.794 81.1183 161.122 78.1807C159.04 74.4635 155.084 72.1908 150.824 72.2639C146.873 72.3603 147.998 73.3322 145.939 69.3144C144.216 65.9525 140.714 64.1052 137.197 63.0374C135.744 62.6758 134.255 62.4822 132.759 62.4607C127.157 62.3757 122.237 64.0999 118.503 68.3833C117.424 69.4499 116.079 73.2122 114.188 72.8154C106.069 71.1115 97.681 74.2436 95.4738 82.8483C94.9902 84.7335 94.9854 86.2718 94.9227 88.3157C93.5374 88.7573 92.3589 88.9171 90.8288 89.4823C85.121 91.6171 80.2379 95.5083 76.8827 100.595C75.3328 102.915 74.8683 104.54 72.98 106.805C72.6456 106.911 72.3207 106.827 72.003 106.691C69.7399 105.726 71.2008 103.07 71.9827 101.603C76.3076 93.4873 82.8316 88.2275 91.6202 85.5894C91.4777 76.7794 99.2724 69.321 107.929 68.996C109.747 68.9276 111.487 69.2264 113.288 69.1852C113.768 69.1741 114.233 68.1613 114.486 67.7963C117.94 62.4196 124.389 59.3541 130.51 58.8677Z" fill="#CCAB5E"/>
</g>
<defs>
<clipPath id="clip0_1031_79">
<rect width="256" height="256" fill="white"/>
</clipPath>
</defs>
</svg>
