<svg width="256" height="256" viewBox="0 0 256 256" fill="none" xmlns="http://www.w3.org/2000/svg">
<g clip-path="url(#clip0_1031_95)">
<path d="M130.045 79.7874C131.177 79.6982 132.19 79.6808 133.323 79.6641C135.855 81.0363 136.584 82.5861 136.881 85.3549C141.599 87.1519 160.639 93.5578 163.254 96.7705C163.665 97.2765 163.735 98.0127 163.663 98.6415C163.421 100.774 161.412 102.492 159.827 103.736C162.911 104.558 166.857 106.282 169.92 107.356C176.928 109.811 183.716 111.968 191.027 113.389C192.426 112.437 195.918 108.801 197.639 107.353C204.783 101.407 213.854 95.6605 223.285 94.6609C229.561 93.9956 228.856 98.8508 227.444 103.035C224.786 110.916 220.276 117.173 214.733 123.218C218.847 130.239 226.278 141.557 226.661 149.475C225.976 150.768 225.335 151.638 223.949 152.211C218.653 154.401 204.765 145.869 200.137 142.655C197.188 140.608 194.331 137.76 191.005 136.395C190.24 136.081 189.35 135.795 188.52 135.763C181.675 135.501 171.633 143.559 165.158 146.299C167.672 148.098 171.89 152.185 170.832 155.634C170.311 157.329 168.294 158.33 166.805 159.077C160.02 161.189 153.05 159.69 146.977 156.302C146.33 155.941 145.925 155.568 145.401 155.049C139.622 157.173 134.108 158.433 128.047 159.446C128.328 159.803 128.584 160.179 128.814 160.57C130.047 162.704 132.517 167.233 131.793 169.613C130.607 173.516 125.387 172.951 122.296 172.095C116.661 170.535 110.691 166.425 107.786 161.32C105.997 161.056 103.899 161.091 102.092 161.03C88.2185 160.448 75.6216 156.561 62.712 151.32C56.9277 148.972 42.9804 143.368 39.8588 137.139C38.6715 134.77 44.9738 133.6 46.7021 133.273C43.6612 131.701 41.6945 130.008 40.5287 126.672C40.9529 124.587 41.3185 123.609 42.8444 122.007C45.7048 119.005 49.4979 116.462 52.9596 114.209C70.174 103.018 90.0427 96.5795 110.549 95.5473C110.655 95.3117 110.764 95.0772 110.875 94.8441C114.384 87.4675 122.578 82.4345 130.045 79.7874ZM193.523 116.988C184.551 118.582 157.792 106.835 147.11 104.082C123.949 98.112 103.768 97.4854 80.9695 105.418C83.0512 106.637 85.5337 108.908 87.271 110.619C96.7217 119.926 99.1411 131.081 92.2633 142.684C91.4795 143.997 90.6312 145.27 89.7215 146.499C88.8368 147.695 84.0241 153.316 84.0609 154.246C102.847 158.903 123.15 157.41 141.655 151.903C149.92 149.443 157.487 145.739 165.133 141.791C172.151 138.168 179.944 132.359 187.853 131.927C192.848 131.654 196.576 134.991 200.307 137.795C202.105 139.147 203.948 140.435 205.835 141.657C208.706 143.523 219.19 149.34 222.251 148.593C222.55 148.198 222.688 147.875 222.54 147.352C220.097 138.679 214.266 131.525 210.42 123.512C210.234 123.126 210.379 122.341 210.627 122.035C215.538 116.012 221.209 109.896 223.348 102.233C223.576 101.413 224.074 99.6696 223.704 98.8456C223.32 98.7107 223.307 98.7131 222.899 98.7937C213.21 101.332 206.609 105.088 198.996 111.667C197.169 113.246 195.228 115.604 193.523 116.988ZM44.4633 137.395C50.3858 141.315 53.2543 142.468 59.3197 145.597C65.4184 147.745 71.3952 150.613 77.6874 152.388C78.435 152.599 79.407 152.935 80.1198 153.221C81.5826 149.954 84.2618 146.872 86.4228 144.016C97.789 128.993 90.529 116.83 76.8717 107.192C76.7408 107.184 76.4233 107.155 76.312 107.173C67.0028 110.194 56.1021 116.561 48.3111 122.558C47.4234 123.242 44.3739 125.512 44.882 126.869C45.9736 129.785 54.1207 132.018 53.2605 135.173C52.2191 136.397 46.6965 136.904 44.4633 137.395ZM123.805 159.818C122.032 160.481 114.229 161.054 112.017 161.136C114.359 163.249 116.335 165.083 119.157 166.569C120.725 167.423 126.087 169.737 127.618 168.52C127.766 166.974 125.029 161.412 124.136 160.002L123.805 159.818ZM167.137 154.417C166.069 152.119 163.672 149.77 161.57 148.426L161.13 148.401C159.72 149.083 150.34 153.022 150.158 153.318C150.981 154.164 155.292 155.536 156.554 155.776C160.936 156.536 163.221 156.634 167.137 154.417ZM131.67 83.4706C125.223 86.2457 119.316 89.5796 115.143 95.4066C125.402 95.3667 135.518 96.9576 145.497 99.1783C148.704 100.085 152.241 101.292 155.505 101.884C156.583 102.08 158.727 99.54 159.561 98.7777C155.154 96.567 150.705 95.0446 146.112 93.2976C142.07 91.7601 137.68 90.5757 134.115 88.1039C132.661 87.0953 132.141 83.9491 131.67 83.4706Z" fill="#D8BB73"/>
<path d="M104.293 137.809C108.101 137.845 114.908 137.955 116.23 142.934C117.101 146.211 112.971 147.821 110.321 148.386C107.334 148.542 102.398 148.532 100.008 146.648C94.1562 142.037 99.6265 138.616 104.293 137.809ZM110.46 145.023C111.679 144.491 111.918 144.384 112.999 143.553C109.99 140.816 107.528 141.191 103.656 141.359C102.683 141.674 101.208 141.982 101.515 143.268C103.247 145.219 108.052 145.059 110.46 145.023Z" fill="#D8BB73"/>
<path d="M210.989 111.004C211.885 111.024 212.664 112.767 212.054 113.238C207.002 117.139 201.753 116.895 199.184 123.766C200.492 127.658 200.822 128.442 204.497 130.571C206.274 131.601 210.089 132.55 211.137 134.028C211.402 135.388 210.318 135.785 209.225 136.306C200.947 134.252 190.416 127.431 198.474 117.429C200.535 114.873 207.679 111.126 210.989 111.004Z" fill="#D8BB73"/>
<path d="M108.13 118.22C108.777 118.15 109.427 118.118 110.078 118.126C114.869 118.184 116.859 121.545 116.667 125.857C116.733 129.27 115.326 130.984 113.193 133.277C111.426 135.176 108.637 135.305 109.188 132.284C110.808 130.687 113.065 128.861 113.108 126.465C113.271 117.472 107.336 123.517 104.885 123.313C104.418 123.117 104.131 122.933 103.946 122.454C103.04 120.105 106.602 118.777 108.13 118.22Z" fill="#D8BB73"/>
<path d="M120.932 119.273C123.386 119.34 126.143 121.012 127.166 123.291C127.911 124.951 127.968 126.839 127.323 128.541C126.388 130.951 124.706 132.132 122.475 133.092C122.293 133.146 122.04 133.137 121.841 133.143C117.641 131.334 124.127 128.91 124.351 126.285C124.654 122.723 116.43 122.284 120.932 119.273Z" fill="#D8BB73"/>
<path d="M131.177 119.671C133.87 119.564 134.923 120.736 136.706 122.464C137.29 124.778 137.533 125.955 136.45 128.339C135.701 129.988 133.585 131.592 131.876 132.161C127.879 129.902 133.544 128.241 133.721 125.581C133.797 124.435 133.348 124.105 132.703 123.288C131.234 123.404 129.668 123.732 129.227 121.908C129.489 120.649 130.128 120.363 131.177 119.671Z" fill="#D8BB73"/>
<path d="M66.9941 117.831C75.1843 117.412 77.6542 126.146 69.5183 129.076C64.9585 129.288 62.8588 127.806 61.6992 123.452C62.4108 120.243 63.6898 118.525 66.9941 117.831ZM68.6149 125.744C69.4532 125.308 70.1012 125.036 70.4112 124.066C70.8003 122.849 70.2858 121.772 69.0277 121.406C68.5896 121.284 68.13 121.259 67.681 121.333C64.3441 122.681 65.5664 125.494 68.6149 125.744Z" fill="#D8BB73"/>
</g>
<defs>
<clipPath id="clip0_1031_95">
<rect width="256" height="256" fill="white"/>
</clipPath>
</defs>
</svg>
