<svg width="256" height="256" viewBox="0 0 256 256" fill="none" xmlns="http://www.w3.org/2000/svg">
<g clip-path="url(#clip0_1031_133)">
<g clip-path="url(#clip1_1031_133)">
<path d="M80.5189 72.8633C80.6511 72.8797 80.7634 72.897 80.8918 72.9337C83.1266 73.5731 85.2541 75.4974 87.0356 76.9287C95.0771 83.3895 102.437 91.0831 107.181 100.324C113.908 113.43 113.746 129.382 109.325 143.179C108.506 145.734 105.208 155.829 103.095 156.862C102.385 157.209 101.579 157.118 100.855 156.862C98.634 156.077 97.3214 154.253 96.3316 152.228C91.1 141.523 90.4809 128.344 90.3928 116.648C90.3753 114.326 90.0464 110.437 90.8525 108.285C91.0755 107.689 91.6647 107.019 92.2701 106.795C92.6374 106.659 93.0333 106.68 93.3746 106.866C95.0215 107.76 94.6695 112.629 94.6871 114.234C94.7902 123.696 95.1905 133.438 97.5901 142.632C98.5421 146.279 100.051 149.73 101.026 153.349C106.457 140.468 109.584 127.727 107.095 113.677C104.987 101.772 97.6962 92.553 89.1028 84.4787C86.6104 82.1368 84.1305 79.9323 81.2824 77.9941C80.3787 80.1105 78.9111 82.5615 77.881 84.9253C74.2249 93.151 72.7615 102.183 73.6335 111.142C75.4888 128.624 83.6142 141.458 95.7853 153.817C98.4385 156.511 100.566 158.599 103.519 161L105.614 162.831C108.154 159.547 111.23 156.186 113.872 152.971C120.5 144.906 124.077 139.121 135.029 136.764C147.731 134.012 161.228 135.615 173.478 139.686C174.759 140.112 182.523 142.474 182.205 143.823C181.242 147.909 177.535 153.804 175.088 157.217C173.837 158.936 172.503 160.593 171.091 162.182C163.196 170.952 152.136 176.218 140.352 176.819C128.804 177.5 120.142 175.648 109.899 170.12C108.265 169.238 105.358 167.514 104.031 166.337C103.187 167.559 101.511 169.26 100.444 170.38L93.8233 177.209C89.6498 181.557 85.5467 186.138 81.2501 190.393C80.8895 190.705 79.6238 191.877 79.1699 191.818C76.8649 191.523 77.1728 190.112 78.3115 188.845C79.6325 187.375 80.7292 186.271 81.9326 184.982L88.3077 178.045C92.6197 173.408 96.6175 168.76 101.158 164.248C93.6637 158.594 86.4733 150.557 81.1163 142.835C71.212 128.559 66.9838 112.312 70.1532 95.1189C71.2101 89.3852 75.8105 76.0542 80.5189 72.8633ZM130.695 160.645C125.302 162.362 119.93 164.052 114.879 166.593C114.318 166.875 113.502 166.851 113.174 167.342C114.271 168.932 125.827 172.136 128.473 172.515C139.203 174.053 151.455 172.399 160.517 166.125C166.857 161.736 170.642 156.684 174.471 150.163C175.444 148.507 176.215 146.719 177.123 145.143C176.556 144.974 175.975 144.795 175.42 144.592C165.258 140.867 155.905 139.324 145.105 139.567C136.599 140.398 128.541 141.375 123.001 148.639C120.989 151.277 118.677 153.949 116.607 156.509C115.365 158.046 109.392 164.146 109.388 165.344L109.528 165.481C110.536 164.889 111.21 164.252 112.146 163.631C113.036 163.081 114.016 162.628 114.97 162.197C126.224 157.108 138.328 153.907 150.465 151.763C151.062 151.658 151.774 151.548 152.375 151.481C153.729 151.328 156.065 150.756 157.054 151.96C157.387 153.335 155.795 154.165 154.664 154.508C151.141 155.577 147.48 156.285 143.912 157.213C139.456 158.213 135.049 159.607 130.695 160.645Z" fill="#D4BB81"/>
<path d="M182.733 59.0675C188.411 58.9972 187.467 59.6055 187.965 64.5118C190.02 84.6227 181.993 105.469 166.375 118.428C158.77 124.739 150.084 127.424 140.782 130.022C137.396 130.968 133.96 133.111 131.052 135.083C130.173 135.813 128.802 136.861 127.651 136.45C126.718 135.374 128.647 130.58 128.973 129.019C130.645 121.031 130.196 112.966 131.016 104.902C132.016 95.0644 136.155 86.598 142.463 79.0721C152.651 66.7889 166.975 60.2661 182.733 59.0675ZM133.174 130.04C137.109 125.013 139.618 119.799 143.002 114.408C148.278 105.9 154.259 97.8509 160.881 90.3441C162.067 89.113 164.503 86.13 166.459 87.0213C168.028 88.9044 161.442 95.897 160.023 97.6843C155.061 104.022 150.422 110.607 146.123 117.412C144.412 120.071 142.523 123.502 140.813 125.959C144.231 124.754 147.538 123.836 151.031 122.529C163.59 117.832 171.937 109.238 177.705 97.3308C181.817 88.8418 184.046 79.4045 183.658 69.9776C183.584 68.1907 183.684 65.3377 183.375 63.6122C183.032 63.2832 182.217 63.4554 181.748 63.5204C167.315 64.777 154.518 71.0542 145.273 82.2274C135.675 93.826 134.891 103.225 134.561 117.583C134.478 121.199 134.076 126.619 133.174 130.04Z" fill="#D4BB81"/>
</g>
</g>
<defs>
<clipPath id="clip0_1031_133">
<rect width="256" height="256" fill="white"/>
</clipPath>
<clipPath id="clip1_1031_133">
<rect width="302" height="302" fill="white" transform="translate(-23 -23)"/>
</clipPath>
</defs>
</svg>
