<svg width="256" height="256" viewBox="0 0 256 256" fill="none" xmlns="http://www.w3.org/2000/svg">
<g clip-path="url(#clip0_1034_513)">
<path d="M88.3709 55.6285C91.6845 55.573 94.9216 55.6941 98.1532 56.3253C108.347 58.3162 116.658 64.2482 123.296 72.0112C124.799 73.7682 126.627 75.8567 127.909 77.7979C137.046 64.586 148.233 56.1078 164.766 55.617C189.285 54.889 205.562 74.8449 205.543 98.2658C205.527 116.217 197.097 127.623 185.667 140.161C181.966 144.243 178.205 148.271 174.387 152.244C169.235 157.64 164.084 163.767 158.831 169.085L140.058 189.015C137.598 191.605 130.874 199.705 127.666 200.396C125.144 199.617 118.485 191.974 116.34 189.715L100.702 173.119L79.7652 150.562C71.8052 142.052 64.1257 134.414 57.8287 124.516C40.9046 97.9135 53.5834 57.4346 88.3709 55.6285ZM127.871 191.437C129.577 189.667 130.958 187.792 132.595 186.018L144.494 173.297C149.272 168.139 154.223 163.237 158.948 157.868C162.127 154.705 164.724 151.799 167.749 148.447C176.567 138.696 186.781 129.06 193.444 117.682C196.453 112.546 198.172 104.516 198.219 98.6286C198.457 65.9204 162.676 50.2908 140.072 74.7452C136.599 78.3411 133.694 82.4546 130.224 86.0471C127.547 88.8196 125.774 87.0467 123.896 84.685C114.012 72.2578 105.225 62.5392 88.1392 62.9428C82.2639 63.6731 77.7338 64.7633 72.8408 68.1635C61.5852 75.9852 56.6351 89.3596 57.9604 102.737C58.4639 107.819 59.8801 112.952 62.178 117.526C68.1998 128.176 78.2887 138.057 86.6375 147.091C95.6359 156.912 104.725 166.651 113.902 176.305C115.693 178.176 117.513 180.173 119.302 182.042C121.328 184.159 126.505 189.147 127.871 191.437Z" fill="#CFB870"/>
</g>
<defs>
<clipPath id="clip0_1034_513">
<rect width="256" height="256" fill="white"/>
</clipPath>
</defs>
</svg>
