<svg width="256" height="256" viewBox="0 0 256 256" fill="none" xmlns="http://www.w3.org/2000/svg">
<g clip-path="url(#clip0_1031_154)">
<path d="M173.178 52.2041C178.411 51.8763 180.596 53.7519 181.128 59.0496C181.787 58.7923 182.49 58.5244 183.176 58.3496C196.789 54.8764 188.612 70.5212 189.557 74.4984C190.815 76.121 199.053 77.3715 200.196 80.8369C200.595 82.0441 200.254 83.1996 199.048 83.495C196.002 84.2409 193.242 84.8059 190.29 85.8671C193.338 89.7394 195.188 99.0668 190.955 102.704C189.472 103.978 188.488 104.26 186.687 104.808C185.791 104.508 184.655 104.083 183.74 103.945L183.678 104.269C184.181 105.359 185.559 112.078 185.837 113.63C188.479 128.32 186.296 140.938 177.911 153.293C172.585 161.021 165.265 167.162 156.729 171.063C150.963 173.733 146.631 174.744 142.268 179.719C139.344 183.054 134.028 185.921 129.639 186.761C130.179 188.847 131.186 196.551 131.267 198.761C134.098 198.545 145.111 198.148 145.717 201.71C144.86 203.787 141.818 201.908 140.031 201.685C138.068 201.44 136.095 201.191 134.131 200.945C135.804 201.977 141.276 204.554 139.883 206.896C138.743 207.564 137.796 206.688 136.889 205.986C132.499 202.587 128.567 200.589 123.189 203.387C122.087 203.96 120.026 205.731 118.833 205.64C117.205 204.713 118.421 203.086 119.524 202.356C122.289 200.526 125.552 199.769 128.735 199.023C128.197 197.09 127.23 188.96 127.31 187.016C122.23 187.006 116.841 185.284 113.145 181.731C110.857 179.865 108.77 177.353 106.389 175.845C104.948 174.933 102.044 173.997 100.348 173.355C96.9648 172.074 92.4412 170.128 89.5615 167.927C86.028 165.154 81.1116 159.661 79.4439 155.484C76.6833 148.569 74.1014 146.787 68.2125 142.437C63.7883 138.82 58.6366 133.678 57.6216 127.816C56.9964 124.206 59.4121 122.236 62.681 121.865C58.21 117.939 52.857 108.575 55.104 102.289C56.172 99.3007 59.548 99.4238 62.0483 100.583C57.3538 93.0345 56.7742 76.1579 70.4144 83.4878C74.9468 86.2712 78.5086 90.5666 82.4698 94.0256C97.6685 106.786 113.676 114.526 133.333 106.7C152.07 99.2398 150.463 81.9684 162.495 70.6794C160.753 69.5953 158.999 67.9609 158.111 66.217C155.743 61.5705 159.071 56.8864 164.223 57.47C166.076 57.6799 166.767 57.9074 168.521 58.5262C169.122 55.3946 169.847 53.1638 173.178 52.2041ZM187.131 76.2236C186.409 74.166 186.45 73.4638 186.894 71.2301C183.036 69.552 179.556 67.2896 175.04 67.694C162.702 69.2688 158.224 81.1515 153.3 90.9294C147.07 103.43 137.216 110.277 123.404 112.171C110.866 113.89 100.493 109.951 90.0039 103.359C85.7919 100.712 82.7142 98.0565 79.0541 94.769C74.9309 91.0651 70.0788 84.8669 64.2483 84.4937C63.7509 84.507 62.9908 84.9642 62.7624 85.3747C59.6229 91.0196 63.7155 98.8779 67.1743 103.462C68.1753 104.789 72.2039 108.532 69.2693 109.545C68.0409 109.531 67.0329 108.244 66.3398 107.313C64.4703 104.802 56.9078 98.3148 57.3276 105.944C57.6952 111.43 61.073 115.528 64.3424 119.605C65.7084 121.308 70.8394 124.804 71.3305 125.916C71.2516 126.599 71.3556 126.355 70.975 126.878C70.1215 127.177 68.8017 126.772 68.0533 126.336C63.8278 123.873 58.2027 122.954 61.2845 130.021C62.7797 133.45 66.5369 137.556 69.6574 139.897C72.2064 141.941 76.4905 144.775 78.2371 147.258C81.8061 152.441 83.5382 158.591 88.2656 163.057C91.5365 166.148 96.3678 169.177 100.577 170.575C105.899 172.342 108.031 173.023 111.987 176.896C117.348 182.145 124.677 186.775 132.224 183.199C137.612 181.391 140.576 176.532 145.111 173.545C148.033 171.621 151.772 170.434 154.927 168.964C174.415 159.886 186.739 139.706 183.76 118.107C182.4 108.249 177.069 96.4117 183.96 87.6791C187.453 83.233 191.255 82.6111 196.504 81.289C196.452 80.9593 196.443 80.8915 196.065 80.6682C192.759 78.7092 190.43 78.5085 187.131 76.2236ZM164.813 68.9017C167.591 66.5967 169.939 65.9299 173.389 65.1232C177.91 64.9391 181.063 65.1443 185.235 67.2586C185.891 67.5911 186.96 68.1134 187.505 68.5634C188.08 66.9217 188.231 65.6833 188.42 63.9858C189.183 57.1496 181.058 63.4105 179.085 61.5983C177.949 58.8478 178.352 57.6211 176.54 55.0814L174.706 54.9297C169.851 55.3533 172.598 61.5591 169.229 61.4815C165.615 61.3981 161.853 57.6871 159.954 63.4092C161.325 66.5834 162.226 66.7879 164.813 68.9017ZM186.468 101.991C193.17 100.764 190.626 91.5109 188.245 87.4618L187.931 87.35C184.937 90.5638 183.094 93.9155 183.277 98.4211C183.368 100.661 184.195 101.823 186.468 101.991Z" fill="#DCB262"/>
<path d="M111.058 121.547C111.332 121.625 111.639 121.788 111.902 121.915C113.586 124.239 110.415 124.689 108.952 125.147C103.059 126.993 97.6747 125.429 91.791 125.633C91.2451 125.652 91.0444 125.716 90.6836 126.102C90.5233 126.696 90.6061 127.336 90.8559 127.882C93.4107 133.437 100.101 134.55 105.231 136.497C106.194 136.863 106.631 137.496 106.199 138.475C104.609 139.898 98.6461 138.893 97.3024 140.564C97.2138 141.248 97.3311 141.406 97.7841 142.014C102.36 147.941 111.551 148.041 118.197 146.344C119.778 145.94 123.448 143.949 124.576 145.546C124.803 147.402 121.235 150.41 119.741 152.812C124.622 157.014 135.894 152.611 140.743 149.871C149.79 144.761 153.809 137.698 156.422 127.958C156.67 126.626 157.076 124.851 158.821 124.997C159.165 125.271 159.533 125.945 159.484 126.376C157.673 142.333 144.721 154.393 129.119 156.897C123.187 157.849 112.927 156.657 119.142 148.644C118.854 148.744 118.562 148.833 118.267 148.91C110.498 150.95 96.5534 150.142 94.132 140.636C95.5813 136.773 96.9602 138.17 98.0865 137.029C97.6743 136.604 97.256 136.612 96.7238 136.42C93.1011 135.108 89.4211 132.413 88.0768 128.669C87.7263 127.693 87.3969 125.916 87.9931 124.974C90.149 121.567 94.8308 122.951 98.1176 123.182C102.961 123.738 106.381 123.001 111.058 121.547Z" fill="#DCB262"/>
<path d="M179.619 119.465C181.113 119.937 181.31 120.801 181.301 122.242C181.215 135.448 177.37 146.872 167.672 156.08C166.976 156.04 166.719 155.98 166.202 155.539C165.632 154.08 167.546 152.349 168.446 151.299C175.814 142.695 178.771 131.908 178.59 120.764C178.581 120.156 179.14 119.78 179.619 119.465Z" fill="#DCB262"/>
<path d="M177.116 73.0932C179.989 72.7079 180.767 72.9873 182.708 74.9946C183.455 77.1676 182.781 79.7261 180.429 80.4862C178.674 81.3669 176.774 81.0997 175.54 79.4875C174.872 78.6247 174.58 77.5287 174.73 76.4479C174.972 74.8227 175.836 74.0108 177.116 73.0932ZM179.277 78.3589C180.1 78.0714 180.539 77.173 180.257 76.3475C179.975 75.522 179.08 75.0785 178.251 75.3549C177.416 75.6338 176.969 76.5397 177.252 77.3733C177.536 78.2069 178.446 78.6493 179.277 78.3589Z" fill="#DCB262"/>
</g>
<defs>
<clipPath id="clip0_1031_154">
<rect width="256" height="256" fill="white"/>
</clipPath>
</defs>
</svg>
