<svg width="256" height="256" viewBox="0 0 256 256" fill="none" xmlns="http://www.w3.org/2000/svg">
<g clip-path="url(#clip0_1031_174)">
<path d="M188.441 46.6634C189.833 46.3311 193.585 46.5239 195.102 46.6203C198.895 46.9237 198.336 49.838 198.302 52.5622C198.116 66.9745 193.318 82.955 180.87 91.4802C172.513 97.1004 162.295 99.2427 152.385 97.4525C148.374 103.887 145.577 113.769 145.069 121.314C150.857 120.96 157.53 123.833 161.445 128.111C163.178 130.005 163.386 128.652 165.667 128.835C173.177 129.435 179.685 133.398 184.68 138.894C190.278 133.19 206.328 127.527 209.707 138.047C209.562 138.7 209.406 139.363 209.142 139.981C207.305 144.316 203.156 148.212 199.954 151.587C186.802 165.447 159.6 187.73 140.263 189.136C136.686 189.397 132.851 189.344 129.306 188.779C117.116 186.836 102.512 179.964 90.3073 184.769C91.7261 185.985 92.457 187.015 93.39 188.592C93.1248 189.315 92.8624 190.041 92.3777 190.649C90.8005 192.627 78.5442 203.165 76.5493 203.313C76.027 203.352 75.4987 203.118 75.1439 202.736C74.73 202.29 74.583 201.49 74.6102 200.892C74.6922 199.095 86.1717 190.587 88.0222 188.818C83.2162 183.384 78.6901 176.833 73.5654 171.165C69.1918 165.51 63.8828 159.374 59.2482 153.946C56.1922 157.399 49.4565 161.889 45.6164 164.792C44.2833 165.845 41.7816 163.138 42.7544 162.173C46.0338 158.92 55.5615 150.504 59.5944 149.221C61.8183 149.973 63.4124 151.673 64.9853 153.324C68.6097 150.49 72.4382 147.897 76.1384 145.14C79.992 142.262 83.5828 138.997 87.9986 136.988C93.3699 134.543 100.843 133.96 106.529 135.509C111.427 128.204 118.056 127.729 126.142 127.859C130.086 123.753 135.322 120.951 141.152 121.34C140.371 112.282 140.594 112.173 136.639 103.497C130.49 105.396 123.36 104.422 117.436 101.929C109.087 98.4591 104.353 91.3049 101.177 83.1832C100.014 80.2092 94.7661 63.6487 99.9225 63.0275C115.036 61.2067 134.962 68.4203 139.879 84.1879C141.248 88.5777 142.232 96.8159 140.088 101.016C140.753 102.314 141.431 103.438 142.133 104.694C142.622 105.567 142.531 106.031 143.241 107.028C143.691 106.961 143.621 106.458 143.77 105.769C144.552 102.164 147.576 98.0589 148.336 94.6221C148.734 92.8205 148.409 88.394 148.446 86.0682C148.509 77.1181 151.668 68.4657 157.384 61.5792C165.779 51.5873 175.775 47.7364 188.441 46.6634ZM94.2073 139.583C88.0999 140.923 83.3662 145.604 78.4509 149.18C74.8245 151.819 71.1455 154.524 67.3299 156.887C70.2537 159.711 86.221 178.562 87.5122 181.282C105.76 174.019 120.82 185.68 138.931 184.879C148.392 184.461 155.961 179.826 163.772 175.087C175.998 167.669 187.285 158.84 196.874 148.188C199.196 145.615 202.363 142.688 203.985 139.667C205.797 136.289 200.274 136.414 198.515 136.696C196.636 137.056 194.018 137.893 192.392 138.951C184.167 144.3 176.578 150.768 168.7 156.637C166.042 158.617 163.851 161.706 160.452 162.726C154.613 164.322 148.064 163.081 142.099 163.054C134.698 162.879 127.308 163.451 120.209 165.666C119.135 166.001 117.83 167.097 116.671 167.356C114.953 167.731 113.74 164.974 114.718 163.793C115.805 162.481 117.816 161.866 119.401 161.335C123.004 160.129 127.285 159.317 131.042 158.989C134.942 158.644 138.859 158.519 142.774 158.614C144.921 158.679 147.161 158.765 149.297 158.875C155.865 159.212 160.839 160.234 164.073 153.27C163.637 151.782 162.685 148.931 161.127 148.547C153.559 146.682 144.251 148.956 136.381 148.22C122.289 146.903 108.419 137.047 94.2073 139.583ZM101.879 67.1619C102.699 70.2264 102.809 73.0527 103.476 75.5823C105.681 83.9371 109.385 92.4166 117.23 96.8384C123.092 100.143 127.868 100.24 134.295 100.119C128.673 92.2065 122.545 86.2873 114.899 80.515C114.638 80.3178 114.323 79.1794 114.257 78.7934C114.798 78.1941 115.643 77.2894 116.493 77.3307C119.562 77.4796 125.798 83.4336 127.831 85.5204C130.536 88.2969 135.234 93.3856 137.212 96.3524C136.918 94.0853 136.878 91.8422 136.557 89.5993C134.392 74.5071 117.823 66.9201 104 67.2509C103.365 67.2661 102.504 67.2365 101.879 67.1619ZM167.811 151.632C171.696 148.213 176.953 144.517 181.191 141.427L181.024 141.32C179.796 140.514 178.092 138.826 176.789 137.888C169.684 132.77 167.964 133.565 160.367 133.595C155.633 128.596 152.537 125.895 145.229 125.53C144.405 125.488 141.731 125.609 141.176 125.536C137.59 126.078 134.185 126.605 131.408 129.209C130.252 130.293 129.228 131.576 127.717 132.148C126.566 132.582 125.145 132.243 123.9 132.238C118.091 132.216 115.12 133.141 110.767 136.84C117.337 137.366 126.205 142.253 133.162 143.358C141.998 144.762 150.095 143.273 158.85 143.614C163.69 143.569 167.484 146.689 167.811 151.632ZM191.693 50.8813C178.967 52.1925 169.794 54.0008 160.941 64.4882C155.452 70.9906 153.183 79.0819 152.479 87.6213C152.471 87.7257 152.545 88.0261 152.571 88.1299L152.858 88.1961C153.81 87.2226 154.67 85.4408 155.491 84.2415C161.304 75.7544 168.235 67.4449 177.763 63.0332C178.87 62.5208 180.655 62.3563 181.651 63.2637C182.815 64.3986 181.887 65.7119 180.843 66.3894C168.02 73.2067 162.503 81.7376 154.724 93.5343C179.87 95.9571 192.067 77.2299 193.923 54.9064C194.039 53.5235 194.1 52.1577 194.248 50.7764C193.771 50.7883 192.067 50.7999 191.693 50.8813Z" fill="#CCB161"/>
</g>
<defs>
<clipPath id="clip0_1031_174">
<rect width="256" height="256" fill="white"/>
</clipPath>
</defs>
</svg>
