<svg width="256" height="256" viewBox="0 0 256 256" fill="none" xmlns="http://www.w3.org/2000/svg">
<g clip-path="url(#clip0_1031_205)">
<path d="M127.24 54.7316C128.062 54.7081 128.664 55.0496 129.248 55.5979C135.324 61.2999 141.21 67.205 147.127 73.0672L167.295 92.8933L184.019 109.281C186.274 111.526 188.59 113.788 190.78 116.09C191.364 116.82 192.041 117.294 192.098 118.284C192.166 119.434 190.705 120.051 189.71 120.098C185.671 120.285 181.553 120.181 177.501 120.149C177.688 126.886 177.563 134.16 177.565 140.927L177.606 177.125C177.613 180.33 177.563 183.846 175.048 186.216C173.953 187.28 172.649 188.06 171.083 188.216C166.547 188.668 161.604 188.469 157.047 188.468L128.699 188.465L98.388 188.47C93.7122 188.471 88.3562 188.659 83.7445 188.211C82.1916 188.043 81.0095 187.248 79.9198 186.187C77.0203 183.365 77.7158 178.027 77.7245 174.166L77.7538 161.393C77.7606 147.682 77.6068 133.824 77.7602 120.129C74.165 120.334 70.1002 120.236 66.4771 120.176C62.525 120.11 62.9761 117.755 65.1215 115.549C70.6881 109.826 76.4718 104.375 82.1364 98.7667C91.5757 89.2513 101.108 79.8286 110.732 70.4997L121.307 60.1369C122.834 58.6553 125.568 55.9121 127.24 54.7316ZM69.8572 116.416C71.9614 116.374 79.3152 115.967 80.6935 116.758C81.7249 118.304 81.3362 132.913 81.3353 135.777L81.3295 168.4C81.3296 172.409 81.1151 177.695 81.6291 181.626C81.7702 182.706 83.2957 184.456 84.6339 184.597C89.0881 185.064 94.4749 184.878 98.9843 184.876L128.299 184.864L155.533 184.869C160.082 184.868 164.703 184.992 169.236 184.698C170.393 184.623 171.351 184.31 172.18 183.473C173.282 182.359 173.39 181.557 173.402 180.015C173.433 176.247 173.41 172.471 173.402 168.699L173.386 135.946C173.386 130.536 173.356 125.125 173.386 119.715C173.39 119.172 173.584 117.636 173.84 117.235C174.478 116.232 176.531 116.332 177.601 116.285C180.099 116.367 183.146 116.191 185.602 116.405C181.177 111.741 176.39 107.263 171.794 102.768L151.974 83.3411C149.659 81.0919 128.25 59.6141 127.534 59.4734C125.241 61.9807 121.894 64.9634 119.397 67.4017L104.406 82.142L69.8572 116.416Z" fill="#4A5E29"/>
<path d="M127.666 119.759C130.273 116.11 134.844 114.6 139.174 114.536C147.636 114.411 154.652 121.084 154.559 129.661C154.473 137.579 149.155 142.814 143.881 148.079L136.873 155.057C134.725 157.185 129.82 162.307 127.525 163.787C127.198 163.604 126.886 163.395 126.592 163.162C124.587 161.557 119.658 156.396 117.672 154.355C113.048 149.434 107.574 145.027 103.719 139.453C99.7896 133.772 99.4554 125.448 104.046 120.025C107.371 116.097 110.199 115.064 115.129 114.557C120.484 114.226 123.845 116.372 127.666 119.759ZM127.772 159.028C129.287 156.695 135.034 151.626 137.381 149.196C142.522 144.114 150.538 137.483 150.558 129.785C150.562 126.615 149.286 123.578 147.019 121.361C144.887 119.242 141.999 118.056 138.993 118.065C132.592 118.124 129.233 124.301 127.547 124.204C125.001 124.057 122.49 117.467 114.462 118.134C112.47 118.586 110.842 119.008 109.241 120.275C103.379 124.912 103.486 132.995 107.861 138.627C109.886 141.234 112.032 143.28 114.357 145.585C118.685 150.108 123.577 154.409 127.772 159.028Z" fill="#4A5E29"/>
</g>
<defs>
<clipPath id="clip0_1031_205">
<rect width="256" height="256" fill="white"/>
</clipPath>
</defs>
</svg>
