<svg width="256" height="256" viewBox="0 0 256 256" fill="none" xmlns="http://www.w3.org/2000/svg">
<g clip-path="url(#clip0_1031_222)">
<path d="M127.697 58.2476C139.325 57.2595 146.857 68.6381 139.107 78.322C142.1 78.8565 144.076 78.9944 147.212 79.7841C158.963 82.8194 169.64 89.0569 178.055 97.8018C189.531 109.729 197.188 129.851 196.857 146.312C199.53 146.419 202.394 147.027 204.045 148.968C210.748 156.847 204.697 166.821 194.59 165.637C193.652 165.527 191.262 165.624 190.371 165.618C190.784 169.44 190.889 173.739 187.946 176.695C184.734 179.925 180.881 179.45 176.622 179.447L166.71 179.427L130.107 179.428C125.676 179.287 120.48 179.428 115.977 179.433C102.774 179.447 89.5542 179.4 76.3544 179.472C65.9067 179.529 64.997 174.18 65.2864 165.595C61.2425 165.65 56.6617 166.159 53.3987 163.198C49.635 159.783 49.5059 152.932 52.9064 149.209C55.3477 146.537 57.8153 146.279 61.1983 146.094C61.2945 136.129 64.1665 124.95 68.3021 115.94C75.7513 99.6629 89.5167 87.1276 106.418 81.2304C108.868 80.3746 111.496 79.6748 114.032 79.1048C115.397 78.7981 117.776 78.6693 118.972 78.2266C119.107 77.6549 118.232 76.2947 117.903 75.692C117.22 74.4342 116.72 73.0469 116.585 71.6067C115.906 64.3418 120.867 59.109 127.697 58.2476ZM66.8546 146.39C69.2584 146.134 72.2903 146.25 74.7617 146.259L87.6524 146.293L130.393 146.291L171.339 146.288L183.776 146.268C186.116 146.254 189.171 146.126 191.422 146.309C190.967 144.054 190.963 141.94 190.692 139.689C190.458 137.751 190.079 135.396 189.647 133.475C185.796 116.421 178.244 102.913 163.572 93.1757C154.431 87.1008 143.78 83.687 132.81 83.3156C131.688 83.2732 129.578 83.1528 128.544 83.2094C109.914 84.2483 95.8942 89.2822 83.1537 103.674C72.0597 116.206 68.3937 130.144 66.8546 146.39ZM127.787 63.9194C125.664 64.6341 124.058 65.464 123.005 67.6166C122.233 69.1884 122.143 71.0093 122.759 72.6491C123.409 74.4157 124.754 75.8395 126.48 76.5904C127.289 76.9492 129.902 77.4254 130.583 77.1699C134.017 76.1294 135.813 74.4067 136.716 70.8718C135.541 65.6477 133.193 63.6477 127.787 63.9194ZM70.9765 165.612C71.1176 168.355 70.9035 170.662 72.2297 173.065C73.7476 173.633 74.7691 173.89 76.406 173.921C85.3486 174.093 94.3496 173.91 103.291 173.873L142.92 173.964L170.487 174.021C172.506 174.014 180.224 174.159 181.879 173.668C185.275 171.922 184.635 168.969 184.652 165.615L70.9765 165.612ZM59.975 151.935C58.9269 152.121 58.1242 152.42 57.2086 152.982C55.2986 157.165 56.537 159.633 61.2718 159.617C105.88 159.464 150.492 159.607 195.101 159.555C196.938 159.553 198.54 159.929 199.917 158.658C200.579 157.696 200.749 157.078 201.132 155.988C200.741 154.676 200.496 153.766 199.784 152.572C196.217 151.555 187.308 151.909 183.127 151.917L161.977 151.947L59.975 151.935Z" fill="#C6AC74"/>
<path d="M152.9 92.621C153.864 92.5484 154.754 92.7303 155.644 93.162C166.103 98.4028 175.208 108.314 179.809 119.048C180.902 121.597 183.187 126.633 179.706 128.004C178.326 128.2 177.147 128.066 176.579 126.654C174.368 121.133 172.578 116.352 168.808 111.545C165.466 107.234 161.462 103.48 156.945 100.421C155.893 99.7137 151.85 97.4657 151.241 96.5785C150.401 95.355 151.42 93.3812 152.9 92.621Z" fill="#C6AC74"/>
</g>
<defs>
<clipPath id="clip0_1031_222">
<rect width="256" height="256" fill="white"/>
</clipPath>
</defs>
</svg>
