<svg width="256" height="256" viewBox="0 0 256 256" fill="none" xmlns="http://www.w3.org/2000/svg">
<g clip-path="url(#clip0_1031_243)">
<path d="M156.708 82.0917C154.847 86.3359 152.41 86.9718 148.266 85.0527C145.071 83.573 141.606 80.2984 140.406 76.9766C139.606 74.7395 139.718 72.2782 140.716 70.1225C142.521 66.3141 146.661 63.8375 150.516 62.5003C154.371 61.1523 158.603 61.3898 162.284 63.1605C165.344 64.6576 167.705 66.8749 168.759 70.1755C170.49 75.605 169.686 82.726 167.273 87.8248C165.344 91.9031 162.187 95.4145 157.37 93.8785C164.381 99.4043 170.845 104.788 175.37 112.666C176.565 114.745 177.999 117.192 178.095 119.655C180.981 119.492 185.505 119.42 188.444 119.72C188.834 119.76 189.526 120.281 189.865 120.533C192.023 125.687 195.086 132.56 196.191 137.95C197.396 143.832 191.901 148.444 186.977 150.782L186.982 173.665C186.983 175.69 187.119 182.6 186.819 184.337C189.636 184.179 195.491 183.603 197.508 185.437C198.47 186.297 199.045 187.509 199.101 188.798C199.147 190.165 198.642 191.493 197.703 192.487C196.245 194.04 194.513 194.259 192.476 194.251C183.181 194.209 173.866 194.226 164.573 194.226L105.713 194.22L69.998 194.205C65.0967 194.183 60.2095 194.305 55.3054 194.209C50.2877 194.111 48.1098 188.7 51.668 185.277C51.8856 185.068 52.1081 184.867 52.335 184.668C54.9289 183.994 59.5206 184.217 62.3996 184.149C62.2309 181.245 62.3135 177.792 62.3164 174.829L62.3242 159.923L62.3247 141.426C62.3211 138.909 62.1902 135.828 62.2668 133.38C60.2887 132.683 58.2342 131.531 57.3095 129.556C55.9005 126.545 56.9648 122.027 58.0985 119.026C59.7065 114.769 62.3688 110.484 65.221 106.955C75.7339 93.9488 96.5683 79.9672 111.779 73.1467C116.229 71.1511 118.639 69.7082 123.517 71.561C131.827 74.7171 140.027 81.0125 147.2 86.1679C149.099 87.5133 150.961 88.9101 152.785 90.3565C153.157 90.6478 154.053 91.2633 154.313 91.5158C154.629 91.8611 154.625 91.9917 154.966 92.0202C154.963 91.4797 154.663 91.2075 154.322 90.7598C154.053 88.4145 157.417 86.8247 158.605 84.7921C159.272 83.6502 159.668 82.03 160.154 81.2109C158.917 81.4425 157.902 81.6627 156.708 82.0917ZM65.61 186.58C62.5267 187.899 54.4225 186.342 53.3479 188.165C53.3331 188.632 53.3782 189.878 53.6463 189.952C54.9872 190.321 60.2669 190.11 61.518 190.113L81.7273 190.128L134.005 190.125L175.649 190.127L188.718 190.122C190.362 190.122 196.203 190.847 196.138 188.531C195.806 187.951 195.277 187.555 194.63 187.39C192.429 186.826 184.949 188.112 183.92 186.254C183.616 185.703 183.631 184.818 183.609 184.202C183.396 178.181 183.59 172.088 183.591 166.058C183.594 161.176 183.38 156.22 183.544 151.347C183.56 150.834 183.587 150.257 183.757 149.768C184.829 146.698 194.413 145.877 192.867 137.862C191.923 132.975 188.798 127.536 187.27 122.684C185.305 122.72 176.982 123.192 175.921 122.16C175.121 121.384 174.817 120.074 174.479 119.045C174.179 118.134 173.922 117.161 173.531 116.287C172.169 113.233 169.891 110.193 167.746 107.626C166.818 106.515 165.63 105.543 164.576 104.545C163.771 103.784 163.032 102.949 162.207 102.208C155.779 96.4283 148.488 91.3152 141.43 86.3391C135.396 82.0848 129.139 77.502 122.287 74.6597C121.485 74.3267 120.328 73.7509 119.479 73.7066C119.262 73.6955 119.048 73.7182 118.835 73.7506C107.181 78.5402 96.9413 85.0433 86.7116 92.3609C76.7372 99.4958 67.0396 107.769 61.8964 119.199C60.7414 121.772 59.3892 125.568 60.3035 128.316C60.7621 129.72 64.3079 130.169 65.6018 130.978C65.9558 133.061 65.8177 138.88 65.8092 141.269L65.7658 160.011C65.8278 166.728 65.8261 173.445 65.7607 180.162C65.7291 182.09 65.9306 184.767 65.61 186.58ZM162.467 83.3321C161.827 85.1858 160.41 87.4432 158.999 88.8208C157.376 90.4039 155.669 90.5726 159.246 92.0052C164.619 90.0137 166.209 82.7808 166.622 77.6378C167.209 70.3593 163.024 64.1974 155.003 64.9828C150.047 65.44 142.809 68.4533 142.919 74.6128C142.963 77.0805 145.539 79.5041 147.271 81.0075C148.502 81.9675 151.764 84.3569 153.164 82.8962C153.908 82.1198 152.986 79.1335 154.775 79.0754C157.162 78.9977 158.737 78.6453 160.87 77.9151C163.149 77.135 163.236 81.887 162.467 83.3321Z" fill="#FEE477"/>
<path d="M102.692 149.022C104.08 148.955 105.559 148.935 106.938 148.962C112.949 149.083 120.06 147.966 124.108 153.593C125.736 155.857 125.977 159.097 125.535 161.785C124.984 165.133 122.594 167.379 119.948 169.203C120.378 170.364 122.04 172.635 122.787 173.924C124.045 176.027 125.306 178.141 126.542 180.258C127.284 181.531 129.469 182.633 128.573 184.136C128.111 184.545 127.729 184.636 127.074 184.62C124.708 184.56 122.188 184.727 119.846 184.443C119.603 184.416 119.203 184.022 119.036 183.859C117.625 181.896 116.696 180.053 115.519 177.95C115.151 177.294 114.75 176.845 114.375 176.226C113.949 175.522 113.769 174.527 113.189 173.931L112.994 173.982C112.771 174.865 113.092 179.377 113.135 180.497C113.184 181.751 114.856 182.665 114.628 184.01C113.824 184.899 110.561 184.632 109.341 184.573C107.564 184.489 103.378 184.948 102.012 183.994C101.429 182.609 103.846 181.708 103.79 179.363C103.703 173.27 103.681 167.176 103.725 161.083C103.726 158.687 103.732 156.176 103.763 153.771C103.786 152.01 101.912 150.907 101.863 149.955C102.056 149.445 102.257 149.356 102.692 149.022ZM105.534 182.249C107.163 182.127 109.554 182.043 111.164 182.236C110.419 180.12 110.557 173.962 110.761 171.513C112.007 170.194 112.669 169.532 114.163 171.174C116.292 173.516 117.441 177.324 119.387 179.676C121.21 183.366 121.568 181.839 125.082 182.262C123.827 180.606 117.423 170.388 117.602 169.007C117.756 167.819 120.485 166.118 121.302 165.101C123.635 162.199 124.212 157.868 122.112 154.677C120.876 152.8 119.053 151.801 116.89 151.368C113.42 150.675 109.124 151.027 105.569 151.056C105.929 152.039 106.235 153.008 106.251 154.072C106.378 162.52 106.449 171.021 106.239 179.466C106.215 180.403 105.922 181.401 105.534 182.249Z" fill="#FEE477"/>
<path d="M112.101 152.413C117.749 152.014 120.917 156.18 120.034 161.608C119.601 164.269 118.393 165.559 116.296 167.081C115.051 167.728 113.007 169.095 111.582 168.74C111.311 168.672 111.126 168.63 110.999 168.359C110.461 167.201 110.349 154.246 110.863 153.252C111.114 152.764 111.601 152.549 112.101 152.413ZM112.969 166.899C113.786 166.385 115.059 165.634 115.775 165.045C118.944 161.618 118.55 154.163 112.947 154.273C112.989 156.985 113.013 159.697 113.019 162.408C113.024 163.751 113.112 165.626 112.969 166.899Z" fill="#FEE477"/>
<path d="M117.792 94.3706C135.017 93.2791 136.009 125.786 118.442 127.572C101.748 128.128 100.434 100.654 113.827 95.1524C115.2 94.5884 116.337 94.5075 117.792 94.3706ZM119.053 124.047C120.32 124.022 123.062 122.407 123.857 121.468C128.459 116.025 129.262 105.295 123.899 100.07C121.859 98.0816 119.847 97.8454 117.261 97.8638C114.322 98.566 112.236 99.7906 110.631 102.467C107.203 108.188 107.252 119.22 113.509 123.039C115.07 123.992 117.275 124.414 119.053 124.047Z" fill="#FEE477"/>
<path d="M118.802 81.3945C120.583 81.417 126.87 85.0298 128.838 86.1512C134.323 89.2767 140.084 92.882 145.265 96.5571C153.359 102.3 165.344 110.798 168.541 120.594C170.207 125.706 169.261 132.563 166.687 137.273C167.631 136.361 168.53 135.139 169.452 134.15C172.3 131.105 175.144 128.187 179.115 126.683C182.445 125.422 185.646 126.743 186.835 130.161C187.065 130.817 187.373 132.358 186.991 133C186.694 133.5 186.065 134.053 185.498 134.238C183.746 133.924 184.015 130.44 182.606 129.716C177.806 127.247 168.26 142.148 165.498 142.353C164.991 142.393 164.489 142.229 164.104 141.897C162.222 140.246 164.88 133.619 165.422 131.175C165.829 129.421 166.014 127.623 165.974 125.823C165.711 117.149 158.561 111.002 152.255 105.962C151.641 105.471 151.163 105.176 150.569 104.616C148.573 102.929 144.116 99.9393 141.954 98.4821C136.509 94.7661 130.897 91.2979 125.139 88.088C123.296 87.0646 120.824 85.6508 118.931 84.7917C115.404 86.1056 109.372 89.4451 106.099 91.363C93.2555 98.8908 78.6996 107.093 71.318 120.561C69.9805 123.002 69.5973 124.969 67.5474 126.972C66.7299 126.598 65.7419 126.113 65.5814 125.188C65.2298 123.159 67.6579 119.279 68.6389 117.649C76.6688 104.308 90.6382 96.0051 103.803 88.4802C107.171 86.5657 115.178 82.3378 118.802 81.3945Z" fill="#FEE477"/>
<path d="M133.322 149.019C135.932 148.867 141.478 148.755 144.007 149.407C145.444 149.777 142.74 152.944 142.724 154.129C142.689 156.715 142.708 159.411 142.705 162.052L142.697 172.527C142.696 175.639 142.498 178.697 143.147 181.723C143.857 182.305 144.68 182.738 144.53 183.717C144.196 184.218 143.969 184.283 143.438 184.534C142.09 184.69 140.413 184.573 139.025 184.559C137.487 184.543 135.631 184.699 134.123 184.521C130.853 184.136 132.448 182.711 133.828 181.36C134.217 179.268 134.114 175.563 134.113 173.312L134.103 161.58L134.116 155.9C134.12 155.164 134.173 154.277 134.164 153.539C134.15 152.13 132.301 150.815 132.292 149.962C132.576 149.434 132.824 149.329 133.322 149.019ZM140.775 182.093C140.306 181.134 140.172 180.191 140.078 179.138C139.78 175.796 139.682 154.11 140.513 151.95C140.609 151.703 140.774 151.481 140.941 151.28L140.888 151.086C139.508 151.084 137.12 151.184 135.878 151.022C137.972 154.611 136.279 173.581 136.817 178.682C136.888 179.346 136.585 181.544 136.063 182.052L136.116 182.243C137.587 182.202 139.22 182.121 140.672 182.226L140.775 182.093Z" fill="#FEE477"/>
<path d="M86.257 149.5C87.9301 149.548 96.0879 149.355 96.9687 149.666C98.1063 151.033 95.7356 152.655 95.7189 154.221C95.707 155.333 95.7192 156.443 95.7289 157.556L95.7574 164.099L95.7594 173.284C95.7516 176.264 95.6188 178.737 96.0934 181.697C96.9264 182.32 97.9704 183.03 97.4868 184.15C97.0786 184.535 96.7668 184.548 96.2249 184.655C93.1673 184.263 89.4409 184.771 86.3341 184.51C85.8 184.466 85.701 184.263 85.433 183.904C85.2144 182.73 86.6082 181.598 87.1029 180.587C87.3445 180.093 87.4956 154.169 87.0313 152.597C86.2727 151.728 85.3988 151.34 85.375 150.235C85.6275 149.766 85.7673 149.744 86.257 149.5ZM94.1619 182.232C93.8338 181.829 93.3456 181.29 93.2831 180.79C93.0811 179.175 93.1206 177.43 93.1262 175.804L93.1494 168.307L93.1373 158.159C93.144 155.374 92.8988 154.283 93.7877 151.588C92.3602 151.564 90.3346 151.607 88.9783 151.475C89.3998 152.312 89.613 153.025 89.6473 153.972C89.9524 162.43 89.6549 170.923 89.7654 179.389C89.7731 179.974 89.3 181.592 89.1655 182.268L89.3201 182.245C90.358 182.104 93.0352 182.189 94.1619 182.232Z" fill="#FEE477"/>
<path d="M167.02 149.018C169.82 148.937 172.699 148.951 175.503 148.98C176.356 148.989 177.117 149.118 177.634 149.824C177.827 151.153 176.293 152.058 176.091 153.241C175.963 154.137 175.847 155.154 175.855 156.06C175.908 162.939 176.096 169.83 175.849 176.707C175.811 177.779 175.778 179.071 175.963 180.122C176.34 182.263 179.745 183.186 176.553 184.673C174.526 184.469 166.795 185.108 165.653 183.919C165.514 183.774 165.423 183.599 165.43 183.396C165.458 182.723 166.701 181.744 167.175 181.286C168.774 175.517 166.906 161.874 167.623 155.391C167.896 152.918 166.945 152.222 165.718 150.276C165.555 150.018 165.684 149.837 165.786 149.599C166.181 149.235 166.515 149.174 167.02 149.018ZM169.241 151.052C169.387 151.405 169.526 151.76 169.682 152.109C170.014 152.849 169.998 153.705 170.029 154.504C170.132 157.15 169.999 159.818 170.008 162.467C170.018 164.998 170.404 179.572 169.854 181.076C169.705 181.48 169.479 181.868 169.27 182.245C170.645 182.213 172.229 182.143 173.581 182.21L173.847 182.273C173.878 182.168 173.471 178.795 173.458 178.245C173.346 173.525 173.44 168.785 173.441 164.064C173.443 160.391 173.002 154.509 173.997 151.028C172.426 151.074 170.805 151.151 169.241 151.052Z" fill="#FEE477"/>
<path d="M154.325 90.7578C154.666 91.2055 154.966 91.4777 154.969 92.0182C154.628 91.9897 154.632 91.8591 154.316 91.5138L154.325 90.7578Z" fill="#FEE477" fill-opacity="0.0392157"/>
</g>
<defs>
<clipPath id="clip0_1031_243">
<rect width="256" height="256" fill="white"/>
</clipPath>
</defs>
</svg>
