<svg width="256" height="256" viewBox="0 0 256 256" fill="none" xmlns="http://www.w3.org/2000/svg">
<g clip-path="url(#clip0_1031_269)">
<path d="M125.837 54.3278C140.457 52.8759 153.024 65.2197 160.244 76.6233C177.364 103.663 182.525 142.425 160.706 168.447C159.101 170.362 157.099 172.466 155.019 173.825C156.414 173.146 161.621 172.059 161.928 171.416C165.452 164.023 170.466 158.711 179.3 156.742C180.452 157.054 181.418 157.577 181.731 158.803C182.354 161.244 177.995 161.834 176.515 162.501C172.572 164.278 169.036 167.561 166.914 171.273C169.476 170.428 169.798 169.771 172.023 168.316C174.52 166.671 177.429 166.392 180.24 165.856C183.276 165.275 186.383 167.27 183.85 170.17C181.992 170.685 176.748 171.346 174.851 171.275L174.996 171.391C179.886 175.341 175.464 180.498 171.589 182.996C159.601 190.729 145.361 191.712 131.593 192.892C127.448 192.915 123.539 192.921 119.412 192.42C117.964 192.265 116.485 192.38 115.042 192.161C104.052 190.498 91.4729 188.43 82.458 181.505C79.4221 179.172 77.3316 175.362 80.2644 172.041C79.5555 171.822 78.7289 171.549 77.9798 171.445C76.0548 171.153 73.4942 171.541 71.85 170.35C70.3582 169.27 71.2746 167.766 72.0916 166.691C72.5326 166.581 72.9794 166.494 73.4301 166.433C78.3951 165.771 82.6848 167.99 86.4585 170.859C87.3074 170.914 88.3127 171.122 89.1629 171.273C86.3398 167.99 85.1948 166.302 81.3107 163.752C79.0741 162.284 75.7224 162.1 74.2124 160.201C73.9017 159.81 74.2898 158.726 74.4581 158.214C74.9177 157.752 75.2663 157.515 75.7966 157.134C83.0841 157.541 92.1315 165.116 94.2704 171.931C96.6374 172.305 98.045 172.798 100.31 173.548C89.4585 164.418 82.319 148.659 80.9188 134.563C78.7135 112.363 86.0105 88.3807 99.9347 70.9669C106.703 62.5028 114.653 55.4286 125.837 54.3278ZM129.295 179.5C139.085 179.512 147.25 175.938 154.308 168.743C180.759 141.784 172.15 95.032 148.452 69.2891C143.552 63.9663 134.43 58.3475 126.857 59.3576C125.742 59.4273 124.208 59.5014 123.152 59.7451C116.4 61.3033 110.426 66.0506 105.933 71.1447C91.5418 87.6842 84.175 109.188 85.4014 131.078C86.3702 146.095 92.5643 160.872 103.994 170.903C109.279 175.617 115.898 178.572 122.935 179.363C124.7 179.544 127.473 179.518 129.295 179.5ZM85.8181 178.395C99.7027 187.333 123.379 188.976 139.632 187.521C144.058 187.097 148.454 186.407 152.797 185.455C158.588 184.209 170.012 180.559 172.792 175.042C172.451 175.024 171.343 174.946 171.074 174.997C168.212 175.112 162.417 176.395 159.875 177.212C144.22 182.237 129.896 186.959 113.377 182.222C109.557 181.127 85.7082 173.368 83.5168 175.562C83.3883 176.505 85.0923 177.864 85.8181 178.395Z" fill="#CDAF64"/>
<path d="M134.873 69.5158C135.296 69.4864 135.707 69.4733 136.127 69.5443C140.823 70.3368 146.164 76.6251 148.833 80.3578C150.834 83.1558 157.838 95.4956 157.176 98.4427C157.012 99.1714 156.319 99.5965 155.738 99.9744C154.914 100.094 153.7 100.337 153.204 99.4952C152.224 97.8341 151.689 95.7825 150.957 93.9993C150.057 91.8276 149.024 89.7131 147.866 87.6674C145.327 83.1262 142.46 79.1758 138.267 75.9863C137.05 74.9022 134.676 74.0896 133.663 72.8642C132.633 71.6176 133.857 70.1301 134.873 69.5158Z" fill="#CDAF64"/>
</g>
<defs>
<clipPath id="clip0_1031_269">
<rect width="256" height="256" fill="white"/>
</clipPath>
</defs>
</svg>
