<svg width="256" height="256" viewBox="0 0 256 256" fill="none" xmlns="http://www.w3.org/2000/svg">
<g clip-path="url(#clip0_1031_297)">
<path d="M163.652 41.0741C165.662 40.8996 168.365 41.2092 169.598 42.9274C171.076 45.2306 170.786 44.6975 173.167 44.1891C180.37 42.651 178.709 49.6814 180.688 52.3699C183.966 56.8213 186.614 58.988 181.789 63.744C184.662 67.3219 191.012 68.2491 193.053 73.3219C194.159 76.0732 192.867 77.1438 190.582 78.1864C187.447 77.6798 185.164 77.2581 181.979 77.4701C183.505 79.904 185.018 86.2894 184.308 89.2395C183.872 91.0502 182.724 92.6086 181.125 93.5633C178.546 95.1032 176.227 94.7187 173.539 94.0431C174.239 95.6218 174.65 97.6384 175.242 99.311C177.704 106.268 179.355 112.478 179.867 119.869C181.517 142.537 167.078 162.202 146.583 170.65C140.702 173.076 138.596 175.09 134.283 179.672C135.303 183.343 136.737 188.024 137.511 191.627C139.293 191.573 148.281 192.092 148.839 192.965C152.049 197.986 142.353 195.851 141.431 195.693C142.743 196.965 144.894 198.36 145.509 199.871C145.513 200.289 145.52 200.66 145.279 201.033C143.522 203.761 141.284 201.184 139.693 199.838C138.637 199.01 136.949 197.181 135.657 196.879C133.513 196.376 130.624 196.829 128.666 195.706C127.79 195.204 128.002 193.937 128.667 193.344C129.819 192.315 131.841 192.327 133.296 192.3C132.47 189.476 130.993 184.635 130.736 181.834C127.925 183.67 124.76 183.776 121.522 184.065C121.648 186.441 121.617 188.824 121.947 191.183C122.095 192.245 122.226 193.309 122.285 194.379C124.692 195.17 130.887 198.011 132.348 199.786C132.792 205.657 126.541 201.19 124.205 199.783C124.388 200.068 125.872 202.142 126.048 202.298C127.696 203.77 126.484 206.934 124.486 206.189C122.424 205.419 120.58 201.768 119.526 199.772C119.391 199.371 119.28 199.143 119.092 198.762C117.664 198.498 112.971 203.448 111.288 202.816C105.418 200.609 116.633 194.902 118.347 193.955C117.328 191.876 117.209 185.735 117.172 183.237C113.637 181.62 110.639 179.753 108.797 176.245C106.584 172.032 102.879 171.196 98.8856 168.943C92.7031 165.454 87.212 160.862 82.6837 155.395C77.3896 148.941 71.1001 136.86 71.9465 128.41C66.4807 125.254 57.8679 117.743 65.2317 111.64C60.0763 106.959 57.6218 98.2305 65.5801 94.647C61.8619 88.7117 63.1898 75.5525 73.2815 78.4593C89.3034 83.0739 91.4488 102.945 108.528 106.157C113.877 107.163 117.383 107.031 122.465 105.128C125.658 103.952 128.516 102.013 130.788 99.4797C136.634 93.0648 137.31 86.4155 139.342 78.3784C141.41 70.2001 145.505 62.2831 152.8 57.652C152.687 57.5787 152.577 57.502 152.47 57.4217C149.222 55.0347 147.258 51.0198 149.024 47.1089C150.772 43.2377 155.633 43.1653 158.657 45.4733C160.071 42.9712 160.873 41.9146 163.652 41.0741ZM85.4767 151.863C89.7506 157.255 95.0397 161.757 101.045 165.114C102.975 166.187 106.985 168.031 108.469 169.242C112.821 172.79 113.719 178.695 120.537 179.645C124.457 180.193 127.916 179.113 130.932 176.635C133.427 174.697 135.665 171.638 138.336 169.974C142.646 167.292 147.372 165.54 151.792 162.974C170.38 152.185 179.575 131.634 174.224 110.633C171.56 100.176 163.896 85.3641 173.79 76.4592C177.651 73.009 183.519 73.3341 188.372 73.3508C185.777 71.3458 182.802 70.3737 180.396 68.1947C178.762 66.7146 178.02 64.4219 176.874 62.7569C174.593 59.4424 168.259 57.7573 164.46 57.9672C157.066 59.3391 153.068 61.4853 148.639 67.8419C144.395 73.9342 143.287 80.4713 141.707 87.4559C139.152 98.7536 131.23 108.333 119.504 110.477C109.432 112.739 98.0135 108.383 91.2309 100.775C85.6827 94.5514 81.757 86.255 73.3877 83.0814C72.2792 82.6611 69.559 81.6119 68.8123 83.3109C67.8235 85.5616 67.7574 88.6508 68.4564 90.9571C69.0767 93.3362 72.3741 96.7443 71.6622 98.5396C70.6631 99.8459 68.2548 98.9667 66.9842 98.525C65.8373 99.2959 65.0479 99.8008 64.6695 101.343C64.1439 103.486 65.5933 104.969 66.211 106.511C66.9366 108.322 72.0879 111.032 71.291 112.364C69.7753 114.898 65.1735 114.277 67.4694 118.985C68.9868 122.386 74.1349 123.671 75.779 126.566C76.3001 127.483 76.2293 131.242 76.4897 132.679C77.5736 138.663 80.0308 144.318 83.4964 149.315C84.0198 150.07 84.8534 151.296 85.4767 151.863ZM170.991 54.429C173.061 55.043 174.56 55.7809 176.453 56.8238C177.435 57.3643 179.096 59.2092 179.908 59.2942C180.72 58.0443 177.729 55.5707 176.93 54.4883C175.768 52.9155 175.838 49.2843 174.691 48.2856C173.068 47.8156 169.943 50.2622 168.93 49.6656C167.4 48.7656 167.222 45.5853 164.734 44.7767C164.134 45.169 163.857 45.3645 163.339 45.8825C162.203 47.0165 161.163 50.3596 159.083 49.8759C157.345 49.4716 153.446 46.1741 152.567 50.0115C152.096 52.0693 155.135 54.3826 156.791 55.4419C161.139 53.3846 166.369 53.3032 170.991 54.429ZM176.104 90.4069C178.817 90.5021 180.315 89.6571 180.431 86.7177C180.506 84.8211 179.142 79.7561 177.905 78.3774C175.777 80.3352 174.302 81.8899 173.449 84.7263C172.558 87.6907 172.787 89.6477 176.104 90.4069Z" fill="#C9AD61"/>
<path d="M148.345 121.453C150.038 121.474 151.417 122.052 151.436 124.026C151.498 130.607 149.403 138.049 145.4 143.326C140.678 149.648 133.626 153.822 125.812 154.92C114.823 156.403 104.375 153.092 95.6256 146.452C94.3854 145.437 92.1647 143.425 93.919 141.758C95.904 140.839 100.07 144.298 101.859 145.427C118.13 155.688 140.264 151.835 146.123 131.8C147.035 128.682 146.726 125.708 147.413 122.614C147.496 122.236 147.925 121.821 148.207 121.573L148.345 121.453Z" fill="#C9AD61"/>
<path d="M91.8292 127.783C93.9752 127.434 96.9598 130.766 98.6791 131.933C101.011 133.517 103.342 135.018 105.9 136.227C108.742 137.579 111.724 138.614 114.793 139.312C116.521 139.688 120.285 139.807 121.233 141.334C121.814 142.269 121.265 143.722 120.236 144.234C119.864 144.315 119.485 144.359 119.105 144.365C111.01 144.475 98.4597 138.024 92.4455 132.546C90.7681 131.017 89.9292 129.509 91.8292 127.783Z" fill="#C9AD61"/>
<path d="M166.16 63.1312C168.941 62.3067 171.87 63.8586 172.75 66.6226C173.63 69.3863 172.136 72.346 169.39 73.2805C167.565 73.9017 165.546 73.4879 164.112 72.1985C162.679 70.9092 162.054 68.9456 162.479 67.0648C162.903 65.184 164.311 63.6795 166.16 63.1312ZM168.307 70.4168C170.894 68.8758 169.792 66.1805 166.745 66.1818C164.839 67.7936 165.433 70.8055 168.307 70.4168Z" fill="#C9AD61"/>
</g>
<defs>
<clipPath id="clip0_1031_297">
<rect width="256" height="256" fill="white"/>
</clipPath>
</defs>
</svg>
