<svg width="256" height="256" viewBox="0 0 256 256" fill="none" xmlns="http://www.w3.org/2000/svg">
<g clip-path="url(#clip0_1031_339)">
<path d="M170.509 37.4258C171.189 37.4409 171.306 37.4341 171.949 37.6987C173.33 38.9614 172.796 42.2376 172.801 44.0634L172.851 55.9146C172.848 74.7255 170.767 86.2105 157.155 100.881C153.023 105.334 149.834 107.541 146.117 112.743C143.25 116.814 140.68 121.086 138.425 125.525C136.668 128.968 135.215 132.29 133.249 135.634C134.885 134.273 138.69 131.439 139.591 129.966C146.146 119.24 148.735 108.334 160.422 101.318C168.104 96.7062 177.377 95.3614 185.139 90.8362C186.846 89.841 190.083 87.4934 192.102 87.8621C193.851 88.4467 193.098 90.8806 192.721 92.0844C187.734 108.023 177.882 119.995 162.053 126.016C152.99 129.817 139.979 132.922 133.319 140.522C123.694 151.503 117.186 169.42 112.666 183.064C115.486 179.432 118.416 177.645 121.207 174.268C122.515 172.686 124.456 169.171 125.526 167.225C127.829 163.041 129.677 160.304 132.695 156.676C143.85 143.269 160.343 141.515 175.487 135.132C177.96 134.091 180.867 132.813 183.262 131.557C185.798 130.228 187.899 128.827 190.598 127.689C191.507 128.163 192.498 128.717 192.366 129.969C191.286 140.247 187.39 151.056 181.107 159.251C172.03 171.088 157.431 175.551 143.193 176.826C136.073 177.511 127.484 177.027 120.921 180.474C111.943 186.1 107.123 198.586 105.365 208.61C105.025 210.555 104.711 215.911 103.65 217.258C103.347 217.39 103.055 217.502 102.724 217.53C102.207 217.574 101.758 217.553 101.361 217.176C98.9612 214.901 103.578 199.857 104.116 196.35C104.47 194.045 104.414 191.682 104.241 189.364C103.633 181.244 101.627 177.787 95.5849 172.603C93.5852 170.619 88.4714 166.751 85.9823 164.696C76.2578 156.671 69.983 147.575 65.8034 135.604C63.8683 129.463 61.5296 121.174 62.8512 114.827C63.714 110.682 70.5933 120.189 71.3598 120.99C82.5054 132.637 96.2811 138.075 102.938 153.703C104.775 157.927 105.865 162.437 106.161 167.033C106.432 170.963 106.094 175.308 106.446 179.257C106.688 181.968 107.471 184.792 108.155 187.435C108.687 183.181 110.92 175.049 112.773 171.082C117.798 160.327 119.739 148.971 114.347 137.87C112.905 134.9 108.531 130.246 105.982 128.015C94.6499 118.094 88.4316 106.897 88.6247 91.5107C88.8431 88.19 87.9089 83.0903 89.6427 80.1677C90.5518 79.1446 92.5481 80.0443 93.2925 80.5652C107.436 90.4628 118.955 105.913 119.154 123.776C119.196 127.472 118.512 132.585 118.88 135.895C119.542 141.851 121.489 145.716 120.948 152.144C121.72 150.996 122.911 148.592 123.573 147.313C125.558 143.451 127.469 139.55 129.306 135.615C132.332 129.2 135.673 122.483 134.482 115.077C134.074 112.54 131.657 109.933 129.978 108.053C122.071 99.1962 117.682 91.7619 118.036 79.475C118.197 72.0282 120.061 65.0611 122.907 58.2215C125.104 52.9401 127.432 51.3047 129.855 57.8482C132.416 64.7599 136.622 70.8593 139.411 77.6661C142.891 86.2348 143.711 95.6523 141.765 104.694C141.021 108.08 140.069 109.917 138.939 113.076C138.61 113.998 138.383 116.943 138.212 118.154C140.737 113.796 144.453 109.228 146.112 104.58C147.668 100.22 147.662 94.4317 147.581 89.785C147.392 78.897 147.992 68.6532 152.821 58.6265C155.624 52.8062 164.67 39.4942 170.509 37.4258ZM128.686 168.379C130.648 166.828 132.439 165.211 134.455 163.695C143.965 156.545 155.308 152.561 166.917 150.424C168.364 150.157 170.595 150.519 170.386 152.391C169.316 153.996 166.711 154.322 164.883 154.693C146.806 158.665 140.541 163.324 126.895 174.615C132.154 173.576 136.93 173.803 142.23 173.317C157.002 171.963 170.99 167.597 179.687 154.628C184.785 147.026 185.844 141.759 188.027 133.429L187.765 133.214C172.063 143.528 149.961 143.54 136.766 157.874C133.834 161.059 131.19 164.831 128.686 168.379ZM97.8653 169.738C94.6493 163.771 91.5248 157.601 87.2856 152.281C86.171 150.883 84.2505 149.304 84.5331 147.376C84.8401 146.939 84.9822 146.704 85.5569 146.643C88.0458 146.374 88.873 148.232 90.0245 149.689C93.605 153.862 97.5077 160.718 99.8955 165.748C100.941 167.95 101.751 170.567 102.849 172.766C101.503 148.389 91.1256 142.345 73.5954 128.41C72.4123 127.469 66.7375 121.301 66.094 121.119C66.5747 122.843 66.7855 124.519 67.1545 126.264C69.45 137.115 74.7367 148.522 82.5502 156.493C87.115 161.15 92.8231 165.574 97.8653 169.738ZM151.401 91.426C152.565 89.3844 153.43 86.9263 154.347 84.7541C156.396 79.9004 157.551 74.7849 159.195 69.8086C159.551 68.7328 160.903 68.3183 161.905 68.8216C163.956 70.0605 161.944 74.329 161.501 76.0752C161.345 76.6901 161.001 77.6678 160.791 78.1938C157.803 87.9994 154.007 93.7414 150.216 102.918C165.318 86.4753 169.011 78.8582 168.952 56.3452L168.92 47.1714C168.916 46.3821 169.03 44.0997 168.921 43.4753C166.308 45.7743 163.843 48.8012 161.788 51.5239C155.103 60.381 152.14 69.4003 151.675 80.4343C151.522 84.0674 151.64 87.8004 151.401 91.426ZM126.3 59.8291C122.449 70.5499 119.743 83.0832 124.689 94.0167C126.871 98.8415 130.524 102.411 133.595 106.51C132.254 100.186 131.762 94.9647 128.602 89.1231C127.459 87.0087 126.97 85.5 129.666 84.6284C131.089 85.1088 131.749 86.3651 132.384 87.7312C135.195 93.7745 136.863 100.678 136.974 107.319C138.573 102.645 138.833 98.2142 138.807 93.2388C138.756 83.2306 133.674 74.6973 129.225 66.0883C128.687 65.0467 126.836 60.2783 126.3 59.8291ZM160.415 115.704C155.825 118.059 151.569 120.733 148.072 124.598C146.756 126.053 145.573 127.681 144.287 129.165C150.959 125.782 157.567 123.968 164.377 120.943C174.877 116.279 184.543 104.698 188.13 93.8941L188.164 93.7903C188.093 93.7279 187.987 93.6144 187.912 93.5938C184.93 95.5421 179.414 97.915 176.213 98.9563C166.806 102.016 159.131 104.712 153.328 113.366C152.375 114.787 151.096 116.338 150.189 117.899C155.313 113.668 161.024 110.788 167.214 108.447C170.912 107.049 171.917 110.444 169.088 111.761C166.168 113.122 163.287 114.146 160.415 115.704ZM92.4169 84.6588C92.4857 110.462 96.5491 113.543 113.9 130.801C110.86 123.811 107.559 114.398 103.004 108.162C102.752 107.686 102.628 107.336 102.794 106.789C102.945 106.292 103.281 105.911 103.748 105.685C104.238 105.448 104.857 105.453 105.363 105.646C107.563 106.482 112.185 116.687 113.231 119.184C114.056 121.153 114.707 123.277 115.67 125.174C115.414 122.027 114.908 117.923 114.138 114.875C111.442 104.207 104.753 94.9099 96.5405 87.7459C95.7818 87.084 93.242 84.9997 92.4169 84.6588Z" fill="#C3B281"/>
</g>
<defs>
<clipPath id="clip0_1031_339">
<rect width="256" height="256" fill="white"/>
</clipPath>
</defs>
</svg>
