<svg width="256" height="256" viewBox="0 0 256 256" fill="none" xmlns="http://www.w3.org/2000/svg">
<g clip-path="url(#clip0_1031_317)">
<path d="M191.747 50.3094C192.516 50.2853 193.239 50.8224 193.92 51.2248C193.948 51.2912 193.974 51.3577 194.001 51.4244C194.743 53.2837 195.158 59.9917 195.369 62.2104C199.377 104.237 187.478 155.76 143.841 172.52C131.535 177.247 117.958 179.213 104.778 179.083C100.009 179.037 93.4148 178.776 88.9915 176.868C86.1695 183.973 81.8785 191.26 79.0523 198.478C77.9698 201.243 76.2736 202.381 74.0168 199.775C73.6227 196.495 82.3557 179.448 84.3344 175.535C81.5423 171.949 79.9174 166.795 78.6201 162.451C75.112 150.703 74.8441 138.855 78.4468 127.172C85.5594 104.107 103.198 87.8849 125.314 79.321C134.243 75.7516 142.43 73.383 151.499 70.3774C157.18 68.4592 162.8 66.3666 168.351 64.1022C174.909 61.3859 180.907 57.9241 186.632 53.7513C188.282 52.5495 189.942 51.251 191.747 50.3094ZM87.0858 170.939C89.272 165.678 93.9939 158.823 97.4485 154.346C106.988 141.975 117.919 130.898 129.785 120.759C136.256 115.23 142.898 109.769 149.146 103.986C152.363 101.009 155.597 97.4907 158.658 94.3353C160.912 92.0117 162.743 89.14 165.177 86.9078C167.23 85.6157 169.031 87.1085 168.539 89.2374C168.328 90.1516 166.719 92.1151 166.09 92.8977C150.987 111.696 130.237 124.526 114.217 142.503C105.517 152.266 97.1884 161.342 91.1441 173.082C93.7008 173.589 96.2836 174.099 98.8723 174.363C112.039 175.705 129.815 173.449 142.147 168.617C147.033 166.686 151.693 164.226 156.045 161.283C174.746 148.781 184.177 127.481 188.407 106.083C191.255 91.8994 191.995 77.374 190.603 62.9749C190.542 62.2807 190.045 57.4546 189.835 57.1208C185.521 60.8136 179.536 64.0304 174.469 66.5228C149.547 78.7816 120 80.5641 99.6067 101.231C89.0423 111.937 82.4414 123.926 81.2203 139.183C80.2965 150.103 82.3223 161.07 87.0858 170.939Z" fill="#CDB371"/>
<path d="M175.037 129.605C175.917 129.787 176.479 129.804 176.916 130.67C176.965 131.11 176.945 131.555 176.73 131.954C169.319 145.695 158.707 158.01 144.574 165.088C141.727 166.515 138.597 167.731 135.626 168.938C134.54 168.824 133.999 168.171 133.883 167.113C133.969 166.843 134.093 166.327 134.387 166.221C149.083 160.917 160.683 150.908 169.374 138.056C170.923 135.766 173.194 131.28 175.037 129.605Z" fill="#CDB371"/>
<path d="M108.871 96.3711C110.308 96.5462 111.027 98.1154 110.253 98.8946C107.324 101.843 104.224 104.537 101.445 107.68C94.0204 115.96 88.9493 126.077 86.7593 136.98C86.4374 137.364 85.8804 137.893 85.5117 138.264C82.2537 137.412 83.9514 134.426 84.5317 132.085C87.3398 120.76 93.6765 110.274 102.04 102.182C103.922 100.362 106.585 97.6641 108.871 96.3711Z" fill="#CDB371"/>
</g>
<defs>
<clipPath id="clip0_1031_317">
<rect width="256" height="256" fill="white"/>
</clipPath>
</defs>
</svg>
