<svg width="256" height="256" viewBox="0 0 256 256" fill="none" xmlns="http://www.w3.org/2000/svg">
<g clip-path="url(#clip0_1031_356)">
<g clip-path="url(#clip1_1031_356)">
<path d="M123.865 47.5586C126.95 47.6562 130.026 47.4416 133.099 47.709C158.373 49.9304 174.972 72.4699 171.657 97.4125C168.3 122.669 153.911 146.456 141.306 168.168C139.04 172.073 134.557 179.268 131.296 181.935C127.63 184.068 125.338 181.177 123.163 178.423C120.836 175.476 118.725 172.11 116.686 168.948C110.087 158.827 103.976 148.397 98.3708 137.694C92.1176 125.767 85.5923 112.22 84.2236 98.6504C83.4657 89.9668 84.0099 81.4011 87.8054 73.4272C94.8772 58.5705 107.488 49.2477 123.865 47.5586ZM129.392 177.796C131.957 173.55 135.118 169.178 137.815 164.786C144.159 154.46 149.963 143.812 155.203 132.884C162.621 117.119 170.133 99.1867 166.195 81.4391C162.151 63.2152 144.369 51.4753 126.178 52.265C116.378 52.5913 105.605 57.4715 99.0463 64.7669C79.2146 86.8247 90.897 113.31 102.672 135.587C107.692 145.222 113.153 154.621 119.039 163.754C121.993 168.357 125.24 173.589 128.706 177.795C128.995 177.858 129.129 177.924 129.392 177.796Z" fill="#FEE863"/>
<path d="M126.337 71.6671L126.509 71.6499C127.944 71.5161 128.774 71.7788 130.107 71.9562C133.898 72.3669 136.621 73.7237 139.598 76.0769C149.696 84.0566 149.681 101.751 142.029 111.312C139.248 114.786 134.162 117.527 129.618 117.903C127.038 117.953 124.45 117.918 122.005 117.014C102.08 109.645 103.432 74.0072 126.337 71.6671ZM129.232 113.224C132.171 113.077 136.014 110.78 137.89 108.654C144.42 101.251 144.812 86.8321 136.963 80.1544C134.716 78.2426 129.487 75.734 126.655 76.5905C109.461 78.4315 108.353 104.759 121.889 111.831C124.401 113.144 126.487 113.182 129.232 113.224Z" fill="#FEE863"/>
<path d="M162.243 173.582C169.244 169.366 178.223 173.79 179.622 181.828C180.306 185.615 179.443 189.516 177.226 192.662C168.604 204.755 137.771 207.405 123.833 206.598C110.955 205.603 93.8483 204.101 82.8891 196.739C72.5476 189.792 74.2008 174.035 88.0591 171.93C91.3421 171.909 103.733 174.782 96.7567 179.467C94.6084 178.89 92.8136 177.552 90.4111 177.365C87.8857 177.169 85.3527 177.254 83.2985 179C81.754 180.312 81.2168 181.949 80.9938 183.877C80.7409 186.062 82.0519 189.601 83.6787 191.16C90.2314 197.44 104.077 199.54 112.894 200.968C116.874 201.613 122.323 201.615 126.397 202.069C129.334 202.397 133.864 201.847 136.86 201.579C138.714 201.413 141.798 201.398 143.456 201.132C153.195 199.5 164.222 198.107 172.041 191.527C175.397 188.704 176.504 182.82 173.414 179.307C170.801 176.336 166.607 177.872 163.315 177.999C160.994 178.088 160.172 175.244 162.095 173.699L162.243 173.582Z" fill="#FEE863"/>
</g>
</g>
<defs>
<clipPath id="clip0_1031_356">
<rect width="256" height="256" fill="white"/>
</clipPath>
<clipPath id="clip1_1031_356">
<rect width="302" height="302" fill="white" transform="translate(-23 -23)"/>
</clipPath>
</defs>
</svg>
