<svg width="256" height="256" viewBox="0 0 256 256" fill="none" xmlns="http://www.w3.org/2000/svg">
<g clip-path="url(#clip0_1031_366)">
<path d="M127.229 51.1484C129.73 51.3982 133.618 53.5429 135.965 54.645C140.094 56.5693 144.208 58.5237 148.309 60.5076C158.977 65.4733 169.524 70.6936 179.943 76.1643C185.15 78.8518 193.454 82.616 197.978 86.4893C199.772 89.247 199.44 92.3708 200.463 95.6348C201.491 98.9064 207.124 103.81 206.601 106.601C206.331 108.045 200.586 109.832 198.882 110.429C198.985 118.288 198.774 126.435 198.981 134.263L199.299 153.225C199.36 157.412 199.602 162.014 199.055 166.133C198.359 171.363 191.422 173.87 187.242 175.981L172.675 183.365L147.03 196.545C144.919 197.628 131.238 204.929 129.759 204.672C127.065 203.727 123.238 201.777 120.581 200.51L104.005 192.548L80.2444 181.229C74.2782 178.424 68.2838 175.528 62.3382 172.673C61.1795 172.043 59.8114 171.29 58.9206 170.309C55.8737 166.952 56.3606 160.349 56.3598 156.24L56.3622 144.621C56.3686 133.284 56.1863 121.419 56.3965 110.133C54.6978 109.771 51.9612 108.837 50.4041 108.068C49.5071 107.625 49.288 107.228 48.7188 106.386C49.6229 102.072 52.6238 99.7458 54.2394 95.7334C55.2185 93.6624 55.6582 88.2346 57.1952 86.6924C60.7357 83.1404 68.4442 79.8789 72.8134 77.6283C83.2398 72.2303 93.7461 66.9881 104.329 61.9036L116.602 55.8952C119.395 54.5175 124.437 51.648 127.229 51.1484ZM55.2958 104.686C56.6739 104.928 60.8395 106.049 61.2445 107.033C62.3411 109.697 61.896 116.953 61.9594 119.794C62.2186 129.968 62.3257 140.146 62.2808 150.324C62.2949 154.295 62.073 163.078 62.806 166.424C65.9383 169.14 73.2604 172.019 77.2935 173.95L105.629 187.551L120.024 194.478C121.776 195.343 128.679 198.899 130.098 199.223C130.277 198.866 130.2 184.803 130.2 183.116C130.197 164.35 129.878 144.576 130.229 125.894C128.177 125.166 123.552 122.752 121.421 121.663C117.088 119.449 112.639 117.39 108.324 115.206C108.374 119.013 108.402 122.821 108.407 126.629C108.415 128.159 109.35 136.443 105.63 136.064C103.993 135.898 99.0004 133.406 97.6945 132.747C95.9895 131.887 85.7542 127.544 85.5194 126.648C84.599 123.137 84.8135 106.751 85.2731 103.397C79.2483 101.033 72.1586 97.0144 66.1559 94.3998C64.7247 93.7764 62.2223 92.3839 61.0158 91.9186C60.3196 92.8535 60.3399 94.8746 59.9234 96.1315C59.09 98.6462 56.9898 102.733 55.2958 104.686ZM140.217 194.05C156.302 185.383 172.87 177.585 189.049 169.085C191.881 167.597 192.262 167.248 193.94 164.636C193.831 146.36 193.86 128.054 193.478 109.773C193.462 109.018 193.599 107.563 194.215 107.07C195.626 105.944 198.216 105.226 199.869 104.528C197.287 101.853 195.464 98.1062 194.211 94.6295C193.958 93.9312 194.338 93.5666 193.679 93.3117C188.555 96.2931 183.147 99.1244 177.956 102.04L150.166 117.882C147.854 119.203 137.492 124.776 136.122 126.333C135.94 127.525 136.045 130.166 136.051 131.466L136.029 140.29L135.737 176.726L135.731 189.277C135.73 191.254 135.827 194.948 135.523 196.801C137.097 195.821 138.556 194.889 140.217 194.05ZM64.6345 88.1454C67.9867 89.826 71.796 91.4092 75.2413 92.995C78.986 94.7189 83.1448 96.8821 86.9182 98.4737L88.7084 99.4084C90.2005 98.4224 91.7076 97.4391 93.2529 96.5392C105.736 89.2692 118.271 82.3256 130.997 75.4994C134.913 73.367 138.855 71.2828 142.822 69.2474C144.402 68.431 147.148 66.9079 148.745 66.365C144.847 65.524 128.797 56.4347 127.045 56.6166C121.228 59.7043 115.023 62.6226 109.086 65.5377C99.9692 70.0148 90.8793 74.5462 81.8167 79.1316L72.3396 84.0262C70.1051 85.1619 66.71 86.7972 64.6345 88.1454ZM89.9854 106.084C90.1622 111.437 90.262 118.151 89.9542 123.52C92.8397 124.666 95.7998 126.122 98.6249 127.445C99.9142 128.049 102.277 129.059 103.434 129.722C102.899 128.027 103.061 114.499 103.221 112.268C100.317 111.322 95.6884 108.425 92.6247 107.259C91.9084 106.987 90.6837 106.28 89.9854 106.084ZM164.963 74.3278C161.994 73.1494 156.823 70.5802 154.118 68.9332C150.126 71.8283 140.45 76.4988 135.757 79.1258L109.407 93.7399C104.305 96.573 99.2875 99.5079 94.1126 102.229C96.7975 103.454 103.175 106.706 105.504 107.517C106.085 107.552 106.543 107.311 107.028 107.005C111.122 104.417 115.387 101.84 119.575 99.3988C128.746 94.0867 137.975 88.8762 147.262 83.7686C152.296 80.9611 159.801 76.5246 164.963 74.3278ZM110.791 110.544C113.148 111.947 116.651 113.499 119.236 114.744C123.853 116.942 128.438 119.206 132.989 121.537C135.832 119.502 140.064 117.235 143.17 115.446L161.916 104.774C168.909 100.819 175.834 96.7002 183.013 93.058C186.044 91.5211 188.983 89.7306 192.201 88.4946C190.236 87.7643 187.137 85.9916 185.191 84.9601C181.42 82.963 177.632 80.9978 173.826 79.0649C173.3 78.8014 170.35 77.2034 169.988 77.108C166.553 79.3748 161.525 82.0912 157.9 84.1166L138.522 94.9888L120.236 105.546C118.205 106.708 112.646 109.994 110.791 110.544Z" fill="#EEC26C"/>
<path d="M70.3865 149.531C74.3195 149.502 74.0527 152.89 74.0072 155.836C73.9865 157.18 73.9286 158.424 73.7238 159.761C76.6822 160.576 82.8145 162.939 85.1308 165.07C86.578 166.402 85.0254 167.983 83.8072 168.857C82.3116 169.399 70.9993 164.278 69.2522 162.899C68.2841 162.135 68.5334 152.594 68.8166 151.01C68.9458 150.287 69.7719 149.92 70.3865 149.531Z" fill="#EEC26C"/>
<path d="M184.097 149.527C185.848 149.386 186.718 149.782 187.481 151.228C188.047 152.299 188.112 160.997 187.669 161.596C185.44 164.608 177.346 167.152 173.921 168.617C172.468 169.157 171.12 168.714 170.545 167.331C168.915 163.415 179.495 160.791 182.124 159.549C182.514 156.358 181.316 151.511 184.097 149.527Z" fill="#EEC26C"/>
</g>
<defs>
<clipPath id="clip0_1031_366">
<rect width="256" height="256" fill="white"/>
</clipPath>
</defs>
</svg>
