<svg width="256" height="256" viewBox="0 0 256 256" fill="none" xmlns="http://www.w3.org/2000/svg">
<path d="M126.056 128.73C126.958 128.676 127.862 128.649 128.765 128.65C141.587 128.563 153.671 132.451 162.868 141.554C171.514 150.068 175.66 161.423 175.458 173.469C175.389 177.537 175.606 181.93 170.147 182.307C168.668 182.409 167.245 182.379 165.77 182.378L158.318 182.37L132.967 182.363L103.723 182.373L94.1378 182.372C91.9492 182.38 89.7014 182.478 87.5226 182.247C84.3943 181.916 83.4121 179.433 83.2921 176.693C82.7294 163.849 86.2491 151.238 95.3204 141.819C97.771 139.275 100.837 136.765 103.842 134.846C110.314 131.088 118.619 128.919 126.056 128.73ZM88.1959 178.853C89.8784 179.228 97.0994 179.044 99.2608 179.061L131.255 179.072L154.613 179.075C159.239 179.087 164.125 179.092 168.776 179.023C171.377 179.202 171.518 177.026 171.589 174.807C171.965 163.135 168.371 152.615 160.023 144.347C151.331 135.738 140.632 132.344 128.515 132.467C128.407 132.469 128.298 132.471 128.19 132.475C116.57 132.759 106.39 135.729 98.2527 144.415C91.4567 151.669 88.0581 160.285 87.3508 170.134C87.1708 172.641 86.5759 176.789 88.1959 178.853Z" fill="#F8C849"/>
<path d="M126.692 73.2662C140.871 71.7867 153.556 82.1019 154.999 96.2847C156.443 110.467 146.095 123.126 131.909 124.533C117.773 125.935 105.17 115.633 103.732 101.502C102.294 87.3702 112.564 74.7404 126.692 73.2662ZM130.623 120.703C142.65 120.021 151.869 109.757 151.26 97.7265C150.652 85.6962 140.444 76.4146 128.41 76.9495C116.272 77.4892 106.893 87.8048 107.506 99.9393C108.12 112.074 118.493 121.391 130.623 120.703Z" fill="#F8C849"/>
<path d="M177.679 92.7031C187.259 91.9489 195.645 99.0865 196.431 108.664C197.217 118.242 190.107 126.651 180.532 127.469C170.912 128.291 162.455 121.14 161.665 111.517C160.875 101.894 168.054 93.4609 177.679 92.7031ZM180.785 123.688C188.195 122.735 193.464 116.003 192.608 108.582C191.752 101.159 185.09 95.8034 177.658 96.5618C172.762 97.0613 168.514 100.156 166.539 104.663C164.563 109.169 165.165 114.391 168.115 118.329C171.063 122.268 175.905 124.315 180.785 123.688Z" fill="#F8C849"/>
<path d="M79.0264 92.7762C88.5903 92.2957 96.7423 99.6389 97.26 109.201C97.7779 118.763 90.4663 126.943 80.9064 127.498C71.2938 128.056 63.0583 120.696 62.5376 111.081C62.017 101.466 69.4096 93.2594 79.0264 92.7762ZM80.512 123.765C87.9884 123.414 93.7758 117.087 93.4612 109.609C93.1464 102.131 86.8481 96.3135 79.3685 96.592C71.8378 96.8724 65.9711 103.224 66.2879 110.753C66.6047 118.282 72.9842 124.118 80.512 123.765Z" fill="#F8C849"/>
<path d="M173.942 131.907C174.192 131.896 174.442 131.888 174.692 131.882C178.236 131.81 183.649 131.754 187.068 132.1C193.068 132.706 199.587 136.147 203.895 140.313C209.268 145.594 212.855 153.512 213.005 161.066C213.051 163.406 212.068 166.168 209.412 166.459C206.397 166.789 203.103 166.643 200.039 166.643H181.339C181.029 166.627 180.481 166.622 180.196 166.533C178.532 166.119 178.157 163.444 180.024 163.083C181.819 162.736 184.231 162.89 186.068 162.891L199.867 162.9C202.272 162.905 204.736 162.941 207.14 162.876C207.377 162.88 208.481 162.695 208.604 162.525C210.445 159.959 207.082 151.292 206.019 149.462C202.646 143.457 196.477 138.357 189.827 136.415C184.811 134.95 178.866 136.113 173.795 135.255C172.503 135.037 172.12 132.823 173.942 131.907Z" fill="#F8C849"/>
<path d="M73.0559 131.955C73.8169 131.829 74.9244 131.879 75.723 131.873C78.359 131.853 81.1323 131.913 83.7568 131.876C86.309 131.552 85.6968 135.232 84.3907 135.361C78.8947 135.904 73.2075 135.015 67.8459 136.791C58.8771 139.763 52.6823 147.017 49.9915 155.904C49.5794 157.266 48.9827 161.548 49.7856 162.678C50.7904 163.111 72.0325 162.895 74.3086 162.894C75.4279 162.875 78.0431 162.707 78.7165 163.358C79.9313 164.533 79.2128 166.565 77.286 166.6C75.2634 166.636 73.4114 166.643 71.4754 166.643L61.068 166.655L53.3673 166.648C50.0734 166.637 45.5674 166.921 45.5586 162.12C45.531 146.926 57.6066 132.907 73.0559 131.955Z" fill="#F8C849"/>
</svg>
