<svg width="256" height="256" viewBox="0 0 256 256" fill="none" xmlns="http://www.w3.org/2000/svg">
<g clip-path="url(#clip0_1031_378)">
<path d="M190.805 50.2573C194.643 49.817 199.147 51.3773 201.801 54.2118C203.506 56.0041 204.41 58.4137 204.301 60.8856C204.22 63.0368 202.563 66.9889 200.091 66.8977C197.313 65.8813 200.436 62.1189 200.364 60.5161C200.2 56.8823 195.803 54.2199 192.452 54.2378C187.143 54.2661 183.27 56.9374 179.561 60.4469C183.632 63.9104 185.012 67.655 186.446 72.5869C188.422 73.852 196.346 78.9635 194.066 82.6992C192.288 85.6165 185.99 83.4898 183.204 84.2891C181.111 84.8902 179.424 85.9468 178.228 87.953C174.975 93.2165 177.763 99.3095 178.95 104.753C182.156 119.456 177.616 134.225 169.708 146.639C163.483 156.41 155.613 163.623 144.983 168.34C142.512 169.437 139.545 170.752 136.919 171.32C139.584 174.984 143.664 183.257 146.389 187.713C149.972 187.456 157.906 186.158 160.02 190.107C162.091 193.979 157.109 194.158 154.923 195.149C154.547 195.855 154.863 196.52 154.762 197.37C154.557 199.089 153.293 199.526 151.756 199.777C147.998 200.389 145.411 197.287 142.149 196.271C140.335 195.772 138.21 196.056 136.39 195.695C128.998 194.226 130.973 191.523 135.756 188.29C132.879 182.126 128.923 178.581 123.896 174.305C121.849 174.835 115.362 175.373 113.093 175.505C114.267 179.703 115.361 183.304 117.146 187.276C117.439 187.928 118.005 189.503 118.632 189.836C120.739 190.956 126.181 189.799 129.215 192.734C129.811 193.31 130.244 194.163 130.245 195.005C130.248 198.221 124.863 198.567 124.781 198.636C124.38 198.971 124.072 201.045 123.376 201.703C120.234 204.67 114.994 199.84 111.959 198.895C110.324 198.386 108.418 198.571 106.724 198.571C104.931 198.571 102.966 198.624 101.617 197.228C101.169 196.765 100.796 196.198 100.851 195.524C101.05 193.093 105.732 191.537 107.404 190.044L107.47 189.985C107.175 189.326 106.909 188.593 106.72 187.898C105.511 183.455 103.335 179.143 102.093 174.761C96.8573 174.506 85.0106 170.946 80.3682 168.366C75.9882 169.998 72.263 172.663 67.6374 174.237C47.299 181.157 64.5883 160.209 68.0032 153.7C69.4696 150.905 70.0833 147.455 70.7911 144.39C75.8746 123.537 92.812 105.772 112.901 98.553C119.405 96.2156 127.41 94.2591 132.729 89.808C136.085 86.9995 136.635 81.8164 137.741 77.7947C140.439 67.9873 147.525 59.5921 157.544 56.8734C163.798 55.1019 170.705 55.409 176.543 58.5505C180.728 53.5348 184.215 51.1971 190.805 50.2573ZM61.7346 172.02C64.2477 171.352 65.525 170.899 67.9792 169.951C71.5466 168.574 77.8921 164.351 81.6476 164.804C83.3418 165.009 87.3401 167.233 89.4461 167.663C92.2177 168.811 95.383 169.477 98.3291 170.059C113.007 172.873 128.189 171.272 141.956 165.459C162.064 157.184 175.61 135.319 176.022 113.849C176.2 104.543 169.32 94.1748 175.037 85.6108C176.357 83.5939 178.258 82.026 180.49 81.1149C183.325 79.943 189.453 80.7489 189.96 80.2759C189.635 78.8416 184.975 76.5747 183.763 75.4772C181.218 73.1739 182.154 66.8337 175.469 62.6309C172.511 60.7708 166.781 59.2428 163.341 59.9533C163.314 59.9588 163.288 59.9703 163.262 59.9789C156.118 60.7512 151.491 62.8373 146.885 68.5655C144.658 71.2949 142.98 74.4289 141.943 77.7955C140.277 83.1637 140.473 87.7201 136.117 92.0265C130.472 97.6078 122.511 99.2122 115.279 101.893C104.517 105.881 95.2652 111.905 87.8522 120.745C82.344 127.313 77.8774 134.66 75.3754 142.897C74.3007 146.434 73.7187 150.392 72.3122 153.787C70.6247 157.86 67.4895 161.554 65.2216 165.39C64.1053 167.278 62.8203 170.439 61.7346 172.02ZM106.028 175.199C107.44 177.853 111.449 188.462 110.373 191.621C109.775 193.378 107.244 194.588 105.695 195.461C111.48 195.13 113.408 195.187 118.447 198.373C119.014 198.731 121.077 199.49 121.791 199.784C120.96 198.841 119.908 197.526 118.862 196.875C118.364 196.444 118.246 196.495 118.137 195.945C118.455 195.558 119.103 195.341 119.582 195.356C122.736 195.461 124.103 195.7 127.274 195.024C122.654 193.42 120.681 193.818 116.16 192.788C113.322 189.863 110.2 179.552 109.437 175.42C108.558 175.352 106.846 175.179 106.028 175.199ZM155.44 191.018C150.31 189.915 148.973 191.754 143.869 190.664C140.394 185.878 138.116 179.826 134.846 174.84C134.336 174.062 133.826 173.171 133.401 172.344C131.838 172.831 130.441 173.218 128.806 173.419C132.6 176.933 136.457 181.082 138.683 185.793C140.348 189.317 138.749 190.7 135.947 192.502C138.561 192.501 140.54 192.491 143.143 193.046C145.678 193.587 149.275 197.074 151.414 196.28C151.217 194.972 147.308 194.531 146.874 192.981C147.685 191.6 152.364 191.998 153.988 191.742C154.865 191.767 155.339 191.817 156.142 191.405L156.046 191.151L155.44 191.018Z" fill="#D0B873"/>
<path d="M142.977 104.688C149.137 105.747 149.531 119.413 148.781 124.034C147.101 135.093 139.059 145.402 130.296 151.958C118.053 161.117 98.2045 162.849 83.3976 160.495C81.8993 160.446 80.5344 160.214 80.4531 158.389C81.0819 156.256 83.7842 156.978 85.519 157.049C88.0595 157.154 91.3168 157.629 93.8077 157.612C104.81 157.372 117.609 155.928 126.97 149.518C138.309 141.754 151.594 121.92 142.015 108.423C140.563 106.377 140.93 105.829 142.977 104.688Z" fill="#D0B873"/>
<path d="M167.355 68.8598C169.453 68.3444 171.665 69.0043 173.138 70.5847C174.61 72.1653 175.113 74.4187 174.451 76.4749C173.788 78.5311 172.065 80.0678 169.947 80.4919C166.769 81.1278 163.665 79.1075 162.96 75.944C162.255 72.7802 164.208 69.6333 167.355 68.8598ZM168.946 77.342C169.97 76.64 170.795 76.2378 171.031 74.8947C171.283 73.4592 170.067 72.4981 168.793 72.2172C165.752 73.0395 165.741 75.6672 168.191 76.9634C168.44 77.0944 168.692 77.2205 168.946 77.342Z" fill="#D0B873"/>
<path d="M120.295 131.828C121.126 131.897 121.933 132.566 121.933 133.333C121.935 136.669 113.577 138.429 111.46 138.729C110.388 138.524 109.501 137.335 109.826 136.234C110.036 135.921 110.371 135.582 110.736 135.477C114.175 134.487 117.068 133.392 120.295 131.828Z" fill="#D0B873"/>
<path d="M132.993 121.051C139.483 123.18 128.273 129.662 126.305 130.677C125.596 130.322 123.608 128.888 124.755 128.033C127.717 125.826 130.348 123.629 132.993 121.051Z" fill="#D0B873"/>
<path d="M107.147 141.727C107.54 141.755 108.736 142.293 108.958 142.545C110.341 144.118 105.532 146.474 104.675 146.85C102.788 147.677 101.251 148.114 99.3419 148.203C98.5932 148.033 98.2835 147.773 97.7136 147.309C97.4935 146.617 97.5003 146.912 97.7114 146.192C98.7997 145.025 104.967 142.741 107.147 141.727Z" fill="#D0B873"/>
<path d="M95.2643 137.418C95.8947 137.546 96.3148 138.042 96.5265 138.62C96.5802 141.947 89.6633 143.622 87.0618 143.952C86.4701 143.648 85.1147 142.576 85.4459 141.838C86.2207 140.112 89.4136 140.157 90.9234 139.459C92.4195 138.767 93.8054 138.083 95.2643 137.418Z" fill="#D0B873"/>
<path d="M128.466 139.725C129.268 139.657 130.18 139.941 130.659 140.593C131.04 143.122 124.523 146.624 122.302 147.066C121.377 147.013 120.97 146.799 120.274 146.263C119.597 144.592 121.905 143.582 123.138 142.961C125.096 141.974 126.687 141.011 128.466 139.725Z" fill="#D0B873"/>
<path d="M105.832 126.688C107.123 126.689 108.299 127.711 107.582 128.81C106.14 131.022 101.969 132.869 99.5517 133.755C98.6253 133.464 98.1588 133.207 97.6087 132.422C97.194 130.05 103.728 127.739 105.832 126.688Z" fill="#D0B873"/>
<path d="M119.259 118.729C119.786 118.692 120.987 119.181 121.094 119.637C121.772 122.504 115.84 125.707 114.055 126.571C113.085 126.344 112.483 125.845 112.246 124.885C112.559 122.995 117.475 120.04 119.259 118.729Z" fill="#D0B873"/>
<path d="M155.44 191.016L156.046 191.149L156.142 191.402C155.339 191.815 154.865 191.765 153.988 191.74L154.178 191.262C154.646 191.139 154.966 191.088 155.44 191.016Z" fill="#D0B873" fill-opacity="0.01"/>
</g>
<defs>
<clipPath id="clip0_1031_378">
<rect width="256" height="256" fill="white"/>
</clipPath>
</defs>
</svg>
