<svg width="256" height="256" viewBox="0 0 256 256" fill="none" xmlns="http://www.w3.org/2000/svg">
<path d="M87.2595 60.5977C89.0166 60.686 89.4945 60.8193 90.7759 62.0711C96.0933 67.1654 101.205 72.7525 106.439 77.8954C111.156 82.5302 115.082 86.5971 115.605 93.5748C115.779 95.8964 115.736 98.0595 115.343 100.371C115.012 102.321 114.256 104.401 114.348 106.365C115.131 107.453 118.837 111.344 120.038 112.592C123.344 116.027 126.501 119.756 129.738 123.173C132.054 120.2 134.805 117.269 137.215 114.352C139.023 112.164 141.257 109.955 142.462 107.4C141.873 105.091 141.21 102.295 140.915 99.9814C139.834 91.5035 142.642 82.3135 148.052 75.6908C153.885 68.5499 162.342 61.8175 171.758 60.7554C175.885 60.2664 180.034 61.4696 183.26 64.091C194.529 73.2038 186.973 93.9461 179.212 103.036C173.884 109.276 167.791 113.257 159.332 113.51C157.518 113.564 155.143 113.871 153.32 114.058C148.662 119.763 143.128 127.958 138.194 133.197C139.665 134.409 142.751 137.976 144.191 139.556C148.205 143.949 152.194 148.364 156.158 152.801L168.344 166.031C170.481 168.371 172.765 170.85 174.736 173.311C176.243 175.286 177.312 177.523 176.887 180.064C175.794 186.595 167.527 189.344 163.032 184.223C161.006 181.914 159.063 179.572 157.092 177.216L144.422 161.949L134.012 149.429C132.636 147.8 129.194 143.947 128.146 142.415L105.189 170.967C101.681 175.299 98.2074 179.65 94.5638 183.87C91.5157 187.4 86.1483 187.974 82.7768 184.583C81.3313 183.121 80.5383 181.137 80.5776 179.082C80.6081 176.762 81.3914 175.296 82.8142 173.519C84.9025 170.911 87.1351 168.401 89.3384 165.889L100.559 153.069L107.008 145.734C108.211 144.344 109.478 142.697 110.787 141.443C112.569 139.015 117.195 134.169 119.311 132.078C115.923 127.991 112.582 123.865 109.288 119.701C107.727 117.745 106.293 115.781 104.664 113.874C101.199 113.989 97.2738 113.653 93.9832 112.549C91.6344 111.762 89.5457 110.491 87.6327 108.926C85.4161 107.113 66.3993 87.5563 65.8218 86.335C65.5736 85.81 65.4843 85.2287 65.7 84.6736C65.9276 84.0873 66.4153 83.5486 66.9949 83.2978C69.2851 82.3064 71.4448 85.3682 72.8059 86.789L83.6648 98.2347C87.5447 102.329 91.0429 106.849 96.7788 108.399C100.57 109.566 105.845 108.056 108.675 111.475C113.561 117.376 118.271 123.44 123.189 129.32C124.8 131.246 125.488 132.249 123.594 134.34C112.478 146.607 101.62 159.1 90.6937 171.537C88.7619 173.737 86.0622 176.338 84.8515 178.947C85.6692 181.342 87.8443 183.735 90.2324 181.398C93.5924 178.11 96.7183 173.859 99.6997 170.159L118.742 146.516C120.717 144.041 123.476 140.231 125.881 138.269C126.811 137.51 129.174 137.457 130.149 138.236C133.178 140.658 136.527 145.032 139.009 148.009L158.966 172.118L164.165 178.359C165.325 179.756 166.456 181.736 168.287 182.109C169.262 182.31 170.277 182.102 171.094 181.533C174.142 179.411 171.274 176.44 169.7 174.628C168.048 172.725 166.428 170.9 164.723 169.041L152.792 156.046C143.774 146.254 134.715 136.445 126.14 126.268C121.304 120.529 115.736 115.183 110.876 109.469C108.64 106.838 110.245 101.818 110.861 98.7931C112.785 89.3557 106.325 84.4014 100.33 78.5392L90.3735 68.6483C88.8236 67.1075 87.1518 65.5714 85.8054 63.8583C84.8581 62.6531 86.2614 61.2058 87.2595 60.5977ZM132.596 126.78C133.657 127.806 134.232 128.524 135.14 129.705C136.06 128.29 137.978 126.061 139.093 124.694L145.595 116.443C147.03 114.618 148.988 111.846 150.749 110.394C152.823 108.684 157.703 109.124 160.4 108.771C167.233 107.878 172.193 104.499 176.415 99.1648C181.009 93.2983 185.21 83.1161 184.385 75.5281C184.064 72.5805 182.531 69.4375 180.164 67.6148C177.255 65.3744 175.245 65.5926 171.893 65.7616C168.126 65.9505 163.287 68.4585 160.295 70.6246C151.55 76.9555 144.6 86.6433 145.455 97.8838C145.709 101.229 146.73 104.193 146.747 107.505C146.761 111.156 143.692 113.992 141.435 116.623L132.596 126.78Z" fill="#CDB672"/>
<path d="M167.03 79.5392C168.519 79.5217 170.421 81.2469 169.621 82.6771C168.446 84.7356 166.588 86.5439 165.057 88.35C162.446 91.4284 159.927 94.2757 158.088 97.8995C156.889 100.263 157.291 102.842 154.947 104.112C151.89 104.216 151.609 101.556 152.423 99.2049C154.295 93.8024 158.066 89.0692 161.722 84.7556C163.157 83.0626 165.063 80.5796 167.03 79.5392Z" fill="#CDB672"/>
<path d="M80.3498 67.6665C80.4219 67.6645 80.494 67.6638 80.5661 67.6641C82.603 67.6747 87.021 73.0083 88.6781 74.7075C92.6574 78.7637 96.6571 82.7997 100.677 86.8154C102.948 89.0897 105.494 91.5768 105.391 95.0515C105.222 100.74 98.6623 104.819 93.828 100.88C90.9537 98.5377 88.7313 95.9764 86.144 93.3031C81.9785 89.0532 77.8357 84.7813 73.7155 80.4873C72.5347 79.3775 71.1066 78.3692 71.9098 76.7297C74.018 72.4268 78.5282 78.478 80.2559 80.2888L88.2378 88.5746C90.7203 91.1801 93.9317 95.0364 96.9202 97.1586C97.294 97.424 98.4001 97.4989 98.9054 97.3194C100.034 96.9185 100.449 95.7853 100.946 94.7634C99.0556 91.3095 96.8212 89.61 94.0475 86.8374L84.7411 77.4619C82.9762 75.6819 81.1208 73.914 79.4805 72.017C77.6765 69.931 78.1661 69.0229 80.3498 67.6665Z" fill="#CDB672"/>
</svg>
