<svg width="256" height="256" viewBox="0 0 256 256" fill="none" xmlns="http://www.w3.org/2000/svg">
<g clip-path="url(#clip0_1031_417)">
<path d="M68.0617 58.7059C70.4878 58.5623 73.6412 58.6634 76.1458 58.6645L91.1989 58.6672L137.514 58.6731L169.925 58.6682L180.19 58.6597C181.253 58.6597 182.319 58.6587 183.378 58.6727C185.205 58.697 187.587 58.5722 188.809 60.2064C190.029 61.8359 190.654 63.8286 191.239 65.7523C193.264 72.4256 195.395 79.0602 197.61 85.6731C198.407 88.0689 199.392 90.6668 199.901 93.1197C200.53 96.1619 200.684 99.2824 200.363 102.372C199.602 109.317 196.518 113.55 191.237 117.764C191.453 121.132 191.28 126.364 191.278 129.876L191.27 153.719L191.28 170.436C191.28 173.081 191.43 177.61 191.074 180.03C191.346 180 191.616 179.984 191.888 179.983C198.931 179.911 201.956 187.38 197.653 192.637C195.774 194.934 190.169 194.463 187.239 194.436L102.418 194.426L76.0094 194.435C71.2636 194.444 66.4551 194.519 61.7123 194.387C60.2767 194.348 58.3703 194.077 57.3165 193.049C54.6046 190.406 54.7643 184.635 57.2584 181.881C58.9454 180.018 61.3698 179.93 63.7187 179.872C63.5555 177.249 63.6181 173.521 63.6066 170.832L63.5769 154.39C63.5695 142.427 63.3455 129.613 63.6727 117.71C56.6829 113.493 53.372 104.265 54.398 96.4261C55.7981 86.4155 59.94 76.8476 62.5273 67.0787C63.466 63.5346 64.131 59.7207 68.0617 58.7059ZM91.4439 110.359C86.7896 118.346 77.7953 122.365 68.8088 119.58C68.5152 139.615 68.8529 160.012 68.7577 180.085C71.5796 179.821 74.894 179.909 77.7693 179.923C77.5406 177.326 77.692 173.398 77.7063 170.669L77.7512 154.741L77.7081 139.695C77.6929 137.284 77.2338 130.498 78.59 129.252C80.1002 127.865 92.5748 128.33 94.8001 128.351C100.57 128.403 106.156 128.145 111.67 128.383C113.003 129.246 113.241 129.496 114.025 130.862C114.186 134.738 114.119 138.756 114.106 142.646L114.106 180.016C116.805 179.735 122.349 179.916 125.342 179.93L144.801 179.947L171.248 179.949C175.632 179.943 181.803 179.742 185.982 180.025C185.702 177.838 185.836 173.249 185.838 170.913L185.854 154.048L185.852 131.205C185.85 128.103 185.673 122.881 185.852 119.94C180.862 120.42 177.417 120.814 172.587 118.862C167.705 116.889 166.137 114.461 163.095 110.486C156.466 123.766 135.223 123.217 128.165 111.511C127.947 111.15 127.191 110.06 126.915 109.875C126 112.258 123.867 114.417 121.913 116.019C113.024 123.302 96.5697 121.412 91.4439 110.359ZM62.4434 185.267C61.7236 185.523 60.9522 185.807 60.6184 186.563C60.4498 186.945 60.4587 187.427 60.6249 187.807C60.9122 188.463 61.5679 188.95 62.2309 189.178C63.6247 189.657 87.8054 189.309 91.0574 189.309L192.384 189.314C195.284 188.305 194.362 185.78 192.042 185.449C189.141 185.035 185.376 185.212 182.434 185.216L164.213 185.242L95.2114 185.224L73.0455 185.234C70.2885 185.239 64.9863 185.437 62.4434 185.267ZM129.64 97.398C129.765 99.2226 129.834 101.065 130.21 102.855C131.902 110.909 138.621 115.613 146.686 115.05C150.454 114.812 153.989 113.146 156.57 110.391C160.754 105.563 160.319 103.412 160.557 97.4947C153.652 97.4314 146.748 97.4205 139.843 97.4619C137.012 97.4687 132.246 97.6253 129.64 97.398ZM119.965 110.389C124.228 105.515 124.066 103.611 124.428 97.4462C121.369 97.6682 114.757 97.54 111.496 97.467C105.932 97.3428 99.2196 97.6764 93.7954 97.4124C93.9739 99.16 93.9782 101.287 94.3159 102.947C96.8403 115.353 111.245 119.113 119.965 110.389ZM88.8231 97.4806C82.3783 97.4318 75.9332 97.425 69.4882 97.4607C66.9828 97.4681 61.9363 97.6249 59.5732 97.3964C59.8809 101.432 59.7486 103.947 61.7659 107.555C67.0133 116.943 77.3389 117.369 84.667 110.58C88.4254 106.081 88.7932 103.202 88.8231 97.4806ZM190.876 110.759C194.597 106.797 195.071 102.6 195.181 97.3859C191.498 97.6896 184.851 97.4421 180.837 97.453C176.658 97.4644 169.948 97.6782 165.935 97.3912C166.08 103.187 166.231 107.398 170.819 111.476C177.206 117.155 184.973 116.016 190.876 110.759ZM185.164 64.0674C178.785 64.3913 169.97 64.1146 163.442 64.1136L121.207 64.1132L86.8977 64.1156C81.9366 64.1181 73.7366 64.3858 69.1105 64.0406C68.3973 65.9804 67.7415 68.6664 67.1107 70.7312L62.4304 85.8361C61.8716 87.6143 60.9402 90.8642 60.259 92.5009C64.3537 92.1941 71.0756 92.4482 75.4395 92.4519L105.15 92.4564L184.892 92.0297C187.637 92.0301 191.57 91.9184 194.218 92.1142C193.021 89.469 190.8 82.0997 189.856 79.0795C188.506 74.754 186.098 68.2736 185.164 64.0674ZM82.9605 133.346C82.3347 134.343 82.91 175.159 82.7091 180.025C85.6812 179.794 89.1153 179.938 92.1515 179.946L107.931 179.896L108.586 179.839C109.169 178.979 108.293 138.476 108.826 133.411L91.3403 133.453C89.5973 133.457 84.3701 133.589 82.9605 133.346Z" fill="#BDA372"/>
<path d="M124.137 128.336L158.859 128.392C163.005 128.401 167.352 128.278 171.396 128.295C177.468 128.32 177.109 130.487 177.095 135.698C177.066 146.266 176.965 156.855 177.134 167.422C177.149 168.262 176.864 169.339 176.541 170.11C176.048 171.258 175.387 171.536 174.277 171.966C171.297 172.449 125.778 172.445 123.844 171.866C123.135 171.654 122.522 171.212 122.175 170.551C121.645 169.542 121.512 168.252 121.431 167.126C121.011 161.245 121.341 155.122 121.354 149.226C121.366 143.888 121.066 138.382 121.368 133.062C121.413 132.269 121.541 131.476 121.797 130.723C122.244 129.406 122.916 128.919 124.137 128.336ZM126.811 167.192C130.882 166.994 135.451 167.034 139.546 167.101C150.234 167.275 161.136 166.833 171.797 167.128C171.448 164.258 171.562 154.544 171.625 151.128C171.716 146.226 171.35 138.038 171.717 133.395C162.551 133.55 153.067 133.423 143.877 133.44C139.17 133.449 131.285 133.701 126.79 133.384C127.316 140.289 126.788 148.61 126.989 155.652C127.036 157.328 127.081 165.986 126.811 167.192Z" fill="#BDA372"/>
<path d="M150.544 139.809C150.796 139.819 151.048 139.843 151.297 139.881C152.053 139.999 152.914 140.5 153.335 141.155C153.656 141.655 153.733 142.201 153.619 142.776C153.278 144.49 141.642 155.701 139.746 156.954C139.694 156.951 139.642 156.949 139.591 156.944C138.758 156.865 137.721 156.545 137.19 155.859C136.795 155.348 136.739 154.706 136.864 154.093C137.477 151.068 147.702 141.691 150.544 139.809Z" fill="#BDA372"/>
<path d="M158.507 145.637C158.954 145.618 159.464 145.668 159.869 145.83C165.35 148.021 156.108 154.567 154.622 156.468C153.588 157.793 151.352 159.426 150.236 160.017C148.456 160.261 146.728 158.656 147.496 157.159C148.908 154.404 155.988 146.985 158.507 145.637Z" fill="#BDA372"/>
<path d="M87.4467 154.147C87.8513 154.118 88.3335 154.105 88.7269 154.065C92.6444 153.668 95.4286 157.322 90.5078 159.199C88.309 159.368 87.7741 159.341 85.7123 158.592C84.7978 156.357 84.7511 154.872 87.4467 154.147Z" fill="#BDA372"/>
</g>
<defs>
<clipPath id="clip0_1031_417">
<rect width="256" height="256" fill="white"/>
</clipPath>
</defs>
</svg>
