<svg width="256" height="256" viewBox="0 0 256 256" fill="none" xmlns="http://www.w3.org/2000/svg">
<path d="M127.166 47.3086C128.93 47.6316 129.928 48.1729 131.324 49.3138C137.238 54.1467 143.767 58.3249 150.564 61.817C156.808 64.9878 163.349 67.5365 170.093 69.4261C170.657 69.588 174.784 70.5751 174.898 70.636C177.074 71.8017 191.117 73.2225 192.046 74.3333C192.843 76.658 192.435 97.6044 192.444 101.551C192.492 107.387 192.486 113.225 192.427 119.061C192.4 122.883 192.525 126.998 191.975 130.746C190.887 138.147 188.502 146.483 185.553 153.324C176.631 174.02 161.25 190.181 142.073 201.739C139.503 203.287 131.839 207.908 129.077 208.962C128.813 209.136 128.126 209.412 127.806 209.55C97.8295 195.949 72.5315 170.885 64.9555 138.07C63.1207 130.122 63.0839 124.009 63.1081 115.929L63.1128 102.097L63.0875 85.6008C63.0809 83.2381 62.8106 76.2243 63.3965 74.2911C64.9739 73.3156 66.8495 73.3722 68.6564 73.0814C86.4058 70.2263 103.436 64.4326 118.077 53.7595C119.793 52.508 125.674 47.8431 127.166 47.3086ZM66.3101 76.6401C66.5794 80.1104 66.3545 86.4981 66.3518 90.2382L66.3469 112.387C66.3473 113.738 66.401 115.195 66.3481 116.534C65.7255 132.296 69.4096 146.335 77.0812 160.236C82.9101 170.654 90.5394 179.956 99.615 187.71C107.161 194.137 118.833 201.679 127.786 206.078C155.704 191.574 179.808 169.631 187.041 137.972C187.674 135.199 188.509 132.497 188.742 129.645C189.288 124.012 189.189 118.385 189.188 112.739L189.182 90.6477C189.181 88.3972 189.435 78.2787 189.014 76.7176C182.43 75.4712 176.02 74.4793 169.524 72.6907C157.926 69.4978 147.33 64.4912 137.318 57.863C136.379 57.2411 127.342 50.6963 127.743 50.8335C126.216 52.2557 122.991 54.4838 121.208 55.775C107.105 65.9705 90.8141 72.7277 73.6352 75.507C71.2159 75.9145 68.7355 76.5227 66.3101 76.6401Z" fill="#F9D260"/>
<path d="M127.363 61.168C129.47 61.1671 132.543 63.9106 134.309 65.097C145.247 72.4422 156.948 77.4308 169.685 80.7033C172.09 81.3213 179.535 82.4554 181.136 83.3481C181.635 85.5409 181.465 89.1798 181.454 91.5519L181.415 102.127L181.437 117.315C181.444 121.287 181.573 125.849 180.989 129.721C177.112 155.453 160.541 176.927 138.98 190.738C135.527 192.951 131.706 195.489 127.926 197.171C127.442 197.14 126.841 196.847 126.396 196.614C108.375 187.166 92.2432 173.083 82.9354 154.783C77.9201 144.922 74.4525 134.6 74.129 123.572C74.0604 121.239 74.1059 118.943 74.1067 116.657L74.1135 98.306C74.1011 94.1023 73.8541 88.1038 74.3645 83.848C74.4944 82.7649 77.8541 82.3796 78.8846 82.1726L85.1115 80.8903C86.1422 80.6828 87.029 80.3936 88.0243 80.1363C100.013 77.0367 111.305 72.0009 121.474 64.9229C123.394 63.5866 125.206 62.1374 127.363 61.168ZM77.1303 85.7058C77.5278 89.1899 77.2832 93.6621 77.2863 97.1976C77.2928 104.935 77.2658 112.792 77.306 120.511C77.4501 148.185 94.9008 172.43 117.289 187.344C120.64 189.578 124.55 191.593 127.801 193.883C130.469 192.101 133.327 190.231 135.977 188.556C159.607 173.619 178.393 148.876 178.187 119.95C178.171 117.597 178.192 115.165 178.191 112.782L178.232 85.7029C175.606 85.6628 170.03 84.0519 167.387 83.4022C154.107 80.1375 141.437 74.1864 130.212 66.4076C129.345 65.807 128.556 65.0422 127.793 64.5138C126.621 65.6545 123.428 67.7541 121.967 68.7377C110.335 76.5045 97.2912 81.9117 83.5761 84.6532C81.2827 85.1241 79.4665 85.6213 77.1303 85.7058Z" fill="#F9D260"/>
<path d="M161.485 100.859C163.904 101.454 163.442 102.963 162.121 104.5C159.039 108.084 155.851 111.568 152.702 115.088L137.58 132.128C134.991 135.03 132.373 137.92 129.82 140.852C127.406 143.623 124.977 146.569 122.309 149.094C121.88 149.499 121.378 149.936 120.752 149.942C119.367 149.955 102.301 132.48 99.6675 130.01C98.6657 128.961 97.5349 127.921 98.3403 126.388C99.0998 125.634 100.401 125.907 101.109 126.567C106.093 131.216 110.804 136.206 115.725 140.929C117.177 142.322 118.99 144.642 120.637 145.712C121.574 145.353 129.37 135.967 130.732 134.426L151.577 111.119C153.251 109.239 159.542 101.695 161.485 100.859Z" fill="#F9D260"/>
</svg>
