<svg width="256" height="256" viewBox="0 0 256 256" fill="none" xmlns="http://www.w3.org/2000/svg">
<g clip-path="url(#clip0_1031_442)">
<path d="M193.962 46.5977C194.338 46.6146 194.977 46.7345 195.283 46.9543C195.658 47.2229 195.85 47.5808 195.916 48.0369C195.993 48.5532 195.856 49.1832 195.714 49.6763C195.187 51.5309 194.41 53.3757 193.796 55.2135C192.757 58.317 191.832 61.4457 190.889 64.5782C185.337 83.0059 179.961 97.2612 160.672 105.304C155.377 107.512 149.67 108.638 144.4 110.921C140.967 112.408 137.536 114.162 135.209 117.183C126.685 128.248 124.472 157.799 125.01 171.689C125.217 177.051 126.128 182.212 126.817 187.508C133.998 187.547 141.517 188.166 148.555 189.543C156.752 191.148 164.752 193.744 172.997 195.138C178.748 196.072 184.932 196.636 190.744 196.744C195.535 196.833 195.29 200.48 192.12 200.423C183.999 200.279 175.689 199.706 167.724 198.039C163.307 197.114 158.885 195.798 154.49 194.72C148.986 193.347 143.393 192.355 137.752 191.75C126.025 190.561 110.741 191.083 99.3945 193.852C88.1809 196.588 77.9212 200.334 66.1284 200.286C63.9434 200.277 61.1289 200.929 59.0302 200.013C57.4596 199.326 58.3293 196.941 60.0212 196.96C69.272 196.807 77.6144 195.528 86.5578 193.447C100.315 189.138 108.439 187.856 122.765 187.537C119.423 172.362 121.496 156.251 122.487 141.022C122.746 137.04 120.542 130.334 117.633 127.494C112.748 127.255 105.04 125.939 100.296 124.825C89.6859 122.393 80.7399 116.34 75.219 106.877C71.1628 99.9241 69.0253 91.9169 64.8526 84.9823C64.2708 84.0152 62.0121 80.2057 62.2475 79.2654C63.4136 77.95 67.0934 78.1065 68.8745 78.0381C93.5171 77.0917 121.676 89.3027 121.176 117.851C121.143 119.768 120.56 121.75 120.945 123.663C121.929 126.64 123.907 129.332 124.993 132.366C125.336 128.451 128.502 120.775 130.242 117.066C131.914 113.5 134.018 110.309 135.133 106.261C135.946 103.308 135.473 100.749 135.289 97.6858C134.641 86.9021 137.007 78.2118 143.781 69.5945C155.465 54.7299 175.971 48.8474 193.962 46.5977ZM139.037 98.9761C140.459 96.4435 142.093 94.0363 143.922 91.7803C150.178 83.9909 157.781 76.5576 165.529 70.2461C166.688 69.3025 170.724 66.6904 170.204 70.7625C170.062 71.8749 166.154 74.683 165.01 75.762C162.481 77.8718 160.179 80.2894 157.862 82.5965C150.816 89.6115 143.419 97.198 139.677 106.574C139.207 107.749 138.772 109 138.161 110.104C144.84 105.541 152.577 104.586 159.845 101.508C177.315 94.1108 181.841 80.5422 186.826 63.9975L189.448 55.0916C189.63 54.4677 190.582 51.6061 190.48 51.1266L190.037 51.1372C180.378 52.0283 165.697 57.0039 157.61 62.2861C153.937 64.6939 150.639 67.6315 147.825 71.0037C142.973 76.8137 140.036 83.3448 139.388 90.9265C139.161 93.5825 139.363 96.2781 139.037 98.9761ZM115.653 123.205C108.676 110.757 104.061 105.854 91.0471 99.8269C90.6038 99.3617 89.933 98.6992 90.0433 98.0132C90.6144 94.4645 95.9891 97.784 97.5982 98.5541C105.126 102.158 110.823 107.758 115.344 114.729C116.088 115.89 116.79 117.077 117.449 118.288C117.315 117.014 117.16 115.705 117.037 114.434C114.716 90.345 90.6066 81.454 69.7146 82.0539C69.0315 82.0801 68.5262 81.9721 68.0773 82.3366C68.2341 83.0964 70.4541 86.9176 70.9662 88.0294C73.4637 93.4519 75.4297 98.9876 78.268 104.249C86.2607 119.066 100.733 121.714 115.653 123.205Z" fill="#D6BB83"/>
</g>
<defs>
<clipPath id="clip0_1031_442">
<rect width="256" height="256" fill="white"/>
</clipPath>
</defs>
</svg>
