<svg width="256" height="256" viewBox="0 0 256 256" fill="none" xmlns="http://www.w3.org/2000/svg">
<path d="M126.122 84.1885C148.298 83.1592 167.104 100.314 168.111 122.492C169.118 144.669 151.943 163.457 129.765 164.441C107.619 165.423 88.8637 148.279 87.8585 126.134C86.8533 103.989 103.978 85.2166 126.122 84.1885ZM131.054 160.019C150.682 158.31 165.204 141.008 163.485 121.381C161.766 101.754 144.456 87.2399 124.83 88.9698C105.218 90.6982 90.7175 107.993 92.4356 127.605C94.1538 147.217 111.44 161.727 131.054 160.019Z" fill="#CEBDA3"/>
<path d="M126.88 50.9414C127.418 50.8849 127.962 50.8263 128.496 50.9401C129.073 51.0629 129.664 51.3891 129.979 51.9033C130.679 53.0444 130.759 73.0789 130.224 74.9667C129.991 75.79 129.168 76.306 128.488 76.7316C126.086 77.1824 125.35 75.1004 125.351 73.1361C125.356 66.2821 125.072 59.3489 125.402 52.5123C125.438 51.7585 126.32 51.2725 126.88 50.9414Z" fill="#CEBDA3"/>
<path d="M127.566 171.688C127.783 171.69 127.992 171.714 128.202 171.77C128.987 171.978 129.636 172.302 130.033 173.04C130.733 174.341 130.727 191.761 130.163 193.494C129.872 194.387 128.756 194.917 127.981 195.29C127.425 195.071 126.021 194.629 125.761 194.036C125.03 192.372 124.928 174.654 125.568 173.196C125.943 172.343 126.748 172.001 127.566 171.688Z" fill="#CEBDA3"/>
<path d="M176.157 71.7422C178.963 71.7474 180.111 74.2181 178.4 75.7273C174.324 79.3204 168.005 87.4209 163.709 90.1232C162.477 90.3238 161.73 89.5656 161.198 88.5757C160.984 88.1786 160.81 87.1408 161.061 86.8104C163.566 83.5132 172.933 73.2634 176.157 71.7422Z" fill="#CEBDA3"/>
<path d="M78.5405 71.7266C80.1309 71.8237 81.6133 73.2646 82.6968 74.3733C86.3624 78.1241 90.2842 81.6858 93.8034 85.5684C95.7073 87.6688 95.0242 88.8144 92.8685 90.2116C92.5809 90.1972 92.2938 90.1724 92.0144 90.0978C90.5908 89.7166 77.6216 76.6059 76.7116 74.9308C76.4549 74.4579 76.3805 74.03 76.5581 73.5086C76.8644 72.608 77.7404 72.1128 78.5405 71.7266Z" fill="#CEBDA3"/>
<path d="M91.8183 157.035C92.887 157.022 94.0139 157.449 94.6437 158.349C94.9349 158.756 95.0422 159.267 94.9388 159.758C94.6604 161.039 81.2245 174.439 79.5434 175.48C79.2488 175.579 78.8465 175.704 78.5335 175.668C77.9753 175.605 77.2458 174.907 76.928 174.465C76.5805 173.982 76.382 173.39 76.5057 172.794C76.873 171.024 89.7442 158.446 91.8183 157.035Z" fill="#CEBDA3"/>
<path d="M162.511 157.097C164.133 157.043 164.892 157.687 165.98 158.838C170.136 163.238 174.777 167.299 178.734 171.868C179.973 173.3 178.743 174.743 177.438 175.632C177.285 175.678 177.157 175.717 176.996 175.712C175.092 175.652 165.553 165.25 163.872 163.533C162.939 162.579 160.887 160.821 160.955 159.405C161.005 158.359 161.799 157.751 162.511 157.097Z" fill="#CEBDA3"/>
<path d="M59.2919 121.483C62.0542 121.262 77.6278 121.094 79.4103 121.635C79.9955 121.812 80.4751 122.194 80.7479 122.748C81.0973 123.456 81.0142 124.132 80.7449 124.849C80.4523 125.628 79.8963 125.818 79.1868 126.147C76.9064 126.501 60.6425 126.562 59.1026 126.039C58.5794 125.862 58.1564 125.468 57.9146 124.973C57.6157 124.361 57.5636 123.774 57.7835 123.127C58.0953 122.211 58.4431 121.899 59.2919 121.483Z" fill="#CEBDA3"/>
<path d="M176.507 121.466C179.117 121.277 193.217 121.089 194.897 121.656C195.486 121.855 196.011 122.274 196.281 122.842C196.578 123.465 196.519 124.123 196.3 124.757C196.002 125.621 195.392 125.819 194.614 126.189C189.757 126.812 183.417 125.928 178.489 126.295C174.474 126.593 173.421 122.963 176.507 121.466Z" fill="#CEBDA3"/>
</svg>
