<svg width="256" height="256" viewBox="0 0 256 256" fill="none" xmlns="http://www.w3.org/2000/svg">
<path d="M63.3503 72.8307C78.8722 72.619 94.874 72.8365 110.433 72.8236L126.544 72.8112C129.487 72.8088 133.422 72.5353 136.278 72.9844C144.42 74.2655 145.258 81.921 144.428 88.441C148.205 88.05 152.601 88.4231 156.448 88.3761C164.558 88.2769 171.137 86.9163 175.129 95.6552C178.099 102.157 181.244 108.581 183.967 115.155C188.083 115.682 198.185 118.919 201.684 121.002C202.887 121.705 203.953 122.62 204.83 123.703C205.696 124.765 206.291 126.022 206.561 127.365C207.048 129.685 206.992 142.305 206.717 144.837C207.205 145.154 208.715 146.085 208.925 146.435C210.562 149.154 210.205 155.998 207.62 157.919C204.916 159.929 198.771 159.613 195.876 159.313C195.484 164.575 192.145 168.298 188.008 171.181C191.321 171.271 210.382 173.671 210.556 177.316C210.286 177.976 209.198 178.926 208.528 178.692C202.215 176.489 196.025 175.73 189.427 174.728C156.08 170.463 122.358 169.974 88.9016 173.27C80.5557 174.061 72.2401 175.145 63.9703 176.52C62.402 176.791 60.7968 177.034 59.2537 177.427C57.8417 177.787 56.2278 178.695 54.7606 178.664C54.3072 178.655 53.8817 178.503 53.5798 178.158C53.3171 177.859 53.238 177.387 53.2618 176.999C53.2922 176.499 53.5634 176.13 53.9308 175.816C56.5875 173.552 79.4802 170.29 83.6492 170.551C80.0536 167.861 77.4264 163.925 77.0201 159.39C60.0051 160.804 62.5122 152.89 62.5931 139.767C60.6985 139.799 56.1367 140.072 54.9232 138.97C53.352 137.543 53.8862 129.501 53.8924 127.475L53.9135 110.621L53.8929 91.9917C53.8636 83.6351 52.0299 73.9418 63.3503 72.8307ZM57.3277 136.467C59.5191 136.131 63.7236 136.258 66.1063 136.263L81.2678 136.287L121.563 136.27L134.317 136.255C136.081 136.253 139.258 136.146 140.902 136.29C140.691 131.787 140.84 126.372 140.843 121.778L140.825 93.6405C140.801 89.6895 141.039 84.7491 140.672 80.8843C140.405 78.0802 136.579 75.9484 134.001 76.3032C132.486 76.367 130.993 76.2053 129.476 76.2787C125.283 76.2153 121.046 76.3712 116.855 76.2778L80.8294 76.2933L69.8184 76.2922C67.1108 76.2922 61.6401 75.8001 59.4613 77.8112C58.6194 78.5883 57.7555 80.147 57.5541 81.3056C57.2605 85.4445 57.4093 90.1408 57.4196 94.2959L57.4193 121.96C57.4213 125.459 57.6469 133.223 57.3277 136.467ZM144.431 155.871C150.987 155.927 158.294 155.767 164.762 155.96C166.744 144.005 178.425 138.644 188.734 144.89C189.416 145.303 201.739 145.213 203.373 145.105L203.31 142.581C197.716 141.287 192.666 138.192 193.419 131.688C193.882 127.687 201.696 130.154 203.338 128.934C203.497 128.017 201.898 125.651 201.201 125.115C196.805 121.735 188.943 119.903 183.842 118.631C183.865 121.6 184.143 131.621 183.585 133.817C183.317 134.892 182.767 135.875 181.991 136.665C179.197 139.541 174.617 138.603 171.221 140.335C165.385 143.312 163.608 151.043 161.701 152.054C160.674 152.599 159.014 152.479 157.876 152.481C155.858 152.485 149.376 152.919 148.051 151.452C146.939 150.221 147.219 147.589 147.224 146.017L147.233 114.9C147.233 111.931 146.875 97.7318 147.849 96.0014C150.411 94.0123 161.55 95.3109 165.213 95.0204C165.89 94.9666 167.143 95.667 167.474 96.2831C169.259 99.6777 176.653 114.616 177.203 117.365C176.731 119.064 175.894 120.08 174.025 120.026C166.615 119.813 158.187 120.53 150.885 119.976C151.235 124.706 150.924 131.248 150.987 136.226C151.023 139.14 151.154 146.229 150.908 148.98C153.036 148.771 157.349 148.983 159.642 149.036C161.996 143.775 165.028 138.979 170.633 136.687C174.369 135.16 177.092 136.368 179.915 133.511C180.422 131.203 180.788 117.723 179.965 115.301C178.209 110.137 173.337 100.539 170.666 95.2585C169.962 93.8676 167.895 92.1516 166.31 91.9701C159.261 91.2167 151.453 92.1213 144.422 91.6624C144.768 94.0575 144.572 99.8058 144.565 102.552L144.551 123.091L144.569 145.554C144.564 148.202 144.76 153.598 144.431 155.871ZM93.6319 169.451C97.8685 168.999 101.535 166.305 103.234 162.397C104.932 158.489 104.399 153.971 101.839 150.565C99.2784 147.159 95.0856 145.392 90.8598 145.937C84.4255 146.768 79.8581 152.622 80.6178 159.065C81.3773 165.508 87.1808 170.14 93.6319 169.451ZM150.967 116.965C153.097 116.467 157.732 116.631 160.066 116.643C163.513 116.65 170.175 116.862 173.37 116.608C171.28 112.527 169.287 108.397 167.392 104.222C167.053 103.49 164.899 98.4537 164.39 98.3585C160.335 98.4637 154.933 98.5451 150.918 98.3506C151.182 103.96 150.991 111.256 150.967 116.965ZM205.319 155.328C206.594 153.464 205.927 150.891 206.17 148.565C201.715 148.52 197.26 148.499 192.805 148.503C193.358 149.869 194.62 151.317 195.194 152.87C195.457 153.58 195.802 155.63 196.103 155.902C197.649 156.145 203.977 156.245 205.319 155.328ZM164.928 168.796C166.625 168.905 168.486 168.982 170.154 169.245C167.162 166.357 165.242 163.624 164.915 159.346C152.715 159.377 140.514 159.322 128.315 159.18L115.602 159.194C113.342 159.202 110.068 159.298 107.895 159.126C107.583 162.69 105.822 166.252 103.083 168.557L102.899 168.711C107.638 168.481 112.436 168.131 117.159 167.979C128.98 167.643 140.809 167.721 152.624 168.212C155.945 168.361 161.865 168.443 164.928 168.796ZM203.327 138.632C203.278 136.591 203.217 134.779 203.382 132.734C201.723 132.836 198.679 132.843 197.025 132.726C197.076 134.536 197.47 135.505 198.83 136.796C199.975 137.9 201.442 138.61 203.019 138.823L203.327 138.632ZM178.566 145.93C172.088 146.856 167.572 152.838 168.456 159.322C169.34 165.806 175.293 170.36 181.783 169.516C188.331 168.666 192.935 162.647 192.043 156.105C191.15 149.562 185.103 144.997 178.566 145.93ZM140.992 155.836C140.74 153.974 140.864 152.134 140.833 150.264C140.775 146.82 140.903 143.232 140.782 139.803C140.643 139.757 140.535 139.696 140.417 139.717C133.405 139.817 126.274 139.784 119.255 139.734C101.59 139.608 83.8598 139.949 66.2055 139.768C66.3475 142.134 66.3594 146.097 66.2351 148.463C65.7461 157.767 70.2228 155.852 77.0938 155.99C77.1715 154.83 77.3286 153.839 77.7841 152.749C80.8243 144.5 89.4113 140.146 97.771 143.253C101.712 144.68 104.906 147.643 106.627 151.465C107.276 152.903 107.693 154.436 107.86 156.005C111.94 155.608 120.307 155.836 124.609 155.835L135.591 155.833C137.171 155.832 139.477 155.745 140.992 155.836Z" fill="#CCA66B"/>
<path d="M178.659 150.508C182.705 149.693 186.646 152.31 187.465 156.355C188.283 160.4 185.671 164.344 181.626 165.167C177.576 165.99 173.626 163.373 172.806 159.322C171.986 155.272 174.608 151.324 178.659 150.508ZM181.05 161.694C183.19 161.187 184.508 159.035 183.988 156.898C183.468 154.76 181.307 153.455 179.173 153.989C177.058 154.518 175.767 156.656 176.283 158.774C176.799 160.892 178.928 162.197 181.05 161.694Z" fill="#CCA66B"/>
<path d="M90.6293 150.525C94.6344 149.62 98.6179 152.122 99.5432 156.122C100.469 160.123 97.9884 164.119 93.9929 165.066C89.9675 166.019 85.9345 163.516 85.0023 159.486C84.0699 155.456 86.594 151.436 90.6293 150.525ZM88.4004 157.116C88.1858 158.31 88.5323 159.537 89.34 160.442C90.1476 161.348 91.3268 161.831 92.5378 161.754C93.896 161.667 95.1137 160.887 95.7601 159.689C96.4065 158.491 96.3903 157.045 95.7173 155.862C94.9878 154.58 93.6046 153.811 92.1308 153.869C90.2795 153.942 88.728 155.293 88.4004 157.116Z" fill="#CCA66B"/>
</svg>
