<?xml version="1.0" standalone="no"?>
<!DOCTYPE svg PUBLIC "-//W3C//DTD SVG 20010904//EN"
 "http://www.w3.org/TR/2001/REC-SVG-20010904/DTD/svg10.dtd">
<svg version="1.0" xmlns="http://www.w3.org/2000/svg"
 width="1536.000000pt" height="1024.000000pt" viewBox="0 0 1536.000000 1024.000000"
 preserveAspectRatio="xMidYMid meet">

<g transform="translate(0.000000,1024.000000) scale(0.100000,-0.100000)"
fill="#000000" stroke="none">
<path d="M8470 5029 c-129 -4 -305 -13 -390 -20 -251 -19 -2534 -24 -3285 -8
-727 16 -1361 17 -1635 1 -107 -6 -262 -14 -345 -17 -155 -6 -554 -28 -825
-45 -245 -16 -402 -38 -595 -85 -77 -18 -182 -37 -234 -40 -203 -15 -462 -96
-551 -172 -61 -52 -51 -76 37 -92 59 -12 163 -60 163 -76 0 -6 -73 -33 -162
-60 -90 -27 -188 -60 -218 -74 -53 -24 -54 -25 -25 -28 57 -7 59 -12 18 -42
-22 -16 -60 -52 -84 -80 -32 -37 -51 -51 -70 -51 -15 0 -32 -7 -39 -15 -10
-12 -8 -16 13 -24 14 -6 56 -24 94 -42 37 -17 110 -46 161 -64 104 -36 118
-45 77 -45 -15 0 -43 -11 -61 -25 -18 -14 -35 -25 -39 -25 -9 0 -115 -82 -115
-89 0 -3 -13 -20 -29 -37 -31 -33 -38 -79 -13 -89 9 -3 51 -9 94 -12 43 -3 81
-10 84 -15 3 -4 -3 -8 -14 -8 -31 0 -219 -97 -254 -131 -21 -21 -26 -30 -14
-25 10 3 24 2 30 -3 34 -27 193 -55 396 -71 80 -7 201 -18 270 -26 69 -8 180
-19 247 -26 68 -6 123 -14 123 -17 0 -4 -73 -7 -162 -9 -90 -2 -192 -9 -228
-16 -36 -8 -56 -14 -45 -15 11 0 30 -8 42 -16 42 -30 193 -58 503 -95 228 -27
455 -48 650 -60 91 -6 176 -13 190 -15 14 -3 60 -7 103 -9 44 -3 82 -7 85 -11
6 -5 -56 -4 -383 10 -72 3 -114 2 -105 -3 18 -11 253 -37 520 -57 107 -9 263
-21 345 -27 172 -13 525 -15 1945 -9 558 3 1382 0 1830 -7 1359 -20 3700 -26
4580 -12 432 6 1120 16 1530 20 410 5 792 14 850 20 58 6 152 15 210 20 91 8
82 8 -70 4 -96 -2 -292 -6 -435 -8 -220 -4 -238 -3 -115 4 371 22 581 30 770
30 306 -1 520 22 520 56 0 8 -12 16 -27 20 -16 3 -41 10 -58 16 -16 6 -135 13
-262 16 -128 2 -233 8 -233 13 0 5 3 8 8 7 17 -4 558 14 672 23 194 15 368 47
415 76 l40 25 -32 -6 c-18 -3 -35 -1 -38 4 -3 6 1 7 9 4 22 -9 21 22 -1 31
-10 5 -26 7 -37 6 -10 -2 -15 2 -12 7 9 14 -27 24 -86 24 -26 0 -48 4 -48 9 0
5 18 9 41 9 68 0 312 41 354 59 l40 17 -70 21 c-38 12 -95 26 -125 33 -30 7
-77 21 -105 31 -27 10 -87 27 -131 38 -45 11 -98 26 -118 35 -31 13 -35 18
-27 38 4 12 19 25 32 28 19 5 21 8 9 15 -8 5 -18 10 -22 11 -5 1 -11 2 -15 3
-5 1 -1 5 7 11 12 7 10 11 -10 18 -14 6 -60 24 -102 41 -101 40 -210 67 -338
83 l-105 13 115 6 c82 5 135 14 185 31 75 26 85 40 33 49 l-33 6 28 11 c16 7
33 12 39 12 6 0 40 11 77 24 36 13 89 27 118 31 29 4 57 13 64 21 6 8 23 14
37 14 23 0 23 1 -12 25 -20 14 -43 25 -49 25 -7 0 -18 5 -23 10 -28 28 -416
140 -485 140 -22 0 -30 3 -23 10 9 9 73 18 308 40 55 6 101 12 104 15 9 8 -27
53 -48 60 -23 7 -25 16 -7 34 10 11 10 14 0 18 -7 3 -13 10 -13 17 0 33 -72
74 -190 108 l-65 18 88 -6 c229 -16 547 -28 596 -24 l53 5 -128 32 c-71 18
-153 37 -181 44 -51 11 -67 23 -41 31 11 4 -122 25 -342 54 -115 15 -169 24
-335 56 -60 11 -130 24 -155 28 -295 49 -375 61 -500 74 -332 35 -972 71
-1520 86 -405 11 -2918 10 -3260 -1z m3283 -56 c-7 -2 -19 -2 -25 0 -7 3 -2 5
12 5 14 0 19 -2 13 -5z m-3540 -20 c-7 -2 -19 -2 -25 0 -7 3 -2 5 12 5 14 0
19 -2 13 -5z m4695 -24 c84 -7 149 -16 145 -20 -11 -10 -239 8 -333 26 -67 13
-69 14 -20 10 30 -3 124 -10 208 -16z m567 -44 c269 -30 334 -40 297 -48 -44
-9 -492 44 -492 59 0 7 53 4 195 -11z m-11640 -35 c-3 -5 -21 -9 -38 -9 l-32
2 35 7 c19 4 36 8 38 9 2 0 0 -3 -3 -9z m-162 -27 c-7 -2 -21 -2 -30 0 -10 3
-4 5 12 5 17 0 24 -2 18 -5z m12227 -33 c12 -8 11 -10 -7 -10 -12 0 -25 5 -28
10 -8 13 15 13 35 0z m-13153 -876 c-3 -3 -12 -4 -19 -1 -8 3 -5 6 6 6 11 1
17 -2 13 -5z m13966 -571 c-7 -2 -19 -2 -25 0 -7 3 -2 5 12 5 14 0 19 -2 13
-5z m-936 -140 c-20 -2 -52 -2 -70 0 -17 2 0 4 38 4 39 0 53 -2 32 -4z
m-10917 -119 c52 -3 97 -8 100 -11 2 -2 -111 -3 -252 -1 -180 2 -261 7 -269
15 -12 12 215 11 421 -3z m989 -30 c2 -2 -117 -3 -265 -2 -233 2 -250 3 -124
8 136 6 380 2 389 -6z"/>
<path d="M2498 3083 c12 -2 32 -2 45 0 12 2 2 4 -23 4 -25 0 -35 -2 -22 -4z"/>
<path d="M13858 3063 c6 -2 18 -2 25 0 6 3 1 5 -13 5 -14 0 -19 -2 -12 -5z"/>
</g>
</svg>
