<?xml version="1.0" standalone="no"?>
<!DOCTYPE svg PUBLIC "-//W3C//DTD SVG 20010904//EN"
 "http://www.w3.org/TR/2001/REC-SVG-20010904/DTD/svg10.dtd">
<svg version="1.0" xmlns="http://www.w3.org/2000/svg"
 width="1536.000000pt" height="1024.000000pt" viewBox="0 0 1536.000000 1024.000000"
 preserveAspectRatio="xMidYMid meet">

<g transform="translate(0.000000,1024.000000) scale(0.100000,-0.100000)"
fill="#000000" stroke="none">
<path d="M10287 5140 c-8 -10 -13 -21 -9 -23 4 -2 0 -1 -8 1 -8 3 -25 5 -37 4
-13 0 -54 0 -93 0 -417 6 -821 -3 -936 -23 -90 -15 -489 -21 -579 -9 -115 15
-225 21 -225 11 0 -6 -12 -11 -27 -14 -16 -2 10 -2 57 1 51 2 95 -1 110 -7 21
-9 13 -11 -40 -6 -36 3 -105 0 -155 -5 -58 -7 -105 -7 -135 -1 -25 5 -79 17
-120 26 -54 12 -95 15 -145 10 -95 -9 -87 -9 -210 3 -146 14 -339 8 -450 -12
-71 -14 -114 -16 -215 -10 -166 10 -572 5 -585 -7 -12 -12 -105 -12 -105 1 0
6 -5 10 -11 10 -5 0 -7 -5 -4 -10 5 -8 -22 -9 -84 -5 -50 3 -132 7 -181 10
-50 3 -98 8 -108 11 -15 5 -15 4 -2 -6 12 -9 2 -10 -45 -4 -33 4 -98 8 -145 9
-47 2 -110 5 -140 8 -30 3 -47 3 -38 -1 9 -4 -35 -8 -99 -9 -63 -1 -143 -7
-178 -14 -34 -7 -71 -9 -81 -4 -36 14 -466 -1 -492 -18 -7 -5 -45 -10 -85 -12
-40 -2 -85 -8 -100 -14 -32 -12 -178 -14 -247 -2 -25 4 -137 1 -250 -6 -150
-9 -232 -10 -305 -2 -125 13 -322 12 -440 -2 -101 -12 -252 -7 -335 10 -77 16
-152 22 -145 10 4 -5 2 -9 -2 -9 -5 0 -14 9 -21 20 -8 14 -24 20 -50 21 -31 0
-34 2 -17 10 13 6 -19 8 -95 5 -63 -2 -152 1 -197 6 -57 7 -129 7 -240 -1
-256 -19 -522 -24 -539 -11 -10 9 -47 10 -126 6 -62 -3 -136 -6 -165 -5 -28 0
-54 -5 -58 -11 -5 -7 -37 -11 -89 -10 -44 1 -99 -3 -121 -10 -44 -13 -286 -20
-279 -8 8 12 -27 9 -71 -7 -22 -8 -58 -14 -80 -15 -26 0 -35 -3 -27 -9 8 -5
35 -7 60 -5 39 3 43 2 22 -6 -21 -8 -19 -9 15 -6 22 2 60 1 85 -4 l45 -7 -52
-2 c-28 0 -64 -6 -80 -13 l-28 -11 45 -9 c44 -8 648 -10 745 -2 28 2 140 6
250 10 110 3 205 6 210 6 6 0 33 -4 60 -8 52 -9 351 -8 490 1 117 8 469 5 550
-5 217 -27 493 -31 675 -11 162 18 300 26 420 24 63 -1 327 -5 585 -9 769 -12
1326 -6 1495 16 47 6 135 10 195 8 241 -4 816 5 920 14 61 6 180 12 265 13
134 2 143 2 67 -5 -49 -5 -91 -11 -95 -14 -3 -3 35 -6 84 -6 243 -1 590 -13
599 -20 6 -4 43 -11 83 -14 71 -6 113 -1 322 44 25 5 90 14 145 20 128 13 942
20 1122 10 76 -4 163 -4 193 0 82 13 214 15 415 6 119 -5 195 -4 225 3 25 5
46 7 48 3 1 -4 107 -7 235 -7 177 0 238 3 250 13 8 7 44 17 79 21 45 6 -12 9
-207 11 -148 1 -274 2 -279 1 -5 -1 -3 5 4 14 10 13 27 15 79 11 36 -2 77 -7
91 -11 14 -3 36 -2 50 3 18 7 4 11 -66 17 -143 13 -384 3 -384 -16 0 -5 -9 -9
-21 -9 -11 0 -18 4 -15 9 7 11 -66 23 -157 26 -37 1 -71 5 -74 9 -3 3 1 6 10
6 26 0 20 20 -5 21 -13 1 -53 3 -89 5 -54 2 -68 0 -82 -16z m618 -51 c-22 -4
-51 -8 -65 -7 l-25 0 25 8 c14 4 43 8 65 8 l40 0 -40 -9z m-272 -6 c-7 -2 -19
-2 -25 0 -7 3 -2 5 12 5 14 0 19 -2 13 -5z m-9050 -10 c-7 -2 -21 -2 -30 0
-10 3 -4 5 12 5 17 0 24 -2 18 -5z m5005 0 c-10 -2 -26 -2 -35 0 -10 3 -2 5
17 5 19 0 27 -2 18 -5z m4495 -20 c-7 -2 -21 -2 -30 0 -10 3 -4 5 12 5 17 0
24 -2 18 -5z m-10243 -33 c0 -5 -10 -10 -22 -10 -19 0 -20 2 -8 10 19 13 30
13 30 0z m2110 0 c0 -5 -8 -10 -17 -10 -15 0 -16 2 -3 10 19 12 20 12 20 0z
m90 -6 c0 -2 -18 -4 -40 -4 -22 0 -40 3 -40 8 0 4 18 6 40 4 22 -2 40 -6 40
-8z m5635 -5 c6 -1 -17 -5 -50 -10 -33 -4 -85 -12 -115 -18 -106 -21 -110 -22
-110 -5 0 13 -7 14 -38 9 -21 -3 -49 -1 -62 5 -23 10 -22 10 9 5 19 -3 39 -1
45 4 6 5 32 11 56 14 43 4 244 1 265 -4z m-6372 -6 c-7 -2 -21 -2 -30 0 -10 3
-4 5 12 5 17 0 24 -2 18 -5z m2705 -20 c-10 -2 -26 -2 -35 0 -10 3 -2 5 17 5
19 0 27 -2 18 -5z m-61 -9 c-3 -3 -12 -4 -19 -1 -8 3 -5 6 6 6 11 1 17 -2 13
-5z"/>
<path d="M8415 4990 c-4 -6 6 -7 27 -3 44 8 48 13 10 13 -17 0 -34 -4 -37 -10z"/>
<path d="M11488 5108 c12 -8 19 -18 15 -22 -4 -5 15 -6 44 -4 28 3 58 1 65 -3
8 -6 1 -9 -22 -10 -32 -1 -33 -2 -10 -9 22 -7 20 -8 -15 -10 l-40 -2 35 -10
c42 -11 23 -11 202 -2 96 5 152 3 160 -3 18 -14 79 -22 238 -29 74 -3 162 -10
195 -15 80 -12 165 -11 165 1 0 6 -10 11 -22 11 -19 1 -20 2 -4 6 10 3 22 1
27 -4 5 -5 44 -4 90 1 56 7 118 6 202 -2 133 -13 355 -15 262 -2 -27 4 -48 8
-45 8 18 6 626 12 672 7 34 -4 66 -15 79 -26 18 -16 31 -18 72 -13 33 5 48 4
44 -3 -9 -14 55 -22 238 -29 160 -7 353 12 425 41 48 20 177 48 222 49 21 0
35 2 32 5 -2 3 6 11 18 18 22 12 21 12 -14 13 -21 0 -38 3 -38 8 0 14 -227 -4
-247 -20 -7 -6 -20 -8 -28 -4 -8 3 -15 2 -15 -2 0 -5 -19 -9 -42 -11 -22 -1
-50 -7 -60 -12 -14 -7 -27 -6 -50 5 -17 9 -36 16 -42 15 -6 0 -2 -4 9 -8 12
-5 -14 -8 -68 -9 -48 0 -85 2 -83 6 2 4 -24 7 -57 6 -34 0 -71 2 -82 5 -18 4
-18 6 5 12 16 5 5 7 -35 7 -33 -1 -47 -3 -31 -5 21 -3 25 -7 16 -13 -16 -10
-121 -1 -134 11 -6 5 -37 9 -70 10 -34 0 -101 6 -151 12 -59 8 -132 9 -210 4
-78 -4 -121 -3 -123 3 -2 6 -67 10 -170 9 -92 0 -158 -4 -147 -8 22 -9 -104
-22 -189 -20 -42 1 -46 3 -21 8 17 4 -38 6 -122 5 -83 -1 -155 -4 -160 -7 -13
-8 -491 -17 -546 -10 -34 4 -45 9 -35 15 8 6 -9 7 -47 2 -80 -9 -204 -6 -224
6 -22 13 79 13 116 0 26 -9 27 -9 9 5 -14 11 -47 14 -130 14 -62 0 -121 3
-131 6 -15 5 -15 3 3 -7z m2467 -118 c3 -5 -1 -10 -9 -10 -8 0 -18 5 -21 10
-3 6 1 10 9 10 8 0 18 -4 21 -10z m102 -26 c-3 -3 -12 -4 -19 -1 -8 3 -5 6 6
6 11 1 17 -2 13 -5z"/>
<path d="M8938 5103 c6 -2 18 -2 25 0 6 3 1 5 -13 5 -14 0 -19 -2 -12 -5z"/>
<path d="M11315 5099 c-13 -6 4 -7 50 -3 39 4 72 8 74 10 9 8 -105 2 -124 -7z"/>
<path d="M12848 5103 c6 -2 18 -2 25 0 6 3 1 5 -13 5 -14 0 -19 -2 -12 -5z"/>
<path d="M13648 5103 c12 -2 30 -2 40 0 9 3 -1 5 -23 4 -22 0 -30 -2 -17 -4z"/>
<path d="M13778 5103 c12 -2 32 -2 45 0 12 2 2 4 -23 4 -25 0 -35 -2 -22 -4z"/>
<path d="M12270 5090 c-13 -9 -13 -10 0 -9 8 0 24 4 35 9 l20 9 -20 0 c-11 0
-27 -4 -35 -9z"/>
<path d="M12350 5091 c24 -9 127 -15 119 -7 -2 2 -35 6 -74 9 -44 4 -61 3 -45
-2z"/>
<path d="M13878 5092 c-21 -2 -38 -8 -38 -14 0 -10 66 -5 78 7 9 8 -1 10 -40
7z"/>
<path d="M13960 5090 c-24 -8 -23 -8 8 -9 17 -1 32 4 32 9 0 11 -5 11 -40 0z"/>
<path d="M10968 5083 c7 -3 16 -2 19 1 4 3 -2 6 -13 5 -11 0 -14 -3 -6 -6z"/>
<path d="M11928 5083 c7 -3 16 -2 19 1 4 3 -2 6 -13 5 -11 0 -14 -3 -6 -6z"/>
<path d="M4688 5063 c12 -2 32 -2 45 0 12 2 2 4 -23 4 -25 0 -35 -2 -22 -4z"/>
<path d="M14443 5063 c9 -2 23 -2 30 0 6 3 -1 5 -18 5 -16 0 -22 -2 -12 -5z"/>
<path d="M14873 5043 c15 -2 39 -2 55 0 15 2 2 4 -28 4 -30 0 -43 -2 -27 -4z"/>
<path d="M13193 4993 c9 -2 25 -2 35 0 9 3 1 5 -18 5 -19 0 -27 -2 -17 -5z"/>
<path d="M14730 4990 c-12 -8 -10 -10 10 -9 14 0 34 4 45 9 17 7 16 9 -10 9
-16 0 -37 -4 -45 -9z"/>
<path d="M12815 4980 c-4 -6 6 -10 22 -10 22 0 25 2 13 10 -19 12 -27 12 -35
0z"/>
<path d="M14620 4980 c8 -5 26 -10 39 -10 32 0 24 6 -19 14 -25 4 -31 3 -20
-4z"/>
<path d="M683 4973 c15 -2 39 -2 55 0 15 2 2 4 -28 4 -30 0 -43 -2 -27 -4z"/>
<path d="M12988 4973 c7 -3 16 -2 19 1 4 3 -2 6 -13 5 -11 0 -14 -3 -6 -6z"/>
<path d="M13158 4973 c6 -2 18 -2 25 0 6 3 1 5 -13 5 -14 0 -19 -2 -12 -5z"/>
<path d="M12943 4953 c9 -2 23 -2 30 0 6 3 -1 5 -18 5 -16 0 -22 -2 -12 -5z"/>
</g>
</svg>
