<?xml version="1.0" standalone="no"?>
<!DOCTYPE svg PUBLIC "-//W3C//DTD SVG 20010904//EN"
 "http://www.w3.org/TR/2001/REC-SVG-20010904/DTD/svg10.dtd">
<svg version="1.0" xmlns="http://www.w3.org/2000/svg"
 width="1536.000000pt" height="1024.000000pt" viewBox="0 0 1536.000000 1024.000000"
 preserveAspectRatio="xMidYMid meet">

<g transform="translate(0.000000,1024.000000) scale(0.100000,-0.100000)"
fill="#000000" stroke="none">
<path d="M7341 9689 c-13 -17 -20 -36 -18 -43 3 -7 31 -25 63 -40 54 -26 57
-29 40 -41 -41 -31 9 -69 157 -117 70 -23 96 -36 92 -46 -3 -8 -5 -23 -5 -35
0 -29 -37 -31 -114 -6 -40 13 -64 16 -76 9 -10 -5 -30 -6 -46 -2 -16 5 -50 6
-76 4 l-48 -4 23 -19 22 -18 -31 8 c-17 5 -40 13 -50 19 -11 6 -48 20 -83 32
-35 12 -89 34 -120 49 -49 24 -60 26 -92 17 -21 -6 -34 -16 -32 -23 3 -9 -15
-11 -74 -9 -80 4 -96 8 -189 51 -53 24 -58 25 -103 11 -27 -8 -67 -26 -89 -40
-33 -20 -39 -29 -35 -48 9 -35 29 -54 78 -73 61 -23 59 -44 -2 -43 -41 0 -151
-6 -243 -13 -14 -1 -74 12 -133 29 -60 17 -115 28 -123 25 -8 -3 -17 -16 -20
-29 -5 -19 2 -31 32 -60 21 -19 50 -37 64 -41 14 -3 39 -15 55 -28 17 -12 51
-27 78 -35 42 -11 65 -30 36 -30 -15 0 -2 -50 18 -72 9 -10 30 -19 47 -19 l31
-1 -30 -7 c-18 -4 -43 -2 -63 6 -42 17 -52 11 -52 -33 0 -23 -5 -34 -15 -34
-19 0 -38 -37 -30 -57 3 -11 -6 -29 -27 -50 -32 -33 -55 -41 -73 -25 -20 18
-124 53 -147 50 -19 -2 -22 -8 -20 -30 3 -26 0 -28 -32 -28 -19 0 -46 4 -61
10 -31 12 -75 -12 -75 -40 0 -10 -7 -23 -15 -30 -22 -18 -18 -35 10 -48 34
-16 54 -15 89 3 33 17 45 13 26 -10 -8 -9 -29 -15 -55 -15 -24 0 -48 -6 -54
-14 -18 -21 -63 -30 -72 -14 -6 10 -13 7 -26 -12 l-18 -25 -5 35 -5 35 -21
-20 c-24 -23 -77 -51 -189 -96 -222 -90 -587 -404 -884 -759 -88 -105 -90
-111 -46 -105 19 2 35 0 35 -4 0 -11 -34 -41 -48 -41 -6 0 -16 -8 -21 -17 -10
-17 -10 -17 -11 0 0 20 -7 21 -38 4 -38 -22 -102 -107 -140 -190 l-37 -78 -36
6 c-33 6 -37 3 -61 -32 -14 -21 -54 -92 -88 -158 -35 -66 -78 -145 -96 -176
-67 -111 -195 -529 -253 -824 -68 -346 -78 -605 -31 -855 5 -30 19 -107 31
-170 45 -251 160 -622 263 -847 113 -246 231 -449 352 -603 87 -113 527 -556
610 -616 174 -126 337 -232 370 -242 22 -6 71 -33 109 -59 90 -60 265 -158
298 -167 14 -3 27 -1 29 4 2 6 41 -10 88 -35 93 -50 563 -283 649 -322 30 -13
79 -29 110 -35 31 -5 110 -38 182 -73 70 -36 149 -70 176 -76 26 -7 100 -32
163 -57 119 -46 200 -68 357 -98 145 -26 508 -19 753 16 36 5 88 12 115 15
203 22 484 72 630 111 90 24 425 139 565 194 75 30 211 111 217 130 2 8 9 23
14 33 5 9 7 17 4 17 -3 0 -59 -27 -124 -60 -367 -183 -604 -265 -756 -258
l-70 3 53 17 c233 75 477 184 638 285 44 28 102 62 130 76 27 14 106 64 176
111 70 47 131 86 135 86 5 0 30 13 56 30 26 16 47 25 47 20 0 -5 -5 -12 -11
-15 -5 -4 -15 -18 -20 -33 -15 -38 3 -49 43 -24 67 42 354 352 468 507 165
223 410 624 410 671 0 8 25 101 56 207 107 361 99 325 80 380 -19 53 -17 61
17 62 14 0 29 13 44 40 34 60 89 240 107 353 4 25 2 32 -11 32 -13 0 -15 10
-11 70 3 42 12 80 23 96 11 18 15 38 12 60 -3 18 0 59 8 91 7 32 13 92 13 133
0 41 7 107 15 145 46 210 55 255 62 305 4 30 18 107 31 170 13 63 24 128 24
144 0 16 9 60 21 99 16 56 18 74 9 91 -8 16 -8 30 -1 50 18 44 13 94 -11 127
-14 19 -22 42 -20 62 1 18 -5 46 -13 62 -11 22 -14 25 -14 10 3 -55 -6 -58
-48 -14 -22 21 -32 44 -36 77 -25 190 -38 269 -56 342 -44 180 -145 433 -175
438 -15 3 -17 0 -12 -14 4 -11 10 -32 12 -49 5 -29 5 -29 -11 -10 -9 11 -30
47 -47 80 -64 125 -131 238 -189 316 -59 79 -73 113 -29 69 12 -12 26 -20 31
-18 12 4 -40 83 -121 184 -31 38 -115 151 -185 250 -207 290 -295 404 -374
487 -109 114 -147 130 -71 30 22 -29 37 -59 34 -66 -2 -7 9 -26 26 -42 32 -31
40 -65 14 -65 -21 0 49 -88 201 -254 66 -72 132 -146 148 -164 32 -40 36 -73
7 -67 -15 3 -9 -9 25 -51 24 -29 49 -63 55 -75 11 -20 11 -20 -14 -4 -14 10
-26 20 -26 24 0 3 -21 29 -46 56 -25 28 -52 64 -61 80 -43 81 -148 198 -308
343 -73 66 -87 84 -75 92 12 8 -5 30 -90 115 -109 110 -157 151 -167 142 -3
-3 -5 -28 -5 -54 0 -36 8 -62 30 -100 17 -29 28 -55 23 -57 -9 -6 -85 31 -129
64 -18 13 -46 45 -62 70 -44 69 -193 176 -258 186 -49 7 -72 -5 -47 -26 8 -7
15 -16 15 -20 0 -7 -121 71 -208 134 -19 14 -40 22 -52 19 -11 -3 -38 6 -62
20 -24 13 -74 37 -113 52 -38 14 -93 37 -120 51 -28 13 -61 24 -74 24 -15 0
-38 15 -62 41 -21 23 -42 38 -48 35 -17 -11 -60 16 -81 51 -20 35 -40 44 -40
18 0 -18 -8 -18 -40 0 -32 18 -40 18 -40 0 0 -16 -31 -14 -75 5 -11 5 -38 14
-60 21 -22 7 -53 20 -70 30 -16 10 -48 28 -70 40 -22 12 -59 35 -82 50 -50 34
-53 35 -53 9 0 -17 -4 -19 -27 -14 -16 4 -35 11 -44 15 -38 20 -112 40 -125
35 -8 -3 -38 6 -66 19 -59 29 -82 31 -120 11 -25 -13 -30 -12 -60 8 -54 36
-100 61 -144 78 l-41 17 -22 -30z m-730 -455 c17 -8 29 -17 26 -20 -5 -5 -77
24 -77 31 0 9 21 5 51 -11z m-101 -232 c0 -26 -47 -40 -84 -26 -26 10 -18 22
17 27 59 7 67 7 67 -1z m-1050 -526 c0 -1 -36 -25 -80 -52 -51 -31 -82 -57
-86 -71 -3 -13 -11 -23 -18 -23 -6 0 -30 -10 -52 -23 -23 -12 -61 -32 -85 -45
l-44 -23 43 38 c23 21 42 43 42 50 0 6 10 18 23 26 18 13 19 18 8 26 -50 33
83 93 222 100 15 0 27 -1 27 -3z m4506 -123 c17 -13 55 -51 84 -84 l53 -61
-54 27 c-67 34 -119 72 -119 88 0 7 -9 23 -20 37 -38 49 -13 46 56 -7z m119
-23 c3 -5 1 -10 -4 -10 -6 0 -11 5 -11 10 0 6 2 10 4 10 3 0 8 -4 11 -10z
m182 -122 c63 -62 108 -124 142 -201 11 -25 -194 116 -228 157 -13 16 -12 17
13 10 l27 -6 -25 37 c-26 38 -31 56 -19 68 10 11 12 10 90 -65z m-5197 -9
c-11 -19 -10 -20 9 -9 39 20 21 -2 -73 -95 -109 -107 -252 -226 -236 -196 6
11 26 33 45 48 19 16 35 34 35 42 0 10 -11 5 -30 -14 -16 -16 -32 -26 -35 -23
-11 10 166 186 220 219 30 18 55 37 55 41 0 4 5 8 10 8 7 0 7 -7 0 -21z m5373
-243 c3 -8 22 -19 41 -26 20 -6 36 -18 36 -26 0 -8 6 -14 13 -15 20 -1 122
-124 147 -176 22 -48 94 -148 125 -173 9 -7 22 -27 29 -44 8 -17 33 -51 56
-76 23 -25 60 -72 81 -105 21 -33 39 -54 39 -47 0 21 20 13 51 -20 48 -54 114
-302 91 -344 -8 -14 -16 -8 -47 42 -72 111 -93 151 -130 245 -20 52 -50 118
-66 146 -16 29 -29 61 -30 70 0 16 -1 16 -11 2 -10 -15 -13 -14 -28 1 -10 10
-22 19 -26 21 -11 5 -159 199 -259 339 -39 55 -81 110 -93 123 -12 13 -22 31
-22 40 0 9 -4 17 -10 17 -5 0 -10 5 -10 10 0 15 17 12 23 -4z m-5763 -316
c-32 -24 -42 -14 -11 11 13 11 27 17 30 14 3 -4 -5 -15 -19 -25z m-230 -299
c0 -5 -3 -11 -7 -13 -16 -7 -125 -199 -156 -274 -18 -42 -36 -77 -42 -78 -5
-1 -11 14 -13 33 -6 57 59 184 137 267 65 70 81 83 81 65z m5640 -21 c0 -5 -6
-10 -14 -10 -8 0 -18 5 -21 10 -3 6 3 10 14 10 12 0 21 -4 21 -10z m761 -160
c61 -82 82 -127 64 -134 -22 -8 -42 18 -90 122 -61 130 -61 130 26 12z m-6646
-307 c-3 -10 -24 -63 -45 -118 -21 -55 -41 -108 -44 -118 -3 -10 -11 -15 -17
-11 -31 19 29 234 64 234 8 0 17 7 21 15 3 8 10 15 17 15 6 0 8 -7 4 -17z
m6993 -164 c4 -53 -13 -43 -24 15 -5 31 -4 38 7 34 8 -3 15 -22 17 -49z
m-7154 -41 c-4 -18 -15 -47 -24 -65 -10 -17 -22 -53 -25 -80 -4 -26 -9 -57
-12 -68 -5 -17 -3 -18 9 -8 8 7 20 31 27 54 18 58 26 40 13 -28 -6 -32 -16
-105 -22 -163 -13 -118 -23 -157 -86 -352 -24 -75 -44 -143 -44 -152 0 -24
-17 -19 -23 7 -28 109 -12 365 34 547 16 63 35 120 42 125 12 10 67 124 67
140 0 9 40 75 46 75 2 0 1 -15 -2 -32z m6853 -116 c-9 -10 -17 -30 -19 -47 -4
-30 -4 -30 -16 10 -6 22 -12 62 -12 89 l0 49 31 -42 c27 -38 29 -45 16 -59z
m188 -662 c-7 -36 -18 -76 -24 -90 -9 -22 -10 -19 -10 25 -1 51 17 198 27 225
14 38 20 -99 7 -160z m-35 66 c0 -8 -4 -17 -9 -20 -10 -7 -23 19 -14 28 11 11
23 6 23 -8z m24 -328 c-6 -31 -27 -33 -32 -5 -2 10 2 31 10 47 12 28 13 29 21
8 4 -12 5 -35 1 -50z m-7289 -286 c-6 -31 -9 -34 -15 -17 -11 26 -12 159 -2
169 11 12 25 -111 17 -152z m209 -74 c6 -54 -5 -63 -24 -18 -9 21 -10 50 -4
97 l7 68 8 -50 c4 -27 10 -71 13 -97z m-149 -213 c9 -44 22 -100 30 -125 12
-42 13 -43 14 -13 1 17 6 35 11 38 6 3 10 4 10 1 0 -38 61 -266 94 -350 43
-110 60 -166 52 -166 -9 0 -96 158 -125 225 -59 140 -138 438 -125 478 9 29
18 9 39 -88z m357 -137 l-32 -33 0 27 c0 31 38 64 54 48 7 -7 0 -21 -22 -42z
m6915 -52 c-3 -46 -11 -73 -27 -96 -26 -36 -35 -34 -20 4 5 15 10 38 10 51 0
24 28 105 36 105 3 0 3 -29 1 -64z m-6917 -95 c0 -10 -11 -26 -25 -35 -29 -19
-30 -16 -10 24 18 34 35 39 35 11z m410 -486 c1 -10 23 -41 101 -143 49 -63
68 -102 49 -102 -6 0 -51 38 -100 85 -49 46 -101 91 -114 100 -43 29 -96 148
-96 218 0 14 160 -143 160 -158z m6180 -46 c0 -5 -4 -9 -10 -9 -5 0 -10 7 -10
16 0 8 5 12 10 9 6 -3 10 -10 10 -16z m-6000 -325 c0 -8 -4 -12 -10 -9 -5 3
-10 13 -10 21 0 8 5 12 10 9 6 -3 10 -13 10 -21z m80 -15 c0 -5 -4 -9 -10 -9
-5 0 -10 7 -10 16 0 8 5 12 10 9 6 -3 10 -10 10 -16z m5905 -75 c-8 -20 -15
-38 -15 -40 0 -2 -4 -4 -10 -4 -15 0 -12 11 10 48 26 43 34 41 15 -4z m66 18
c-5 -10 -17 -24 -25 -32 -23 -18 -22 7 1 32 21 23 37 23 24 0z m-211 -312
c-17 -34 -29 -64 -27 -67 3 -2 24 23 46 56 23 34 43 61 46 61 14 0 -33 -79
-103 -173 -97 -130 -148 -187 -166 -187 -7 0 -23 -11 -36 -25 -13 -14 -27 -25
-32 -25 -12 0 28 65 91 149 73 96 99 137 158 252 47 92 48 93 51 57 2 -25 -6
-55 -28 -98z m-104 24 c-4 -9 -9 -15 -11 -12 -3 3 -3 13 1 22 4 9 9 15 11 12
3 -3 3 -13 -1 -22z m-75 -131 c-8 -15 -10 -15 -11 -2 0 17 10 32 18 25 2 -3
-1 -13 -7 -23z m-61 -120 c-5 -37 -19 -65 -63 -125 -31 -42 -61 -80 -67 -83
-6 -4 -10 12 -10 41 0 43 5 52 71 130 39 46 72 84 73 84 1 0 0 -21 -4 -47z
m-252 -379 c-12 -26 -34 -55 -48 -66 l-25 -20 -3 36 c-3 28 -7 36 -23 36 -20
0 -20 0 1 27 12 15 42 43 68 61 l47 33 3 -30 c2 -18 -6 -51 -20 -77z"/>
<path d="M8392 9658 c3 -7 27 -24 54 -38 32 -16 50 -32 52 -46 2 -17 41 -38
200 -107 261 -115 484 -217 555 -256 59 -32 83 -39 72 -21 -4 6 5 10 20 10 27
0 89 -41 240 -155 44 -34 95 -69 114 -78 l33 -17 -6 31 c-5 28 -4 30 10 18 10
-8 31 -21 48 -29 17 -8 57 -33 89 -54 31 -21 60 -36 64 -32 10 10 -197 207
-292 278 -90 68 -356 204 -510 260 -55 20 -183 69 -285 108 -292 112 -469 162
-458 128z"/>
<path d="M10895 7825 c57 -112 69 -130 88 -127 18 2 28 -9 55 -65 18 -37 42
-79 53 -93 l21 -25 -6 35 c-8 43 -127 290 -133 273 -2 -7 1 -21 7 -33 24 -45
-25 -2 -71 61 -79 110 -81 106 -14 -26z"/>
<path d="M9925 2631 c-42 -26 -72 -61 -59 -69 6 -4 10 -19 10 -34 -1 -16 0
-28 3 -28 12 0 83 55 92 71 10 20 2 52 -12 43 -13 -7 -7 19 6 28 22 16 -11 7
-40 -11z"/>
</g>
</svg>
