<?xml version="1.0" standalone="no"?>
<!DOCTYPE svg PUBLIC "-//W3C//DTD SVG 20010904//EN"
 "http://www.w3.org/TR/2001/REC-SVG-20010904/DTD/svg10.dtd">
<svg version="1.0" xmlns="http://www.w3.org/2000/svg"
 width="100%" height="100%" viewBox="200 200 1100 550"
 preserveAspectRatio="xMidYMid meet">

<g transform="translate(0.000000,1024.000000) scale(0.100000,-0.100000)"
fill="#000000" stroke="none">
<path d="M7553 7498 c-390 -294 -582 -456 -819 -693 -193 -193 -298 -318 -439
-524 -75 -109 -255 -407 -255 -422 0 -4 7 -15 16 -23 12 -13 41 -16 150 -16
l134 0 0 -587 c0 -324 -4 -594 -9 -601 -6 -9 -71 -15 -247 -22 -277 -11 -531
-26 -769 -45 -373 -31 -622 -60 -661 -77 -19 -9 -24 -18 -22 -37 3 -25 6 -26
72 -29 37 -2 125 4 195 12 226 27 626 54 1141 77 285 13 338 10 245 -10 -122
-27 -613 -184 -950 -305 -126 -45 -328 -126 -459 -184 -134 -59 -163 -85 -136
-117 17 -21 25 -20 120 21 382 161 1300 476 1670 573 113 30 318 52 307 34 -4
-6 -19 -14 -34 -18 -46 -11 -484 -210 -698 -317 -430 -215 -869 -491 -891
-561 -6 -20 17 -47 41 -47 6 0 53 32 105 71 110 82 304 205 458 288 148 81
518 269 627 318 50 23 144 67 210 98 66 31 174 79 240 107 66 28 125 54 130
59 6 4 53 11 105 14 52 3 105 8 118 11 37 7 25 -11 -20 -30 -60 -24 -394 -250
-391 -264 2 -6 -3 -9 -10 -7 -15 6 -300 -213 -292 -225 3 -5 0 -12 -6 -16 -8
-4 -9 -3 -5 4 17 27 -12 7 -105 -74 -241 -209 -484 -498 -459 -544 17 -32 52
-36 70 -9 187 286 550 611 1120 1004 207 142 229 155 270 155 25 0 56 3 70 7
18 5 -2 -22 -80 -103 -253 -263 -563 -746 -700 -1091 -38 -98 -36 -133 9 -133
26 0 31 7 80 123 122 281 290 569 488 829 152 201 307 368 341 368 l22 0 -6
-177 c-14 -470 -35 -1004 -40 -1058 -5 -50 -3 -64 13 -84 28 -35 60 -15 67 42
7 57 25 484 31 752 11 452 16 535 33 535 18 0 16 2 135 -165 237 -333 411
-638 568 -997 70 -160 74 -168 101 -168 17 0 31 7 35 16 9 23 -19 105 -94 272
-141 320 -350 673 -554 938 l-78 102 86 -6 86 -5 116 -84 c491 -354 832 -667
1048 -965 84 -115 105 -132 131 -106 22 22 12 54 -39 129 -82 118 -154 202
-314 364 -227 230 -525 474 -721 591 -123 73 -123 74 -17 74 106 0 96 3 373
-134 534 -266 959 -525 1264 -770 40 -31 88 1 70 48 -21 56 -688 494 -731 480
-12 -4 -14 -3 -6 3 16 12 -137 100 -427 246 -203 103 -262 136 -215 124 11 -3
47 -8 80 -12 69 -8 366 -101 695 -217 474 -167 725 -267 1020 -404 100 -46
123 -54 136 -43 25 20 13 61 -25 83 -53 30 -323 153 -471 213 -354 143 -912
335 -1037 357 -33 6 -22 16 12 12 22 -3 146 -10 275 -16 585 -26 887 -53 1422
-125 70 -10 134 -15 142 -12 24 9 20 54 -6 71 -41 26 -607 103 -918 124 l-95
7 -3 848 -2 847 33 0 c45 0 77 25 77 59 0 33 -14 41 -71 41 l-39 0 0 58 c-1
247 -171 476 -390 526 -122 28 -228 17 -330 -34 -63 -32 -145 -102 -181 -154
-13 -20 -28 -36 -32 -36 -5 0 -61 49 -125 109 -64 60 -139 128 -167 150 -361
291 -812 621 -848 621 -9 0 -82 -50 -164 -112z m223 -45 c26 -21 89 -67 140
-103 551 -390 878 -678 1035 -912 89 -132 319 -498 319 -508 0 -8 -150 -19
-170 -12 -5 2 -40 43 -77 90 -174 225 -407 487 -424 477 -4 -3 -13 3 -20 13
-13 15 -12 16 4 3 25 -20 21 -2 -6 23 -12 11 -61 57 -107 100 -113 107 -265
231 -462 381 -90 68 -185 140 -211 160 -27 21 -54 34 -62 31 -34 -13 -473
-358 -665 -522 -197 -169 -467 -452 -633 -666 l-68 -87 -87 -3 c-48 -2 -89 -2
-91 -1 -2 1 22 46 54 100 152 257 340 500 542 700 115 114 373 345 497 443
118 93 431 329 437 330 3 0 28 -17 55 -37z m244 -577 c85 -65 188 -148 228
-184 l72 -64 0 -383 c0 -333 2 -384 15 -395 10 -8 19 -10 25 -4 6 6 11 163 12
374 l3 365 153 -153 152 -153 0 -830 0 -829 -135 0 -135 0 0 488 c0 366 -3
491 -12 500 -9 9 -99 12 -345 12 l-333 0 0 220 0 219 138 3 137 3 3 239 c2
167 -1 243 -9 252 -9 11 -43 14 -140 14 l-129 0 0 245 c1 135 3 252 6 260 7
18 55 -14 294 -199z m-313 -189 c-1 -67 -3 -9 -3 128 0 138 2 192 3 122 2 -71
2 -183 0 -250z m-25 123 l-3 -239 -122 -3 -122 -3 0 -250 0 -250 123 -3 122
-3 0 -219 0 -220 -309 0 c-246 0 -311 -3 -320 -13 -7 -10 -12 -161 -13 -498
l-3 -484 -152 -3 -153 -3 0 796 0 795 168 167 167 168 5 -350 c5 -342 5 -350
25 -350 20 0 20 8 23 372 l2 372 100 87 c55 48 97 90 95 94 -3 4 3 14 13 21
15 13 16 12 3 -3 -32 -41 14 -9 174 122 94 76 172 139 175 139 3 1 4 -107 2
-239z m1765 14 c77 -37 157 -114 194 -185 34 -67 55 -178 50 -256 -1 -10 -66
-13 -288 -13 l-288 0 -79 120 c-43 66 -85 125 -92 131 -34 28 78 163 172 206
115 52 219 52 331 -3z m-706 -11 c13 -16 12 -17 -3 -4 -10 7 -18 15 -18 17 0
8 8 3 21 -13z m880 0 c13 -16 12 -17 -3 -4 -10 7 -18 15 -18 17 0 8 8 3 21
-13z m-46 -53 c10 -11 16 -20 13 -20 -3 0 -13 9 -23 20 -10 11 -16 20 -13 20
3 0 13 -9 23 -20z m-2335 -43 c0 -2 -10 -12 -22 -23 l-23 -19 19 23 c18 21 26
27 26 19z m-600 -30 c0 -2 -12 -14 -27 -28 l-28 -24 24 28 c23 25 31 32 31 24z
m2301 -84 c13 -16 12 -17 -3 -4 -10 7 -18 15 -18 17 0 8 8 3 21 -13z m-582
-107 c1 -67 -5 -55 -12 24 -4 42 -3 58 3 45 5 -11 9 -42 9 -69z m-679 -76 l0
-60 -85 0 -85 0 0 60 0 60 85 0 85 0 0 -60z m27 -32 c-2 -18 -4 -4 -4 32 0 36
2 50 4 33 2 -18 2 -48 0 -65z m203 32 l0 -60 -95 0 -95 0 0 60 0 60 95 0 95 0
0 -60z m447 -12 c-3 -7 -5 -2 -5 12 0 14 2 19 5 13 2 -7 2 -19 0 -25z m0 -140
c-2 -18 -4 -4 -4 32 0 36 2 50 4 33 2 -18 2 -48 0 -65z m-600 76 c-3 -3 -12
-4 -19 -1 -8 3 -5 6 6 6 11 1 17 -2 13 -5z m46 -61 c-7 -2 -19 -2 -25 0 -7 3
-2 5 12 5 14 0 19 -2 13 -5z m-96 -110 c-2 -21 -4 -4 -4 37 0 41 2 58 4 38 2
-21 2 -55 0 -75z m-27 37 l0 -60 -85 0 -85 0 0 60 0 60 85 0 85 0 0 -60z m230
-2 l0 -63 -95 3 -95 3 0 60 0 59 95 0 95 0 0 -62z m798 37 c-3 -3 -9 2 -12 12
-6 14 -5 15 5 6 7 -7 10 -15 7 -18z m985 -817 c-2 -462 -4 -842 -6 -844 -1 -2
-104 4 -227 11 -124 8 -244 15 -267 15 l-43 0 0 605 0 605 123 0 c90 0 128 4
143 14 19 14 18 15 -4 61 -12 25 -26 44 -30 41 -4 -2 -8 3 -8 12 0 9 -44 84
-97 165 -53 82 -97 150 -97 153 0 2 116 4 258 4 l257 0 -2 -842z m-1336 750
c-2 -13 -4 -5 -4 17 -1 22 1 32 4 23 2 -10 2 -28 0 -40z m544 -174 c75 -93
143 -175 152 -183 16 -12 17 -66 17 -614 l0 -600 -82 6 c-46 4 -122 7 -170 7
l-88 0 0 798 c0 757 1 796 18 776 9 -12 78 -98 153 -190z m-2221 -624 l0 -760
-125 0 -125 0 -2 268 c-1 147 -2 419 -1 604 l0 337 28 38 c51 67 217 273 221
273 2 0 4 -342 4 -760z m17 708 c-3 -7 -5 -2 -5 12 0 14 2 19 5 13 2 -7 2 -19
0 -25z m1010 -360 c-1 -62 -3 -12 -3 112 0 124 2 174 3 113 2 -62 2 -164 0
-225z m650 280 c-3 -8 -6 -5 -6 6 -1 11 2 17 5 13 3 -3 4 -12 1 -19z m780
-220 c-3 -8 -6 -5 -6 6 -1 11 2 17 5 13 3 -3 4 -12 1 -19z m-975 -294 c-23
-20 -40 -39 -37 -44 3 -4 -1 -7 -9 -6 -8 0 -95 -68 -194 -151 -99 -84 -185
-153 -189 -153 -5 0 -42 28 -83 62 -40 34 -141 117 -224 185 -83 69 -152 129
-154 134 -2 5 182 9 465 9 l468 0 -43 -36z m-849 -131 c96 -82 212 -179 260
-218 65 -53 83 -73 74 -81 -7 -6 -95 -79 -197 -162 -102 -82 -215 -175 -252
-206 l-68 -56 0 435 c0 239 2 435 5 435 3 0 83 -66 178 -147z m1016 -220 c-1
-197 -4 -388 -8 -425 l-6 -68 -100 86 c-55 47 -171 143 -259 212 l-158 127 27
20 c15 11 132 107 259 212 127 106 234 193 239 193 4 0 6 -161 6 -357z m-1922
15 c-3 -8 -6 -5 -6 6 -1 11 2 17 5 13 3 -3 4 -12 1 -19z m2730 -180 c-2 -13
-4 -3 -4 22 0 25 2 35 4 23 2 -13 2 -33 0 -45z m-1217 -119 c102 -83 203 -166
225 -185 l40 -33 -455 -1 c-382 0 -452 2 -440 14 8 7 73 60 144 117 71 57 166
134 210 171 45 37 83 67 86 67 3 1 88 -67 190 -150z m-109 -336 c13 -16 12
-17 -3 -4 -10 7 -18 15 -18 17 0 8 8 3 21 -13z m1442 0 c-7 -2 -21 -2 -30 0
-10 3 -4 5 12 5 17 0 24 -2 18 -5z m-3765 -30 c-10 -2 -26 -2 -35 0 -10 3 -2
5 17 5 19 0 27 -2 18 -5z m3799 -89 c-3 -3 -12 -4 -19 -1 -8 3 -5 6 6 6 11 1
17 -2 13 -5z m213 -74 c8 -5 11 -10 5 -10 -5 0 -17 5 -25 10 -8 5 -10 10 -5
10 6 0 17 -5 25 -10z m-225 -260 c3 -6 -1 -7 -9 -4 -18 7 -21 14 -7 14 6 0 13
-4 16 -10z"/>
<path d="M5490 7379 c-116 -22 -246 -116 -323 -232 -57 -85 -78 -156 -84 -276
-10 -184 32 -298 156 -422 112 -112 224 -159 380 -159 238 0 471 197 516 436
39 200 -12 372 -149 509 -79 78 -143 117 -231 140 -64 16 -192 18 -265 4z
m305 -132 c39 -19 76 -41 84 -50 16 -20 36 -23 25 -4 -4 6 -4 9 0 5 4 -3 7 -9
7 -12 -1 -3 19 -33 43 -66 67 -91 89 -156 90 -270 2 -160 -50 -269 -178 -372
-82 -65 -137 -83 -261 -83 -92 1 -106 3 -172 34 -273 126 -343 500 -136 722
90 96 168 127 323 128 100 1 109 -1 175 -32z m170 -7 c10 -11 16 -20 13 -20
-3 0 -13 9 -23 20 -10 11 -16 20 -13 20 3 0 13 -9 23 -20z"/>
</g>
</svg>
