<?xml version="1.0" standalone="no"?>
<!DOCTYPE svg PUBLIC "-//W3C//DTD SVG 20010904//EN"
 "http://www.w3.org/TR/2001/REC-SVG-20010904/DTD/svg10.dtd">
<svg version="1.0" xmlns="http://www.w3.org/2000/svg"
 width="1536.000000pt" height="1024.000000pt" viewBox="0 0 1536.000000 1024.000000"
 preserveAspectRatio="xMidYMid meet">

<g transform="translate(0.000000,1024.000000) scale(0.100000,-0.100000)"
fill="#000000" stroke="none">
<path d="M7400 6468 c-52 -5 -264 -10 -470 -12 -259 -2 -382 -6 -395 -14 -17
-10 -13 -12 30 -13 68 -1 104 -8 142 -26 36 -17 183 -14 363 6 63 8 243 9 531
6 385 -6 437 -4 448 9 27 32 -9 36 -449 50 -58 1 -148 -1 -200 -6z"/>
<path d="M8135 6420 c-10 -16 33 -27 160 -39 218 -19 507 -25 564 -10 41 10
56 10 71 1 24 -14 100 -16 100 -2 0 6 -8 10 -17 11 -10 1 -47 3 -82 5 -35 2
-192 13 -349 24 -317 22 -438 25 -447 10z"/>
<path d="M4298 6413 c7 -3 16 -2 19 1 4 3 -2 6 -13 5 -11 0 -14 -3 -6 -6z"/>
<path d="M5245 6411 c16 -15 155 -18 155 -3 0 4 -37 8 -82 10 -52 2 -79 -1
-73 -7z"/>
<path d="M5640 6410 c0 -5 9 -10 20 -10 11 0 20 5 20 10 0 6 -9 10 -20 10 -11
0 -20 -4 -20 -10z"/>
<path d="M5733 6405 c5 -14 103 -19 124 -6 16 9 15 11 -7 12 -83 5 -120 4
-117 -6z"/>
<path d="M5019 6396 c-3 -3 -25 -6 -49 -7 -25 -2 -59 -9 -77 -16 -37 -15 -109
-17 -117 -4 -11 17 -67 21 -90 5 -15 -9 -51 -16 -97 -17 -84 -2 -234 9 -250
19 -6 3 -30 1 -55 -6 -35 -10 -50 -10 -74 0 -23 9 -37 10 -53 2 -12 -6 -44
-13 -72 -16 -27 -3 -88 -12 -135 -20 -74 -11 -81 -14 -55 -22 31 -8 223 -11
377 -5 49 2 94 -1 105 -8 10 -6 16 -11 13 -11 -3 -1 -169 -4 -370 -7 -201 -3
-367 -7 -369 -9 -2 -2 -1 -7 3 -11 8 -9 16 -9 351 2 157 5 227 4 220 -3 -11
-11 -255 -33 -283 -25 -23 6 -75 -14 -67 -26 10 -17 -15 -23 -31 -7 -19 19
-61 20 -279 5 -88 -6 -169 -11 -180 -11 -11 0 -69 -4 -130 -8 -60 -5 -148 -12
-195 -15 -47 -3 -204 -16 -350 -29 -276 -23 -405 -25 -685 -6 -112 7 -186 7
-244 -1 -46 -5 -91 -7 -99 -4 -10 4 -12 0 -8 -11 3 -8 6 -18 6 -20 0 -2 42 -4
93 -4 50 0 111 -5 134 -10 23 -5 62 -11 88 -12 25 0 48 -5 51 -9 6 -10 -22
-15 -216 -39 -176 -21 -200 -24 -525 -69 -115 -16 -237 -32 -271 -36 -62 -7
-93 -18 -77 -28 5 -3 130 -1 278 4 147 5 334 8 414 5 80 -2 166 0 191 5 25 4
110 11 190 14 80 2 188 7 240 11 52 3 92 3 88 -1 -6 -7 -128 -34 -173 -40
-115 -13 -145 -18 -145 -26 0 -6 -8 -9 -17 -7 -12 2 -18 -3 -17 -14 1 -10 -1
-17 -5 -16 -3 1 -19 -4 -34 -10 -16 -7 -38 -12 -49 -12 -12 0 -35 -4 -52 -10
-17 -5 -44 -12 -60 -15 -51 -11 -8 -25 69 -24 39 1 81 -3 95 -9 24 -9 24 -10
-15 -21 -22 -6 -51 -11 -65 -11 -14 0 -41 -5 -60 -10 -45 -14 -191 -28 -400
-39 -167 -9 -300 -27 -300 -40 0 -5 134 -11 297 -15 392 -9 956 -33 1013 -44
45 -8 45 -8 -35 -16 -44 -3 -114 -11 -155 -16 -41 -6 -117 -8 -169 -6 -52 3
-102 1 -112 -4 -9 -5 -74 -12 -145 -15 -70 -4 -132 -9 -136 -11 -4 -3 -60 -9
-125 -15 -116 -10 -340 -50 -398 -71 -17 -6 -36 -21 -42 -35 -13 -26 -14 -25
42 -39 l30 -7 -31 -7 c-18 -4 -40 -10 -50 -14 -18 -7 -18 -8 0 -22 25 -18 19
-23 -45 -34 -59 -10 -149 -40 -219 -73 -43 -20 -44 -22 -18 -25 26 -3 27 -4
12 -27 -8 -12 -23 -22 -32 -20 -9 1 -11 0 -4 -2 6 -3 12 -8 12 -12 0 -7 103
-7 136 0 17 3 34 -1 34 -8 0 -5 -10 -9 -22 -10 -62 -5 -164 -26 -175 -35 -22
-18 -5 -25 44 -17 111 18 228 1 240 -36 1 -5 -28 -21 -65 -35 -37 -14 -67 -30
-66 -35 1 -13 -21 -35 -35 -35 -6 0 -11 -5 -11 -11 0 -14 272 -3 424 17 108
14 234 19 224 9 -4 -5 -43 -10 -198 -30 -25 -3 -56 -8 -69 -11 -13 -3 -123 -9
-245 -13 -164 -6 -231 -13 -259 -24 -41 -18 -55 -40 -38 -61 9 -10 8 -15 -4
-20 -69 -26 104 -35 247 -12 51 8 138 17 193 20 82 5 96 3 79 -7 -12 -6 -19
-17 -17 -23 2 -7 -9 -17 -24 -22 l-28 -10 28 -1 c34 -1 26 -21 -8 -21 -13 0
-27 -5 -31 -11 -3 -6 -20 -20 -38 -31 l-31 -20 100 9 c125 10 496 6 508 -6 13
-13 -115 -40 -208 -44 -44 -2 -90 -9 -103 -16 -25 -13 -30 -23 -7 -15 8 4 15
1 15 -4 0 -6 -9 -14 -20 -17 -11 -4 -18 -10 -15 -15 3 -5 -10 -16 -30 -24 -19
-8 -35 -16 -35 -18 0 -7 356 2 480 12 161 13 500 20 500 10 0 -4 -18 -10 -41
-13 -25 -3 -46 -13 -55 -26 -10 -14 -31 -23 -65 -27 -27 -4 -52 -11 -55 -15
-3 -5 -35 -9 -72 -10 -37 -1 -78 -4 -92 -8 -21 -6 -14 -9 40 -21 72 -16 306
-18 670 -7 124 4 207 4 195 -2 -18 -8 -220 -27 -375 -35 -101 -5 -450 -35
-547 -46 -49 -5 -123 -10 -166 -10 -74 0 -78 -1 -72 -20 5 -17 2 -19 -27 -18
-47 3 -149 -12 -173 -25 -19 -10 -19 -11 5 -18 14 -4 75 -7 136 -8 62 -1 156
-5 210 -11 55 -5 160 -11 234 -14 74 -3 151 -10 170 -16 19 -5 59 -10 89 -10
30 0 52 -2 49 -5 -11 -11 -541 -48 -645 -45 -24 0 -43 -3 -43 -8 0 -16 55 -21
705 -61 77 -4 349 -6 605 -4 370 3 475 7 512 19 56 17 310 14 344 -4 33 -18
970 -16 1119 3 42 5 83 2 136 -9 62 -13 116 -15 280 -10 151 4 227 2 294 -9
67 -10 95 -11 110 -3 26 14 458 11 655 -5 223 -18 794 12 814 43 8 14 16 14
65 -2 152 -48 459 -79 821 -85 185 -2 296 -8 315 -15 17 -7 110 -14 215 -17
239 -7 220 -8 330 7 74 10 146 10 325 1 127 -6 311 -13 410 -16 189 -5 416
-17 650 -35 232 -18 593 -23 650 -9 99 23 196 27 309 12 61 -8 124 -13 140
-10 17 3 54 1 81 -3 28 -5 79 -11 115 -14 36 -2 97 -12 135 -21 119 -28 172
-35 416 -49 226 -14 414 -12 425 5 5 8 -109 25 -135 20 -7 -1 -10 2 -6 8 3 6
35 11 71 11 60 0 64 1 50 16 -9 8 -16 20 -16 25 0 14 -72 41 -83 30 -10 -10
-44 -1 -103 30 -21 10 -44 19 -51 19 -7 0 -13 5 -13 10 0 6 68 10 183 11 191
0 258 7 264 25 5 16 -68 52 -120 60 -23 3 -85 19 -137 34 -52 16 -102 28 -110
28 -44 -1 -239 14 -260 20 -43 11 107 18 215 10 121 -9 98 -9 275 1 276 16
327 47 172 106 -42 16 -87 40 -100 52 -12 13 -26 22 -30 21 -4 -1 -27 2 -52 6
-25 5 -70 9 -101 8 -46 0 -56 3 -55 16 1 13 -9 18 -38 20 -25 2 -36 0 -31 -7
8 -13 -19 -14 -43 -2 -9 5 -34 17 -55 27 -21 11 -41 22 -43 27 -3 4 36 7 87 7
51 0 90 3 87 6 -3 3 -48 12 -99 20 -52 9 -96 18 -99 21 -3 3 54 3 125 -1 72
-3 198 -9 280 -12 83 -3 251 -12 375 -20 124 -7 263 -14 310 -13 l85 0 -44 14
c-23 7 -77 17 -120 21 -72 7 -74 8 -36 15 22 4 138 8 257 8 119 1 219 5 222 9
3 5 -52 18 -122 30 -70 12 -138 24 -152 26 -101 20 -310 49 -481 66 -112 11
-213 22 -224 25 -11 2 -54 7 -95 10 -41 3 -86 8 -100 10 -14 3 -137 12 -274
20 -136 9 -285 22 -330 30 -189 33 -425 57 -636 66 -268 11 -386 21 -397 33
-4 5 44 5 112 1 66 -4 231 -7 367 -6 277 2 672 -13 943 -35 236 -19 741 -30
775 -16 23 10 21 11 -18 11 -63 1 -43 17 30 25 87 9 178 28 178 38 0 4 -5 8
-11 8 -8 0 -8 5 1 15 7 8 21 15 31 15 11 0 19 5 19 10 0 6 -4 10 -8 10 -5 0
-53 9 -108 21 -54 11 -138 24 -186 29 -94 9 -119 17 -97 31 10 6 7 9 -11 10
-23 0 -23 1 -5 9 11 5 159 9 328 9 170 -1 311 2 315 6 15 14 -16 25 -183 63
-115 26 -325 54 -500 67 -106 8 -191 23 -238 40 -21 9 -71 15 -112 15 -43 0
-75 4 -75 10 0 6 9 10 19 10 11 0 22 4 25 9 7 10 288 7 352 -4 26 -4 44 -3 48
3 11 18 -101 35 -244 37 -141 3 -210 11 -210 26 0 12 -47 11 -55 -1 -3 -5 -18
-10 -33 -9 -23 0 -24 2 -8 8 27 10 3 25 -28 17 -14 -3 -28 0 -35 8 -10 12 -16
12 -39 0 -21 -10 -43 -11 -88 -5 -34 5 -84 8 -113 6 -28 -2 -51 0 -51 6 0 5
37 9 83 9 86 0 128 12 89 24 -12 4 -43 7 -69 6 -78 -2 -96 -2 -128 3 -16 3
-65 10 -108 16 -44 6 -95 15 -115 20 -21 5 -71 9 -112 10 -133 2 -243 12 -348
32 -84 16 -303 35 -412 36 -14 0 -92 5 -175 11 -82 7 -193 12 -245 13 l-95 2
125 7 c250 15 1142 21 1400 10 140 -6 316 -13 390 -15 74 -3 151 -7 170 -10
44 -7 82 5 71 23 -10 16 -44 24 -101 23 -52 -1 -370 18 -415 24 -16 3 -74 8
-127 11 -54 4 -98 11 -98 16 0 5 33 7 78 4 42 -3 196 -8 341 -11 145 -3 268
-8 272 -10 4 -3 76 -5 160 -6 126 0 163 -4 211 -20 51 -18 86 -21 322 -22 156
-1 258 2 249 7 -9 5 -44 11 -80 14 -35 2 -62 7 -59 9 10 10 149 34 251 43 116
11 259 16 780 30 176 4 321 8 323 9 1 1 2 6 2 12 0 5 -4 8 -8 5 -5 -3 -28 2
-53 10 -24 9 -73 18 -109 20 -254 20 -379 39 -400 62 -11 11 -17 22 -14 24 2
3 -67 5 -153 5 -87 1 -288 3 -448 6 -159 2 -356 6 -436 7 -80 1 -152 6 -160
11 -11 7 -11 9 4 9 9 0 17 5 17 11 0 6 -9 8 -20 4 -14 -5 -20 -2 -20 10 0 9
-6 15 -12 12 -7 -2 -12 -10 -10 -17 2 -7 -2 -16 -8 -20 -18 -11 -60 1 -60 16
0 17 -44 36 -65 28 -8 -4 -15 -2 -15 4 0 5 -10 10 -22 11 -62 1 -99 8 -110 19
-7 7 -32 12 -57 13 -26 0 -55 4 -66 8 -25 11 24 18 175 26 108 6 270 18 490
34 69 5 175 13 235 17 170 11 203 33 77 53 -136 21 -232 27 -597 36 -151 4
-245 1 -335 -9 -201 -24 -579 -10 -980 35 -47 5 -167 14 -267 19 -100 5 -239
14 -309 20 -70 5 -181 10 -248 11 -67 0 -161 7 -211 14 l-90 12 95 4 c167 5
480 0 695 -12 148 -8 633 -22 750 -22 73 1 145 13 145 24 0 5 -26 9 -57 9 -32
0 -119 8 -193 16 -74 9 -168 18 -207 21 -40 3 -73 9 -73 14 0 5 -16 9 -35 9
-19 0 -35 5 -35 11 0 5 -4 7 -10 4 -5 -3 -61 -1 -123 4 -105 9 -163 23 -178
44 -7 9 -131 3 -147 -7 -6 -3 -13 -2 -17 4 -8 13 -85 13 -85 0 0 -5 -16 -10
-35 -10 -25 0 -35 4 -35 16 0 10 -6 14 -17 10 -58 -17 -108 -24 -119 -15 -7 6
-30 5 -64 -2 -28 -6 -66 -8 -83 -5 -59 12 -89 13 -131 5 -22 -4 -43 -4 -46 0
-8 11 -37 20 -44 14 -3 -3 -29 -5 -58 -4 -29 1 -154 3 -278 6 -124 3 -270 10
-325 17 -55 6 -138 9 -185 7 -47 -2 -105 -3 -130 -2 -25 1 -72 1 -105 1 -33 0
-100 -1 -149 -1 -62 0 -91 4 -94 12 -3 9 -7 8 -16 -3 -10 -14 -34 -15 -206 -6
-107 5 -222 12 -255 15 -33 3 -222 10 -420 16 -198 5 -405 11 -460 14 -347 13
-1062 17 -1175 6 -209 -20 -210 -20 -210 -6 0 7 -7 15 -14 18 -10 4 -13 1 -9
-9 7 -18 -47 -20 -65 -2 -9 9 -15 10 -20 2 -5 -7 -66 -10 -187 -8 -99 2 -218
3 -265 3 -224 1 -318 3 -350 10 -19 4 -66 3 -104 -1 -53 -7 -71 -6 -78 4 -4 7
-8 10 -8 6 0 -4 -16 0 -35 8 -35 14 -58 18 -66 10z m4572 -242 c136 -8 275
-19 310 -23 l64 -8 -70 -2 c-64 -1 -405 19 -652 38 -57 4 -106 11 -110 15 -8
8 39 6 458 -20z m552 -31 c-7 -2 -19 -2 -25 0 -7 3 -2 5 12 5 14 0 19 -2 13
-5z m-6626 -99 c-3 -3 -12 -4 -19 -1 -8 3 -5 6 6 6 11 1 17 -2 13 -5z m3146
-91 c-7 -2 -21 -2 -30 0 -10 3 -4 5 12 5 17 0 24 -2 18 -5z m422 -22 c32 -7
19 -9 -62 -10 -58 -1 -104 3 -108 9 -8 12 112 13 170 1z m395 -22 c183 -20
218 -28 105 -24 -168 5 -439 25 -447 33 -10 10 220 5 342 -9z m3928 14 c-10
-2 -26 -2 -35 0 -10 3 -2 5 17 5 19 0 27 -2 18 -5z m425 -20 c-7 -2 -19 -2
-25 0 -7 3 -2 5 12 5 14 0 19 -2 13 -5z m480 0 c-7 -2 -21 -2 -30 0 -10 3 -4
5 12 5 17 0 24 -2 18 -5z m-4410 -30 c-7 -2 -21 -2 -30 0 -10 3 -4 5 12 5 17
0 24 -2 18 -5z m2467 -219 c146 -8 292 -19 326 -24 33 -6 94 -10 134 -10 40 0
71 -3 67 -6 -20 -20 -1015 26 -1222 56 -87 13 371 2 695 -16z m798 -21 c-16
-2 -40 -2 -55 0 -16 2 -3 4 27 4 30 0 43 -2 28 -4z m-4058 -32 l45 -7 -70 -7
c-82 -8 -196 2 -155 14 33 9 123 9 180 0z m4138 2 c-10 -2 -26 -2 -35 0 -10 3
-2 5 17 5 19 0 27 -2 18 -5z m-931 -109 c-3 -3 -12 -4 -19 -1 -8 3 -5 6 6 6
11 1 17 -2 13 -5z m2003 -290 c0 -2 -7 -4 -15 -4 -8 0 -15 4 -15 10 0 5 7 7
15 4 8 -4 15 -8 15 -10z m-10693 -270 c-3 -3 -12 -4 -19 -1 -8 3 -5 6 6 6 11
1 17 -2 13 -5z m8936 -121 c-7 -2 -19 -2 -25 0 -7 3 -2 5 12 5 14 0 19 -2 13
-5z m-8008 -97 l40 -12 -54 -8 c-54 -7 -80 2 -67 23 9 14 30 13 81 -3z m695
-5 c0 -4 -28 -16 -62 -27 -71 -21 -230 -26 -262 -7 -16 9 -3 12 70 18 49 4 96
13 105 19 18 12 149 9 149 -3z m448 -18 c60 -4 80 -9 72 -17 -15 -15 -365 -22
-356 -7 4 6 24 11 44 12 20 0 46 4 57 9 25 11 77 12 183 3z m-880 -15 c-3 -8
-25 -14 -54 -16 -47 -2 -48 -2 -24 13 31 18 83 20 78 3z m2217 2 c-3 -5 -10
-10 -16 -10 -5 0 -9 5 -9 10 0 6 7 10 16 10 8 0 12 -4 9 -10z m940 0 c88 -6
169 -12 180 -14 11 -3 49 -6 85 -7 42 -1 18 -5 -70 -9 -78 -4 -140 -3 -147 2
-6 5 -38 8 -70 8 -58 -2 -148 12 -160 24 -8 8 -8 8 182 -4z m-2140 -10 c3 -5
1 -10 -4 -10 -6 0 -11 5 -11 10 0 6 2 10 4 10 3 0 8 -4 11 -10z m352 -4 c4 -3
-56 -5 -133 -5 -76 1 -123 5 -104 8 42 8 229 5 237 -3z m-289 -3 c-10 -2 -26
-2 -35 0 -10 3 -2 5 17 5 19 0 27 -2 18 -5z m-1311 -9 c-3 -3 -12 -4 -19 -1
-8 3 -5 6 6 6 11 1 17 -2 13 -5z m4713 -4 c19 -6 9 -8 -37 -9 -34 -1 -65 4
-68 9 -7 12 68 12 105 0z m979 -6 c2 -2 -12 -4 -32 -4 -20 0 -37 4 -37 10 0 8
58 3 69 -6z m-1496 -1 c-7 -2 -19 -2 -25 0 -7 3 -2 5 12 5 14 0 19 -2 13 -5z
m2507 -13 c9 -6 -6 -7 -45 -3 -33 3 -62 7 -64 9 -10 9 95 3 109 -6z m2113 3
c-7 -2 -21 -2 -30 0 -10 3 -4 5 12 5 17 0 24 -2 18 -5z m-2600 -10 c-7 -2 -21
-2 -30 0 -10 3 -4 5 12 5 17 0 24 -2 18 -5z m2872 -29 c22 -7 90 -22 150 -33
61 -11 125 -23 144 -27 26 -5 36 -3 43 10 9 16 12 15 33 -8 14 -16 40 -28 65
-32 22 -4 43 -10 46 -15 10 -17 -44 -19 -121 -4 -44 9 -92 17 -106 19 -25 4
-118 32 -205 62 -22 8 -83 21 -134 30 -52 8 -97 17 -100 20 -9 10 144 -8 185
-22z m-6896 -64 c11 -7 -4 -9 -54 -10 -115 0 -235 12 -228 23 8 12 258 1 282
-13z m6524 -357 c-13 -2 -33 -2 -45 0 -13 2 -3 4 22 4 25 0 35 -2 23 -4z m84
-9 c-3 -3 -12 -4 -19 -1 -8 3 -5 6 6 6 11 1 17 -2 13 -5z m-1059 -181 c157 -6
201 -13 155 -27 -10 -2 -65 -10 -123 -16 -89 -9 -119 -9 -200 6 -52 9 -135 20
-185 24 -49 5 -101 9 -115 10 -21 2 -20 4 10 11 19 4 91 6 160 3 69 -2 203 -7
298 -11z m710 -2 c10 -6 6 -10 -14 -15 -22 -6 -25 -9 -13 -17 18 -11 -125 -11
-161 1 -14 4 -20 9 -15 10 138 29 184 34 203 21z m909 -57 c-3 -3 -12 -4 -19
-1 -8 3 -5 6 6 6 11 1 17 -2 13 -5z m467 -94 c59 -9 74 -15 64 -26 -4 -3 -23
-1 -45 5 -21 6 -90 11 -153 11 -124 0 -171 7 -148 21 15 10 194 2 282 -11z"/>
<path d="M9730 6343 c0 -14 97 -26 180 -24 87 3 104 21 20 21 -36 0 -95 3
-132 7 -44 4 -68 2 -68 -4z"/>
<path d="M3378 6288 c5 -5 16 -8 23 -6 8 3 3 7 -10 11 -17 4 -21 3 -13 -5z"/>
<path d="M3018 6283 c6 -2 18 -2 25 0 6 3 1 5 -13 5 -14 0 -19 -2 -12 -5z"/>
<path d="M2557 6249 c12 -12 113 -12 198 0 52 7 42 8 -74 9 -89 1 -130 -3
-124 -9z"/>
<path d="M2259 6226 c-2 -2 -31 -6 -64 -9 -81 -7 -173 -36 -154 -48 27 -17
210 -10 273 11 33 11 69 20 80 20 12 1 35 7 51 15 28 12 22 13 -76 14 -58 1
-108 -1 -110 -3z"/>
<path d="M2300 6161 c0 -8 79 -3 89 5 2 2 -17 4 -42 4 -26 0 -47 -4 -47 -9z"/>
<path d="M12089 6139 c-7 -4 17 -10 52 -14 69 -7 178 -3 196 8 6 4 19 4 30 0
10 -3 15 -2 10 3 -10 11 -271 14 -288 3z"/>
<path d="M12455 6140 c-30 -8 -30 -8 8 -9 20 0 37 4 37 9 0 11 -2 11 -45 0z"/>
<path d="M1300 6030 c0 -5 6 -10 14 -10 8 0 18 5 21 10 3 6 -3 10 -14 10 -12
0 -21 -4 -21 -10z"/>
<path d="M1693 5883 c9 -2 25 -2 35 0 9 3 1 5 -18 5 -19 0 -27 -2 -17 -5z"/>
<path d="M1380 5874 c-8 -1 -51 -6 -95 -10 -68 -6 -76 -8 -50 -16 44 -12 204
-8 320 8 55 8 105 16 110 19 12 4 -263 4 -285 -1z"/>
<path d="M12804 5276 c11 -9 33 -16 50 -16 41 0 22 17 -29 25 -37 6 -39 5 -21
-9z"/>
<path d="M12938 5183 c7 -3 16 -2 19 1 4 3 -2 6 -13 5 -11 0 -14 -3 -6 -6z"/>
<path d="M13598 4973 c7 -3 16 -2 19 1 4 3 -2 6 -13 5 -11 0 -14 -3 -6 -6z"/>
<path d="M1580 4060 c0 -5 5 -10 11 -10 5 0 7 5 4 10 -3 6 -8 10 -11 10 -2 0
-4 -4 -4 -10z"/>
<path d="M6173 3916 c36 -13 140 -31 237 -41 25 -2 96 -9 159 -16 123 -13 438
-7 481 9 24 9 6 12 -170 27 -25 2 -97 9 -160 14 -63 6 -221 13 -350 15 -206 5
-230 4 -197 -8z"/>
<path d="M4460 3911 c-16 -4 26 -12 115 -21 175 -17 310 -19 325 -4 9 9 -38
13 -187 19 -109 3 -205 8 -213 10 -8 1 -26 0 -40 -4z"/>
<path d="M9158 3873 c7 -3 16 -2 19 1 4 3 -2 6 -13 5 -11 0 -14 -3 -6 -6z"/>
<path d="M10533 3783 c9 -2 23 -2 30 0 6 3 -1 5 -18 5 -16 0 -22 -2 -12 -5z"/>
<path d="M11238 3773 c6 -2 18 -2 25 0 6 3 1 5 -13 5 -14 0 -19 -2 -12 -5z"/>
<path d="M11480 3772 c0 -14 99 -41 170 -45 85 -5 85 -5 35 8 -27 7 -60 14
-71 14 -12 1 -24 8 -28 16 -4 11 -19 14 -56 13 -27 -1 -50 -4 -50 -6z"/>
<path d="M10860 3740 c-10 -7 14 -9 75 -9 63 1 81 4 60 9 -44 11 -118 11 -135
0z"/>
</g>
</svg>
