<?xml version="1.0" standalone="no"?>
<!DOCTYPE svg PUBLIC "-//W3C//DTD SVG 20010904//EN"
 "http://www.w3.org/TR/2001/REC-SVG-20010904/DTD/svg10.dtd">
<svg version="1.0" xmlns="http://www.w3.org/2000/svg"
 width="1536.000000pt" height="1024.000000pt" viewBox="0 0 1536.000000 1024.000000"
 preserveAspectRatio="xMidYMid meet">

<g transform="translate(0.000000,1024.000000) scale(0.100000,-0.100000)"
fill="#000000" stroke="none">
<path d="M8060 5804 c8 -2 49 -8 90 -13 66 -7 69 -9 26 -10 -87 -2 -43 -11
110 -21 82 -6 183 -14 224 -18 41 -4 127 -6 190 -5 63 1 160 2 214 3 180 0 94
10 -138 14 -125 3 -233 9 -239 15 -7 5 -75 12 -152 15 -77 3 -174 10 -215 15
-74 10 -139 12 -110 5z m453 -41 c-7 -2 -19 -2 -25 0 -7 3 -2 5 12 5 14 0 19
-2 13 -5z"/>
<path d="M7471 5748 c13 -5 55 -8 94 -7 38 0 96 -4 128 -10 32 -7 74 -11 95
-9 26 2 9 7 -58 16 -115 17 -295 23 -259 10z"/>
<path d="M6865 5730 l-130 -6 125 -2 c69 -1 132 3 140 8 8 5 11 9 5 8 -5 -1
-68 -5 -140 -8z"/>
<path d="M7040 5730 c0 -5 10 -10 23 -10 18 0 19 2 7 10 -19 13 -30 13 -30 0z"/>
<path d="M7848 5723 c6 -2 18 -2 25 0 6 3 1 5 -13 5 -14 0 -19 -2 -12 -5z"/>
<path d="M8655 5709 c-114 -7 -95 -10 75 -13 254 -5 525 -17 590 -26 90 -13
373 -28 635 -35 121 -3 254 -7 295 -10 74 -4 74 -4 15 4 -33 5 -118 12 -189
15 -71 4 -134 9 -138 13 -5 3 -55 5 -111 4 -103 -1 -457 21 -642 39 -121 12
-406 17 -530 9z"/>
<path d="M9710 5710 c14 -4 32 -8 40 -9 13 -1 13 0 0 9 -8 5 -26 9 -40 9 l-25
-1 25 -8z"/>
<path d="M8515 5700 l-20 -9 20 0 c11 0 27 4 35 9 13 9 13 10 0 9 -8 0 -24 -4
-35 -9z"/>
<path d="M4261 5691 c-13 -3 21 -6 76 -6 56 0 99 3 96 8 -5 9 -138 8 -172 -2z"/>
<path d="M5610 5689 c-25 -4 -72 -9 -105 -10 l-60 -3 75 -5 c41 -3 86 -2 100
3 14 5 102 8 195 8 94 -1 186 3 205 7 46 12 -348 12 -410 0z"/>
<path d="M7708 5693 c12 -2 30 -2 40 0 9 3 -1 5 -23 4 -22 0 -30 -2 -17 -4z"/>
<path d="M9830 5690 c14 -9 98 -15 89 -6 -2 3 -27 7 -54 10 -34 4 -45 3 -35
-4z"/>
<path d="M7868 5683 c34 -2 90 -2 125 0 34 2 6 3 -63 3 -69 0 -97 -1 -62 -3z"/>
<path d="M6760 5678 c8 -8 320 -27 535 -32 115 -3 176 -1 155 4 -19 5 -120 11
-225 14 -104 3 -253 8 -330 12 -77 4 -138 4 -135 2z"/>
<path d="M10028 5663 c28 -2 76 -2 105 0 28 2 5 3 -53 3 -58 0 -81 -1 -52 -3z"/>
<path d="M2143 5653 c9 -2 23 -2 30 0 6 3 -1 5 -18 5 -16 0 -22 -2 -12 -5z"/>
<path d="M5618 5653 c7 -3 16 -2 19 1 4 3 -2 6 -13 5 -11 0 -14 -3 -6 -6z"/>
<path d="M5668 5653 c12 -2 30 -2 40 0 9 3 -1 5 -23 4 -22 0 -30 -2 -17 -4z"/>
<path d="M5765 5649 c17 -5 104 -14 195 -20 91 -6 188 -12 215 -14 147 -10
327 -13 280 -4 -27 5 -63 6 -80 3 -19 -3 -25 -2 -17 4 15 10 -104 19 -358 27
-85 3 -180 7 -210 10 -45 3 -49 2 -25 -6z"/>
<path d="M8490 5655 c-8 -3 -78 -9 -155 -15 -153 -11 -202 -17 -216 -25 -5 -4
-57 -10 -116 -16 -60 -5 -137 -13 -173 -19 -57 -8 -374 -7 -815 4 -77 2 -219
-2 -315 -10 -96 -7 -214 -13 -262 -13 -86 -1 -128 -16 -66 -24 29 -3 29 -4 -9
-5 -23 -1 -43 3 -45 8 -2 7 -36 7 -103 1 l-100 -10 83 3 c46 2 77 -1 70 -5 -7
-5 79 -9 192 -9 117 0 246 -6 300 -14 52 -7 117 -14 144 -14 27 -1 52 -6 56
-11 3 -5 28 -14 55 -20 l50 -10 -57 4 c-128 11 -1047 15 -1073 5 -42 -16 -551
-26 -569 -11 -16 13 -72 18 -83 8 -3 -4 13 -7 37 -7 62 0 45 -8 -30 -15 -49
-4 -61 -3 -50 6 11 8 -1 9 -50 5 -302 -28 -1170 -28 -1691 0 -96 5 -120 4
-140 -9 -15 -10 -44 -16 -72 -15 -57 1 -56 5 4 17 33 7 8 9 -96 8 -77 0 -122
-2 -100 -4 22 -2 60 -6 85 -10 l45 -6 -35 -8 c-19 -4 -62 -9 -95 -10 -33 -1
-70 -8 -82 -15 -16 -10 -29 -11 -47 -4 -19 7 -26 5 -30 -6 -3 -8 -10 -13 -15
-9 -6 3 -22 3 -36 -1 -18 -4 -23 -9 -15 -14 7 -5 -7 -9 -34 -11 -39 -4 -45 -2
-41 12 5 14 -1 16 -42 11 -60 -6 -68 -12 -17 -12 50 0 26 -19 -26 -20 -19 -1
-62 -7 -95 -15 -59 -14 -58 -14 80 -10 83 2 124 0 100 -4 l-40 -8 50 -3 c28
-2 60 -4 72 -4 11 -1 24 -4 28 -7 3 -4 -60 -10 -142 -14 -81 -4 -200 -11 -263
-16 -292 -23 -1197 -22 -1159 2 8 4 -42 8 -114 7 -139 0 -187 9 -60 12 43 1
94 3 113 6 19 2 73 4 120 4 63 0 81 3 70 11 -11 8 -8 9 14 4 34 -7 367 -7 374
0 3 3 -33 5 -79 6 -46 0 -95 2 -109 4 -179 27 -459 32 -870 14 -135 -6 -258
-11 -275 -11 -25 0 -27 -1 -10 -8 21 -8 20 -9 -25 -23 -8 -3 21 -5 65 -5 44
-1 87 -3 95 -6 8 -3 74 -12 145 -21 72 -9 131 -20 133 -25 2 -6 27 -10 55 -10
29 0 70 -5 92 -10 22 -5 63 -10 92 -12 28 -2 49 -6 47 -9 -2 -4 55 -7 126 -8
72 -1 141 -6 154 -11 13 -5 26 -7 28 -5 8 8 58 13 53 5 -3 -4 -28 -11 -56 -15
-27 -4 -48 -10 -44 -13 3 -4 106 -8 228 -10 331 -4 476 -11 784 -34 115 -9
187 -9 295 0 245 20 345 24 328 13 -8 -6 -44 -11 -80 -11 -36 0 -83 -5 -105
-10 -22 -5 -80 -12 -130 -15 -49 -3 -115 -8 -145 -12 -30 -3 -107 -6 -170 -6
l-115 0 85 -7 c79 -7 121 -6 209 5 18 2 30 1 26 -3 -3 -4 -61 -12 -128 -18
l-122 -11 90 -2 c59 -2 83 -5 70 -11 -23 -9 -176 -7 -282 5 -56 6 -73 5 -73
-5 0 -8 8 -10 25 -6 14 4 25 2 25 -4 0 -5 7 -10 15 -10 8 0 15 5 15 10 0 6 5
10 10 10 23 0 8 -20 -22 -30 l-33 -10 32 5 c18 3 48 7 65 10 l33 6 -30 -14
-30 -14 29 -7 c20 -5 32 -3 37 6 7 11 9 11 9 0 0 -7 8 -12 17 -11 10 1 61 0
113 -2 l95 -3 -70 -5 -70 -6 100 -9 c117 -10 658 -1 760 13 39 5 115 14 171
20 55 6 137 19 183 30 45 11 90 17 98 14 11 -4 14 -2 9 5 -5 9 15 12 76 13 46
0 92 2 103 5 47 10 388 25 470 21 50 -3 74 -2 55 2 -54 10 -9 19 70 13 46 -4
59 -7 45 -13 -11 -5 52 -8 146 -7 119 0 172 -3 190 -13 13 -7 38 -12 54 -11
24 2 27 1 15 -8 -12 -9 -8 -10 15 -5 34 8 41 9 72 7 16 -2 21 -6 16 -18 -5
-14 -3 -15 16 -5 16 9 42 9 104 1 97 -14 120 -25 29 -14 -52 5 -62 4 -62 -9 0
-21 77 -31 183 -24 52 4 68 3 44 -2 -20 -4 -39 -10 -42 -13 -12 -11 722 9 960
27 347 26 1117 49 1092 33 -7 -5 -2 -8 13 -9 31 -1 66 -4 200 -20 58 -6 123
-11 145 -11 22 1 47 -2 55 -5 8 -3 22 -8 30 -10 25 -6 243 -24 282 -24 20 0
40 -4 43 -10 4 -6 -3 -7 -19 -3 -21 5 -25 3 -20 -9 4 -11 17 -14 47 -11 33 3
37 2 17 -5 -16 -5 29 -8 120 -7 80 1 174 -2 210 -6 80 -10 75 -10 190 -4 52 3
145 7 205 10 185 9 407 27 459 37 27 5 93 9 147 9 54 0 100 4 103 8 9 15 997
20 1246 8 l105 -6 -90 14 c-199 32 -245 37 -357 39 -64 1 -115 4 -113 8 2 3
-17 6 -43 6 -40 0 -41 0 -9 -4 20 -2 37 -9 37 -15 0 -5 -8 -7 -17 -4 -32 13
-219 26 -336 25 -64 -1 -120 1 -124 5 -5 5 283 11 327 7 13 -2 13 -1 0 8 -21
15 -343 9 -361 -5 -14 -12 -251 -25 -244 -15 2 3 -101 6 -228 6 -300 1 -454 5
-536 16 -240 32 -393 43 -631 46 -146 2 -295 8 -332 13 -37 6 -244 11 -460 12
-216 1 -364 4 -328 7 73 7 940 4 1010 -4 79 -8 507 -17 952 -19 238 -2 465 -6
503 -9 61 -5 64 -5 20 3 -55 10 -239 31 -252 29 -24 -4 -215 2 -211 7 3 3 167
7 364 9 198 2 388 8 424 14 123 19 235 26 420 26 176 0 430 -12 439 -21 2 -2
-149 -4 -336 -4 -187 0 -364 -4 -394 -9 -30 -5 -85 -15 -124 -22 -38 -7 -88
-14 -110 -16 -174 -12 -149 -18 92 -20 152 -1 270 -6 281 -12 12 -6 22 -7 28
-1 6 6 42 6 94 0 47 -6 137 -13 200 -15 63 -3 216 -11 340 -18 293 -15 622
-16 641 -1 8 7 52 15 99 18 47 3 112 10 145 15 37 5 67 5 78 -1 10 -5 26 -6
35 -2 14 6 13 8 -8 15 -24 8 -24 8 5 6 17 -1 32 -5 35 -8 3 -4 46 -9 95 -12
l90 -5 -90 12 -90 12 65 12 c36 6 90 14 120 17 30 4 93 13 139 22 56 10 111
13 170 8 47 -3 113 -8 146 -10 33 -3 130 -7 215 -11 85 -3 157 -8 159 -10 2
-2 -79 -4 -181 -4 -147 0 -187 -3 -191 -14 -4 -9 3 -13 21 -13 15 -1 180 0
367 0 449 2 643 0 919 -8 146 -5 232 -3 238 3 6 6 -13 10 -57 11 -37 0 -70 3
-75 6 -4 3 -45 0 -89 -6 -60 -8 -108 -8 -179 0 -53 7 -209 12 -347 12 -148 1
-239 4 -223 9 72 22 615 36 718 18 80 -13 260 -11 277 4 8 6 24 7 40 2 l28 -7
-30 -8 c-18 -5 14 -7 83 -6 61 1 112 -2 112 -7 0 -4 12 -5 28 -1 15 4 97 11
182 16 364 22 391 26 175 29 -88 1 -185 6 -215 10 -43 6 -27 8 75 7 195 -1
255 2 228 13 -31 12 -68 18 -133 20 -42 2 -49 4 -30 10 16 5 -10 9 -78 11 -79
3 -99 1 -87 -8 9 -6 13 -13 8 -16 -9 -5 -164 0 -228 8 -37 4 -37 4 -8 -4 18
-5 39 -13 45 -19 7 -5 24 -13 38 -16 14 -3 -83 -2 -215 1 -304 8 -317 8 -395
16 -53 5 -59 5 -31 -4 18 -5 30 -13 27 -17 -10 -9 -566 -10 -560 -1 3 5 18 9
35 9 16 0 29 4 29 10 0 5 13 7 29 4 16 -4 32 -1 35 5 4 6 22 11 39 11 18 0 44
7 60 14 19 11 70 16 170 18 78 1 171 7 207 13 l65 11 -108 7 c-59 3 -131 3
-160 0 -36 -4 -49 -2 -42 5 6 5 62 12 125 15 190 8 474 29 487 36 6 3 -276 6
-627 6 -534 0 -641 2 -652 14 -11 12 -10 13 2 9 21 -7 215 10 264 23 23 6 59
13 81 15 22 2 60 8 85 12 l45 8 -55 7 c-45 5 -210 4 -535 -3 -32 0 -36 -3 -23
-11 10 -5 79 -10 155 -10 76 0 143 -3 150 -7 6 -4 -366 -7 -827 -7 -461 0
-833 3 -827 6 7 4 80 10 162 13 83 4 182 11 220 16 79 10 457 20 995 25 201 2
407 7 458 11 90 6 93 7 75 24 -14 13 -23 15 -43 7 -29 -11 -338 -12 -485 -2
-124 9 -117 9 -365 1 -264 -9 -414 -13 -795 -21 -170 -3 -365 -10 -433 -16
-163 -13 -452 -10 -452 5 0 7 -3 7 -8 -1 -8 -12 -851 -38 -1207 -36 -937 3
-1090 2 -1099 -7 -13 -13 -393 -14 -400 -1 -8 12 157 21 584 29 195 4 348 9
340 10 -8 2 -37 8 -65 13 -27 6 -106 14 -174 18 -80 6 -126 13 -131 21 -5 7
-13 9 -21 5 -7 -5 -38 -10 -68 -11 -39 -3 -51 0 -41 6 8 5 33 10 55 11 22 1
54 5 70 9 30 8 30 8 3 9 -44 2 -60 11 -47 27 9 12 4 14 -32 14 -58 0 -139 24
-115 33 10 4 26 7 37 7 10 0 19 5 19 11 0 8 19 10 63 6 34 -3 51 -2 37 2 l-25
7 25 7 c36 10 43 9 37 -5 -3 -10 16 -12 83 -10 67 3 87 7 87 18 0 10 -14 14
-46 15 l-46 2 55 7 c55 7 434 3 458 -5 6 -2 12 -1 12 4 0 4 -30 11 -67 15 -82
8 -662 17 -683 11z m-203 -101 c-3 -3 -12 -4 -19 -1 -8 3 -5 6 6 6 11 1 17 -2
13 -5z m-1290 -70 c-3 -3 -12 -4 -19 -1 -8 3 -5 6 6 6 11 1 17 -2 13 -5z m235
-46 c57 -6 116 -17 133 -24 l30 -12 -45 -6 c-41 -6 -788 -14 -1282 -15 -115 0
-265 -5 -335 -11 -131 -11 -490 -31 -530 -31 -13 1 -23 -3 -23 -8 0 -4 -44
-11 -99 -14 -54 -4 -113 -9 -132 -12 -29 -4 -30 -3 -9 4 l25 9 -26 1 c-40 2
-89 -10 -83 -20 5 -9 -5 -11 -76 -11 -57 0 -60 1 -60 11 0 6 19 12 43 14 24 2
13 4 -28 4 -71 0 -110 -11 -100 -27 3 -5 -11 -4 -31 2 -20 5 -46 7 -57 4 -12
-3 -26 -1 -33 5 -8 6 -15 4 -24 -6 -7 -8 -27 -15 -44 -14 l-31 1 33 9 c17 5
32 11 32 13 0 8 -244 -4 -253 -13 -5 -5 9 -7 37 -4 31 4 46 2 46 -6 0 -7 -23
-11 -62 -11 -38 0 -58 4 -50 9 9 5 -6 12 -44 19 -38 8 -61 9 -69 2 -6 -5 -15
-7 -18 -4 -3 4 -46 8 -94 9 -48 2 -98 4 -111 4 -19 1 -22 5 -17 22 7 21 5 21
-78 18 -47 -2 -84 -2 -82 1 2 3 -15 5 -38 6 -22 0 -42 5 -45 12 -2 7 -8 12
-13 12 -6 0 -7 -4 -4 -10 4 -6 -7 -10 -27 -10 -25 0 -29 3 -18 10 11 7 7 10
-17 10 -25 0 -31 -3 -26 -16 5 -13 -1 -15 -43 -9 -27 4 -57 11 -66 16 -9 5
-39 9 -67 9 -27 0 -53 4 -56 10 -9 14 715 1 805 -15 53 -9 148 -15 340 -20 96
-2 193 -7 215 -10 25 -4 35 -3 27 3 -8 6 30 9 105 9 70 1 123 -3 131 -10 8 -6
16 -7 20 -1 4 5 14 9 22 9 14 0 189 16 390 35 52 5 160 12 240 15 156 6 226
11 390 25 133 12 167 12 430 -4 118 -7 240 -13 270 -13 30 0 176 -1 324 -2
147 -1 270 0 273 3 3 2 -22 7 -54 11 -60 6 -115 23 -81 24 10 1 64 -4 120 -11z
m-3889 -75 c-23 -2 -64 -2 -90 0 -26 2 -7 3 42 3 50 0 71 -1 48 -3z m-315 -10
c-10 -2 -28 -2 -40 0 -13 2 -5 4 17 4 22 1 32 -1 23 -4z m165 0 c-7 -2 -19 -2
-25 0 -7 3 -2 5 12 5 14 0 19 -2 13 -5z m10012 -3 c-16 -4 -39 -8 -50 -8 l-20
-1 20 9 c11 5 34 8 50 8 l30 0 -30 -8z m-10272 -7 c-7 -2 -19 -2 -25 0 -7 3
-2 5 12 5 14 0 19 -2 13 -5z m6335 0 c-10 -2 -26 -2 -35 0 -10 3 -2 5 17 5 19
0 27 -2 18 -5z m200 0 c-21 -2 -55 -2 -75 0 -21 2 -4 4 37 4 41 0 58 -2 38 -4z
m85 0 c-7 -2 -19 -2 -25 0 -7 3 -2 5 12 5 14 0 19 -2 13 -5z m-6673 -13 c-20
-13 -33 -13 -25 0 3 6 14 10 23 10 15 0 15 -2 2 -10z m-1793 -17 c-20 -2 -52
-2 -70 0 -17 2 0 4 38 4 39 0 53 -2 32 -4z m3066 -30 c-7 -2 -19 -2 -25 0 -7
3 -2 5 12 5 14 0 19 -2 13 -5z m-3073 -11 c0 -4 -16 -6 -35 -4 -19 2 -35 6
-35 8 0 2 16 4 35 4 19 0 35 -4 35 -8z m3283 1 c-7 -2 -21 -2 -30 0 -10 3 -4
5 12 5 17 0 24 -2 18 -5z m9237 -33 c0 -5 -4 -10 -10 -10 -5 0 -10 5 -10 10 0
6 5 10 10 10 6 0 10 -4 10 -10z m-8295 -61 c88 -10 203 -26 255 -34 52 -8 164
-19 249 -24 84 -6 156 -13 160 -17 3 -3 -73 -5 -169 -4 -203 3 -203 3 -195
-10 11 -17 -121 -12 -139 5 -18 19 -26 19 -26 1 0 -7 10 -17 23 -21 14 -4 17
-8 9 -12 -7 -3 -20 1 -28 8 -9 8 -39 13 -70 12 -31 -1 -52 2 -49 8 4 5 27 10
53 10 l47 2 -60 8 c-33 5 -87 14 -120 20 -71 12 -225 9 -225 -5 0 -5 -8 -2
-18 7 -14 12 -53 18 -177 24 -88 4 -139 9 -112 11 26 2 45 7 42 12 -4 7 54 14
205 23 69 4 169 -3 345 -24z m9400 -9 c4 -6 -5 -10 -20 -10 -15 0 -24 4 -20
10 3 6 12 10 20 10 8 0 17 -4 20 -10z m-832 -37 c-7 -2 -19 -2 -25 0 -7 3 -2
5 12 5 14 0 19 -2 13 -5z m650 0 c-7 -2 -19 -2 -25 0 -7 3 -2 5 12 5 14 0 19
-2 13 -5z m-9580 -33 c9 0 17 -5 17 -11 0 -14 -60 -4 -75 13 -7 8 -3 9 15 4
14 -3 33 -6 43 -6z m142 0 c3 -5 -1 -10 -9 -10 -8 0 -18 5 -21 10 -3 6 1 10 9
10 8 0 18 -4 21 -10z m52 4 c-3 -3 -12 -4 -19 -1 -8 3 -5 6 6 6 11 1 17 -2 13
-5z m141 -9 c1 -1 -5 -4 -15 -7 -10 -2 -29 2 -43 9 -24 13 -23 13 15 7 22 -4
41 -8 43 -9z m9110 8 c-10 -2 -26 -2 -35 0 -10 3 -2 5 17 5 19 0 27 -2 18 -5z
m59 1 c-3 -3 -12 -4 -19 -1 -8 3 -5 6 6 6 11 1 17 -2 13 -5z m-9747 -14 c10
-7 -5 -9 -50 -8 -63 1 -64 1 -20 8 25 4 47 8 50 8 3 1 12 -3 20 -8z m87 4 c-3
-3 -12 -4 -19 -1 -8 3 -5 6 6 6 11 1 17 -2 13 -5z m61 -1 c-10 -2 -26 -2 -35
0 -10 3 -2 5 17 5 19 0 27 -2 18 -5z m167 -3 c3 -5 2 -10 -4 -10 -5 0 -13 5
-16 10 -3 6 -2 10 4 10 5 0 13 -4 16 -10z m8098 -7 c-7 -2 -21 -2 -30 0 -10 3
-4 5 12 5 17 0 24 -2 18 -5z m-7700 -20 c-7 -2 -19 -2 -25 0 -7 3 -2 5 12 5
14 0 19 -2 13 -5z m152 -4 c10 -15 -1 -23 -20 -15 -9 3 -13 10 -10 16 8 13 22
13 30 -1z m-1895 -9 c0 -5 -5 -10 -11 -10 -5 0 -7 5 -4 10 3 6 8 10 11 10 2 0
4 -4 4 -10z m4325 1 c37 -8 36 -9 -22 -9 -35 1 -63 5 -63 9 0 11 32 11 85 0z
m-398 -7 c-3 -3 -12 -4 -19 -1 -8 3 -5 6 6 6 11 1 17 -2 13 -5z m226 -1 c-13
-2 -33 -2 -45 0 -13 2 -3 4 22 4 25 0 35 -2 23 -4z m317 -3 c11 0 10 -4 -4
-12 -15 -8 -21 -8 -24 0 -2 6 -10 8 -18 5 -8 -3 -14 0 -14 7 0 8 8 10 23 6 12
-3 29 -6 37 -6z m-2847 -7 c-7 -2 -21 -2 -30 0 -10 3 -4 5 12 5 17 0 24 -2 18
-5z m75 0 c-10 -2 -26 -2 -35 0 -10 3 -2 5 17 5 19 0 27 -2 18 -5z m65 0 c-7
-2 -21 -2 -30 0 -10 3 -4 5 12 5 17 0 24 -2 18 -5z m-2750 -20 c-7 -2 -21 -2
-30 0 -10 3 -4 5 12 5 17 0 24 -2 18 -5z m5300 0 c-7 -2 -19 -2 -25 0 -7 3 -2
5 12 5 14 0 19 -2 13 -5z m3562 -3 c-27 -5 -63 -8 -80 -8 -29 0 -29 0 -5 8 14
4 50 8 80 8 l55 -1 -50 -7z m-3712 -7 c-7 -2 -19 -2 -25 0 -7 3 -2 5 12 5 14
0 19 -2 13 -5z m-5275 -28 c4 -4 -24 -4 -62 -1 -38 3 -71 8 -75 11 -3 4 25 5
62 2 37 -2 71 -8 75 -12z m967 5 c-66 -11 -238 -10 -180 0 22 4 83 7 135 7 81
0 88 -1 45 -7z m118 3 c-7 -2 -19 -2 -25 0 -7 3 -2 5 12 5 14 0 19 -2 13 -5z
m-960 -10 c-7 -2 -19 -2 -25 0 -7 3 -2 5 12 5 14 0 19 -2 13 -5z m2824 1 c-3
-3 -12 -4 -19 -1 -8 3 -5 6 6 6 11 1 17 -2 13 -5z m3773 -14 c0 -5 -6 -10 -14
-10 -8 0 -18 5 -21 10 -3 6 3 10 14 10 12 0 21 -4 21 -10z m229 -4 c-2 -2 -35
-7 -74 -10 -47 -4 -65 -3 -55 4 14 9 138 15 129 6z m-1542 -12 c-3 -3 -12 -4
-19 -1 -8 3 -5 6 6 6 11 1 17 -2 13 -5z m76 -1 c-7 -2 -21 -2 -30 0 -10 3 -4
5 12 5 17 0 24 -2 18 -5z m2000 0 c-7 -2 -19 -2 -25 0 -7 3 -2 5 12 5 14 0 19
-2 13 -5z m-610 -20 c-7 -2 -21 -2 -30 0 -10 3 -4 5 12 5 17 0 24 -2 18 -5z
m135 0 c-21 -2 -57 -2 -80 0 -24 2 -7 4 37 4 44 0 63 -2 43 -4z m-1051 -29
c-3 -3 -12 -4 -19 -1 -8 3 -5 6 6 6 11 1 17 -2 13 -5z"/>
<path d="M3610 5380 c0 -13 30 -13 50 0 11 7 7 10 -17 10 -18 0 -33 -4 -33
-10z"/>
<path d="M4033 5353 c9 -2 23 -2 30 0 6 3 -1 5 -18 5 -16 0 -22 -2 -12 -5z"/>
<path d="M5075 5350 c17 -4 46 -8 65 -8 l35 0 -40 9 c-22 4 -51 8 -65 7 -23 0
-22 -1 5 -8z"/>
<path d="M4528 5333 c6 -2 18 -2 25 0 6 3 1 5 -13 5 -14 0 -19 -2 -12 -5z"/>
<path d="M4688 5333 c6 -2 18 -2 25 0 6 3 1 5 -13 5 -14 0 -19 -2 -12 -5z"/>
<path d="M3878 5323 c6 -2 18 -2 25 0 6 3 1 5 -13 5 -14 0 -19 -2 -12 -5z"/>
<path d="M4525 5310 c-3 -5 -2 -10 4 -10 5 0 13 5 16 10 3 6 2 10 -4 10 -5 0
-13 -4 -16 -10z"/>
<path d="M4188 5303 c6 -2 18 -2 25 0 6 3 1 5 -13 5 -14 0 -19 -2 -12 -5z"/>
<path d="M5073 5153 c9 -2 23 -2 30 0 6 3 -1 5 -18 5 -16 0 -22 -2 -12 -5z"/>
<path d="M2198 5643 c-64 -7 -42 -20 30 -18 37 1 112 3 166 4 55 0 97 4 94 7
-7 7 -238 12 -290 7z"/>
<path d="M10945 5630 c-16 -7 -17 -9 -3 -9 9 -1 20 4 23 9 7 11 7 11 -20 0z"/>
<path d="M1615 5619 c-31 -4 2 -6 88 -7 75 -1 137 1 137 6 0 8 -154 9 -225 1z"/>
<path d="M1910 5620 c-10 -7 1 -8 35 -4 28 4 52 8 54 10 10 9 -75 3 -89 -6z"/>
<path d="M2073 5623 c15 -2 39 -2 55 0 15 2 2 4 -28 4 -30 0 -43 -2 -27 -4z"/>
<path d="M2750 5620 c-29 -6 -25 -7 22 -6 32 0 58 4 58 9 0 8 -31 7 -80 -3z"/>
<path d="M11028 5623 c7 -3 16 -2 19 1 4 3 -2 6 -13 5 -11 0 -14 -3 -6 -6z"/>
<path d="M2983 5613 c9 -2 23 -2 30 0 6 3 -1 5 -18 5 -16 0 -22 -2 -12 -5z"/>
<path d="M12018 5593 c23 -2 61 -2 85 0 23 2 4 4 -43 4 -47 0 -66 -2 -42 -4z"/>
<path d="M2128 5583 c7 -3 16 -2 19 1 4 3 -2 6 -13 5 -11 0 -14 -3 -6 -6z"/>
<path d="M3840 5540 c8 -5 24 -10 34 -10 26 0 18 6 -19 14 -22 5 -26 4 -15 -4z"/>
<path d="M8518 5543 c6 -2 18 -2 25 0 6 3 1 5 -13 5 -14 0 -19 -2 -12 -5z"/>
<path d="M5785 5529 c-34 -4 -14 -6 60 -6 108 -1 123 3 35 9 -25 2 -67 0 -95
-3z"/>
<path d="M12110 5530 l-135 -7 172 1 c94 1 166 4 160 8 -7 4 -23 7 -37 6 -14
-1 -86 -5 -160 -8z"/>
<path d="M13180 5530 c0 -5 24 -10 53 -9 38 0 47 3 32 9 -28 12 -85 12 -85 0z"/>
<path d="M3938 5523 c12 -2 32 -2 45 0 12 2 2 4 -23 4 -25 0 -35 -2 -22 -4z"/>
<path d="M10061 5526 c2 -2 33 -6 69 -9 40 -4 57 -2 45 3 -19 8 -123 14 -114
6z"/>
<path d="M10928 5523 c18 -2 45 -2 60 0 15 2 0 4 -33 4 -33 0 -45 -2 -27 -4z"/>
<path d="M12408 5523 c6 -2 18 -2 25 0 6 3 1 5 -13 5 -14 0 -19 -2 -12 -5z"/>
<path d="M10225 5509 c34 -10 105 -8 98 4 -2 4 -32 7 -66 6 -53 -1 -58 -2 -32
-10z"/>
<path d="M11642 5499 c-8 -12 -8 -19 -2 -19 5 0 10 4 10 9 0 5 8 11 18 13 15
3 15 4 1 10 -9 4 -20 -1 -27 -13z"/>
<path d="M5323 5503 c9 -2 23 -2 30 0 6 3 -1 5 -18 5 -16 0 -22 -2 -12 -5z"/>
<path d="M5453 5503 c9 -2 25 -2 35 0 9 3 1 5 -18 5 -19 0 -27 -2 -17 -5z"/>
<path d="M8618 5503 c7 -3 16 -2 19 1 4 3 -2 6 -13 5 -11 0 -14 -3 -6 -6z"/>
<path d="M11149 5500 c36 -16 252 -22 226 -7 -11 6 -71 13 -135 14 -86 2 -109
0 -91 -7z"/>
<path d="M11528 5503 c7 -3 16 -2 19 1 4 3 -2 6 -13 5 -11 0 -14 -3 -6 -6z"/>
<path d="M11698 5503 c7 -3 16 -2 19 1 4 3 -2 6 -13 5 -11 0 -14 -3 -6 -6z"/>
<path d="M13022 5503 c37 -2 100 -2 140 0 40 1 10 3 -67 3 -77 0 -110 -1 -73
-3z"/>
<path d="M10421 5496 c11 -12 288 -27 306 -17 11 6 -18 9 -88 10 -57 1 -131 4
-164 7 -33 4 -57 4 -54 0z"/>
<path d="M11413 5493 c9 -2 23 -2 30 0 6 3 -1 5 -18 5 -16 0 -22 -2 -12 -5z"/>
<path d="M10755 5480 c-3 -5 -1 -10 4 -10 6 0 11 5 11 10 0 6 -2 10 -4 10 -3
0 -8 -4 -11 -10z"/>
<path d="M11773 5483 c9 -2 25 -2 35 0 9 3 1 5 -18 5 -19 0 -27 -2 -17 -5z"/>
<path d="M11838 5483 c7 -3 16 -2 19 1 4 3 -2 6 -13 5 -11 0 -14 -3 -6 -6z"/>
<path d="M12960 5480 c0 -5 14 -7 33 -3 45 8 47 13 4 13 -20 0 -37 -4 -37 -10z"/>
<path d="M13318 5483 c7 -3 16 -2 19 1 4 3 -2 6 -13 5 -11 0 -14 -3 -6 -6z"/>
<path d="M13478 5483 c7 -3 16 -2 19 1 4 3 -2 6 -13 5 -11 0 -14 -3 -6 -6z"/>
<path d="M5063 5473 c9 -2 23 -2 30 0 6 3 -1 5 -18 5 -16 0 -22 -2 -12 -5z"/>
<path d="M12820 5470 c-13 -8 -13 -10 2 -10 9 0 20 5 23 10 8 13 -5 13 -25 0z"/>
<path d="M4993 5463 c9 -2 23 -2 30 0 6 3 -1 5 -18 5 -16 0 -22 -2 -12 -5z"/>
<path d="M8828 5463 c12 -2 30 -2 40 0 9 3 -1 5 -23 4 -22 0 -30 -2 -17 -4z"/>
<path d="M8943 5463 c15 -2 39 -2 55 0 15 2 2 4 -28 4 -30 0 -43 -2 -27 -4z"/>
<path d="M9118 5463 c7 -3 16 -2 19 1 4 3 -2 6 -13 5 -11 0 -14 -3 -6 -6z"/>
<path d="M2283 5443 c9 -2 23 -2 30 0 6 3 -1 5 -18 5 -16 0 -22 -2 -12 -5z"/>
<path d="M1160 5429 c-31 -4 -9 -6 69 -7 63 -1 112 0 110 2 -9 7 -136 11 -179
5z"/>
<path d="M13440 5428 c0 -3 -10 -4 -22 -2 -20 4 -21 4 -3 -3 11 -5 85 -6 165
-2 136 5 139 5 55 9 -136 6 -195 6 -195 -2z"/>
<path d="M9308 5423 c12 -2 30 -2 40 0 9 3 -1 5 -23 4 -22 0 -30 -2 -17 -4z"/>
<path d="M9478 5423 c6 -2 18 -2 25 0 6 3 1 5 -13 5 -14 0 -19 -2 -12 -5z"/>
<path d="M10738 5423 c6 -2 18 -2 25 0 6 3 1 5 -13 5 -14 0 -19 -2 -12 -5z"/>
<path d="M1585 5410 c-2 -4 19 -7 48 -8 57 -1 54 4 -6 10 -21 2 -40 1 -42 -2z"/>
<path d="M1118 5396 c32 -5 68 -5 95 1 36 8 29 9 -53 9 -89 -1 -92 -1 -42 -10z"/>
<path d="M1458 5403 c12 -2 32 -2 45 0 12 2 2 4 -23 4 -25 0 -35 -2 -22 -4z"/>
<path d="M2535 5400 c-20 -5 1 -8 64 -9 52 0 92 1 90 3 -9 8 -126 13 -154 6z"/>
<path d="M2750 5400 c0 -5 9 -10 21 -10 11 0 17 5 14 10 -3 6 -13 10 -21 10
-8 0 -14 -4 -14 -10z"/>
<path d="M2898 5403 c7 -3 16 -2 19 1 4 3 -2 6 -13 5 -11 0 -14 -3 -6 -6z"/>
<path d="M14665 5393 l-50 -13 80 5 c44 3 127 8 184 10 58 3 107 8 110 11 11
11 -276 0 -324 -13z"/>
<path d="M1014 5394 c-5 -2 -66 -8 -135 -13 l-124 -8 95 -1 c52 0 118 3 147 7
29 4 50 4 47 -1 -5 -8 17 -10 156 -14 41 -1 122 -5 180 -9 191 -12 263 -14
253 -4 -5 5 -38 10 -74 11 l-64 1 40 14 c39 13 39 13 5 7 -19 -3 -51 -5 -70
-4 -19 0 -70 1 -113 2 -53 0 -74 4 -65 10 9 7 8 8 -5 4 -10 -3 -21 -6 -23 -6
-3 0 -2 -4 1 -10 3 -5 2 -10 -4 -10 -5 0 -12 4 -15 8 -2 4 -32 5 -65 2 -34 -3
-61 -2 -61 2 0 4 -13 5 -30 2 -19 -4 -30 -2 -30 5 0 11 -25 14 -46 5z"/>
<path d="M14450 5374 c-47 -8 -119 -18 -160 -23 l-75 -8 88 -1 c57 -1 86 2 82
8 -6 9 11 11 134 15 19 1 37 7 39 13 4 14 3 14 -108 -4z"/>
<path d="M2818 5373 c7 -3 16 -2 19 1 4 3 -2 6 -13 5 -11 0 -14 -3 -6 -6z"/>
<path d="M13480 5371 c-47 -10 142 -18 220 -10 l55 6 -70 2 c-38 0 -92 3 -120
5 -27 3 -66 1 -85 -3z"/>
<path d="M1728 5363 c18 -2 45 -2 60 0 15 2 0 4 -33 4 -33 0 -45 -2 -27 -4z"/>
<path d="M2578 5363 c12 -2 30 -2 40 0 9 3 -1 5 -23 4 -22 0 -30 -2 -17 -4z"/>
<path d="M13788 5363 c17 -2 47 -2 65 0 17 2 3 4 -33 4 -36 0 -50 -2 -32 -4z"/>
<path d="M14023 5363 c26 -2 67 -2 90 0 23 2 2 3 -48 3 -49 0 -68 -1 -42 -3z"/>
<path d="M14743 5363 c26 -2 68 -2 95 0 26 2 4 3 -48 3 -52 0 -74 -1 -47 -3z"/>
<path d="M14923 5363 c9 -2 23 -2 30 0 6 3 -1 5 -18 5 -16 0 -22 -2 -12 -5z"/>
<path d="M1658 5333 c7 -3 16 -2 19 1 4 3 -2 6 -13 5 -11 0 -14 -3 -6 -6z"/>
<path d="M14305 5301 l-30 -7 34 -7 c40 -8 337 -10 329 -1 -4 3 -62 7 -130 9
-67 2 -134 5 -148 8 -14 3 -38 2 -55 -2z"/>
<path d="M14423 5203 c26 -2 67 -2 90 0 23 2 2 3 -48 3 -49 0 -68 -1 -42 -3z"/>
<path d="M14240 5180 c0 -5 14 -10 30 -10 17 0 30 5 30 10 0 6 -13 10 -30 10
-16 0 -30 -4 -30 -10z"/>
<path d="M1438 5163 c6 -2 18 -2 25 0 6 3 1 5 -13 5 -14 0 -19 -2 -12 -5z"/>
<path d="M13407 5148 c-16 -10 58 -9 108 1 35 8 31 9 -28 7 -38 0 -74 -4 -80
-8z"/>
<path d="M1310 5141 c0 -5 -21 -9 -47 -9 -25 -1 -49 -6 -52 -11 -4 -5 -132
-10 -316 -10 -411 -1 -451 -3 -257 -11 113 -5 166 -11 172 -19 8 -14 385 -27
393 -13 5 7 -40 13 -115 16 -73 2 -37 16 43 16 44 0 88 4 97 9 15 8 97 16 197
20 17 1 17 3 5 11 -19 12 -120 13 -120 1z m-275 -61 c-3 -5 -11 -10 -16 -10
-6 0 -7 5 -4 10 3 6 11 10 16 10 6 0 7 -4 4 -10z"/>
<path d="M445 5121 c-6 -5 -19 -11 -30 -14 -15 -4 -13 -5 8 -6 15 0 27 3 27 8
0 5 8 12 18 14 13 4 13 5 2 6 -9 0 -20 -3 -25 -8z"/>
<path d="M1772 5125 c10 -10 112 -23 128 -17 9 4 -3 9 -30 14 -56 8 -105 10
-98 3z"/>
<path d="M190 5080 c-12 -8 -12 -10 5 -10 11 0 27 5 35 10 12 8 12 10 -5 10
-11 0 -27 -5 -35 -10z"/>
<path d="M695 5079 c22 -4 56 -8 75 -7 33 0 32 1 -10 9 -25 4 -58 7 -75 7 -26
0 -25 -1 10 -9z"/>
<path d="M1228 5073 c7 -3 16 -2 19 1 4 3 -2 6 -13 5 -11 0 -14 -3 -6 -6z"/>
<path d="M12568 5068 c6 -6 18 -8 28 -6 14 3 12 5 -9 10 -19 3 -25 2 -19 -4z"/>
<path d="M2040 5057 c9 -10 134 -47 139 -42 2 3 -2 5 -10 5 -11 0 -11 2 1 10
16 11 19 10 -40 16 -14 1 -41 6 -60 10 -19 4 -33 4 -30 1z"/>
<path d="M14330 5048 c0 -5 35 -7 78 -7 78 2 69 6 -26 11 -28 2 -52 0 -52 -4z"/>
<path d="M1996 5041 c-4 -5 3 -7 14 -4 23 6 26 13 6 13 -8 0 -17 -4 -20 -9z"/>
<path d="M14203 5043 c9 -2 23 -2 30 0 6 3 -1 5 -18 5 -16 0 -22 -2 -12 -5z"/>
<path d="M14588 5043 c7 -3 16 -2 19 1 4 3 -2 6 -13 5 -11 0 -14 -3 -6 -6z"/>
<path d="M9958 5033 c12 -2 32 -2 45 0 12 2 2 4 -23 4 -25 0 -35 -2 -22 -4z"/>
<path d="M10128 5033 c6 -2 18 -2 25 0 6 3 1 5 -13 5 -14 0 -19 -2 -12 -5z"/>
<path d="M12233 5033 c37 -2 96 -2 130 0 34 2 4 3 -68 3 -71 0 -99 -1 -62 -3z"/>
<path d="M12665 5020 c27 -12 35 -12 35 0 0 6 -12 10 -27 9 -25 0 -26 -1 -8
-9z"/>
<path d="M13120 5022 c0 -5 14 -7 30 -4 17 2 30 6 30 8 0 2 -13 4 -30 4 -16 0
-30 -4 -30 -8z"/>
<path d="M13213 5023 c9 -2 25 -2 35 0 9 3 1 5 -18 5 -19 0 -27 -2 -17 -5z"/>
<path d="M4257 5014 c-1 -2 -38 -5 -81 -8 -137 -8 -95 -16 54 -10 190 8 276
22 133 22 -57 -1 -104 -2 -106 -4z"/>
<path d="M10370 5010 c-20 -6 -21 -8 -5 -8 11 0 29 3 40 8 25 11 -1 11 -35 0z"/>
<path d="M9893 5003 c9 -2 25 -2 35 0 9 3 1 5 -18 5 -19 0 -27 -2 -17 -5z"/>
<path d="M11612 5002 c-7 -5 25 -7 70 -5 45 2 84 6 87 8 8 9 -144 5 -157 -3z"/>
<path d="M2190 4990 c0 -5 5 -10 11 -10 5 0 7 5 4 10 -3 6 -8 10 -11 10 -2 0
-4 -4 -4 -10z"/>
<path d="M5088 4993 c6 -2 18 -2 25 0 6 3 1 5 -13 5 -14 0 -19 -2 -12 -5z"/>
<path d="M12825 4990 c-11 -18 5 -30 38 -29 20 1 24 3 12 6 -45 10 -51 15 -30
23 16 7 17 9 3 9 -9 1 -20 -3 -23 -9z"/>
<path d="M5190 4980 c0 -5 -8 -11 -17 -13 -10 -2 -1 -4 20 -4 40 0 50 11 17
20 -11 3 -20 1 -20 -3z"/>
<path d="M12378 4973 c7 -3 16 -2 19 1 4 3 -2 6 -13 5 -11 0 -14 -3 -6 -6z"/>
<path d="M755 4960 c33 -4 76 -10 95 -15 33 -7 34 -7 15 8 -15 12 -40 16 -95
15 l-75 -1 60 -7z"/>
<path d="M13290 4959 c0 -7 -22 -10 -62 -8 -35 1 -108 1 -163 -1 l-100 -3 75
-7 c104 -9 545 1 500 12 -19 4 -68 5 -107 2 -51 -4 -73 -3 -73 5 0 6 -16 11
-35 11 -19 0 -35 -5 -35 -11z"/>
<path d="M12938 4953 c7 -3 16 -2 19 1 4 3 -2 6 -13 5 -11 0 -14 -3 -6 -6z"/>
<path d="M1486 4937 c11 -6 94 -11 189 -12 205 -3 165 11 -54 17 -108 4 -148
2 -135 -5z"/>
<path d="M4700 4940 c0 -10 88 -25 97 -16 4 3 -5 6 -20 6 -14 0 -37 4 -51 10
-15 5 -26 6 -26 0z"/>
<path d="M5118 4943 c12 -2 32 -2 45 0 12 2 2 4 -23 4 -25 0 -35 -2 -22 -4z"/>
<path d="M13873 4943 c9 -2 23 -2 30 0 6 3 -1 5 -18 5 -16 0 -22 -2 -12 -5z"/>
<path d="M940 4930 c-19 -12 62 -12 100 0 19 6 12 8 -30 9 -30 0 -62 -4 -70
-9z"/>
<path d="M4585 4930 c-3 -5 1 -10 9 -10 8 0 18 5 21 10 3 6 -1 10 -9 10 -8 0
-18 -4 -21 -10z"/>
<path d="M4323 4923 c26 -2 67 -2 90 0 23 2 2 3 -48 3 -49 0 -68 -1 -42 -3z"/>
<path d="M7638 4923 c7 -3 16 -2 19 1 4 3 -2 6 -13 5 -11 0 -14 -3 -6 -6z"/>
<path d="M11658 4923 c7 -3 16 -2 19 1 4 3 -2 6 -13 5 -11 0 -14 -3 -6 -6z"/>
<path d="M6055 4910 c-19 -8 -19 -9 3 -9 12 -1 22 4 22 9 0 6 -1 10 -2 9 -2 0
-12 -4 -23 -9z"/>
<path d="M6668 4913 c12 -2 30 -2 40 0 9 3 -1 5 -23 4 -22 0 -30 -2 -17 -4z"/>
<path d="M7318 4913 c6 -2 18 -2 25 0 6 3 1 5 -13 5 -14 0 -19 -2 -12 -5z"/>
<path d="M4278 4903 c12 -2 30 -2 40 0 9 3 -1 5 -23 4 -22 0 -30 -2 -17 -4z"/>
<path d="M5373 4903 c9 -2 23 -2 30 0 6 3 -1 5 -18 5 -16 0 -22 -2 -12 -5z"/>
<path d="M6103 4903 c9 -2 23 -2 30 0 6 3 -1 5 -18 5 -16 0 -22 -2 -12 -5z"/>
<path d="M8100 4900 c14 -4 34 -8 45 -8 16 0 15 2 -5 8 -14 4 -34 8 -45 8 -16
0 -15 -2 5 -8z"/>
<path d="M10623 4900 c40 -12 237 -12 237 0 0 6 -51 10 -132 9 -89 0 -124 -4
-105 -9z"/>
<path d="M3463 4893 c9 -2 25 -2 35 0 9 3 1 5 -18 5 -19 0 -27 -2 -17 -5z"/>
<path d="M3788 4893 c7 -3 16 -2 19 1 4 3 -2 6 -13 5 -11 0 -14 -3 -6 -6z"/>
<path d="M7458 4893 c12 -2 30 -2 40 0 9 3 -1 5 -23 4 -22 0 -30 -2 -17 -4z"/>
<path d="M5283 4883 c15 -2 37 -2 50 0 12 2 0 4 -28 4 -27 0 -38 -2 -22 -4z"/>
<path d="M5430 4880 l-35 -7 42 -2 c23 0 45 4 48 9 7 11 -3 11 -55 0z"/>
<path d="M5638 4883 c7 -3 16 -2 19 1 4 3 -2 6 -13 5 -11 0 -14 -3 -6 -6z"/>
<path d="M7728 4883 c7 -3 16 -2 19 1 4 3 -2 6 -13 5 -11 0 -14 -3 -6 -6z"/>
<path d="M7878 4883 c17 -2 47 -2 65 0 17 2 3 4 -33 4 -36 0 -50 -2 -32 -4z"/>
<path d="M8010 4880 c0 -5 17 -10 38 -9 33 1 34 2 12 9 -36 11 -50 11 -50 0z"/>
<path d="M9528 4883 c7 -3 16 -2 19 1 4 3 -2 6 -13 5 -11 0 -14 -3 -6 -6z"/>
<path d="M9583 4883 c9 -2 25 -2 35 0 9 3 1 5 -18 5 -19 0 -27 -2 -17 -5z"/>
<path d="M9648 4883 c6 -2 18 -2 25 0 6 3 1 5 -13 5 -14 0 -19 -2 -12 -5z"/>
<path d="M9933 4883 c9 -2 23 -2 30 0 6 3 -1 5 -18 5 -16 0 -22 -2 -12 -5z"/>
<path d="M4278 4873 c7 -3 16 -2 19 1 4 3 -2 6 -13 5 -11 0 -14 -3 -6 -6z"/>
<path d="M6298 4873 c18 -2 45 -2 60 0 15 2 0 4 -33 4 -33 0 -45 -2 -27 -4z"/>
<path d="M8125 4870 c-17 -7 -15 -9 13 -9 17 -1 32 4 32 9 0 12 -17 12 -45 0z"/>
<path d="M3313 4863 c15 -2 37 -2 50 0 12 2 0 4 -28 4 -27 0 -38 -2 -22 -4z"/>
<path d="M3925 4860 c-3 -5 -2 -10 4 -10 5 0 13 5 16 10 3 6 2 10 -4 10 -5 0
-13 -4 -16 -10z"/>
<path d="M9878 4863 c7 -3 16 -2 19 1 4 3 -2 6 -13 5 -11 0 -14 -3 -6 -6z"/>
<path d="M12546 4857 c52 -6 136 -6 235 0 l154 10 -235 0 c-201 0 -223 -1
-154 -10z"/>
<path d="M6835 4851 c3 -7 42 -11 92 -11 48 0 84 2 82 4 -2 2 -44 6 -92 10
-62 5 -87 4 -82 -3z"/>
<path d="M8920 4839 c-58 -4 -44 -6 65 -6 77 0 154 3 170 6 36 9 -126 9 -235
0z"/>
<path d="M8723 4833 c9 -2 23 -2 30 0 6 3 -1 5 -18 5 -16 0 -22 -2 -12 -5z"/>
<path d="M11240 4831 l-45 -7 42 -5 c29 -3 44 0 47 8 3 7 4 12 3 11 -1 0 -22
-4 -47 -7z"/>
<path d="M9295 4820 c4 -6 11 -8 16 -5 14 9 11 15 -7 15 -8 0 -12 -5 -9 -10z"/>
<path d="M10998 4823 c7 -3 16 -2 19 1 4 3 -2 6 -13 5 -11 0 -14 -3 -6 -6z"/>
<path d="M11300 4826 c0 -2 13 -6 29 -8 17 -2 28 -1 25 4 -5 8 -54 12 -54 4z"/>
<path d="M5985 4812 c-102 -2 -136 -6 -125 -13 12 -9 10 -10 -7 -6 -13 3 -25
2 -27 -2 -6 -9 52 -13 66 -4 7 3 68 8 137 11 69 2 142 7 161 12 33 7 32 8 -15
7 -27 -1 -113 -3 -190 -5z"/>
<path d="M9233 4813 c9 -2 25 -2 35 0 9 3 1 5 -18 5 -19 0 -27 -2 -17 -5z"/>
<path d="M9378 4813 c12 -2 30 -2 40 0 9 3 -1 5 -23 4 -22 0 -30 -2 -17 -4z"/>
<path d="M11372 4814 c12 -11 226 -15 233 -4 4 7 -34 10 -116 10 -67 0 -120
-3 -117 -6z"/>
<path d="M5450 4800 c0 -5 14 -7 33 -3 45 8 47 13 4 13 -20 0 -37 -4 -37 -10z"/>
<path d="M9488 4803 c6 -2 18 -2 25 0 6 3 1 5 -13 5 -14 0 -19 -2 -12 -5z"/>
<path d="M9583 4803 c15 -2 37 -2 50 0 12 2 0 4 -28 4 -27 0 -38 -2 -22 -4z"/>
<path d="M5373 4783 c9 -2 25 -2 35 0 9 3 1 5 -18 5 -19 0 -27 -2 -17 -5z"/>
<path d="M8980 4770 c0 -5 5 -10 11 -10 5 0 7 5 4 10 -3 6 -8 10 -11 10 -2 0
-4 -4 -4 -10z"/>
<path d="M9318 4753 c6 -2 18 -2 25 0 6 3 1 5 -13 5 -14 0 -19 -2 -12 -5z"/>
<path d="M6750 4729 c-19 -3 30 -6 110 -7 103 0 135 3 110 9 -39 10 -165 9
-220 -2z"/>
<path d="M8185 4721 c-20 -9 6 -13 140 -25 74 -7 258 -9 275 -3 8 3 22 8 30
10 8 3 -77 5 -190 6 -123 1 -206 5 -208 11 -4 12 -19 12 -47 1z"/>
<path d="M8917 4700 c-32 -4 -61 -10 -64 -14 -8 -8 101 -8 152 1 31 5 35 8 20
14 -23 9 -31 9 -108 -1z"/>
<path d="M8503 4633 c15 -2 39 -2 55 0 15 2 2 4 -28 4 -30 0 -43 -2 -27 -4z"/>
</g>
</svg>
