<?xml version="1.0" standalone="no"?>
<!DOCTYPE svg PUBLIC "-//W3C//DTD SVG 20010904//EN"
 "http://www.w3.org/TR/2001/REC-SVG-20010904/DTD/svg10.dtd">
<svg version="1.0" xmlns="http://www.w3.org/2000/svg"
 width="1536.000000pt" height="1024.000000pt" viewBox="0 0 1536.000000 1024.000000"
 preserveAspectRatio="xMidYMid meet">

<g transform="translate(0.000000,1024.000000) scale(0.100000,-0.100000)"
fill="#000000" stroke="none">
<path d="M6895 5531 c-22 -5 -101 -20 -175 -34 -74 -15 -146 -29 -160 -32 -93
-20 -154 -25 -188 -16 -165 45 -308 53 -427 26 -63 -14 -122 -24 -313 -55 -35
-6 -71 -15 -80 -20 -9 -5 -47 -18 -83 -30 -82 -26 -168 -20 -279 18 -109 37
-206 37 -280 -2 -30 -16 -67 -37 -82 -48 -15 -10 -60 -26 -99 -34 -40 -8 -76
-17 -80 -20 -22 -13 -147 -11 -193 4 -61 19 -186 20 -239 3 -22 -7 -104 -14
-195 -16 -143 -3 -164 -1 -232 21 -169 53 -426 83 -760 88 -230 4 -344 14
-415 34 -40 12 -153 17 -245 12 -204 -12 -382 -2 -474 27 -62 20 -135 13 -241
-21 -62 -20 -101 -26 -171 -26 -58 0 -117 -7 -165 -20 -88 -23 -207 -26 -273
-6 -70 21 -306 3 -344 -27 -26 -21 -120 -35 -163 -26 -47 11 -214 -4 -261 -23
-22 -8 -35 -7 -64 7 -19 9 -42 14 -51 11 -9 -4 -21 -2 -27 2 -6 5 -39 12 -73
15 l-63 7 0 -307 0 -306 65 7 c41 4 80 2 105 -5 33 -10 47 -9 84 5 44 17 46
17 93 -5 44 -21 61 -22 211 -21 130 2 179 6 240 23 175 47 350 83 402 82 30
-1 107 -3 170 -5 80 -2 128 1 158 11 33 11 47 12 65 3 42 -23 305 -47 487 -46
167 2 343 14 403 29 15 4 62 2 105 -4 42 -6 121 -15 175 -20 79 -7 104 -13
135 -34 20 -14 77 -35 127 -47 50 -12 124 -30 166 -41 97 -24 110 -24 210 7
46 14 122 32 169 39 47 8 104 20 128 26 33 9 59 9 110 -1 57 -10 80 -10 149 3
45 9 99 24 119 33 30 15 43 15 86 6 60 -14 197 -16 232 -2 14 5 94 12 179 16
133 6 158 5 189 -10 29 -14 58 -16 169 -13 74 2 171 10 216 17 68 11 105 11
215 0 211 -21 513 -18 708 8 91 11 188 28 215 36 146 43 256 42 414 -5 35 -10
83 -19 107 -19 24 0 67 -9 96 -19 71 -26 155 -31 242 -14 63 13 146 21 367 39
54 5 80 1 140 -19 41 -14 104 -28 141 -31 38 -3 76 -10 86 -15 10 -5 62 -14
117 -20 75 -9 110 -18 144 -38 36 -21 63 -27 150 -34 58 -4 142 -17 185 -28
112 -30 177 -27 288 10 55 19 128 35 178 39 47 4 132 17 190 28 58 11 137 25
175 31 39 6 97 17 130 23 61 12 113 13 265 5 47 -2 137 -1 200 3 121 8 183 1
284 -31 33 -11 74 -19 91 -19 16 0 46 -4 65 -10 19 -5 70 -14 114 -20 43 -5
113 -22 155 -36 72 -25 83 -26 201 -20 75 4 165 16 225 31 95 22 330 42 430
37 22 -2 139 -4 261 -5 169 -1 225 -5 237 -16 31 -25 139 -26 245 -1 53 12
111 26 127 32 17 5 91 13 165 18 74 6 153 14 175 20 149 40 222 51 295 44 41
-3 87 -12 101 -20 15 -7 41 -11 60 -8 21 4 74 -5 139 -22 96 -25 119 -27 278
-25 95 0 193 -4 219 -9 34 -8 77 -7 172 6 92 12 160 14 251 9 110 -6 132 -4
182 14 31 11 94 23 140 26 46 4 106 13 133 21 47 13 157 17 385 15 41 -1 102
4 135 10 48 8 72 7 120 -5 32 -9 63 -16 67 -16 4 0 8 139 8 309 l0 309 -22 6
c-50 13 -245 6 -284 -10 -22 -9 -87 -20 -145 -24 -79 -6 -114 -14 -140 -29
-35 -22 -69 -28 -189 -37 -118 -9 -191 -5 -242 13 -44 15 -53 15 -145 0 -154
-26 -173 -27 -218 -3 -36 19 -59 21 -230 23 -104 1 -228 -2 -275 -8 -78 -9
-217 -18 -330 -22 -25 -1 -73 7 -107 17 -52 16 -71 17 -115 8 -30 -6 -62 -6
-75 -1 -12 4 -103 10 -202 13 -142 4 -186 8 -212 22 -43 22 -175 14 -269 -15
-69 -21 -228 -30 -265 -15 -31 14 -147 10 -286 -8 -93 -13 -142 -15 -190 -8
-57 8 -113 7 -204 -5 -31 -4 -83 -17 -170 -42 -63 -18 -99 -20 -205 -10 -64 6
-99 4 -142 -8 -61 -15 -104 -12 -152 13 -17 8 -80 18 -140 23 -61 5 -154 18
-206 31 -81 19 -121 22 -275 21 -99 -1 -192 -6 -206 -12 -35 -13 -212 3 -322
29 -82 20 -91 20 -202 5 -202 -26 -258 -19 -408 54 -91 44 -124 49 -202 27
-28 -7 -84 -23 -125 -35 -84 -23 -136 -26 -224 -11 -34 6 -176 20 -316 30
-297 23 -392 34 -476 55 -33 8 -97 15 -141 15 -44 0 -102 4 -129 9 -75 14
-234 20 -279 12z"/>
</g>
</svg>
