<?xml version="1.0" standalone="no"?>
<!DOCTYPE svg PUBLIC "-//W3C//DTD SVG 20010904//EN"
 "http://www.w3.org/TR/2001/REC-SVG-20010904/DTD/svg10.dtd">
<svg version="1.0" xmlns="http://www.w3.org/2000/svg"
 width="1920.000000pt" height="1080.000000pt" viewBox="0 0 1920.000000 1080.000000"
 preserveAspectRatio="xMidYMid meet">

<g transform="translate(0.000000,1080.000000) scale(0.100000,-0.100000)"
fill="#000000" stroke="none">
<path d="M6190 6200 c-9 -6 -10 -10 -3 -10 6 0 15 5 18 10 8 12 4 12 -15 0z"/>
<path d="M5628 6153 c6 -2 18 -2 25 0 6 3 1 5 -13 5 -14 0 -19 -2 -12 -5z"/>
<path d="M1630 6137 c-104 -9 -111 -11 -71 -18 46 -9 66 -19 38 -19 -9 0 -17
-4 -17 -10 0 -5 -39 -11 -87 -12 -87 -3 273 -14 767 -23 221 -4 251 -2 225 9
-27 13 -22 14 60 10 50 -3 146 -9 214 -15 123 -9 177 -6 84 5 -26 4 -75 10
-108 16 -33 5 -121 12 -195 15 -264 12 -325 16 -360 24 -19 5 -107 12 -195 16
-88 3 -178 8 -200 9 -22 2 -92 -1 -155 -7z m-3 -53 c-3 -3 -12 -4 -19 -1 -8 3
-5 6 6 6 11 1 17 -2 13 -5z"/>
<path d="M6560 6135 c11 -13 8 -15 -23 -15 -33 0 -35 -2 -33 -27 3 -23 9 -29
37 -33 43 -6 141 -4 247 5 59 6 82 5 82 -4 0 -7 -24 -11 -67 -12 -76 -1 -144
-18 -151 -37 -3 -10 1 -11 14 -4 50 25 102 32 252 32 139 0 162 2 162 15 0 13
-10 15 -52 10 -37 -4 -47 -2 -33 4 11 5 56 10 100 10 53 0 73 -3 60 -9 -16 -7
-17 -9 -3 -9 9 -1 20 4 23 9 3 6 30 10 58 9 29 0 46 -3 39 -6 -6 -2 -10 -9 -6
-14 3 -5 -6 -9 -20 -9 -14 0 -28 -4 -31 -10 -9 -14 37 -12 74 3 25 11 28 16
18 26 -10 11 4 12 73 6 47 -4 91 -12 97 -17 7 -6 21 -7 30 -2 10 4 242 8 515
9 274 1 501 5 505 8 3 4 -9 8 -28 9 -76 3 -382 7 -689 10 -179 1 -299 4 -267
5 32 2 57 9 57 15 0 13 -120 2 -135 -13 -5 -5 -51 -9 -102 -9 -71 0 -95 3 -99
14 -4 11 -24 13 -87 11 -60 -3 -71 -2 -42 4 35 7 30 8 -37 10 -42 0 -79 -3
-82 -8 -3 -4 -63 -7 -133 -6 -71 1 -137 -1 -148 -5 -11 -4 -31 -3 -45 1 -14 4
-19 7 -12 8 6 1 12 6 12 12 0 6 -15 8 -42 4 -24 -4 -56 -2 -72 5 -26 9 -27 9
-16 -5z"/>
<path d="M7470 6129 c0 -5 5 -7 10 -4 6 3 10 8 10 11 0 2 -4 4 -10 4 -5 0 -10
-5 -10 -11z"/>
<path d="M8098 6123 c6 -2 18 -2 25 0 6 3 1 5 -13 5 -14 0 -19 -2 -12 -5z"/>
<path d="M7725 6110 c-3 -5 -1 -10 4 -10 6 0 11 5 11 10 0 6 -2 10 -4 10 -3 0
-8 -4 -11 -10z"/>
<path d="M8190 6110 c8 -5 29 -9 45 -9 26 0 27 2 10 9 -11 5 -31 9 -45 9 -20
1 -22 -1 -10 -9z"/>
<path d="M16540 6110 c-9 -6 -10 -10 -3 -10 6 0 15 5 18 10 8 12 4 12 -15 0z"/>
<path d="M543 6104 c7 -7 107 -7 115 0 3 3 -23 6 -58 6 -35 0 -61 -3 -57 -6z"/>
<path d="M12568 6103 c12 -2 30 -2 40 0 9 3 -1 5 -23 4 -22 0 -30 -2 -17 -4z"/>
<path d="M1488 6093 c12 -2 32 -2 45 0 12 2 2 4 -23 4 -25 0 -35 -2 -22 -4z"/>
<path d="M1006 6082 c-2 -4 13 -6 35 -4 21 2 39 6 39 8 0 7 -69 4 -74 -4z"/>
<path d="M11518 6083 c6 -2 18 -2 25 0 6 3 1 5 -13 5 -14 0 -19 -2 -12 -5z"/>
<path d="M1115 6070 c28 -12 45 -12 45 0 0 6 -15 10 -32 9 -28 0 -30 -2 -13
-9z"/>
<path d="M14223 6073 c9 -2 23 -2 30 0 6 3 -1 5 -18 5 -16 0 -22 -2 -12 -5z"/>
<path d="M8558 6063 c6 -2 18 -2 25 0 6 3 1 5 -13 5 -14 0 -19 -2 -12 -5z"/>
<path d="M15978 6063 c6 -2 18 -2 25 0 6 3 1 5 -13 5 -14 0 -19 -2 -12 -5z"/>
<path d="M5368 6053 c7 -3 16 -2 19 1 4 3 -2 6 -13 5 -11 0 -14 -3 -6 -6z"/>
<path d="M16910 6045 c11 -13 8 -15 -23 -15 -33 0 -35 -2 -33 -27 3 -23 9 -29
37 -33 43 -6 141 -4 247 5 59 6 82 5 82 -4 0 -7 -24 -11 -67 -12 -76 -1 -144
-18 -151 -37 -3 -10 1 -11 14 -4 50 25 102 32 252 32 139 0 162 2 162 15 0 13
-10 15 -52 10 -37 -4 -47 -2 -33 4 11 5 56 10 100 10 53 0 73 -3 60 -9 -16 -7
-17 -9 -3 -9 9 -1 20 4 23 9 3 6 30 10 58 9 29 0 46 -3 39 -6 -6 -2 -10 -9 -6
-14 3 -5 -6 -9 -20 -9 -14 0 -28 -4 -31 -10 -9 -14 37 -12 74 3 25 11 28 16
18 26 -10 11 4 12 73 6 47 -4 91 -12 97 -17 7 -6 21 -7 30 -2 10 4 242 8 515
9 274 1 501 5 505 8 3 4 -9 8 -28 9 -76 3 -382 7 -689 10 -179 1 -299 4 -267
5 32 2 57 9 57 15 0 13 -120 2 -135 -13 -5 -5 -51 -9 -102 -9 -71 0 -95 3 -99
14 -4 11 -24 13 -87 11 -60 -3 -71 -2 -42 4 35 7 30 8 -37 10 -42 0 -79 -3
-82 -8 -3 -4 -63 -7 -133 -6 -71 1 -137 -1 -148 -5 -11 -4 -31 -3 -45 1 -14 4
-19 7 -12 8 6 1 12 6 12 12 0 6 -15 8 -42 4 -24 -4 -56 -2 -72 5 -26 9 -27 9
-16 -5z"/>
<path d="M13683 6043 c9 -2 23 -2 30 0 6 3 -1 5 -18 5 -16 0 -22 -2 -12 -5z"/>
<path d="M13740 6046 c0 -2 14 -6 30 -8 17 -3 30 -1 30 4 0 4 -13 8 -30 8 -16
0 -30 -2 -30 -4z"/>
<path d="M17820 6039 c0 -5 5 -7 10 -4 6 3 10 8 10 11 0 2 -4 4 -10 4 -5 0
-10 -5 -10 -11z"/>
<path d="M1948 6033 c28 -2 76 -2 105 0 28 2 5 3 -53 3 -58 0 -81 -1 -52 -3z"/>
<path d="M3033 6033 c9 -2 23 -2 30 0 6 3 -1 5 -18 5 -16 0 -22 -2 -12 -5z"/>
<path d="M6368 6033 c7 -3 16 -2 19 1 4 3 -2 6 -13 5 -11 0 -14 -3 -6 -6z"/>
<path d="M7668 6033 c12 -2 30 -2 40 0 9 3 -1 5 -23 4 -22 0 -30 -2 -17 -4z"/>
<path d="M7765 6030 c3 -5 13 -10 21 -10 8 0 12 5 9 10 -3 6 -13 10 -21 10 -8
0 -12 -4 -9 -10z"/>
<path d="M7968 6033 c7 -3 16 -2 19 1 4 3 -2 6 -13 5 -11 0 -14 -3 -6 -6z"/>
<path d="M18448 6033 c6 -2 18 -2 25 0 6 3 1 5 -13 5 -14 0 -19 -2 -12 -5z"/>
<path d="M3915 6017 c45 -13 294 -20 340 -9 l40 10 -50 2 c-183 7 -356 5 -330
-3z"/>
<path d="M6965 6020 c-4 -6 5 -10 20 -10 15 0 24 4 20 10 -3 6 -12 10 -20 10
-8 0 -17 -4 -20 -10z"/>
<path d="M8353 6023 c9 -2 25 -2 35 0 9 3 1 5 -18 5 -19 0 -27 -2 -17 -5z"/>
<path d="M13874 6024 c-6 -3 -47 -9 -90 -14 l-79 -9 80 4 c44 2 91 8 105 13
14 6 18 11 10 11 -8 -1 -20 -3 -26 -5z"/>
<path d="M18075 6020 c-3 -5 -1 -10 4 -10 6 0 11 5 11 10 0 6 -2 10 -4 10 -3
0 -8 -4 -11 -10z"/>
<path d="M18540 6020 c8 -5 29 -9 45 -9 26 0 27 2 10 9 -11 5 -31 9 -45 9 -20
1 -22 -1 -10 -9z"/>
<path d="M3603 6013 c26 -2 67 -2 90 0 23 2 2 3 -48 3 -49 0 -68 -1 -42 -3z"/>
<path d="M6481 6016 c2 -2 13 -8 25 -14 16 -9 21 -8 21 4 0 8 -10 14 -25 14
-14 0 -23 -2 -21 -4z"/>
<path d="M6815 6010 c-4 -6 7 -10 25 -10 18 0 29 4 25 10 -3 6 -15 10 -25 10
-10 0 -22 -4 -25 -10z"/>
<path d="M14370 5983 c-141 -36 -137 -36 -497 -7 -40 3 -63 1 -63 -6 0 -6 27
-11 63 -11 34 -1 91 -5 127 -9 76 -9 -115 -3 -270 9 l-95 8 85 3 85 4 -115 6
c-121 6 -141 4 -119 -12 9 -6 -26 -8 -101 -4 -103 4 -112 4 -85 -9 24 -11 26
-14 10 -15 -19 -1 -19 -1 -2 -14 12 -9 14 -15 6 -18 -6 -2 25 -10 70 -17 62
-10 81 -17 82 -30 0 -11 2 -12 6 -3 3 8 9 10 16 3 7 -5 23 -11 37 -14 14 -2
-13 -5 -60 -6 -47 -1 -104 -6 -127 -10 -24 -5 -43 -5 -43 0 0 4 15 10 33 12
17 2 -56 5 -163 6 -174 2 -192 3 -165 16 28 12 24 13 -66 14 -118 1 -202 -9
-174 -20 12 -5 -8 -7 -50 -7 -64 1 -66 2 -25 8 l45 7 -57 1 c-47 2 -58 -1 -58
-14 0 -15 -12 -16 -97 -10 -54 4 -150 8 -213 10 -130 3 -220 20 -220 42 0 8
-10 14 -22 14 -13 0 -31 7 -42 15 -18 13 -17 14 5 19 13 3 150 8 304 11 154 4
282 9 285 12 4 4 -620 -2 -711 -7 -3 0 -6 -6 -6 -14 0 -8 8 -12 21 -9 17 3 18
2 6 -5 -8 -6 -58 -13 -110 -17 -52 -3 -115 -11 -140 -16 -24 -6 -62 -7 -85 -3
-61 10 -35 -6 44 -26 38 -10 81 -26 95 -35 17 -11 49 -17 100 -17 42 -1 76 -6
76 -11 0 -5 7 -6 16 -3 9 4 46 3 83 -1 l66 -8 -45 -7 c-25 -3 122 -5 325 -4
204 2 345 0 315 -4 -51 -6 -48 -7 40 -10 176 -5 17 -20 -190 -18 -283 3 -544
-4 -450 -12 51 -4 3 -7 -152 -9 -304 -5 -296 -4 -291 -17 5 -13 -42 -24 -103
-24 -42 0 -66 13 -42 23 7 3 -14 6 -47 7 -43 1 -54 4 -40 10 14 6 -3 9 -53 9
-43 1 -71 -3 -67 -8 3 -6 -9 -5 -27 1 -99 32 -381 32 -418 1 -10 -9 -17 -20
-14 -25 3 -4 -12 -8 -33 -7 -30 0 -34 2 -18 9 19 8 19 9 -2 9 -31 1 -54 12
-47 22 3 5 -3 10 -13 10 -10 1 -5 5 12 10 17 5 -65 6 -197 4 -143 -3 -228 -1
-228 5 0 6 -12 11 -27 11 l-28 1 30 8 c29 7 29 8 -10 10 l-40 2 49 9 c27 4 52
13 56 19 3 5 22 10 41 9 53 -1 240 13 235 19 -11 10 -184 17 -183 7 1 -5 -22
-11 -50 -12 -53 -3 -63 3 -42 24 7 7 3 11 -16 11 -15 0 -32 5 -38 12 -9 10 -9
11 0 6 6 -3 14 -2 18 4 4 6 -25 10 -82 9 -48 0 -82 -3 -75 -6 6 -2 12 -13 12
-23 0 -19 -2 -19 -152 -36 -32 -3 -55 -10 -52 -15 3 -5 -9 -9 -25 -9 -17 0
-31 -4 -31 -9 0 -5 -9 -11 -21 -14 -12 -3 -18 -10 -14 -16 3 -7 -3 -11 -17
-12 -19 -1 -18 -3 7 -9 17 -4 23 -9 15 -10 -8 -1 -1 -6 15 -10 17 -4 -80 -5
-215 -3 -306 6 -361 8 -382 17 -9 4 -32 0 -52 -9 -27 -13 -42 -15 -63 -7 -28
9 -53 -3 -53 -27 0 -5 -8 -12 -17 -14 -10 -3 3 -2 30 0 34 4 47 2 47 -7 0 -7
7 -10 15 -7 8 4 17 2 19 -2 5 -7 88 -6 279 3 15 0 27 4 27 7 0 10 72 10 145
-1 39 -5 103 -11 143 -13 69 -3 72 -2 72 20 0 17 6 23 23 23 18 0 19 -2 7 -10
-11 -7 -11 -10 -2 -10 7 0 10 -4 7 -10 -7 -11 5 -12 180 -9 119 1 341 14 298
17 -60 5 4 31 87 36 14 1 33 6 43 10 32 15 143 0 175 -23 17 -11 35 -21 41
-21 5 0 14 -6 18 -14 16 -27 235 -39 348 -19 96 17 185 24 205 17 16 -6 112
-16 148 -15 12 1 22 -3 22 -8 0 -5 17 -7 39 -4 23 3 41 1 45 -6 4 -6 24 -11
44 -11 21 0 62 -7 92 -16 30 -9 75 -17 100 -18 25 -1 63 -3 85 -4 l40 -3 -27
-14 c-22 -12 -47 -13 -140 -6 -176 14 -653 5 -779 -15 -64 -10 -118 -14 -135
-9 l-29 8 25 7 c24 8 23 8 -7 10 -18 1 -37 4 -43 5 -5 1 -14 3 -20 4 -5 0 -10
6 -10 12 0 6 9 9 19 6 14 -3 18 -1 14 9 -3 8 -8 14 -12 14 -52 1 -259 23 -299
31 -28 6 -73 12 -100 14 -62 5 -257 -16 -241 -26 7 -4 -27 -8 -77 -8 -269 -2
-631 -32 -618 -53 3 -4 -7 -8 -21 -8 -15 0 -24 4 -20 10 3 6 -1 7 -10 3 -13
-5 -14 -7 -3 -14 7 -5 23 -9 36 -9 16 0 22 -6 22 -21 0 -15 -6 -20 -22 -19
-48 4 -79 0 -73 -10 3 -5 0 -10 -7 -10 -9 0 -9 -3 2 -10 10 -6 -21 -9 -91 -8
-58 0 -115 -4 -125 -10 -11 -6 -49 -14 -84 -18 -36 -3 -100 -18 -143 -31 -43
-13 -86 -24 -95 -24 -9 0 -58 0 -109 1 -50 0 -104 5 -119 10 -33 13 -184 2
-161 -12 9 -5 33 -8 54 -8 69 2 214 -8 220 -14 4 -3 -63 -7 -148 -7 -85 -1
-188 -3 -229 -5 -42 -2 -131 6 -200 16 l-125 19 91 -4 c50 -3 94 -2 98 2 15
15 -62 33 -145 33 -82 0 -88 -1 -84 -20 4 -18 -2 -20 -68 -21 -69 -1 -70 -2
-27 -10 25 -4 65 -8 90 -9 l45 -1 -44 -20 c-32 -16 -46 -18 -51 -9 -5 8 -10 9
-14 2 -9 -15 1 -19 74 -26 98 -10 130 -17 130 -28 0 -6 -16 -8 -40 -4 -22 3
-57 9 -79 12 -44 7 -66 -11 -24 -20 16 -3 71 -11 123 -17 91 -10 127 -19 82
-19 -31 0 -27 -18 6 -26 15 -3 43 -10 62 -15 19 -5 63 -9 98 -9 35 0 61 -4 58
-9 -3 -4 -27 -7 -53 -5 -179 13 -325 26 -368 34 -27 5 -129 14 -225 20 -182
12 -263 26 -225 41 13 5 -5 8 -49 8 -56 1 -66 -1 -57 -12 17 -21 191 -46 476
-67 143 -11 312 -25 375 -30 150 -13 180 -13 160 0 -10 6 44 10 165 12 352 4
401 6 448 17 27 6 51 10 55 7 4 -2 65 -7 136 -11 71 -4 139 -10 150 -14 12 -3
36 -6 54 -6 17 0 32 -3 32 -8 0 -5 -10 -7 -21 -4 -13 4 -18 2 -13 -3 5 -5 34
-10 64 -12 l55 -3 -30 -14 c-19 -8 -84 -15 -180 -17 -195 -5 -252 -12 -259
-30 -4 -10 4 -14 32 -15 33 -1 34 -2 12 -9 -25 -8 -25 -8 5 -10 26 -2 27 -3 7
-7 -13 -3 -31 -1 -40 3 -24 10 -20 10 -97 17 -149 15 -180 17 -168 10 15 -10
-365 -6 -537 6 -102 8 -137 14 -146 25 -12 17 -50 22 -56 8 -5 -12 -246 12
-260 26 -6 6 -21 12 -32 12 -17 -1 -16 -4 9 -17 l30 -16 -30 -8 c-31 -9 -341
-10 -388 -2 -18 3 -27 10 -23 18 6 17 -25 25 -94 24 -54 -1 -54 -1 -20 -11 78
-22 140 -56 140 -77 0 -19 -272 7 -293 28 -6 6 -22 11 -35 11 -13 0 -32 5 -43
10 -12 7 -26 7 -35 2 -24 -13 -66 -3 -59 15 4 13 -2 14 -32 9 -74 -13 -114
-13 -109 0 7 18 -37 23 -70 8 -26 -11 -27 -12 -6 -13 32 -1 27 -18 -7 -26 -16
-3 -121 -4 -233 -2 -111 2 -165 1 -118 -3 l85 -6 -105 -2 c-111 -2 -441 -10
-675 -16 -170 -5 -281 10 -315 41 l-23 23 49 -5 c27 -2 69 -9 94 -14 31 -7 64
-7 103 1 38 7 115 9 215 4 86 -3 211 -8 277 -11 118 -4 119 -4 45 7 -41 6 -68
13 -60 16 8 3 18 9 21 14 3 5 48 10 100 11 101 1 94 4 -65 27 -66 9 -109 28
-75 32 7 1 -26 5 -76 9 -356 28 -316 40 135 38 265 -1 385 2 393 10 6 6 31 11
54 11 53 0 172 24 250 50 58 19 58 19 18 18 -65 -1 -85 1 -85 12 0 6 11 10 25
10 14 0 25 5 25 11 0 6 -9 9 -20 6 -20 -5 -45 15 -33 26 3 4 29 8 57 9 37 1
42 2 18 5 -20 3 -32 9 -29 16 6 20 275 22 361 3 74 -16 396 -29 396 -16 0 4
-38 16 -85 27 -66 16 -96 18 -133 11 -26 -5 -67 -13 -92 -18 -35 -6 -55 -4
-95 11 -27 10 -61 19 -75 20 l-25 0 23 9 c13 6 72 13 133 16 112 7 161 24 70
24 -28 0 -51 5 -51 10 0 6 -5 10 -11 10 -6 0 -9 -6 -6 -13 4 -10 -5 -14 -31
-15 -21 -1 -75 -9 -122 -17 -76 -13 -195 -20 -145 -8 11 3 25 10 30 15 7 7 3
9 -10 5 -43 -12 -263 -18 -269 -9 -4 7 -101 9 -280 5 -174 -4 -275 -2 -279 4
-4 6 120 12 346 16 194 4 366 9 382 11 17 3 80 12 140 21 131 19 168 26 163
31 -2 2 -62 -3 -134 -11 -173 -19 -1073 -40 -1087 -26 -11 11 42 14 303 16
272 3 759 31 960 54 l65 8 -55 2 c-40 1 -51 4 -40 11 14 9 -82 16 -152 11 -15
-1 -37 3 -48 9 -13 7 -26 8 -33 2 -14 -11 -8 -11 -221 -11 -93 -1 -172 1 -174
4 -3 3 66 5 154 5 122 1 155 3 140 12 -14 7 -76 9 -205 4 -102 -3 -313 -9
-468 -12 -156 -4 -283 -10 -283 -13 0 -7 437 -5 545 3 47 4 74 3 65 -2 -38
-23 -830 -37 -888 -17 -7 3 -10 0 -7 -5 3 -6 30 -11 58 -12 29 -1 -20 -4 -108
-8 -88 -3 -171 -2 -185 2 -18 4 -12 7 24 7 27 1 47 3 44 6 -3 3 -63 6 -134 6
-81 0 -123 4 -113 10 8 5 70 9 138 9 68 0 122 3 118 6 -3 3 -104 6 -224 6
-133 0 -197 3 -163 8 30 4 73 11 95 15 l40 8 -50 8 c-29 5 -65 4 -87 -2 -20
-5 -106 -12 -190 -15 -84 -3 -164 -7 -178 -9 -14 -2 -56 -9 -95 -15 -92 -14
-157 -33 -144 -41 6 -3 27 -2 47 2 20 4 57 12 82 18 25 5 108 14 185 20 77 6
160 14 185 16 31 4 41 2 33 -6 -6 -6 -37 -12 -69 -14 -159 -9 -220 -18 -246
-36 -15 -10 -30 -19 -34 -19 -4 0 -16 -8 -26 -17 -41 -37 -89 -47 -221 -48
-71 0 -131 3 -134 8 -5 9 -47 9 -57 0 -3 -4 -40 -8 -80 -9 -57 -2 -76 0 -80
12 -3 8 0 15 7 15 7 1 -24 7 -68 14 -60 9 -74 14 -57 20 12 4 22 11 22 16 0 6
71 7 168 4 121 -3 157 -2 132 5 -19 6 -71 12 -115 14 -44 3 -87 7 -95 10 -8 3
-31 5 -50 4 -43 -1 -278 19 -375 32 -119 16 -134 9 -35 -15 l95 -23 -110 3
c-220 6 -232 7 -205 15 l25 7 -25 6 c-14 3 -82 11 -151 17 -136 12 -232 5
-255 -17 -12 -12 -33 -12 -155 1 -147 17 -227 20 -217 10 8 -7 96 -21 208 -34
165 -18 225 -29 228 -40 3 -7 8 -7 15 -2 7 6 28 12 47 16 l35 6 -35 -13 -35
-14 53 -7 c28 -4 52 -11 52 -16 0 -5 10 -10 23 -12 12 -2 -45 -1 -126 1 -123
3 -151 1 -165 -12 -12 -11 -29 -14 -59 -10 -24 3 -40 9 -38 14 3 4 -52 8 -122
8 -128 1 -216 10 -263 30 -23 9 -22 10 15 11 32 1 36 3 20 10 -15 7 -6 9 30 7
28 -1 84 0 125 2 l75 4 -105 9 c-58 5 -175 10 -262 11 -160 2 -235 16 -92 18
43 0 88 4 99 8 30 12 -67 21 -260 23 -105 1 -149 4 -115 7 54 7 54 7 -35 13
-49 4 -123 10 -164 14 -50 4 -81 2 -96 -6 -17 -9 -55 -11 -142 -5 -152 9 -451
12 -421 3 13 -3 46 -7 73 -8 48 -2 49 -2 20 -12 -38 -12 -261 -15 -387 -4 -74
6 -98 11 -98 22 0 18 -146 20 -152 2 -3 -8 -51 -11 -174 -10 -107 1 -162 -2
-149 -8 17 -7 14 -9 -15 -10 -35 -1 -129 -21 -162 -35 -10 -4 -18 -13 -18 -21
0 -16 19 -17 150 -15 46 1 82 0 79 -3 -5 -5 -98 -14 -174 -16 -32 -1 -36 -3
-20 -10 18 -8 17 -9 -8 -9 -27 -1 -28 -3 -25 -43 l3 -43 55 -11 c30 -7 47 -12
37 -13 -10 0 -27 -9 -38 -20 -20 -18 -20 -19 28 -26 26 -4 105 -9 175 -10 135
-3 192 -11 182 -26 -3 -5 -26 -10 -52 -10 -41 -1 -43 -2 -17 -8 24 -6 13 -9
-50 -15 -44 -5 -89 -10 -99 -12 -11 -2 -66 -4 -123 -5 -101 -2 -103 -2 -103
-25 0 -13 2 -24 4 -24 2 0 37 -7 77 -15 41 -8 92 -17 114 -20 22 -3 60 -8 85
-11 25 -3 50 -10 55 -16 7 -7 3 -9 -13 -5 -12 3 -22 1 -22 -4 0 -5 -18 -9 -40
-9 -59 0 -49 -15 18 -26 45 -8 29 -9 -80 -6 -86 3 -138 1 -138 -5 0 -5 -14 -8
-30 -5 -26 4 -30 1 -30 -19 0 -22 7 -25 94 -42 66 -13 112 -16 155 -11 58 6
60 6 56 -15 -3 -18 1 -21 35 -21 24 0 40 -5 44 -15 4 -11 -1 -15 -17 -15 -12
0 -28 -4 -35 -9 -11 -7 -10 -9 3 -14 9 -4 13 -3 10 3 -4 6 6 10 22 10 19 0 24
-3 15 -9 -9 -5 3 -10 35 -15 48 -7 353 -25 426 -26 21 0 36 -4 33 -8 -3 -5 16
-5 42 -1 66 11 81 11 64 0 -14 -8 52 -21 109 -21 15 0 30 -3 32 -7 3 -5 -74
-5 -171 -1 -98 5 -199 6 -226 3 -27 -3 -107 -8 -177 -10 -100 -4 -129 -3 -129
7 0 8 -5 6 -11 -4 -6 -12 -21 -18 -42 -17 l-32 1 30 7 30 7 -35 6 c-19 3 -75
4 -125 1 -50 -2 -103 -4 -120 -5 -26 0 -27 -1 -10 -8 15 -7 10 -9 -22 -9 -24
-1 -43 -6 -43 -12 0 -7 11 -8 29 -4 18 4 32 2 36 -5 5 -7 20 -9 40 -6 19 4 36
2 39 -3 4 -6 63 -8 149 -4 225 8 454 11 432 6 -36 -9 -38 -21 -10 -47 29 -27
139 -54 229 -56 14 0 17 -5 12 -25 -6 -22 -3 -25 21 -24 36 1 122 16 103 18
-12 1 -12 4 3 12 9 5 22 7 27 4 6 -3 10 -1 10 4 0 6 -6 12 -12 12 -7 1 1 4 17
8 33 7 77 3 71 -8 -2 -3 27 -5 65 -3 38 2 69 8 69 13 0 5 -33 10 -72 11 -40 1
-86 2 -103 3 -16 0 -40 6 -52 13 -12 7 -37 13 -55 13 -26 1 -28 3 -9 6 14 3
34 11 46 19 16 11 60 13 205 10 102 -2 176 0 165 4 -12 5 -14 9 -6 9 8 1 11 4
8 8 -8 7 39 33 60 33 9 0 24 -9 33 -20 17 -20 26 -21 182 -16 89 3 193 5 230
5 36 0 69 5 73 10 3 6 24 11 46 11 24 0 38 4 34 10 -10 17 109 17 130 0 24
-19 116 -27 277 -25 105 1 145 -1 103 -5 -91 -8 146 -14 445 -10 113 1 202 -1
198 -5 -4 -4 -28 -9 -55 -11 -26 -2 -59 -4 -73 -5 -14 -1 -2 -5 25 -9 28 -4
-33 -5 -135 -2 -290 10 -400 8 -408 -4 -4 -7 -59 -14 -136 -18 -142 -8 -160
-12 -152 -33 5 -11 0 -13 -22 -9 -15 4 -45 1 -66 -7 l-39 -13 84 -12 c83 -12
146 -19 204 -22 l30 -2 -35 -13 -35 -13 30 -2 c17 0 165 -2 330 -4 216 -3 261
-2 160 4 -77 4 -195 8 -262 9 -102 1 -123 4 -123 16 0 8 6 15 13 15 8 0 7 3
-3 10 -8 5 -11 12 -8 16 11 10 40 -4 33 -16 -10 -16 7 -11 19 6 18 24 78 33
280 40 136 4 187 3 182 -5 -5 -7 5 -11 29 -11 22 0 34 4 30 10 -4 6 10 10 35
10 23 0 39 -4 36 -9 -9 -14 33 -21 134 -20 67 0 88 3 73 9 -13 5 -23 12 -23
14 0 3 43 4 96 2 118 -4 201 3 182 15 -9 6 -2 9 19 9 17 0 35 -5 38 -11 5 -7
36 -9 89 -6 74 5 78 4 46 -8 -19 -7 -38 -10 -42 -8 -5 2 -8 0 -8 -5 0 -5 -39
-17 -87 -26 -129 -23 -131 -24 -93 -25 19 -1 42 -6 50 -11 12 -7 10 -11 -10
-19 -18 -7 2 -8 69 -4 66 4 92 3 88 -4 -5 -8 18 -11 70 -11 63 1 70 2 38 8
-22 4 36 7 130 6 94 -1 205 2 247 6 75 7 167 -6 288 -42 19 -5 53 -10 75 -9
l40 1 -32 11 c-55 21 -46 24 55 19 63 -3 106 0 118 6 14 9 15 12 4 12 -8 1
-28 3 -45 4 -16 2 -86 6 -155 9 -269 14 -340 20 -340 28 0 5 10 9 23 10 21 1
21 1 -3 9 -25 8 -24 8 5 9 23 1 27 3 15 11 -16 11 9 12 260 12 80 0 154 4 165
9 16 6 13 8 -14 8 -56 1 -29 11 43 15 85 6 117 -4 64 -19 -27 -7 -35 -14 -29
-24 7 -11 15 -11 44 0 27 10 39 10 50 1 17 -14 229 -35 342 -34 55 0 69 -2 45
-7 l-35 -7 34 -7 c18 -4 54 -7 79 -7 47 0 49 -15 4 -22 -32 -4 -28 -23 5 -25
16 -1 42 -7 58 -12 29 -10 28 -10 -12 -8 -24 1 -43 -1 -43 -4 0 -7 35 -14 131
-25 64 -7 111 2 88 17 -8 5 -26 9 -41 9 -16 0 -28 5 -28 11 0 6 9 9 20 6 13
-3 20 0 20 9 0 8 -10 14 -22 14 -16 0 -19 3 -11 11 6 6 9 18 6 25 -4 11 9 14
58 16 39 1 50 3 29 5 -66 8 -56 23 16 24 51 1 61 3 39 9 -23 5 -7 9 65 15 52
5 102 9 110 10 8 1 52 2 98 3 60 2 81 5 76 14 -5 8 63 9 277 4 156 -4 320 -9
365 -12 109 -8 105 -7 142 -6 36 2 45 22 10 23 -20 0 -19 2 6 11 21 8 34 8 47
0 12 -8 20 -8 24 -2 3 6 25 10 48 11 l42 1 -32 9 c-62 18 -42 27 65 28 59 1
112 2 117 3 6 0 26 -3 45 -6 19 -4 54 -9 78 -13 50 -7 56 -23 10 -23 l-33 -1
30 -24 c18 -15 43 -25 63 -25 17 0 32 -5 32 -11 0 -12 -61 -8 -139 7 -33 7
-34 6 -27 -19 8 -33 5 -33 -44 -2 -29 18 -45 23 -61 17 -20 -8 -18 -11 30 -40
28 -18 57 -32 65 -32 17 0 38 -24 29 -34 -4 -3 -23 -3 -42 0 -46 8 -32 -9 24
-31 l40 -15 -55 6 c-30 3 -57 9 -60 14 -6 10 -119 32 -131 24 -14 -8 -50 6
-44 17 4 5 3 9 -2 10 -98 7 -108 19 -18 19 38 0 65 3 62 7 -4 3 -33 5 -64 4
-32 -1 -80 5 -108 14 -53 16 -131 20 -139 7 -2 -4 14 -6 37 -4 32 2 38 1 27
-7 -8 -6 -78 -11 -160 -12 -107 -1 -131 -4 -90 -9 30 -4 93 -5 140 -4 47 2 78
1 70 -3 -8 -3 -18 -11 -22 -17 -11 -16 -10 -38 2 -31 6 4 8 11 5 16 -9 14 13
11 48 -8 18 -9 48 -15 67 -14 38 2 90 -13 90 -27 0 -5 -30 -8 -67 -6 l-68 2
54 -13 c30 -8 57 -18 60 -24 9 -13 158 -44 173 -35 6 4 26 7 44 6 22 -1 33 3
31 11 -3 18 36 20 90 3 26 -8 40 -15 31 -15 -10 -1 -18 -5 -18 -10 0 -5 30
-12 68 -15 37 -4 90 -14 118 -22 28 -9 60 -13 72 -10 11 4 99 -7 194 -23 273
-48 647 -83 633 -61 -4 6 12 11 37 12 38 1 35 2 -17 7 -33 3 -64 3 -70 0 -14
-9 -45 -7 -45 3 0 4 -16 8 -35 8 -19 0 -35 4 -35 8 0 10 372 5 616 -9 164 -9
246 -7 357 7 25 3 36 1 32 -6 -3 -5 -1 -10 4 -10 6 0 11 5 11 10 0 6 9 10 21
10 14 0 19 5 16 14 -9 22 14 36 58 36 30 0 43 5 54 21 12 20 11 21 -6 13 -10
-4 -55 -10 -100 -12 -63 -3 -88 0 -105 12 -22 15 -21 16 27 17 107 1 275 17
288 27 7 6 35 15 62 19 31 6 -70 7 -264 5 -221 -2 -311 0 -306 7 3 6 17 11 31
11 l24 0 -21 21 c-20 20 -30 21 -183 19 -197 -2 -319 5 -411 25 l-70 15 75 -6
c41 -2 113 -7 160 -11 112 -7 99 3 -20 17 -127 15 -148 22 -90 31 25 3 101 0
169 -8 68 -7 131 -12 140 -10 9 3 3 5 -14 6 -44 2 -76 12 -69 22 3 5 -1 9 -8
9 -9 0 -9 3 2 10 10 7 -2 9 -40 4 -51 -6 -54 -5 -35 10 19 14 15 15 -55 16
-146 0 -445 29 -476 45 -37 19 -32 19 159 -2 98 -10 161 -13 167 -7 6 6 -1 9
-18 10 -98 1 -126 5 -112 14 12 8 11 10 -7 10 -13 0 -23 4 -23 8 0 10 -6 10
235 -22 99 -13 253 -27 343 -31 129 -5 171 -10 205 -25 23 -11 52 -20 65 -20
12 0 22 -4 22 -10 0 -6 38 -10 93 -11 l92 -1 -60 -13 c-55 -11 -41 -12 145
-10 210 1 234 0 224 -16 -3 -5 35 -9 85 -9 74 0 91 3 91 15 0 11 12 15 48 15
27 0 52 3 55 7 20 19 475 17 496 -3 2 -2 -31 -4 -75 -5 -51 0 -72 -3 -59 -9
18 -7 16 -8 -10 -11 -52 -7 354 -1 497 7 105 5 141 4 153 -6 15 -13 47 -12
305 9 80 6 86 8 36 9 -33 1 -57 5 -54 8 3 3 109 7 234 10 126 2 238 7 249 10
37 12 -23 26 -115 26 -47 1 -70 3 -52 5 17 2 32 8 32 13 0 5 34 7 78 5 176
-11 218 -12 247 -3 16 5 70 11 119 13 49 3 91 7 94 10 3 3 -30 5 -74 6 -43 0
-91 3 -106 5 -16 3 -28 1 -28 -4 0 -5 -15 -6 -32 -4 -28 4 -30 6 -13 13 14 5
7 8 -25 8 l-45 1 29 15 c15 8 52 15 80 15 29 0 56 4 62 9 8 9 154 16 194 10
36 -5 121 2 116 10 -3 4 15 11 41 15 36 5 51 2 65 -11 17 -15 40 -17 176 -16
86 1 149 -1 139 -4 -9 -2 -15 -9 -12 -14 4 -5 -30 -9 -79 -9 -54 0 -86 -4 -86
-11 0 -5 4 -8 9 -4 5 3 12 1 16 -4 3 -5 -16 -13 -42 -16 -27 -4 -83 -14 -127
-22 -43 -8 -93 -13 -112 -10 -19 3 -48 1 -66 -4 -48 -14 -117 -23 -163 -22
l-40 1 34 -14 c21 -9 52 -12 80 -9 168 19 308 36 320 41 8 2 22 -4 32 -15 13
-14 39 -21 101 -27 46 -4 88 -6 93 -5 6 2 35 4 65 6 142 9 208 18 242 32 20 9
44 13 52 10 8 -3 16 -2 18 4 2 5 28 11 58 14 l55 4 -53 -10 c-30 -6 -52 -13
-49 -15 2 -3 33 0 68 7 35 6 107 13 159 14 52 2 79 1 60 -1 -64 -8 -225 -47
-235 -56 -7 -7 -3 -8 10 -5 11 3 58 9 105 12 47 4 89 10 95 13 5 3 66 9 135
14 347 21 441 28 505 42 69 15 68 16 -115 10 -172 -5 -188 -4 -225 15 l-40 20
42 1 c23 0 45 5 48 10 3 6 25 10 48 11 23 0 37 3 30 5 -7 3 -9 11 -7 19 6 16
113 18 152 4 15 -6 22 -5 22 4 0 8 3 9 8 1 11 -17 55 -24 70 -11 8 6 31 12 51
12 20 1 168 5 329 10 194 5 292 5 292 -2 0 -6 54 -13 128 -17 95 -5 130 -10
138 -21 6 -8 17 -15 25 -15 12 0 12 -2 1 -9 -15 -9 13 -20 58 -22 39 -1 -82
-28 -168 -37 l-77 -8 100 -7 c105 -7 304 -33 311 -40 3 -2 -23 -7 -57 -10 -91
-8 -100 -27 -13 -28 143 -2 281 -16 290 -31 4 -7 -7 -8 -32 -4 -51 8 -96 -4
-85 -23 7 -11 15 -11 44 0 27 10 39 10 50 1 17 -14 229 -35 342 -34 55 0 69
-2 45 -7 l-35 -7 34 -7 c18 -4 54 -7 79 -7 48 0 49 -15 2 -22 -35 -4 -31 -23
5 -25 17 -1 44 -7 60 -12 29 -10 28 -10 -12 -8 -24 1 -43 -1 -43 -4 0 -7 35
-14 131 -25 64 -7 111 2 88 17 -8 5 -26 9 -41 9 -16 0 -28 5 -28 11 0 6 9 9
20 6 13 -3 20 0 20 9 0 8 -10 14 -22 14 -16 0 -19 3 -11 11 6 6 9 18 6 25 -4
11 9 14 58 16 39 1 50 3 29 5 -66 8 -56 23 16 25 38 1 4 5 -76 8 l-145 6 160
3 c104 2 150 6 130 11 -21 6 -2 9 65 9 52 0 140 5 195 12 95 10 481 7 695 -7
47 -3 92 -6 100 -6 8 -1 30 0 48 0 36 2 45 22 10 23 -20 0 -19 2 6 11 21 8 34
8 47 0 12 -8 20 -8 24 -2 3 6 25 10 48 11 l42 1 -32 9 c-62 18 -42 27 65 28
59 1 112 2 117 3 6 0 26 -3 45 -6 19 -4 54 -9 78 -13 50 -7 56 -23 10 -23
l-33 -1 30 -24 c18 -15 43 -25 63 -25 17 0 32 -5 32 -11 0 -12 -61 -8 -139 7
-33 7 -34 6 -27 -19 8 -33 5 -33 -44 -2 -29 18 -45 23 -61 17 -20 -8 -18 -11
30 -40 28 -18 57 -32 65 -32 17 0 38 -24 29 -34 -4 -3 -23 -3 -42 0 -46 8 -32
-9 24 -31 l40 -15 -55 6 c-30 3 -57 9 -60 14 -6 10 -119 32 -131 24 -14 -8
-50 6 -44 17 4 5 3 9 -2 10 -98 7 -108 19 -18 19 38 0 65 3 62 7 -4 3 -33 5
-64 4 -32 -1 -80 5 -108 14 -53 16 -131 20 -139 7 -2 -4 14 -6 37 -4 32 2 38
1 27 -7 -8 -6 -78 -11 -160 -12 -107 -1 -131 -4 -90 -9 30 -4 93 -5 140 -4 47
2 78 1 70 -3 -8 -3 -18 -11 -22 -17 -11 -16 -10 -38 2 -31 6 4 8 11 5 16 -9
14 13 11 48 -8 18 -9 48 -15 67 -14 38 2 90 -13 90 -27 0 -5 -30 -8 -67 -6
l-68 2 54 -13 c30 -8 57 -18 60 -24 9 -13 158 -44 173 -35 6 4 26 7 44 6 22
-1 33 3 31 11 -3 18 36 20 90 3 26 -8 40 -15 31 -15 -10 -1 -18 -5 -18 -10 0
-5 30 -12 68 -15 37 -4 90 -14 118 -22 28 -9 60 -13 72 -10 11 4 99 -7 194
-23 273 -48 647 -83 633 -61 -4 6 12 11 37 12 38 1 35 2 -17 7 -33 3 -64 3
-70 0 -14 -9 -45 -7 -45 3 0 4 -16 8 -35 8 -19 0 -35 4 -35 9 0 8 178 7 478
-3 l112 -3 0 106 0 107 -67 1 c-125 2 -247 12 -318 28 l-70 15 75 -6 c41 -2
113 -7 160 -11 112 -7 99 3 -20 17 -127 15 -148 22 -90 31 25 3 101 0 169 -8
68 -7 131 -12 140 -10 9 3 3 5 -14 6 -44 2 -76 12 -69 22 3 5 -1 9 -8 9 -9 0
-9 3 2 10 10 7 -2 9 -40 4 -51 -6 -54 -5 -35 10 19 14 15 15 -55 16 -146 0
-445 29 -476 45 -37 19 -32 19 159 -2 98 -10 161 -13 167 -7 6 6 -1 9 -18 10
-98 1 -126 5 -112 14 12 8 11 10 -7 10 -13 0 -23 4 -23 8 0 10 -3 10 236 -23
100 -14 211 -25 248 -25 l66 0 0 100 0 100 -202 0 c-265 1 -439 14 -454 35
-12 16 -50 21 -56 7 -5 -12 -246 12 -260 26 -6 6 -21 12 -33 12 -16 -1 -15 -4
10 -17 l30 -16 -30 -8 c-31 -9 -341 -10 -388 -2 -18 3 -27 10 -23 18 6 17 -25
25 -94 24 -54 -1 -54 -1 -20 -11 78 -22 140 -56 140 -77 0 -19 -272 7 -293 28
-6 6 -22 11 -35 11 -13 0 -32 5 -43 10 -12 7 -26 7 -35 2 -24 -13 -66 -3 -59
15 4 13 -2 14 -32 9 -74 -13 -114 -13 -109 0 7 18 -37 23 -70 8 -26 -11 -27
-12 -6 -13 32 -1 27 -18 -7 -26 -16 -3 -121 -4 -233 -2 -111 2 -165 1 -118 -3
l85 -6 -105 -3 c-58 -2 -150 -2 -205 -1 -55 0 -192 -4 -304 -10 -195 -10 -257
-8 -175 5 72 11 85 16 79 25 -3 5 7 11 22 13 16 2 -5 5 -45 6 -42 0 -71 -3
-68 -8 4 -5 -24 -11 -63 -13 -39 -2 -69 1 -68 6 1 5 -20 9 -48 9 -27 -1 -40 1
-27 4 12 2 20 8 17 13 -7 11 31 6 68 -9 16 -6 43 -10 60 -10 l32 1 -30 8 -30
7 35 4 c57 7 -302 28 -503 29 -25 0 -36 4 -32 11 8 11 356 6 386 -6 10 -3 20
-1 24 4 3 6 11 9 16 6 5 -4 9 -1 9 4 0 12 118 15 147 4 15 -6 13 -9 -12 -14
-20 -4 -3 -7 50 -9 44 -1 89 -4 100 -7 24 -7 49 -7 225 -3 85 2 122 5 100 10
-19 3 -99 6 -177 4 -79 -1 -143 2 -143 7 0 5 -26 10 -57 10 -88 2 -20 16 87
19 47 1 94 5 105 10 20 9 4 9 -250 -5 -80 -4 -285 -6 -400 -3 -11 1 -55 -3
-97 -7 -56 -6 -78 -5 -78 4 0 6 12 11 28 12 l27 1 -25 8 c-15 5 46 9 150 10
96 0 198 6 225 11 28 5 259 12 515 15 274 3 469 9 474 14 6 6 30 10 53 10 53
0 172 24 250 50 58 19 58 19 18 18 -65 -1 -85 1 -85 12 0 6 11 10 25 10 14 0
25 5 25 11 0 6 -9 9 -20 6 -20 -5 -45 15 -33 26 3 4 29 8 57 9 37 1 42 2 18 5
-20 3 -32 9 -29 16 6 20 275 22 361 3 74 -16 396 -29 396 -16 0 4 -38 16 -85
27 -64 15 -97 18 -130 12 -25 -5 -66 -13 -92 -18 -38 -7 -57 -6 -98 10 -27 10
-61 19 -75 20 l-25 0 23 9 c13 6 72 13 133 16 112 7 161 24 70 24 -28 0 -51 5
-51 10 0 6 -5 10 -11 10 -6 0 -9 -6 -6 -13 4 -10 -5 -14 -31 -15 -21 -1 -75
-9 -122 -17 -76 -13 -195 -20 -145 -8 11 3 25 10 30 15 7 7 3 9 -10 5 -44 -12
-263 -18 -269 -8 -6 10 -329 8 -616 -4 -120 -5 -173 1 -148 16 7 4 24 6 38 3
17 -3 20 -2 8 3 -10 5 170 8 400 9 229 0 442 3 472 7 124 15 312 46 318 52 4
4 -13 4 -38 1 -156 -20 -281 -27 -660 -36 -234 -5 -486 -9 -560 -9 -224 2 -58
16 275 23 454 10 784 28 1025 55 l65 8 -55 2 c-40 1 -51 4 -40 11 14 9 -82 16
-152 11 -15 -1 -37 3 -48 9 -13 7 -26 8 -33 2 -14 -11 -8 -11 -221 -11 -93 -1
-172 1 -174 4 -3 3 66 5 154 5 122 1 155 3 140 12 -14 7 -76 9 -205 4 -102 -3
-313 -9 -468 -12 -156 -4 -283 -10 -283 -13 0 -7 437 -5 545 3 49 4 74 3 65
-3 -16 -9 -391 -27 -830 -39 -202 -5 -291 -4 -335 5 -35 7 -64 8 -70 3 -6 -5
-17 -5 -25 0 -9 5 -19 5 -27 -1 -6 -6 -20 -9 -29 -7 -17 3 -17 4 0 21 15 14
37 17 143 17 70 0 123 3 120 7 -4 3 -105 6 -225 6 -184 0 -203 1 -127 8 50 5
142 10 205 10 69 1 103 5 85 9 l-30 7 25 6 c14 4 64 8 112 9 67 2 84 6 76 15
-8 9 -4 16 13 23 23 10 23 10 2 6 -13 -2 -26 0 -29 6 -3 5 -12 7 -20 4 -7 -3
-20 1 -28 9 -8 8 -23 12 -33 9 -10 -3 -7 2 7 10 15 9 49 15 87 16 36 0 65 5
69 12 5 8 0 9 -14 6 -12 -4 -22 -2 -22 3 0 11 25 12 71 2 28 -5 30 -7 14 -14
-17 -6 -15 -8 9 -8 21 -1 27 3 22 14 -4 13 1 14 33 9 28 -5 46 -2 62 10 23 16
23 16 -16 17 l-40 2 40 6 c39 7 39 7 -20 12 -33 3 -111 5 -172 4 -62 0 -113 2
-113 5 0 3 -39 4 -87 3 -63 -1 -79 1 -55 6 64 16 46 23 -43 18 -49 -3 -103 -8
-120 -12 -24 -4 -26 -3 -10 4 18 8 16 10 -10 10 -16 1 -48 -2 -70 -6 l-40 -7
35 -8 c22 -4 10 -5 -32 -2 -36 2 -93 1 -125 -3 -57 -6 -58 -7 -28 -19 19 -8
34 -9 42 -3 18 15 92 8 86 -8 -3 -7 -10 -13 -17 -13 -6 0 -4 -5 4 -10 8 -5 31
-8 50 -5 29 4 31 3 10 -4 -34 -12 -233 -13 -202 -1 34 14 26 19 -13 8 -19 -6
-32 -15 -30 -19 3 -4 -4 -5 -15 -2 -11 3 -20 0 -20 -6 0 -6 -9 -11 -19 -11
-11 0 -23 -4 -26 -10 -3 -5 -20 -10 -37 -10 -17 0 -49 -5 -71 -12 l-40 -12 28
-12 c27 -11 26 -12 -37 -23 -35 -6 -82 -11 -104 -12 -34 -1 -36 -2 -13 -8 14
-5 60 -2 109 7 52 9 85 11 87 5 2 -5 19 -8 38 -7 19 2 35 -1 35 -7 0 -5 20 -9
45 -8 24 2 48 -1 52 -5 4 -4 -24 -7 -62 -6 -70 1 -263 -29 -320 -49 -27 -9
-25 -10 20 -7 28 2 70 9 95 14 25 6 108 15 185 21 77 6 160 13 183 15 29 2 40
0 34 -6 -5 -5 -34 -11 -63 -13 -157 -8 -230 -18 -251 -36 -11 -11 -26 -20 -32
-21 -6 -1 16 -5 49 -9 l60 -7 -65 1 c-36 1 -72 -3 -80 -8 -50 -33 -154 -58
-210 -51 -27 3 -37 2 -25 -3 54 -22 -166 -30 -415 -15 -134 8 -146 9 -90 15
50 4 31 6 -80 8 -80 2 -185 6 -235 10 l-90 8 70 3 70 3 -95 9 c-183 17 -200
20 -200 30 0 5 7 7 16 4 10 -4 13 -2 8 6 -5 8 -2 9 12 3 10 -5 71 -10 134 -11
63 -2 107 0 98 2 -54 16 13 21 300 23 275 2 446 11 460 26 10 9 -130 22 -283
25 -64 2 -68 3 -42 14 37 16 26 25 -26 20 -34 -3 -37 -2 -17 5 14 5 68 10 120
11 210 4 184 16 -50 24 -129 4 -242 5 -251 1 -8 -3 -26 -1 -40 4 -20 8 -12 10
41 11 99 3 122 7 165 26 33 15 70 19 210 21 179 2 246 6 264 17 5 4 54 9 108
12 54 3 107 6 118 9 11 2 35 4 54 4 19 1 31 4 27 8 -4 4 -23 6 -42 4 -19 -1
-41 2 -48 8 -19 16 -156 18 -166 2 -6 -11 -29 -12 -106 -6 -55 5 -90 10 -79
12 91 18 -68 34 -215 22 -58 -5 -114 -4 -143 3 -26 5 -72 8 -102 6 -30 -1 -55
0 -55 5 0 4 19 8 43 9 28 1 17 4 -33 8 l-75 6 75 4 c41 2 60 5 43 7 -37 5 -46
31 -10 31 68 1 335 13 417 18 52 4 111 7 130 7 32 -1 78 14 55 18 -42 7 -72 8
-160 10 -63 1 -93 4 -80 9 11 5 30 9 42 9 12 1 25 6 28 12 12 19 -95 6 -225
-28z m-247 -80 c-7 -2 -19 -2 -25 0 -7 3 -2 5 12 5 14 0 19 -2 13 -5z m-1978
-13 c-3 -5 -12 -10 -20 -10 -8 0 -17 5 -20 10 -4 6 5 10 20 10 15 0 24 -4 20
-10z m1888 -7 c-7 -2 -21 -2 -30 0 -10 3 -4 5 12 5 17 0 24 -2 18 -5z m-2220
-20 c-7 -2 -19 -2 -25 0 -7 3 -2 5 12 5 14 0 19 -2 13 -5z m24 -19 c-3 -3 -12
-4 -19 -1 -8 3 -5 6 6 6 11 1 17 -2 13 -5z m60 -10 c-3 -3 -12 -4 -19 -1 -8 3
-5 6 6 6 11 1 17 -2 13 -5z m1443 -2 c0 -8 -46 -9 -54 -1 -3 3 8 6 24 7 17 1
30 -1 30 -6z m-383 -68 c-3 -3 -12 -4 -19 -1 -8 3 -5 6 6 6 11 1 17 -2 13 -5z
m-12710 -20 c-3 -3 -12 -4 -19 -1 -8 3 -5 6 6 6 11 1 17 -2 13 -5z m60 0 c-3
-3 -12 -4 -19 -1 -8 3 -5 6 6 6 11 1 17 -2 13 -5z m1156 -1 c-29 -2 -77 -2
-105 0 -29 2 -6 3 52 3 58 0 81 -1 53 -3z m8077 -33 c-8 -5 -31 -9 -50 -8
l-35 1 40 7 c59 11 61 11 45 0z m-6255 -10 c29 -7 29 -8 -10 -9 -22 -1 -65 -8
-95 -16 -61 -16 -88 -5 -43 18 30 16 100 19 148 7z m6732 4 c-3 -3 -12 -4 -19
-1 -8 3 -5 6 6 6 11 1 17 -2 13 -5z m3921 -11 c-15 -2 -42 -2 -60 0 -18 2 -6
4 27 4 33 0 48 -2 33 -4z m-8788 -6 c-6 -6 -75 -16 -111 -17 -19 0 -26 -5 -25
-17 1 -14 -8 -19 -41 -21 -41 -3 -49 2 -44 31 0 4 -10 7 -24 7 -29 0 -34 -16
-7 -23 9 -3 -4 -5 -29 -6 -26 0 -61 -4 -78 -7 -20 -4 -31 -3 -31 5 0 6 21 12
53 12 52 2 52 2 12 8 -36 6 -32 8 45 17 93 10 287 18 280 11z m-1312 -14 c-15
-2 -42 -2 -60 0 -18 2 -6 4 27 4 33 0 48 -2 33 -4z m8427 -3 c-3 -6 4 -10 18
-10 40 0 87 -12 82 -20 -6 -9 99 -28 185 -34 30 -2 -14 -2 -99 -1 -93 2 -158
8 -164 14 -6 6 -20 11 -31 10 -18 -1 -17 -2 4 -9 l25 -8 -27 -1 c-15 -1 -30 4
-33 9 -4 6 -72 10 -168 11 -89 1 -173 4 -187 9 -24 7 -24 7 10 14 110 21 396
33 385 16z m-10225 -17 c8 -7 -200 0 -239 8 -20 4 25 5 99 2 74 -3 137 -7 140
-10z m2047 11 c-3 -3 -12 -4 -19 -1 -8 3 -5 6 6 6 11 1 17 -2 13 -5z m8592 2
c-2 -2 -40 -6 -84 -9 -53 -5 -75 -4 -65 3 14 9 159 15 149 6z m-11023 -16
c126 -5 304 -12 396 -16 111 -4 166 -10 162 -16 -5 -7 -36 -8 -88 -4 -45 4
-171 9 -281 11 -324 8 -478 15 -510 24 -26 8 -21 9 31 10 33 1 164 -3 290 -9z
m3547 3 c-7 -2 -19 -2 -25 0 -7 3 -2 5 12 5 14 0 19 -2 13 -5z m-140 -10 c-7
-2 -19 -2 -25 0 -7 3 -2 5 12 5 14 0 19 -2 13 -5z m6754 1 c-3 -3 -12 -4 -19
-1 -8 3 -5 6 6 6 11 1 17 -2 13 -5z m-7099 -21 c-15 -2 -42 -2 -60 0 -18 2 -6
4 27 4 33 0 48 -2 33 -4z m7410 -10 c-21 -2 -57 -2 -80 0 -24 2 -7 4 37 4 44
0 63 -2 43 -4z m-9782 -11 c-2 -4 20 -7 51 -7 30 1 57 -3 59 -7 11 -18 -28
-39 -75 -41 -27 -1 -48 -6 -48 -12 1 -5 -18 -10 -43 -11 -25 -1 -56 -6 -70
-12 -23 -9 -154 -16 -255 -14 -22 1 -58 8 -80 17 -22 8 -29 13 -15 11 14 -3
77 -7 140 -9 63 -3 88 -2 55 2 l-60 6 89 7 c49 4 92 11 95 15 3 5 21 9 39 8
17 0 32 3 32 6 0 10 -28 19 -60 19 -16 0 -31 4 -35 10 -3 5 7 8 25 5 16 -2 32
1 35 6 4 5 33 9 66 9 33 0 58 -3 55 -8z m13129 -12 c-16 -4 -49 -8 -72 -9 -33
-1 -41 -4 -37 -16 7 -17 -2 -18 -58 -9 -21 4 -35 10 -32 15 3 5 -10 10 -28 11
-61 2 49 13 157 15 65 1 90 -1 70 -7z m-2222 -17 c-7 -2 -19 -2 -25 0 -7 3 -2
5 12 5 14 0 19 -2 13 -5z m1935 0 c-10 -2 -26 -2 -35 0 -10 3 -2 5 17 5 19 0
27 -2 18 -5z m-1890 -20 c-21 -2 -57 -2 -80 0 -24 2 -7 4 37 4 44 0 63 -2 43
-4z m1901 3 c-10 -8 -89 -13 -89 -5 0 5 21 9 47 9 25 0 44 -2 42 -4z m214 -3
c-7 -2 -19 -2 -25 0 -7 3 -2 5 12 5 14 0 19 -2 13 -5z m-9490 -20 c-7 -2 -19
-2 -25 0 -7 3 -2 5 12 5 14 0 19 -2 13 -5z m44 1 c-3 -3 -12 -4 -19 -1 -8 3
-5 6 6 6 11 1 17 -2 13 -5z m-4134 -11 c-7 -2 -21 -2 -30 0 -10 3 -4 5 12 5
17 0 24 -2 18 -5z m8755 -7 c52 -3 82 -2 82 5 0 6 61 9 170 9 94 -1 168 -6
165 -10 -10 -17 36 -19 389 -16 197 1 351 -1 341 -4 -17 -6 -16 -8 6 -23 l23
-17 -22 -1 c-41 -3 -45 -4 -49 -16 -3 -7 4 -13 14 -14 13 0 12 -3 -7 -10 -34
-14 -328 6 -357 24 -6 4 -64 9 -129 12 -66 4 -150 9 -188 14 -51 5 -72 4 -81
-6 -18 -18 -128 -17 -262 2 -132 19 -250 50 -213 57 14 2 27 3 30 2 3 -1 42
-5 88 -8z m2859 8 c-3 -3 -12 -4 -19 -1 -8 3 -5 6 6 6 11 1 17 -2 13 -5z
m-11991 -29 c-4 -11 1 -15 17 -14 12 0 16 3 10 6 -32 12 -7 22 56 20 58 -2 73
-6 89 -24 13 -16 30 -23 53 -22 l34 1 -30 8 c-25 6 -22 8 21 7 28 0 58 4 67 9
9 5 52 6 99 2 162 -16 270 -19 296 -10 18 6 51 5 97 -4 39 -6 61 -13 50 -14
-17 -2 -16 -3 5 -9 16 -5 -4 -8 -55 -8 -44 0 -100 -5 -125 -9 -25 -5 -76 -8
-115 -7 -165 4 -245 2 -320 -8 -44 -6 -129 -10 -190 -8 -60 1 -167 1 -237 0
-71 -1 -128 2 -128 7 0 4 51 14 114 20 126 13 149 19 140 34 -4 6 2 8 15 3 12
-4 21 -2 21 4 0 6 -8 11 -17 12 -15 0 -15 2 2 9 30 13 38 12 31 -5z m5326 -27
c-6 -6 -31 -15 -54 -19 -38 -6 -39 -7 -11 -8 34 -1 59 -30 49 -57 -7 -18 -43
-18 -62 1 -9 8 -23 15 -32 14 -14 0 -13 -2 3 -8 l20 -8 -20 -6 c-39 -11 -303
-21 -481 -18 -185 3 -284 -8 -174 -20 39 -4 19 -6 -70 -7 -79 -1 -120 2 -111
7 8 5 38 8 65 6 28 -3 42 -2 31 1 -11 3 -33 12 -50 19 -40 18 -101 26 -218 29
-53 2 -100 6 -104 9 -8 9 -2 9 177 9 112 0 130 2 80 8 -45 4 -53 7 -27 8 21 1
37 7 38 15 0 10 2 10 6 0 2 -7 14 -13 26 -12 21 0 21 1 2 8 -14 6 -4 9 36 13
61 7 112 0 103 -13 -3 -5 0 -9 5 -9 6 0 11 4 11 9 0 5 33 12 73 15 98 7 445
15 430 9 -7 -3 -13 -9 -13 -15 0 -6 8 -4 18 5 12 11 42 17 102 20 47 1 103 4
125 5 30 2 36 -1 27 -10z m5573 -8 c13 -6 5 -7 -25 -3 -25 3 -47 7 -49 9 -9 8
55 2 74 -6z m72 4 c-3 -3 -12 -4 -19 -1 -8 3 -5 6 6 6 11 1 17 -2 13 -5z m151
-1 c-15 -2 -42 -2 -60 0 -18 2 -6 4 27 4 33 0 48 -2 33 -4z m-10165 -20 c-7
-2 -19 -2 -25 0 -7 3 -2 5 12 5 14 0 19 -2 13 -5z m9387 -13 c24 -8 24 -8 -5
-8 -16 0 -39 3 -50 8 -18 8 -18 9 5 8 14 0 36 -4 50 -8z m-10677 -17 c-7 -2
-21 -2 -30 0 -10 3 -4 5 12 5 17 0 24 -2 18 -5z m8012 -3 c-4 -6 19 -10 63
-10 81 0 134 -9 126 -21 -3 -5 12 -9 33 -10 21 0 56 -7 78 -14 l40 -14 -37 2
c-20 2 -34 -1 -32 -5 3 -4 -3 -8 -13 -8 -21 -1 -72 -7 -157 -20 -54 -9 -90 -4
-58 7 6 3 12 13 12 24 0 18 -9 19 -117 21 -116 3 -189 5 -248 7 -28 2 -29 2
-10 14 13 7 64 11 145 11 69 -1 114 1 100 3 -23 5 -24 6 -5 14 29 11 87 11 80
-1z m310 0 c4 -6 -14 -9 -47 -8 l-53 1 45 7 c25 4 46 8 47 8 1 1 5 -2 8 -8z
m7687 -32 c-6 -6 -31 -15 -54 -19 -38 -6 -39 -7 -11 -8 34 -1 59 -30 49 -57
-7 -18 -43 -18 -62 1 -9 8 -23 15 -32 14 -14 0 -13 -2 3 -8 l20 -8 -20 -6
c-39 -11 -302 -21 -490 -19 -119 2 -196 -1 -205 -7 -11 -8 -1 -11 40 -13 30
-1 -69 -4 -220 -8 -151 -4 -286 -10 -300 -14 -25 -6 -25 -6 -2 5 12 7 22 16
22 21 0 4 16 8 36 8 31 0 35 2 24 15 -7 8 -26 15 -43 15 -39 0 -25 13 31 29
45 13 68 7 42 -9 -12 -8 -10 -10 7 -10 12 0 25 5 28 10 3 6 57 11 123 11 64 1
108 3 97 6 -47 10 -47 17 0 24 76 11 147 11 140 -1 -3 -5 -1 -10 4 -10 6 0 11
4 11 9 0 5 33 12 73 15 98 7 445 15 430 9 -7 -3 -13 -9 -13 -15 0 -6 8 -4 18
5 12 11 42 17 102 20 47 1 103 4 125 5 30 2 36 -1 27 -10z m-8812 -12 l65 -14
-90 0 c-49 0 -84 2 -76 5 11 5 11 7 0 14 -21 13 24 11 101 -5z m2333 -13 c-7
-2 -19 -2 -25 0 -7 3 -2 5 12 5 14 0 19 -2 13 -5z m877 -4 c42 0 46 -2 48 -24
2 -24 0 -25 -62 -25 -87 0 -216 -12 -212 -19 6 -9 -159 -14 -205 -6 -39 7 -40
8 -20 21 11 8 56 19 98 24 71 7 65 8 -63 7 -130 -2 -140 -3 -130 -19 5 -9 7
-20 4 -23 -4 -4 -42 -8 -85 -8 -63 -2 -78 1 -78 13 0 23 -93 19 -111 -5 -11
-14 -16 -16 -28 -6 -10 8 -16 9 -21 1 -3 -5 -13 -10 -21 -10 -8 0 -13 4 -10 9
9 14 -33 21 -62 10 -16 -6 -81 -7 -171 -2 -80 4 -191 7 -246 7 -79 -1 -90 0
-55 6 25 5 69 9 98 9 29 1 68 7 87 15 19 8 37 12 39 8 2 -4 24 -7 48 -7 24 1
45 -2 49 -7 7 -11 200 3 193 13 -3 5 131 9 298 9 282 0 497 7 508 17 2 2 18 1
34 -3 17 -4 51 -6 76 -5z m-9912 -8 c50 -10 62 -19 42 -31 -11 -7 -2 -10 29
-10 24 0 42 -2 40 -4 -2 -3 -76 -7 -164 -10 -88 -3 -177 -8 -198 -12 -32 -6
-37 -4 -31 10 4 11 1 16 -14 16 -11 0 -28 3 -38 7 -13 5 -15 3 -9 -8 7 -11 6
-12 -6 -2 -10 8 -40 10 -94 6 -44 -3 -87 -5 -95 -5 -33 2 -214 23 -217 25 -1
2 53 4 120 5 67 0 166 3 220 5 54 2 100 0 104 -5 3 -6 15 -7 27 -3 38 12 96
15 96 5 0 -6 22 -10 50 -10 40 0 48 3 44 15 -7 17 24 19 94 6z m347 -9 c44 -6
109 -11 144 -11 52 -1 62 -4 57 -16 -3 -8 0 -16 7 -17 7 -1 -21 -4 -62 -7 -94
-8 -283 -1 -256 9 14 5 0 10 -47 15 -45 5 -68 12 -68 20 0 7 6 15 13 18 17 7
117 1 212 -11z m-18 12 c-3 -3 -12 -4 -19 -1 -8 3 -5 6 6 6 11 1 17 -2 13 -5z
m70 0 c-3 -3 -12 -4 -19 -1 -8 3 -5 6 6 6 11 1 17 -2 13 -5z m4116 -1 c-7 -2
-21 -2 -30 0 -10 3 -4 5 12 5 17 0 24 -2 18 -5z m-325 -10 c-10 -2 -28 -2 -40
0 -13 2 -5 4 17 4 22 1 32 -1 23 -4z m4775 0 c-13 -2 -33 -2 -45 0 -13 2 -3 4
22 4 25 0 35 -2 23 -4z m5544 1 c-3 -3 -12 -4 -19 -1 -8 3 -5 6 6 6 11 1 17
-2 13 -5z m-7942 -24 c3 -5 1 -10 -4 -10 -6 0 -11 5 -11 10 0 6 2 10 4 10 3 0
8 -4 11 -10z m603 3 c-10 -2 -26 -2 -35 0 -10 3 -2 5 17 5 19 0 27 -2 18 -5z
m255 -10 c54 -3 83 -9 75 -14 -18 -12 -105 -11 -153 2 -22 6 -67 14 -100 19
l-60 9 75 -5 c41 -2 115 -7 163 -11z m-7260 -10 c-7 -2 -21 -2 -30 0 -10 3 -4
5 12 5 17 0 24 -2 18 -5z m6877 -3 c33 -4 -2 -5 -85 -2 -77 3 -142 6 -144 8
-8 7 173 2 229 -6z m2737 -16 c-3 -3 -12 -4 -19 -1 -8 3 -5 6 6 6 11 1 17 -2
13 -5z m5086 -21 c-7 -2 -21 -2 -30 0 -10 3 -4 5 12 5 17 0 24 -2 18 -5z
m-14223 -32 c25 -5 37 -9 27 -10 -20 -1 -18 -25 1 -27 7 -1 17 -2 23 -3 8 -1
8 -5 0 -15 -10 -12 -8 -15 11 -19 13 -2 -123 -3 -301 -3 -239 1 -327 -1 -336
-10 -15 -15 -295 -20 -295 -5 0 9 -135 6 -150 -4 -3 -2 -12 0 -18 4 -17 10 80
36 183 50 107 15 235 15 215 0 -11 -8 4 -9 55 -4 39 4 106 8 150 9 73 2 136
10 295 35 70 11 85 11 140 2z m14097 3 c-3 -3 -12 -4 -19 -1 -8 3 -5 6 6 6 11
1 17 -2 13 -5z m-13982 -14 c-11 -5 -31 -9 -45 -9 -23 0 -23 1 -5 9 11 5 31 9
45 9 23 0 23 -1 5 -9z m-438 -6 c-3 -3 -12 -4 -19 -1 -8 3 -5 6 6 6 11 1 17
-2 13 -5z m9112 -20 c69 -12 126 -14 210 -10 175 10 199 9 286 -7 44 -8 118
-14 165 -12 58 1 72 0 45 -5 -29 -5 -33 -8 -15 -9 24 -3 24 -3 -5 -12 -18 -5
-31 -5 -33 1 -2 5 -10 6 -18 3 -7 -3 -11 -10 -8 -15 4 -6 -20 -8 -67 -4 -167
14 -227 14 -292 2 -80 -15 -243 -20 -212 -6 14 6 2 9 -46 9 -36 1 -70 6 -75
11 -8 8 -15 6 -24 -5 -7 -8 -24 -15 -39 -16 l-26 -1 25 -7 c41 -12 -85 -21
-160 -12 l-65 8 60 2 c49 2 56 4 36 12 -13 5 -32 7 -42 4 -11 -4 -31 2 -47 14
-28 19 -96 31 -262 46 -161 14 -108 20 192 22 257 2 342 -1 417 -13z m-8192 0
c-3 -3 -12 -4 -19 -1 -8 3 -5 6 6 6 11 1 17 -2 13 -5z m186 -6 c-2 -5 -23 -8
-46 -7 -31 1 -36 3 -19 7 31 9 71 9 65 0z m1492 2 c-3 -5 -25 -10 -48 -9 -33
0 -38 2 -22 9 28 12 78 12 70 0z m295 -1 c-56 -10 -167 -9 -200 1 -14 4 32 7
110 7 98 0 123 -2 90 -8z m-2013 -5 c-3 -3 -12 -4 -19 -1 -8 3 -5 6 6 6 11 1
17 -2 13 -5z m1778 -34 c105 -7 192 -14 194 -16 2 -2 -78 -4 -179 -4 -101 0
-181 -2 -178 -6 3 -3 72 -5 153 -5 103 1 146 -2 143 -10 -3 -8 -67 -11 -208
-11 -295 -1 -349 2 -325 13 13 6 -16 8 -90 8 -131 -1 -148 0 -115 11 14 4 60
8 103 9 47 1 76 5 72 10 -11 18 140 32 205 19 19 -4 121 -12 225 -18z m10258
20 c27 0 37 -3 29 -9 -15 -9 -88 2 -100 14 -4 5 1 5 11 2 10 -4 37 -7 60 -7z
m-10708 -18 c-3 -3 -11 0 -18 7 -9 10 -8 11 6 5 10 -3 15 -9 12 -12z m7713 11
c-10 -2 -26 -2 -35 0 -10 3 -2 5 17 5 19 0 27 -2 18 -5z m3545 -4 l82 -2 -83
-10 c-59 -7 -86 -7 -91 1 -4 6 -21 7 -49 2 -23 -4 -45 -4 -47 1 -6 8 69 18 93
12 8 -2 50 -4 95 -4z m-11305 -6 c-10 -2 -26 -2 -35 0 -10 3 -2 5 17 5 19 0
27 -2 18 -5z m-311 -19 c-3 -3 -12 -4 -19 -1 -8 3 -5 6 6 6 11 1 17 -2 13 -5z
m1430 0 c-3 -3 -12 -4 -19 -1 -8 3 -5 6 6 6 11 1 17 -2 13 -5z m4970 -10 c-3
-3 -12 -4 -19 -1 -8 3 -5 6 6 6 11 1 17 -2 13 -5z m5263 -4 c0 -5 -9 -10 -19
-10 -11 0 -23 5 -26 10 -4 6 5 10 19 10 14 0 26 -4 26 -10z m-11795 -10 c-3
-5 -25 -9 -48 -9 -40 1 -40 2 -12 9 44 11 67 11 60 0z m11612 4 c-3 -3 -12 -4
-19 -1 -8 3 -5 6 6 6 11 1 17 -2 13 -5z m-13537 -25 c61 -12 541 -19 660 -8
77 6 98 5 110 -7 12 -12 10 -14 -20 -15 -100 -4 -117 -6 -137 -17 -12 -7 -44
-12 -72 -12 -27 0 -53 -5 -57 -11 -4 -7 -21 -9 -40 -6 -19 3 -34 2 -34 -3 0
-4 -10 -8 -22 -9 -13 0 -68 -3 -123 -6 -67 -4 -123 -2 -172 8 -76 14 -185 14
-268 -2 -27 -6 -57 -10 -65 -11 -11 0 -12 -2 -2 -8 19 -13 -81 -52 -131 -52
-24 0 -47 3 -51 7 -4 5 -23 9 -41 9 -19 1 -51 5 -72 9 -36 7 -36 8 -13 15 l25
8 -28 1 c-42 1 -23 19 20 19 21 0 58 5 83 11 25 5 86 13 135 16 50 4 97 9 105
12 8 4 42 10 75 14 l60 7 -62 -1 c-77 -1 -90 8 -31 21 23 5 34 10 23 11 -17 1
-18 3 -5 11 15 10 70 6 150 -11z m5035 9 c11 -1 -7 -4 -40 -8 -104 -11 -822
-2 -750 9 32 5 714 4 790 -1z m310 2 c-3 -5 -15 -10 -25 -10 -10 0 -22 5 -25
10 -4 6 7 10 25 10 18 0 29 -4 25 -10z m506 -2 c-23 -6 -37 -6 -44 1 -8 8 2
11 34 10 l44 -1 -34 -10z m4075 -18 c35 -12 57 -14 68 -8 12 7 27 5 48 -5 17
-8 37 -13 45 -10 7 3 13 0 13 -6 0 -6 14 -11 30 -11 17 0 30 -4 30 -10 0 -5 8
-10 17 -10 29 0 -4 -25 -35 -26 -86 -3 -262 -28 -250 -35 7 -5 -34 -9 -97 -9
-60 -1 -195 -5 -300 -10 -285 -14 -651 -23 -644 -17 12 14 200 26 479 33 162
3 327 8 365 10 215 11 311 24 189 24 -42 0 -55 3 -44 10 8 5 29 10 45 10 17 0
41 7 54 14 24 13 23 14 -25 19 -27 3 -71 10 -99 17 -28 7 -131 12 -235 13
-129 1 -167 3 -125 8 33 4 78 12 100 17 64 15 311 3 371 -18z m-6873 13 c-7
-2 -19 -2 -25 0 -7 3 -2 5 12 5 14 0 19 -2 13 -5z m197 -2 c47 1 168 0 270 -2
278 -6 432 -5 564 4 102 7 118 7 108 -5 -9 -12 -2 -14 46 -14 221 -1 684 -19
689 -27 3 -6 -142 -8 -391 -6 -218 2 -396 1 -396 -3 0 -9 36 -10 472 -10 247
-1 310 -4 319 -14 9 -12 3 -14 -37 -15 l-49 -1 50 -11 c36 -7 50 -7 53 2 2 6
25 11 53 11 63 0 65 20 2 21 l-48 1 40 9 c22 4 60 8 85 8 l45 1 -35 -18 -35
-17 53 -9 c59 -10 70 -26 17 -26 -19 0 -35 5 -35 11 0 5 -5 7 -12 3 -7 -4 -42
-11 -78 -14 l-65 -7 53 -2 c29 0 52 -6 52 -12 0 -7 -112 -10 -369 -8 -279 2
-368 6 -364 15 3 9 -7 9 -39 2 -50 -11 -149 -20 -130 -12 6 3 10 9 8 13 -3 4
0 8 7 9 51 4 113 15 131 23 15 7 7 8 -31 5 -28 -3 -53 -1 -55 4 -2 5 -36 12
-77 14 -47 3 -79 10 -90 20 -10 9 -22 16 -27 16 -5 0 -2 -5 6 -11 11 -8 7 -9
-19 -5 -18 3 -43 6 -54 6 -45 0 0 19 53 22 51 3 -54 4 -619 7 -209 1 -255 6
-245 23 3 5 13 6 23 3 9 -4 54 -6 101 -4z m2305 -11 c6 -5 27 -11 48 -15 20
-4 40 -11 43 -17 3 -5 -5 -6 -18 -3 -56 13 -187 21 -233 15 -33 -5 -40 -8 -20
-9 17 -1 37 -6 45 -12 11 -7 3 -8 -30 -3 -62 9 -86 44 -31 44 17 0 33 5 36 11
8 11 143 2 160 -11z m355 0 c0 -12 -17 -12 -45 0 -17 7 -15 9 13 9 17 1 32 -3
32 -9z m6943 -7 c-7 -2 -19 -2 -25 0 -7 3 -2 5 12 5 14 0 19 -2 13 -5z
m-11603 -13 c-54 -5 -108 -15 -125 -24 -16 -9 -42 -16 -57 -16 -16 0 -28 -5
-28 -11 0 -16 -265 -2 -340 17 l-55 14 68 -3 c37 -2 67 0 67 3 0 3 23 3 51 1
29 -2 56 2 62 8 6 6 18 11 27 10 11 0 10 -3 -5 -10 -15 -7 -12 -8 15 -4 19 3
66 8 105 11 38 3 72 7 74 10 2 2 56 3 120 3 l116 -2 -95 -7z m3788 -7 c-10 -2
-26 -2 -35 0 -10 3 -2 5 17 5 19 0 27 -2 18 -5z m5179 1 c-3 -3 -12 -4 -19 -1
-8 3 -5 6 6 6 11 1 17 -2 13 -5z m2963 -4 c-8 -5 -55 -9 -105 -8 l-90 2 85 6
c47 3 94 7 105 8 16 1 17 0 5 -8z m-7872 -7 c-10 -2 -26 -2 -35 0 -10 3 -2 5
17 5 19 0 27 -2 18 -5z m-2369 -19 c10 -9 -55 -3 -69 6 -10 6 -2 7 25 3 22 -3
42 -7 44 -9z m-1550 -10 c2 -2 -23 -4 -57 -4 -33 0 -63 4 -66 9 -6 8 113 3
123 -5z m1480 0 c9 -8 -45 -2 -64 6 -14 7 -8 8 20 3 22 -3 42 -7 44 -9z m2676
6 l20 -9 -20 1 c-11 0 -33 4 -50 8 l-30 8 30 0 c17 0 39 -3 50 -8z m9840 -12
c11 -1 -7 -4 -40 -8 -104 -11 -822 -2 -750 9 32 5 714 4 790 -1z m310 2 c-3
-5 -15 -10 -25 -10 -10 0 -22 5 -25 10 -4 6 7 10 25 10 18 0 29 -4 25 -10z
m506 -2 c-23 -6 -37 -6 -44 1 -8 8 2 11 34 10 l44 -1 -34 -10z m-10955 -7 c-3
-5 -15 -7 -26 -4 -28 7 -25 13 6 13 14 0 23 -4 20 -9z m8389 0 c85 8 253 1
260 -11 5 -9 -368 -12 -402 -4 -37 10 -8 23 31 15 17 -4 67 -4 111 0z m907 -4
c-8 -10 10 -12 86 -13 241 -2 643 -18 648 -25 3 -5 -174 -10 -393 -11 -391 -2
-394 -2 -163 -9 129 -4 305 -4 390 -1 136 4 157 3 169 -12 12 -14 9 -16 -35
-17 l-49 -1 50 -11 c36 -7 50 -7 53 2 2 6 25 11 53 11 63 0 65 20 2 21 l-48 1
40 9 c22 4 60 8 85 8 l45 1 -35 -18 -35 -17 53 -9 c59 -10 70 -26 17 -26 -19
0 -35 5 -35 11 0 5 -5 7 -12 3 -7 -4 -42 -11 -78 -14 l-65 -7 53 -2 c28 0 52
-6 52 -11 0 -7 -121 -10 -369 -9 -289 1 -369 4 -365 13 6 15 -57 9 -67 -7 -7
-11 -411 -14 -464 -4 -16 3 -41 7 -55 8 -14 2 58 6 159 9 158 4 177 6 138 16
-25 5 -44 6 -41 2 3 -4 -7 -8 -22 -8 l-27 0 29 25 29 25 -40 2 c-139 7 -149 9
-85 19 142 22 137 27 -22 26 -87 0 -161 2 -164 6 -4 4 53 7 127 8 74 1 172 4
219 8 145 13 184 13 172 -2z m1363 -7 c6 -5 27 -11 48 -15 20 -4 40 -11 43
-17 3 -5 -5 -6 -18 -3 -56 13 -187 21 -233 15 -33 -5 -40 -8 -20 -9 17 -1 37
-6 45 -12 11 -7 3 -8 -30 -3 -62 9 -86 44 -31 44 17 0 33 5 36 11 8 11 143 2
160 -11z m-12577 -6 c103 -13 61 -24 -85 -22 -101 1 -132 3 -98 8 28 4 40 8
28 8 -12 1 -25 7 -29 13 -7 12 46 10 184 -7z m2442 -8 c63 -10 133 -26 155
-36 l40 -18 -35 -1 c-28 -1 -32 -4 -20 -12 11 -8 5 -9 -25 -4 -85 13 -144 28
-139 37 3 4 -1 8 -8 8 -7 0 -26 7 -43 16 -16 9 -48 20 -70 24 -37 9 -38 9 -5
6 19 -2 87 -11 150 -20z m270 -15 l65 -20 -70 5 c-83 5 -202 27 -215 40 -15
15 151 -3 220 -25z m10220 29 c0 -12 -17 -12 -45 0 -17 7 -15 9 13 9 17 1 32
-3 32 -9z m-17204 -7 c-15 -4 -16 -7 -5 -14 11 -7 9 -9 -7 -9 -12 0 -21 6 -21
15 0 10 9 15 26 14 20 -1 21 -3 7 -6z m14947 0 c-7 -2 -19 -2 -25 0 -7 3 -2 5
12 5 14 0 19 -2 13 -5z m-11028 -28 l80 -13 -55 -3 c-82 -5 -174 -5 -180 1 -3
3 -21 13 -40 22 l-35 18 75 -7 c41 -3 111 -11 155 -18z m10355 19 c-36 -8
-100 -9 -100 -2 0 5 26 7 58 7 31 -1 50 -3 42 -5z m-14357 -11 c-7 -2 -19 -2
-25 0 -7 3 -2 5 12 5 14 0 19 -2 13 -5z m16415 0 c-10 -2 -26 -2 -35 0 -10 3
-2 5 17 5 19 0 27 -2 18 -5z m-11908 -13 c0 -5 -7 -10 -15 -10 -8 0 -15 5 -15
10 0 6 7 10 15 10 8 0 15 -4 15 -10z m6457 4 c-3 -3 -12 -4 -19 -1 -8 3 -5 6
6 6 11 1 17 -2 13 -5z m5721 -1 c-10 -2 -26 -2 -35 0 -10 3 -2 5 17 5 19 0 27
-2 18 -5z m-12240 -10 c-10 -2 -26 -2 -35 0 -10 3 -2 5 17 5 19 0 27 -2 18 -5z
m1824 -15 c-8 -8 -57 -13 -145 -15 -136 -2 -145 1 -42 16 97 14 201 13 187 -1z
m5653 -10 c6 -6 -1 -7 -20 -2 -16 3 -34 11 -40 16 -6 6 1 7 20 2 17 -3 35 -11
40 -16z m5000 12 l20 -9 -20 1 c-11 0 -33 4 -50 8 l-30 8 30 0 c17 0 39 -3 50
-8z m-10608 -6 c-3 -3 -12 -4 -19 -1 -8 3 -5 6 6 6 11 1 17 -2 13 -5z m902
-11 c33 -4 52 -2 48 3 -10 16 105 15 133 -1 25 -14 24 -14 -18 -15 -27 0 -41
-4 -37 -10 4 -7 -18 -9 -65 -7 -40 2 -75 9 -79 15 -3 6 -24 11 -46 10 -22 0
-60 0 -85 1 -36 2 -41 4 -25 12 19 8 55 7 174 -8z m-1651 0 c-16 -2 -40 -2
-55 0 -16 2 -3 4 27 4 30 0 43 -2 28 -4z m100 0 c-10 -2 -28 -2 -40 0 -13 2
-5 4 17 4 22 1 32 -1 23 -4z m80 0 c-10 -2 -26 -2 -35 0 -10 3 -2 5 17 5 19 0
27 -2 18 -5z m180 0 c-27 -2 -69 -2 -95 0 -27 2 -5 3 47 3 52 0 74 -1 48 -3z
m2699 1 c-3 -3 -12 -4 -19 -1 -8 3 -5 6 6 6 11 1 17 -2 13 -5z m1911 -1 c-21
-2 -55 -2 -75 0 -21 2 -4 4 37 4 41 0 58 -2 38 -4z m6088 -2 c-3 -5 -15 -7
-26 -4 -28 7 -25 13 6 13 14 0 23 -4 20 -9z m-4570 -16 c27 -8 65 -15 84 -16
30 -1 29 -3 -13 -8 -67 -10 -95 -6 -147 18 l-45 21 36 0 c20 0 58 -7 85 -15z
m774 11 c0 -8 -48 -12 -66 -5 -13 5 -7 8 24 8 23 1 42 -1 42 -3z m233 -3 c-7
-2 -19 -2 -25 0 -7 3 -2 5 12 5 14 0 19 -2 13 -5z m1625 -9 c126 -11 89 -24
-65 -22 -101 1 -132 3 -98 8 28 4 40 8 28 8 -13 1 -23 7 -23 13 0 7 14 9 43 5
23 -3 75 -8 115 -12z m2462 -8 c63 -10 133 -26 155 -36 l40 -18 -35 -1 c-28
-1 -32 -4 -20 -12 11 -8 5 -9 -25 -4 -85 13 -144 28 -139 37 3 4 -1 8 -8 8 -7
0 -26 7 -43 16 -16 9 -48 20 -70 24 -37 9 -38 9 -5 6 19 -2 87 -11 150 -20z
m270 -15 l65 -20 -70 5 c-83 5 -202 27 -215 40 -15 15 151 -3 220 -25z
m-10566 23 c31 -12 16 -24 -28 -22 -31 2 -42 6 -39 15 5 14 40 17 67 7z m5874
-1 c-10 -2 -28 -2 -40 0 -13 2 -5 4 17 4 22 1 32 -1 23 -4z m-5963 -13 c8 -13
-5 -13 -25 0 -13 8 -13 10 2 10 9 0 20 -4 23 -10z m8263 -7 l47 -7 -65 -7
c-36 -4 -70 -3 -77 3 -7 6 -13 4 -17 -4 -5 -10 -7 -10 -12 0 -7 14 -44 16 -44
2 0 -5 -7 -10 -15 -10 -8 0 -15 5 -15 10 0 6 -9 10 -20 10 -11 0 -20 5 -20 11
0 12 132 7 238 -8z m-12031 1 c-3 -3 -12 -4 -19 -1 -8 3 -5 6 6 6 11 1 17 -2
13 -5z m7470 0 c-3 -3 -12 -4 -19 -1 -8 3 -5 6 6 6 11 1 17 -2 13 -5z m1786
-1 c-7 -2 -19 -2 -25 0 -7 3 -2 5 12 5 14 0 19 -2 13 -5z m-7926 -9 c-3 -3
-12 -4 -19 -1 -8 3 -5 6 6 6 11 1 17 -2 13 -5z m177 -5 c2 -2 -2 -10 -10 -17
-8 -7 -14 -8 -14 -2 0 6 -23 10 -54 10 -30 0 -58 4 -61 10 -6 9 130 8 139 -1z
m215 -5 c2 -2 -28 -4 -68 -4 -47 0 -70 4 -66 10 6 10 123 4 134 -6z m6044 9
c-7 -2 -19 -2 -25 0 -7 3 -2 5 12 5 14 0 19 -2 13 -5z m-5950 -10 c-7 -2 -21
-2 -30 0 -10 3 -4 5 12 5 17 0 24 -2 18 -5z m-1126 -9 c-3 -3 -12 -4 -19 -1
-8 3 -5 6 6 6 11 1 17 -2 13 -5z m1240 0 c-3 -3 -12 -4 -19 -1 -8 3 -5 6 6 6
11 1 17 -2 13 -5z m11695 -6 c-8 -8 -57 -13 -145 -15 -136 -2 -145 1 -42 16
97 14 201 13 187 -1z m-12034 -5 c-10 -2 -26 -2 -35 0 -10 3 -2 5 17 5 19 0
27 -2 18 -5z m11095 0 c-7 -2 -21 -2 -30 0 -10 3 -4 5 12 5 17 0 24 -2 18 -5z
m984 1 c-3 -3 -12 -4 -19 -1 -8 3 -5 6 6 6 11 1 17 -2 13 -5z m902 -11 c33 -4
52 -2 48 3 -10 16 105 15 133 -1 25 -14 24 -14 -18 -15 -27 0 -41 -4 -37 -10
4 -7 -18 -9 -65 -7 -40 2 -75 9 -79 15 -3 6 -24 11 -46 10 -22 0 -60 0 -85 1
-36 2 -41 4 -25 12 19 8 55 7 174 -8z m-13972 1 c-3 -3 -12 -4 -19 -1 -8 3 -5
6 6 6 11 1 17 -2 13 -5z m76 -1 c-7 -2 -21 -2 -30 0 -10 3 -4 5 12 5 17 0 24
-2 18 -5z m6327 -3 c-8 -5 -42 -9 -75 -8 l-60 1 65 7 c36 4 70 7 75 8 6 1 3
-3 -5 -8z m120 6 c0 -7 -50 -13 -55 -7 -2 4 10 8 26 9 16 1 29 1 29 -2z m5863
-3 c-29 -2 -78 -2 -110 0 -32 2 -8 3 52 3 61 0 87 -1 58 -3z m115 0 c-10 -2
-26 -2 -35 0 -10 3 -2 5 17 5 19 0 27 -2 18 -5z m180 0 c-27 -2 -69 -2 -95 0
-27 2 -5 3 47 3 52 0 74 -1 48 -3z m-12601 -19 c-3 -3 -12 -4 -19 -1 -8 3 -5
6 6 6 11 1 17 -2 13 -5z m13527 0 c31 -12 16 -24 -28 -22 -31 2 -42 6 -39 15
5 14 40 17 67 7z m-12381 -11 c-7 -2 -19 -2 -25 0 -7 3 -2 5 12 5 14 0 19 -2
13 -5z m12292 -3 c8 -13 -5 -13 -25 0 -13 8 -13 10 2 10 9 0 20 -4 23 -10z
m-12178 -6 c-3 -3 -12 -4 -19 -1 -8 3 -5 6 6 6 11 1 17 -2 13 -5z m9928 -3
c-3 -6 49 -8 137 -6 84 3 149 1 158 -5 10 -6 -40 -10 -152 -10 -124 0 -168 -3
-168 -12 0 -9 -3 -9 -12 0 -7 7 -33 12 -59 12 -81 0 -66 19 18 23 43 1 79 4
81 5 2 1 1 -2 -3 -7z m-11290 -11 c-77 -10 -188 -11 -135 -1 19 3 71 7 115 7
l80 1 -60 -7z m3281 -11 c3 -5 -3 -9 -13 -9 -27 0 -63 11 -63 19 0 10 69 1 76
-10z m-671 1 c3 -5 2 -10 -4 -10 -5 0 -13 5 -16 10 -3 6 -2 10 4 10 5 0 13 -4
16 -10z m8753 -17 c-10 -2 -26 -2 -35 0 -10 3 -2 5 17 5 19 0 27 -2 18 -5z
m-8528 -23 c18 -12 2 -12 -25 0 -13 6 -15 9 -5 9 8 0 22 -4 30 -9z m-1495 -10
c3 -5 -3 -10 -14 -10 -12 0 -21 5 -21 10 0 6 6 10 14 10 8 0 18 -4 21 -10z
m1642 -14 c28 -8 54 -12 57 -9 2 3 15 2 27 -2 20 -7 21 -8 5 -17 -12 -7 -25
-7 -40 0 -11 6 -50 17 -86 25 -36 8 -54 15 -40 16 14 0 48 -5 77 -13z m186 7
c-7 -2 -19 -2 -25 0 -7 3 -2 5 12 5 14 0 19 -2 13 -5z m1527 -3 c15 -5 -1 -6
-40 -3 -36 3 -67 7 -69 9 -8 7 84 2 109 -6z m6903 3 c-7 -2 -19 -2 -25 0 -7 3
-2 5 12 5 14 0 19 -2 13 -5z m-8262 -27 c20 -8 78 -23 128 -32 59 -11 88 -20
79 -25 -18 -12 -52 -11 -85 3 -38 15 -101 20 -108 7 -9 -14 -150 0 -205 21
l-45 18 93 -6 c103 -5 125 8 40 26 l-53 11 60 -4 c34 -2 77 -11 96 -19z m8376
18 c-3 -3 -12 -4 -19 -1 -8 3 -5 6 6 6 11 1 17 -2 13 -5z m1919 -25 c3 -5 -3
-9 -13 -9 -27 0 -63 11 -63 19 0 10 69 1 76 -10z m-671 1 c3 -5 2 -10 -4 -10
-5 0 -13 5 -16 10 -3 6 -2 10 4 10 5 0 13 -4 16 -10z m-9825 -40 c0 -5 -7 -10
-15 -10 -8 0 -15 5 -15 10 0 6 7 10 15 10 8 0 15 -4 15 -10z m10050 0 c18 -12
2 -12 -25 0 -13 6 -15 9 -5 9 8 0 22 -4 30 -9z m-1495 -10 c3 -5 -3 -10 -14
-10 -12 0 -21 5 -21 10 0 6 6 10 14 10 8 0 18 -4 21 -10z m-7850 -24 c44 -9
100 -16 125 -17 25 0 56 -5 70 -9 l25 -8 -25 -1 c-39 -2 -322 38 -350 49 -33
13 46 6 155 -14z m9492 10 c28 -8 54 -12 57 -9 2 3 15 2 27 -2 20 -7 21 -8 5
-17 -12 -7 -25 -7 -40 0 -11 6 -50 17 -86 25 -36 8 -54 15 -40 16 14 0 48 -5
77 -13z m186 7 c-7 -2 -19 -2 -25 0 -7 3 -2 5 12 5 14 0 19 -2 13 -5z m168
-27 c20 -8 78 -23 128 -32 59 -11 88 -20 79 -25 -18 -12 -52 -11 -85 3 -38 15
-101 20 -108 7 -9 -14 -150 0 -205 21 l-45 18 93 -6 c103 -5 125 8 40 26 l-53
11 60 -4 c34 -2 77 -11 96 -19z m-10098 7 c-7 -2 -19 -2 -25 0 -7 3 -2 5 12 5
14 0 19 -2 13 -5z m225 -24 c13 -5 35 -10 50 -10 21 -2 18 -4 -13 -10 -33 -6
-29 -7 25 -5 36 2 55 1 42 -1 -16 -3 -22 -9 -18 -20 6 -14 -2 -15 -56 -9 -35
4 -64 12 -66 17 -2 5 -21 9 -42 9 -21 0 -42 5 -45 10 -3 6 1 10 10 10 9 0 14
4 11 9 -3 5 -24 8 -47 7 -22 -1 -43 2 -46 7 -7 11 160 -1 195 -14z m9672 -29
c0 -5 -7 -10 -15 -10 -8 0 -15 5 -15 10 0 6 7 10 15 10 8 0 15 -4 15 -10z
m705 -34 c44 -9 100 -16 125 -17 25 0 56 -5 70 -9 l25 -8 -25 -1 c-39 -2 -322
38 -350 49 -33 13 46 6 155 -14z m-252 -3 c-7 -2 -19 -2 -25 0 -7 3 -2 5 12 5
14 0 19 -2 13 -5z m225 -24 c13 -5 35 -10 50 -10 21 -2 18 -4 -13 -10 -33 -6
-29 -7 25 -5 36 2 55 1 42 -1 -16 -3 -22 -9 -18 -20 6 -14 -2 -15 -56 -9 -35
4 -64 12 -66 17 -2 5 -21 9 -42 9 -21 0 -42 5 -45 10 -3 6 1 10 10 10 9 0 14
4 11 9 -3 5 -24 8 -47 7 -22 -1 -43 2 -46 7 -7 11 160 -1 195 -14z"/>
<path d="M2160 5520 c0 -13 11 -13 30 0 12 8 11 10 -7 10 -13 0 -23 -4 -23
-10z"/>
<path d="M11548 5433 c17 -2 47 -2 65 0 17 2 3 4 -33 4 -36 0 -50 -2 -32 -4z"/>
<path d="M6433 5423 c9 -2 23 -2 30 0 6 3 -1 5 -18 5 -16 0 -22 -2 -12 -5z"/>
<path d="M6580 5420 c0 -11 14 -11 50 0 22 7 21 8 -12 9 -21 1 -38 -3 -38 -9z"/>
<path d="M6183 5413 c9 -2 23 -2 30 0 6 3 -1 5 -18 5 -16 0 -22 -2 -12 -5z"/>
<path d="M6327 5383 c-16 -15 -5 -21 24 -13 44 13 48 20 12 20 -16 0 -33 -3
-36 -7z"/>
<path d="M16783 5333 c9 -2 23 -2 30 0 6 3 -1 5 -18 5 -16 0 -22 -2 -12 -5z"/>
<path d="M16930 5330 c0 -11 14 -11 50 0 22 7 21 8 -12 9 -21 1 -38 -3 -38 -9z"/>
<path d="M16533 5323 c9 -2 23 -2 30 0 6 3 -1 5 -18 5 -16 0 -22 -2 -12 -5z"/>
<path d="M16018 5303 c7 -3 16 -2 19 1 4 3 -2 6 -13 5 -11 0 -14 -3 -6 -6z"/>
<path d="M16677 5293 c-16 -15 -5 -21 24 -13 44 13 48 20 12 20 -16 0 -33 -3
-36 -7z"/>
<path d="M15968 5263 c12 -2 32 -2 45 0 12 2 2 4 -23 4 -25 0 -35 -2 -22 -4z"/>
<path d="M16048 5263 c7 -3 16 -2 19 1 4 3 -2 6 -13 5 -11 0 -14 -3 -6 -6z"/>
<path d="M2153 5203 c15 -2 39 -2 55 0 15 2 2 4 -28 4 -30 0 -43 -2 -27 -4z"/>
<path d="M11003 5133 c9 -2 25 -2 35 0 9 3 1 5 -18 5 -19 0 -27 -2 -17 -5z"/>
<path d="M4278 5143 c6 -2 18 -2 25 0 6 3 1 5 -13 5 -14 0 -19 -2 -12 -5z"/>
<path d="M1703 5043 c9 -2 23 -2 30 0 6 3 -1 5 -18 5 -16 0 -22 -2 -12 -5z"/>
<path d="M1751 5036 c8 -8 98 -10 105 -3 4 4 -19 7 -51 7 -32 0 -56 -2 -54 -4z"/>
<path d="M1893 5013 c9 -2 25 -2 35 0 9 3 1 5 -18 5 -19 0 -27 -2 -17 -5z"/>
<path d="M2178 5013 c7 -3 16 -2 19 1 4 3 -2 6 -13 5 -11 0 -14 -3 -6 -6z"/>
<path d="M11418 5073 c23 -2 59 -2 80 0 20 2 1 4 -43 4 -44 0 -61 -2 -37 -4z"/>
<path d="M11555 5070 c-16 -7 -11 -9 20 -9 29 -1 36 2 25 9 -17 11 -19 11 -45
0z"/>
<path d="M5813 5063 c9 -2 25 -2 35 0 9 3 1 5 -18 5 -19 0 -27 -2 -17 -5z"/>
<path d="M6407 4994 c-4 -4 -4 -10 -2 -14 6 -10 55 0 55 11 0 10 -43 12 -53 3z"/>
<path d="M6530 4979 c0 -5 5 -7 10 -4 6 3 10 8 10 11 0 2 -4 4 -10 4 -5 0 -10
-5 -10 -11z"/>
<path d="M5898 4943 c6 -2 18 -2 25 0 6 3 1 5 -13 5 -14 0 -19 -2 -12 -5z"/>
<path d="M16163 4973 c9 -2 25 -2 35 0 9 3 1 5 -18 5 -19 0 -27 -2 -17 -5z"/>
<path d="M16115 4910 c-3 -5 1 -10 9 -10 9 0 16 5 16 10 0 6 -4 10 -9 10 -6 0
-13 -4 -16 -10z"/>
<path d="M16757 4904 c-4 -4 -4 -10 -2 -14 6 -10 55 0 55 11 0 10 -43 12 -53
3z"/>
<path d="M16305 4890 c-17 -7 -16 -9 10 -9 17 0 39 4 50 9 17 7 16 9 -10 9
-16 0 -39 -4 -50 -9z"/>
<path d="M16880 4889 c0 -5 5 -7 10 -4 6 3 10 8 10 11 0 2 -4 4 -10 4 -5 0
-10 -5 -10 -11z"/>
<path d="M16173 4863 c9 -2 23 -2 30 0 6 3 -1 5 -18 5 -16 0 -22 -2 -12 -5z"/>
<path d="M7550 4925 c7 -8 26 -15 43 -15 29 0 30 1 11 15 -10 8 -30 15 -43 15
-20 0 -21 -2 -11 -15z"/>
<path d="M17900 4835 c7 -8 26 -15 43 -15 29 0 30 1 11 15 -10 8 -30 15 -43
15 -20 0 -21 -2 -11 -15z"/>
<path d="M8010 4548 c0 -4 16 -8 35 -8 19 0 35 2 35 4 0 2 -16 6 -35 8 -19 2
-35 0 -35 -4z"/>
<path d="M18360 4458 c0 -4 16 -8 35 -8 19 0 35 2 35 4 0 2 -16 6 -35 8 -19 2
-35 0 -35 -4z"/>
<path d="M6343 6003 c15 -2 37 -2 50 0 12 2 0 4 -28 4 -27 0 -38 -2 -22 -4z"/>
<path d="M7660 6001 c0 -5 9 -7 20 -4 11 3 20 7 20 9 0 2 -9 4 -20 4 -11 0
-20 -4 -20 -9z"/>
<path d="M8380 5998 c14 -5 59 -8 102 -5 52 3 84 1 101 -8 21 -11 33 -11 62 0
34 11 35 13 14 18 -13 4 -87 7 -164 6 -106 0 -134 -3 -115 -11z"/>
<path d="M14158 5993 c7 -3 16 -2 19 1 4 3 -2 6 -13 5 -11 0 -14 -3 -6 -6z"/>
<path d="M6936 5979 c4 -8 0 -9 -15 -4 -12 4 -21 2 -21 -4 0 -16 52 -13 74 4
19 14 18 15 -13 15 -21 0 -30 -4 -25 -11z"/>
<path d="M2160 5970 c-249 -17 -310 -19 -583 -22 -152 -2 -269 -6 -260 -9 55
-20 171 -32 351 -35 133 -2 225 -9 268 -19 74 -17 229 -21 219 -5 -8 14 18 13
32 -1 8 -8 17 -7 34 2 23 12 23 12 4 19 -38 13 46 18 150 8 129 -12 299 -12
356 1 24 6 85 11 134 12 136 1 67 15 -120 23 -88 4 -189 11 -225 16 -113 15
-231 18 -360 10z"/>
<path d="M8345 5970 c-4 -6 5 -10 19 -10 14 0 26 5 26 10 0 6 -9 10 -19 10
-11 0 -23 -4 -26 -10z"/>
<path d="M18908 5973 c6 -2 18 -2 25 0 6 3 1 5 -13 5 -14 0 -19 -2 -12 -5z"/>
<path d="M12925 5960 c3 -5 16 -10 28 -9 21 0 21 1 2 9 -28 12 -37 12 -30 0z"/>
<path d="M15718 5963 c7 -3 16 -2 19 1 4 3 -2 6 -13 5 -11 0 -14 -3 -6 -6z"/>
<path d="M6955 5948 c-22 -4 -96 -7 -165 -8 -209 -1 -571 -26 -583 -40 -10
-10 -5 -11 20 -7 18 4 35 2 38 -3 4 -6 -19 -10 -58 -10 -49 0 -68 -4 -80 -18
-26 -29 -21 -35 26 -28 52 8 493 29 603 29 44 0 89 -5 100 -10 10 -6 60 -13
109 -16 l90 -6 -60 14 -60 14 60 -3 c33 -2 71 -7 84 -11 16 -5 22 -5 18 2 -4
6 4 14 18 17 34 9 276 9 298 0 10 -3 17 -1 17 5 0 7 27 11 76 11 44 0 73 4 69
9 -3 6 7 6 27 0 21 -6 34 -5 38 2 8 12 60 1 60 -12 0 -12 37 -11 45 1 3 6 26
10 50 10 24 0 46 4 49 9 3 5 14 8 24 6 54 -11 94 -13 86 -5 -9 9 -62 18 -119
20 -29 1 -29 1 -11 15 19 14 18 15 -11 15 -18 0 -34 -3 -36 -7 -6 -9 -178 -8
-332 2 -155 9 -446 11 -490 3z"/>
<path d="M5208 5943 c-16 -2 -28 -8 -28 -13 0 -4 -24 -11 -52 -15 -29 -3 -66
-13 -83 -21 -30 -14 -29 -14 22 -10 28 3 61 10 72 15 12 6 30 16 41 21 11 6
26 10 34 10 8 0 18 5 21 10 3 6 5 9 3 9 -2 -1 -15 -4 -30 -6z"/>
<path d="M16718 5943 c7 -3 16 -2 19 1 4 3 -2 6 -13 5 -11 0 -14 -3 -6 -6z"/>
<path d="M18018 5943 c12 -2 30 -2 40 0 9 3 -1 5 -23 4 -22 0 -30 -2 -17 -4z"/>
<path d="M18115 5940 c3 -5 13 -10 21 -10 8 0 12 5 9 10 -3 6 -13 10 -21 10
-8 0 -12 -4 -9 -10z"/>
<path d="M18318 5943 c7 -3 16 -2 19 1 4 3 -2 6 -13 5 -11 0 -14 -3 -6 -6z"/>
<path d="M4967 5934 c-3 -4 -21 -10 -39 -14 -27 -6 -28 -8 -8 -8 14 0 43 5 65
13 34 11 36 13 14 14 -14 1 -28 -2 -32 -5z"/>
<path d="M10188 5933 c7 -3 16 -2 19 1 4 3 -2 6 -13 5 -11 0 -14 -3 -6 -6z"/>
<path d="M10238 5933 c7 -3 16 -2 19 1 4 3 -2 6 -13 5 -11 0 -14 -3 -6 -6z"/>
<path d="M17315 5930 c-4 -6 5 -10 20 -10 15 0 24 4 20 10 -3 6 -12 10 -20 10
-8 0 -17 -4 -20 -10z"/>
<path d="M18703 5933 c9 -2 25 -2 35 0 9 3 1 5 -18 5 -19 0 -27 -2 -17 -5z"/>
<path d="M5428 5923 c6 -2 18 -2 25 0 6 3 1 5 -13 5 -14 0 -19 -2 -12 -5z"/>
<path d="M15127 5919 c7 -7 15 -10 18 -7 3 3 -2 9 -12 12 -14 6 -15 5 -6 -5z"/>
<path d="M16831 5926 c2 -2 13 -8 25 -14 16 -9 21 -8 21 4 0 8 -10 14 -25 14
-14 0 -23 -2 -21 -4z"/>
<path d="M17165 5920 c-4 -6 7 -10 25 -10 18 0 29 4 25 10 -3 6 -15 10 -25 10
-10 0 -22 -4 -25 -10z"/>
<path d="M13343 5913 c9 -2 23 -2 30 0 6 3 -1 5 -18 5 -16 0 -22 -2 -12 -5z"/>
<path d="M16693 5913 c15 -2 37 -2 50 0 12 2 0 4 -28 4 -27 0 -38 -2 -22 -4z"/>
<path d="M18010 5911 c0 -5 9 -7 20 -4 11 3 20 7 20 9 0 2 -9 4 -20 4 -11 0
-20 -4 -20 -9z"/>
<path d="M18730 5908 c14 -5 59 -8 102 -5 52 3 84 1 101 -8 21 -11 33 -11 62
0 34 11 35 13 14 18 -13 4 -87 7 -164 6 -106 0 -134 -3 -115 -11z"/>
<path d="M388 5903 c6 -2 18 -2 25 0 6 3 1 5 -13 5 -14 0 -19 -2 -12 -5z"/>
<path d="M7975 5900 c3 -5 8 -10 11 -10 2 0 4 5 4 10 0 6 -5 10 -11 10 -5 0
-7 -4 -4 -10z"/>
<path d="M3467 5893 c-4 -3 -165 -24 -189 -24 -28 0 -31 -18 -6 -29 17 -7 9
-8 -32 -4 -30 2 -111 6 -179 8 -128 3 -162 -4 -192 -41 -12 -14 -10 -15 25
-11 33 4 36 2 20 -9 -16 -12 -16 -13 0 -19 20 -8 116 0 231 19 58 9 79 16 77
26 -2 11 6 12 37 7 54 -8 646 -7 695 2 37 7 38 8 23 23 -18 18 -78 26 -267 34
-63 3 -143 9 -178 13 -34 5 -64 7 -65 5z"/>
<path d="M14228 5893 c7 -3 16 -2 19 1 4 3 -2 6 -13 5 -11 0 -14 -3 -6 -6z"/>
<path d="M17286 5889 c4 -8 0 -9 -15 -4 -12 4 -21 2 -21 -4 0 -16 52 -13 74 4
19 14 18 15 -13 15 -21 0 -30 -4 -25 -11z"/>
<path d="M18695 5880 c-4 -6 5 -10 19 -10 14 0 26 5 26 10 0 6 -9 10 -19 10
-11 0 -23 -4 -26 -10z"/>
<path d="M11274 5872 c2 -4 -33 -8 -77 -8 -45 -1 -140 -12 -212 -24 -71 -12
-141 -23 -155 -25 -14 -1 -41 -3 -60 -5 -29 -2 -24 -4 25 -11 38 -6 63 -5 69
1 6 6 21 10 35 10 21 0 23 -2 11 -10 -10 -7 7 -9 55 -8 52 1 58 2 25 5 -59 5
-81 25 -25 23 72 -3 101 0 86 9 -18 12 57 22 163 22 81 0 119 11 76 22 -11 3
-18 2 -16 -1z"/>
<path d="M620 5861 c0 -4 -35 -7 -77 -9 -43 -1 -93 -7 -111 -13 -18 -6 -43 -8
-55 -5 -12 3 -28 1 -36 -3 -24 -15 99 -35 194 -32 30 1 36 4 25 11 -20 13 188
12 248 -1 39 -8 178 -2 169 8 -4 3 -31 8 -202 33 -93 13 -155 18 -155 11z
m-137 -28 c-7 -2 -19 -2 -25 0 -7 3 -2 5 12 5 14 0 19 -2 13 -5z m374 -19 c-3
-3 -12 -4 -19 -1 -8 3 -5 6 6 6 11 1 17 -2 13 -5z"/>
<path d="M2452 5864 c7 -7 169 -7 176 1 3 3 -37 5 -88 5 -51 0 -91 -3 -88 -6z"/>
<path d="M4088 5863 c12 -2 30 -2 40 0 9 3 -1 5 -23 4 -22 0 -30 -2 -17 -4z"/>
<path d="M5045 5860 l-120 -6 140 -1 c77 0 187 3 245 7 l105 7 -125 -1 c-69 0
-179 -3 -245 -6z"/>
<path d="M5490 5860 c60 -11 122 -12 139 -1 8 5 -26 9 -85 9 -81 0 -91 -2 -54
-8z"/>
<path d="M8340 5860 c-24 -15 -7 -18 25 -4 23 10 25 13 10 13 -11 1 -27 -3
-35 -9z"/>
<path d="M15960 5860 c-24 -8 -23 -8 8 -9 20 -1 31 3 27 9 -3 6 -7 10 -8 9 -1
-1 -13 -5 -27 -9z"/>
<path d="M17305 5858 c-22 -4 -96 -7 -165 -8 -209 -1 -571 -26 -583 -40 -10
-10 -5 -11 20 -7 18 4 35 2 38 -3 4 -6 -19 -10 -58 -10 -46 0 -68 -4 -77 -15
-9 -11 -26 -14 -64 -10 l-51 4 55 -14 c30 -9 71 -13 90 -10 45 7 490 28 596
28 44 0 89 -5 100 -10 10 -6 60 -13 109 -16 l90 -6 -60 14 -60 14 60 -3 c33
-2 71 -7 84 -11 16 -5 22 -5 18 2 -4 6 4 14 18 17 34 9 276 9 298 0 10 -3 17
-1 17 5 0 7 27 11 76 11 44 0 73 4 69 9 -3 6 7 6 27 0 21 -6 34 -5 38 2 8 12
60 1 60 -12 0 -12 37 -11 45 1 3 6 26 10 50 10 24 0 46 4 49 9 3 5 14 8 24 6
54 -11 94 -13 86 -5 -9 9 -62 18 -119 20 -29 1 -29 1 -11 15 19 14 18 15 -11
15 -18 0 -34 -3 -36 -7 -6 -9 -178 -8 -332 2 -155 9 -446 11 -490 3z"/>
<path d="M4796 5844 c-6 -15 -4 -15 11 -3 10 7 20 15 22 16 2 2 -3 3 -11 3 -9
0 -19 -7 -22 -16z"/>
<path d="M14913 5853 c9 -2 23 -2 30 0 6 3 -1 5 -18 5 -16 0 -22 -2 -12 -5z"/>
<path d="M15100 5850 c-35 -7 -35 -7 -5 -9 17 0 37 4 45 9 17 11 11 11 -40 0z"/>
<path d="M16043 5853 c9 -2 23 -2 30 0 6 3 -1 5 -18 5 -16 0 -22 -2 -12 -5z"/>
<path d="M143 5843 c9 -2 25 -2 35 0 9 3 1 5 -18 5 -19 0 -27 -2 -17 -5z"/>
<path d="M7450 5840 l-35 -7 35 -1 c19 0 49 4 65 8 l30 8 -30 0 c-16 -1 -46
-4 -65 -8z"/>
<path d="M15165 5840 c6 -10 3 -12 -12 -8 -12 3 -27 1 -34 -4 -9 -6 0 -8 26
-6 38 3 51 18 24 27 -7 2 -9 -1 -4 -9z"/>
<path d="M8043 5833 c9 -2 25 -2 35 0 9 3 1 5 -18 5 -19 0 -27 -2 -17 -5z"/>
<path d="M9908 5833 c7 -3 16 -2 19 1 4 3 -2 6 -13 5 -11 0 -14 -3 -6 -6z"/>
<path d="M15205 5831 c-3 -5 -1 -12 5 -16 5 -3 10 1 10 9 0 18 -6 21 -15 7z"/>
<path d="M1288 5819 c-5 -3 21 -9 59 -12 88 -9 378 -9 370 -1 -8 9 -416 21
-429 13z"/>
<path d="M4775 5809 c-33 -10 -69 -23 -80 -28 -24 -11 -150 -31 -202 -32 -31
0 -34 -2 -17 -9 25 -10 279 31 296 48 7 7 21 12 33 12 12 0 30 7 41 15 27 20
4 18 -71 -6z"/>
<path d="M5146 5819 c-144 -8 -209 -19 -111 -19 56 0 51 -14 -10 -29 -34 -8
-29 -9 30 -4 68 5 120 20 85 24 -26 3 82 17 145 19 33 1 71 6 85 10 32 10 -21
10 -224 -1z"/>
<path d="M9860 5810 l-25 -8 25 0 c14 0 34 3 45 8 l20 9 -20 -1 c-11 0 -31 -4
-45 -8z"/>
<path d="M15307 5809 c8 -8 16 -8 30 0 16 9 14 10 -11 11 -22 0 -27 -3 -19
-11z"/>
<path d="M18325 5810 c3 -5 8 -10 11 -10 2 0 4 5 4 10 0 6 -5 10 -11 10 -5 0
-7 -4 -4 -10z"/>
<path d="M6265 5800 c-3 -5 1 -10 9 -10 8 0 18 5 21 10 3 6 -1 10 -9 10 -8 0
-18 -4 -21 -10z"/>
<path d="M8354 5798 c-7 -11 28 -10 46 2 11 7 8 9 -13 8 -16 -2 -31 -6 -33
-10z"/>
<path d="M11518 5803 c6 -2 18 -2 25 0 6 3 1 5 -13 5 -14 0 -19 -2 -12 -5z"/>
<path d="M4865 5793 c-22 -2 -44 -8 -48 -12 -5 -5 2 -7 15 -5 73 10 107 11
102 3 -3 -5 4 -9 16 -9 13 0 20 5 18 13 -5 13 -40 17 -103 10z"/>
<path d="M6428 5793 c6 -2 18 -2 25 0 6 3 1 5 -13 5 -14 0 -19 -2 -12 -5z"/>
<path d="M8995 5784 c-44 -7 -92 -15 -107 -16 -16 -1 -28 -6 -28 -11 0 -4 -6
-7 -12 -6 -7 1 -24 1 -38 0 -23 -2 -23 -3 -5 -10 31 -13 218 -23 211 -12 -9
14 15 19 54 10 l35 -8 -24 20 c-23 19 -23 20 -5 34 22 17 22 17 -81 -1z"/>
<path d="M16460 5790 c0 -5 5 -10 10 -10 6 0 10 5 10 10 0 6 -4 10 -10 10 -5
0 -10 -4 -10 -10z"/>
<path d="M6174 5778 c-3 -4 15 -8 40 -8 25 0 46 2 46 4 0 8 -82 11 -86 4z"/>
<path d="M7909 5777 c6 -8 9 -16 6 -19 -3 -2 34 -5 83 -6 70 -1 83 0 67 10
-19 11 -19 11 0 19 19 7 18 8 -2 8 -13 1 -23 -3 -23 -9 0 -5 -20 -10 -44 -10
-25 0 -48 5 -51 10 -3 6 -15 10 -27 10 -16 0 -18 -3 -9 -13z"/>
<path d="M248 5773 c7 -3 16 -2 19 1 4 3 -2 6 -13 5 -11 0 -14 -3 -6 -6z"/>
<path d="M318 5773 c6 -2 18 -2 25 0 6 3 1 5 -13 5 -14 0 -19 -2 -12 -5z"/>
<path d="M3403 5773 c9 -2 23 -2 30 0 6 3 -1 5 -18 5 -16 0 -22 -2 -12 -5z"/>
<path d="M3655 5771 c19 -9 133 -15 124 -7 -2 2 -35 6 -74 10 -46 4 -63 3 -50
-3z"/>
<path d="M4055 5775 c23 -8 165 -11 153 -4 -7 5 -47 8 -88 8 -41 0 -70 -2 -65
-4z"/>
<path d="M5236 5771 c-33 -5 -37 -8 -25 -18 18 -14 70 -4 77 15 2 7 0 11 -5
11 -4 -1 -26 -5 -47 -8z"/>
<path d="M7128 5773 c7 -3 16 -2 19 1 4 3 -2 6 -13 5 -11 0 -14 -3 -6 -6z"/>
<path d="M16330 5770 c-9 -6 -10 -10 -3 -10 6 0 15 5 18 10 8 12 4 12 -15 0z"/>
<path d="M18690 5770 c-24 -15 -7 -18 25 -4 23 10 25 13 10 13 -11 1 -27 -3
-35 -9z"/>
<path d="M4800 5760 c-19 -4 -26 -8 -15 -9 17 -1 18 -3 5 -11 -10 -7 4 -8 45
-4 65 7 109 23 65 24 -14 0 -34 2 -45 4 -11 2 -36 0 -55 -4z"/>
<path d="M9503 5763 c9 -2 25 -2 35 0 9 3 1 5 -18 5 -19 0 -27 -2 -17 -5z"/>
<path d="M9613 5763 c9 -2 23 -2 30 0 6 3 -1 5 -18 5 -16 0 -22 -2 -12 -5z"/>
<path d="M11728 5763 c17 -2 47 -2 65 0 17 2 3 4 -33 4 -36 0 -50 -2 -32 -4z"/>
<path d="M12538 5763 c6 -2 18 -2 25 0 6 3 1 5 -13 5 -14 0 -19 -2 -12 -5z"/>
<path d="M12598 5763 c12 -2 32 -2 45 0 12 2 2 4 -23 4 -25 0 -35 -2 -22 -4z"/>
<path d="M8468 5753 c7 -3 16 -2 19 1 4 3 -2 6 -13 5 -11 0 -14 -3 -6 -6z"/>
<path d="M8518 5753 c12 -2 32 -2 45 0 12 2 2 4 -23 4 -25 0 -35 -2 -22 -4z"/>
<path d="M17800 5750 l-35 -7 35 -1 c19 0 49 4 65 8 l30 8 -30 0 c-16 -1 -46
-4 -65 -8z"/>
<path d="M3308 5743 c18 -2 45 -2 60 0 15 2 0 4 -33 4 -33 0 -45 -2 -27 -4z"/>
<path d="M7041 5746 c8 -8 88 -10 95 -3 4 4 -17 7 -46 7 -29 0 -51 -2 -49 -4z"/>
<path d="M11518 5743 c12 -2 32 -2 45 0 12 2 2 4 -23 4 -25 0 -35 -2 -22 -4z"/>
<path d="M18393 5743 c9 -2 25 -2 35 0 9 3 1 5 -18 5 -19 0 -27 -2 -17 -5z"/>
<path d="M3401 5736 c12 -10 60 -16 54 -6 -3 5 -18 10 -32 10 -15 0 -24 -2
-22 -4z"/>
<path d="M3746 5731 c12 -5 59 -12 105 -15 58 -4 72 -3 44 3 -64 13 -173 22
-149 12z"/>
<path d="M6150 5730 l-135 -6 153 -2 c100 -1 151 1 147 8 -3 6 -12 9 -18 8 -7
-1 -73 -5 -147 -8z"/>
<path d="M6443 5733 c15 -2 39 -2 55 0 15 2 2 4 -28 4 -30 0 -43 -2 -27 -4z"/>
<path d="M6538 5733 c6 -2 18 -2 25 0 6 3 1 5 -13 5 -14 0 -19 -2 -12 -5z"/>
<path d="M7578 5733 c12 -2 32 -2 45 0 12 2 2 4 -23 4 -25 0 -35 -2 -22 -4z"/>
<path d="M9110 5730 c0 -5 15 -10 33 -10 24 0 28 3 17 10 -20 13 -50 13 -50 0z"/>
<path d="M5510 5722 l35 -5 -35 -7 c-21 -5 12 -7 80 -7 82 1 93 2 38 4 -43 2
-78 8 -78 13 0 6 -17 9 -37 8 l-38 -1 35 -5z"/>
<path d="M5930 5720 c-20 -6 -21 -8 -5 -8 11 0 34 4 50 8 27 7 27 8 5 8 -14 0
-36 -4 -50 -8z"/>
<path d="M7458 5723 c17 -2 47 -2 65 0 17 2 3 4 -33 4 -36 0 -50 -2 -32 -4z"/>
<path d="M7890 5720 c8 -5 22 -10 30 -10 13 0 13 1 0 10 -8 5 -22 10 -30 10
-13 0 -13 -1 0 -10z"/>
<path d="M8208 5725 c-3 -4 -37 -10 -75 -14 -66 -8 -66 -8 -17 -10 27 0 59 -8
70 -16 18 -14 18 -14 -3 -8 -15 3 -23 1 -23 -7 0 -9 11 -10 38 -5 20 3 52 6
71 6 43 0 28 16 -19 21 -35 4 -35 4 -10 15 14 7 20 12 13 12 -6 1 -18 3 -25 6
-8 3 -17 3 -20 0z"/>
<path d="M3958 5713 c6 -2 18 -2 25 0 6 3 1 5 -13 5 -14 0 -19 -2 -12 -5z"/>
<path d="M4012 5709 c7 -5 36 -8 63 -8 60 1 50 6 -23 12 -32 2 -48 1 -40 -4z"/>
<path d="M5793 5713 c15 -2 39 -2 55 0 15 2 2 4 -28 4 -30 0 -43 -2 -27 -4z"/>
<path d="M7960 5712 c0 -6 -10 -13 -22 -15 -13 -2 -2 -5 25 -6 26 0 47 4 47 9
0 6 -4 10 -9 10 -5 0 -16 3 -25 6 -9 3 -16 1 -16 -4z"/>
<path d="M11608 5713 c6 -2 18 -2 25 0 6 3 1 5 -13 5 -14 0 -19 -2 -12 -5z"/>
<path d="M16615 5710 c-3 -5 1 -10 9 -10 8 0 18 5 21 10 3 6 -1 10 -9 10 -8 0
-18 -4 -21 -10z"/>
<path d="M18704 5708 c-7 -11 28 -10 46 2 11 7 8 9 -13 8 -16 -2 -31 -6 -33
-10z"/>
<path d="M7780 5701 c0 -5 7 -14 15 -21 13 -10 15 -9 15 9 0 12 -6 21 -15 21
-8 0 -15 -4 -15 -9z"/>
<path d="M9068 5703 c7 -3 16 -2 19 1 4 3 -2 6 -13 5 -11 0 -14 -3 -6 -6z"/>
<path d="M16778 5703 c6 -2 18 -2 25 0 6 3 1 5 -13 5 -14 0 -19 -2 -12 -5z"/>
<path d="M3458 5693 c6 -2 18 -2 25 0 6 3 1 5 -13 5 -14 0 -19 -2 -12 -5z"/>
<path d="M4228 5688 c11 -10 158 -22 149 -12 -5 5 -42 11 -82 14 -41 3 -71 2
-67 -2z"/>
<path d="M10778 5693 c7 -3 16 -2 19 1 4 3 -2 6 -13 5 -11 0 -14 -3 -6 -6z"/>
<path d="M16524 5688 c-3 -4 15 -8 40 -8 25 0 46 2 46 4 0 8 -82 11 -86 4z"/>
<path d="M18259 5687 c6 -8 9 -16 6 -19 -3 -2 34 -5 83 -6 70 -1 83 0 67 10
-19 11 -19 11 0 19 19 7 18 8 -2 8 -13 1 -23 -3 -23 -9 0 -5 -20 -10 -44 -10
-25 0 -48 5 -51 10 -3 6 -15 10 -27 10 -16 0 -18 -3 -9 -13z"/>
<path d="M8400 5674 c-34 -9 -41 -13 -27 -19 9 -4 32 -4 50 -1 17 4 53 10 79
15 26 4 50 9 52 12 9 9 -111 3 -154 -7z"/>
<path d="M8765 5685 c25 -9 104 -12 99 -4 -3 5 -29 9 -57 8 -29 0 -47 -2 -42
-4z"/>
<path d="M17478 5683 c7 -3 16 -2 19 1 4 3 -2 6 -13 5 -11 0 -14 -3 -6 -6z"/>
<path d="M7584 5668 c-3 -4 15 -8 40 -8 25 0 46 -4 46 -8 0 -11 79 -30 158
-38 43 -5 62 -3 62 5 0 6 11 11 25 11 14 0 25 -5 25 -11 0 -8 11 -9 33 -4 54
13 187 11 195 -2 4 -6 30 -13 57 -16 40 -3 45 -5 28 -11 -59 -21 9 -34 145
-28 28 1 52 -1 52 -5 0 -5 -18 -9 -39 -9 -37 -2 -146 -32 -139 -39 2 -2 62 0
133 5 72 5 186 10 255 11 69 1 135 7 148 12 22 10 21 12 -20 24 -26 8 -91 13
-163 13 -117 0 -120 0 -140 26 -24 30 -1 27 -405 40 -96 3 -182 10 -190 15
-15 9 11 10 155 11 l70 0 -50 9 c-46 9 -96 8 -260 -7 -33 -3 -95 -1 -138 4
-43 4 -80 5 -83 0z m846 -78 c11 -7 -4 -10 -48 -10 -40 0 -61 4 -57 10 8 13
85 13 105 0z"/>
<path d="M4613 5663 c9 -2 25 -2 35 0 9 3 1 5 -18 5 -19 0 -27 -2 -17 -5z"/>
<path d="M10078 5663 c7 -3 16 -2 19 1 4 3 -2 6 -13 5 -11 0 -14 -3 -6 -6z"/>
<path d="M18818 5663 c7 -3 16 -2 19 1 4 3 -2 6 -13 5 -11 0 -14 -3 -6 -6z"/>
<path d="M18868 5663 c12 -2 32 -2 45 0 12 2 2 4 -23 4 -25 0 -35 -2 -22 -4z"/>
<path d="M2558 5653 c7 -3 16 -2 19 1 4 3 -2 6 -13 5 -11 0 -14 -3 -6 -6z"/>
<path d="M11288 5653 c7 -3 16 -2 19 1 4 3 -2 6 -13 5 -11 0 -14 -3 -6 -6z"/>
<path d="M11578 5653 c7 -3 16 -2 19 1 4 3 -2 6 -13 5 -11 0 -14 -3 -6 -6z"/>
<path d="M17391 5656 c8 -8 88 -10 95 -3 4 4 -17 7 -46 7 -29 0 -51 -2 -49 -4z"/>
<path d="M11175 5641 c-6 -5 -23 -11 -40 -14 -16 -2 -7 -4 21 -3 29 0 50 4 48
8 -2 4 6 9 18 11 18 3 16 5 -7 6 -17 0 -35 -3 -40 -8z"/>
<path d="M16500 5640 l-135 -6 153 -2 c100 -1 151 1 147 8 -3 6 -12 9 -18 8
-7 -1 -73 -5 -147 -8z"/>
<path d="M16793 5643 c15 -2 39 -2 55 0 15 2 2 4 -28 4 -30 0 -43 -2 -27 -4z"/>
<path d="M16888 5643 c6 -2 18 -2 25 0 6 3 1 5 -13 5 -14 0 -19 -2 -12 -5z"/>
<path d="M17928 5643 c12 -2 32 -2 45 0 12 2 2 4 -23 4 -25 0 -35 -2 -22 -4z"/>
<path d="M15863 5629 c-18 -5 -33 -12 -33 -14 0 -3 55 -4 123 -3 67 1 100 3
72 5 -27 2 -54 8 -59 14 -12 11 -60 10 -103 -2z"/>
<path d="M16280 5630 c-20 -6 -21 -8 -5 -8 11 0 34 4 50 8 27 7 27 8 5 8 -14
0 -36 -4 -50 -8z"/>
<path d="M17808 5633 c17 -2 47 -2 65 0 17 2 3 4 -33 4 -36 0 -50 -2 -32 -4z"/>
<path d="M18240 5630 c8 -5 22 -10 30 -10 13 0 13 1 0 10 -8 5 -22 10 -30 10
-13 0 -13 -1 0 -10z"/>
<path d="M18558 5635 c-3 -4 -37 -10 -75 -14 -66 -8 -66 -8 -17 -10 27 0 59
-8 70 -16 18 -14 18 -14 -3 -8 -15 3 -23 1 -23 -7 0 -9 11 -10 38 -5 20 3 52
6 71 6 43 0 28 16 -19 21 -35 4 -35 4 -10 15 14 7 20 12 13 12 -6 1 -18 3 -25
6 -8 3 -17 3 -20 0z"/>
<path d="M7458 5623 c12 -2 30 -2 40 0 9 3 -1 5 -23 4 -22 0 -30 -2 -17 -4z"/>
<path d="M8488 5623 c6 -2 18 -2 25 0 6 3 1 5 -13 5 -14 0 -19 -2 -12 -5z"/>
<path d="M16143 5623 c15 -2 39 -2 55 0 15 2 2 4 -28 4 -30 0 -43 -2 -27 -4z"/>
<path d="M18310 5622 c0 -6 -10 -13 -22 -15 -13 -2 -2 -5 25 -6 26 0 47 4 47
9 0 6 -4 10 -9 10 -5 0 -16 3 -25 6 -9 3 -16 1 -16 -4z"/>
<path d="M7670 5610 c0 -5 12 -10 28 -9 24 0 25 1 7 9 -27 12 -35 12 -35 0z"/>
<path d="M8115 5610 c-3 -5 1 -10 10 -10 9 0 13 5 10 10 -3 6 -8 10 -10 10 -2
0 -7 -4 -10 -10z"/>
<path d="M10918 5613 c12 -2 32 -2 45 0 12 2 2 4 -23 4 -25 0 -35 -2 -22 -4z"/>
<path d="M18130 5611 c0 -5 7 -14 15 -21 13 -10 15 -9 15 9 0 12 -6 21 -15 21
-8 0 -15 -4 -15 -9z"/>
<path d="M7105 5589 c-9 -14 -2 -20 14 -10 8 6 9 11 3 15 -6 3 -14 1 -17 -5z"/>
<path d="M7458 5593 c-25 -6 -22 -30 5 -45 l22 -12 -25 -7 c-25 -7 -25 -7 5
-10 17 -2 53 -4 80 -4 28 -1 84 -5 125 -8 72 -6 73 -6 15 3 -33 5 -71 12 -85
16 -23 6 -24 7 -5 14 15 6 8 10 -32 15 -29 4 -50 11 -47 16 3 5 -2 9 -10 9 -9
0 -16 5 -16 10 0 10 -3 11 -32 3z"/>
<path d="M8693 5593 c26 -2 68 -2 95 0 26 2 4 3 -48 3 -52 0 -74 -1 -47 -3z"/>
<path d="M8900 5590 c-20 -6 -14 -8 25 -8 37 -1 45 2 30 8 -24 10 -23 10 -55
0z"/>
<path d="M9260 5596 c0 -2 7 -6 15 -10 8 -3 15 -1 15 4 0 6 -7 10 -15 10 -8 0
-15 -2 -15 -4z"/>
<path d="M9350 5590 c8 -5 22 -9 30 -9 10 0 8 3 -5 9 -27 12 -43 12 -25 0z"/>
<path d="M16074 5590 c17 -6 36 -5 45 0 11 7 3 9 -29 9 -42 -1 -43 -1 -16 -9z"/>
<path d="M18750 5584 c-34 -9 -41 -13 -27 -19 9 -4 32 -4 50 -1 17 4 53 10 79
15 26 4 50 9 52 12 9 9 -111 3 -154 -7z"/>
<path d="M19133 5593 c15 -2 37 -2 50 0 12 2 0 4 -28 4 -27 0 -38 -2 -22 -4z"/>
<path d="M9168 5583 c12 -2 30 -2 40 0 9 3 -1 5 -23 4 -22 0 -30 -2 -17 -4z"/>
<path d="M17934 5578 c-3 -4 15 -8 40 -8 25 0 46 -4 46 -8 0 -11 79 -30 158
-38 43 -5 62 -3 62 5 0 6 11 11 25 11 14 0 25 -5 25 -11 0 -8 11 -9 33 -4 54
13 187 11 195 -2 4 -6 30 -13 57 -16 40 -3 45 -5 28 -11 -65 -23 -2 -32 182
-27 65 2 86 -1 75 -8 -23 -16 6 -14 55 4 l40 14 -67 1 c-41 0 -68 4 -68 11 0
5 5 7 10 4 16 -10 12 11 -5 25 -16 13 -53 15 -395 26 -96 3 -182 10 -190 15
-15 9 11 10 155 11 l70 0 -50 9 c-46 9 -96 8 -260 -7 -33 -3 -95 -1 -138 4
-43 4 -80 5 -83 0z m846 -78 c11 -7 -4 -10 -48 -10 -40 0 -61 4 -57 10 8 13
85 13 105 0z"/>
<path d="M9220 5570 c-13 -8 -12 -10 3 -10 9 0 17 5 17 10 0 12 -1 12 -20 0z"/>
<path d="M9250 5573 c0 -11 54 -22 67 -14 12 6 5 10 -25 13 -23 2 -42 2 -42 1z"/>
<path d="M6963 5563 c9 -2 23 -2 30 0 6 3 -1 5 -18 5 -16 0 -22 -2 -12 -5z"/>
<path d="M7807 5540 c13 -5 64 -12 115 -15 51 -4 105 -11 120 -17 28 -10 86
-3 74 10 -7 7 -236 31 -296 31 -31 0 -32 -1 -13 -9z"/>
<path d="M17808 5533 c12 -2 30 -2 40 0 9 3 -1 5 -23 4 -22 0 -30 -2 -17 -4z"/>
<path d="M18838 5533 c6 -2 18 -2 25 0 6 3 1 5 -13 5 -14 0 -19 -2 -12 -5z"/>
<path d="M15 5520 c-17 -8 -16 -9 7 -7 15 2 30 6 34 10 10 10 -17 8 -41 -3z"/>
<path d="M18020 5520 c0 -5 12 -10 28 -9 24 0 25 1 7 9 -27 12 -35 12 -35 0z"/>
<path d="M18465 5520 c-3 -5 1 -10 10 -10 9 0 13 5 10 10 -3 6 -8 10 -10 10
-2 0 -7 -4 -10 -10z"/>
<path d="M14018 5503 c7 -3 16 -2 19 1 4 3 -2 6 -13 5 -11 0 -14 -3 -6 -6z"/>
<path d="M17455 5499 c-9 -14 -2 -20 14 -10 8 6 9 11 3 15 -6 3 -14 1 -17 -5z"/>
<path d="M17808 5503 c-25 -6 -22 -30 5 -45 l22 -12 -25 -7 c-25 -7 -25 -7 5
-10 17 -2 53 -4 80 -4 28 -1 84 -5 125 -8 72 -6 73 -6 15 3 -33 5 -71 12 -85
16 -23 6 -24 7 -5 14 15 6 8 10 -32 15 -29 4 -50 11 -47 16 3 5 -2 9 -10 9 -9
0 -16 5 -16 10 0 10 -3 11 -32 3z"/>
<path d="M19043 5503 c26 -2 68 -2 95 0 26 2 4 3 -48 3 -52 0 -74 -1 -47 -3z"/>
<path d="M7945 5480 c-3 -5 1 -10 9 -10 8 0 18 5 21 10 3 6 -1 10 -9 10 -8 0
-18 -4 -21 -10z"/>
<path d="M8075 5480 c-27 -5 -2 -7 75 -7 88 0 104 1 70 8 -53 9 -90 9 -145 -1z"/>
<path d="M8288 5473 c6 -2 18 -2 25 0 6 3 1 5 -13 5 -14 0 -19 -2 -12 -5z"/>
<path d="M8490 5472 c0 -5 39 -13 88 -16 236 -16 300 -18 305 -9 4 6 -65 13
-178 17 -102 4 -192 9 -200 12 -8 4 -15 2 -15 -4z"/>
<path d="M17313 5473 c9 -2 23 -2 30 0 6 3 -1 5 -18 5 -16 0 -22 -2 -12 -5z"/>
<path d="M14653 5463 c9 -2 23 -2 30 0 6 3 -1 5 -18 5 -16 0 -22 -2 -12 -5z"/>
<path d="M7794 5448 c-5 -7 24 -10 111 -12 14 -1 24 3 23 9 -3 11 -128 14
-134 3z"/>
<path d="M18157 5450 c13 -5 64 -12 115 -15 51 -4 105 -11 120 -17 28 -10 86
-3 74 10 -7 7 -236 31 -296 31 -31 0 -32 -1 -13 -9z"/>
<path d="M7590 5430 c0 -5 -15 -10 -32 -10 -24 0 -29 -3 -18 -10 29 -18 -34
-27 -187 -27 -84 0 -153 3 -153 7 0 11 -52 6 -75 -7 -14 -9 -16 -13 -5 -13 8
0 105 -7 215 -15 110 -8 218 -14 240 -13 l40 1 -40 7 c-22 4 -30 8 -19 9 12 0
24 8 28 16 3 9 18 15 36 15 35 0 36 3 13 30 -18 21 -43 27 -43 10z"/>
<path d="M7155 5420 c-4 -6 20 -10 65 -10 45 0 69 4 65 10 -3 6 -33 10 -65 10
-32 0 -62 -4 -65 -10z"/>
<path d="M7735 5420 c11 -5 29 -9 40 -9 17 -1 17 1 5 9 -8 5 -26 9 -40 9 -23
0 -23 -1 -5 -9z"/>
<path d="M8435 5420 c-3 -5 1 -10 9 -10 9 0 16 5 16 10 0 6 -4 10 -9 10 -6 0
-13 -4 -16 -10z"/>
<path d="M6945 5410 l-20 -9 20 0 c11 0 29 4 40 9 l20 9 -20 0 c-11 0 -29 -4
-40 -9z"/>
<path d="M18295 5390 c-3 -5 1 -10 9 -10 8 0 18 5 21 10 3 6 -1 10 -9 10 -8 0
-18 -4 -21 -10z"/>
<path d="M18425 5390 c-27 -5 -2 -7 75 -7 88 0 104 1 70 8 -53 9 -90 9 -145
-1z"/>
<path d="M6958 5383 c7 -3 16 -2 19 1 4 3 -2 6 -13 5 -11 0 -14 -3 -6 -6z"/>
<path d="M18638 5383 c6 -2 18 -2 25 0 6 3 1 5 -13 5 -14 0 -19 -2 -12 -5z"/>
<path d="M18840 5382 c0 -6 42 -13 98 -16 53 -4 134 -9 180 -12 49 -3 82 -2
82 4 0 5 -73 12 -166 16 -91 4 -172 10 -180 13 -8 3 -14 1 -14 -5z"/>
<path d="M6880 5352 c-62 -21 -90 -34 -90 -43 0 -9 197 -1 270 11 52 9 50 9
-22 5 -64 -4 -78 -2 -78 10 0 8 -7 15 -16 15 -8 0 -12 5 -9 10 8 12 2 12 -55
-8z"/>
<path d="M18144 5358 c-5 -7 24 -10 111 -12 14 -1 24 3 23 9 -3 11 -128 14
-134 3z"/>
<path d="M18365 5340 c4 -18 -2 -20 -68 -21 -69 -1 -70 -2 -27 -10 25 -4 65
-8 90 -9 l45 -1 -44 -20 c-32 -16 -46 -18 -51 -9 -5 8 -10 9 -14 2 -9 -15 1
-19 74 -26 98 -10 130 -17 130 -28 0 -6 -16 -8 -40 -4 -22 3 -57 9 -79 12 -44
7 -66 -11 -24 -20 16 -3 71 -11 123 -17 91 -10 127 -19 82 -19 -31 0 -27 -18
6 -26 15 -3 43 -10 62 -15 19 -5 63 -9 98 -9 35 0 61 -4 58 -9 -3 -4 -27 -7
-53 -5 -179 13 -325 26 -368 34 -27 5 -129 14 -225 20 -182 12 -263 26 -225
41 13 5 -5 8 -49 8 -56 1 -66 -1 -57 -12 17 -21 191 -46 481 -68 590 -45 552
-43 530 -29 -10 6 40 10 151 10 92 0 181 3 198 6 30 6 31 9 31 55 0 41 -3 48
-22 52 l-23 4 23 2 c16 1 22 7 22 25 0 22 -6 24 -80 36 -55 8 -145 11 -278 7
-161 -4 -219 -2 -317 14 l-120 18 91 -4 c50 -3 94 -2 98 2 15 15 -62 33 -145
33 -82 0 -88 -1 -84 -20z m305 -64 l65 -14 -90 0 c-49 0 -84 2 -76 5 11 5 11
7 0 14 -21 13 24 11 101 -5z m-135 -56 c3 -5 1 -10 -4 -10 -6 0 -11 5 -11 10
0 6 2 10 4 10 3 0 8 -4 11 -10z m603 3 c-10 -2 -26 -2 -35 0 -10 3 -2 5 17 5
19 0 27 -2 18 -5z m-128 -23 c33 -4 -2 -5 -85 -2 -77 3 -142 6 -144 8 -8 7
173 2 229 -6z"/>
<path d="M17940 5340 c0 -5 -15 -10 -32 -10 -24 0 -29 -3 -18 -10 29 -18 -34
-27 -187 -27 -84 0 -153 3 -153 7 0 11 -52 6 -75 -7 -14 -9 -16 -13 -5 -13 8
0 105 -7 215 -15 110 -8 218 -14 240 -13 l40 1 -40 7 c-22 4 -30 8 -19 9 12 0
24 8 28 16 3 9 18 15 36 15 35 0 36 3 13 30 -18 21 -43 27 -43 10z"/>
<path d="M18865 5341 c-42 -6 -46 -8 -25 -14 14 -4 39 -7 55 -7 30 1 178 -6
256 -11 27 -2 44 1 47 9 2 7 -6 12 -20 12 -64 1 -188 8 -223 13 -22 2 -62 2
-90 -2z"/>
<path d="M7221 5336 c2 -2 63 -6 134 -9 85 -3 109 -2 70 3 -62 8 -211 13 -204
6z"/>
<path d="M17505 5330 c-4 -6 20 -10 65 -10 45 0 69 4 65 10 -3 6 -33 10 -65
10 -32 0 -62 -4 -65 -10z"/>
<path d="M18085 5330 c11 -5 29 -9 40 -9 17 -1 17 1 5 9 -8 5 -26 9 -40 9 -23
0 -23 -1 -5 -9z"/>
<path d="M18785 5330 c-3 -5 1 -10 9 -10 9 0 16 5 16 10 0 6 -4 10 -9 10 -6 0
-13 -4 -16 -10z"/>
<path d="M7830 5326 c0 -2 11 -6 25 -8 14 -3 25 -1 25 3 0 5 -11 9 -25 9 -14
0 -25 -2 -25 -4z"/>
<path d="M17295 5320 l-20 -9 20 0 c11 0 29 4 40 9 l20 9 -20 0 c-11 0 -29 -4
-40 -9z"/>
<path d="M7740 5308 c0 -5 21 -8 47 -8 25 0 43 3 40 6 -9 10 -87 11 -87 2z"/>
<path d="M17308 5293 c7 -3 16 -2 19 1 4 3 -2 6 -13 5 -11 0 -14 -3 -6 -6z"/>
<path d="M7233 5283 c9 -2 23 -2 30 0 6 3 -1 5 -18 5 -16 0 -22 -2 -12 -5z"/>
<path d="M17230 5262 c-62 -21 -90 -34 -90 -43 0 -9 197 -1 270 11 52 9 50 9
-22 5 -64 -4 -78 -2 -78 10 0 8 -7 15 -16 15 -8 0 -12 5 -9 10 8 12 2 12 -55
-8z"/>
<path d="M6205 5264 c49 -13 46 -19 -15 -24 -94 -9 118 -9 325 0 l160 6 -125
3 c-69 2 -134 5 -145 6 -50 6 -218 14 -200 9z"/>
<path d="M8040 5259 c63 -16 130 -26 130 -19 0 9 -104 30 -139 29 -22 -1 -21
-2 9 -10z"/>
<path d="M17571 5246 c2 -2 63 -6 134 -9 85 -3 109 -2 70 3 -62 8 -211 13
-204 6z"/>
<path d="M7523 5233 c9 -2 25 -2 35 0 9 3 1 5 -18 5 -19 0 -27 -2 -17 -5z"/>
<path d="M18180 5236 c0 -2 11 -6 25 -8 14 -3 25 -1 25 3 0 5 -11 9 -25 9 -14
0 -25 -2 -25 -4z"/>
<path d="M7005 5220 c-18 -8 -18 -9 5 -8 14 0 36 4 50 8 24 8 24 8 -5 8 -16 0
-39 -3 -50 -8z"/>
<path d="M18090 5218 c0 -5 21 -8 47 -8 25 0 43 3 40 6 -9 10 -87 11 -87 2z"/>
<path d="M7175 5210 c-18 -8 -17 -9 7 -9 15 -1 30 4 33 9 7 12 -12 12 -40 0z"/>
<path d="M7575 5210 c44 -11 67 -11 60 0 -3 6 -25 9 -48 9 -40 -1 -40 -2 -12
-9z"/>
<path d="M6487 5203 c-54 -2 -95 -7 -93 -12 3 -5 51 -6 107 -4 68 3 99 0 94
-7 -3 -5 1 -10 9 -10 21 0 31 21 15 31 -8 5 -18 8 -24 7 -5 -1 -54 -4 -108 -5z"/>
<path d="M6655 5190 c-4 -6 6 -10 24 -10 16 0 33 5 36 10 4 6 -6 10 -24 10
-16 0 -33 -4 -36 -10z"/>
<path d="M6860 5189 c-11 -7 -4 -8 25 -3 50 8 58 14 19 14 -16 0 -36 -5 -44
-11z"/>
<path d="M7925 5190 c3 -5 30 -10 58 -10 37 0 48 3 37 10 -20 13 -103 13 -95
0z"/>
<path d="M17583 5193 c9 -2 23 -2 30 0 6 3 -1 5 -18 5 -16 0 -22 -2 -12 -5z"/>
<path d="M6738 5173 c7 -3 16 -2 19 1 4 3 -2 6 -13 5 -11 0 -14 -3 -6 -6z"/>
<path d="M8140 5170 c20 -13 53 -13 45 0 -3 6 -18 10 -33 10 -21 0 -24 -2 -12
-10z"/>
<path d="M18390 5169 c63 -16 130 -26 130 -19 0 9 -104 30 -139 29 -22 -1 -21
-2 9 -10z"/>
<path d="M9128 5163 c-50 -5 -48 -20 2 -25 22 -2 40 0 40 5 0 4 6 7 13 6 25
-3 38 1 32 11 -6 10 -16 10 -87 3z"/>
<path d="M6630 5149 c0 -5 5 -7 10 -4 6 3 10 8 10 11 0 2 -4 4 -10 4 -5 0 -10
-5 -10 -11z"/>
<path d="M16413 5153 c9 -2 25 -2 35 0 9 3 1 5 -18 5 -19 0 -27 -2 -17 -5z"/>
<path d="M16585 5150 l-110 -6 115 -1 c63 0 187 3 275 7 l160 6 -165 0 c-91 0
-214 -3 -275 -6z"/>
<path d="M8327 5139 c-78 -7 -112 -17 -66 -21 13 -1 95 -2 181 -2 144 -1 153
0 100 10 -90 18 -131 20 -215 13z"/>
<path d="M17873 5143 c9 -2 25 -2 35 0 9 3 1 5 -18 5 -19 0 -27 -2 -17 -5z"/>
<path d="M17355 5130 c-18 -8 -18 -9 5 -8 14 0 36 4 50 8 24 8 24 8 -5 8 -16
0 -39 -3 -50 -8z"/>
<path d="M6268 5123 c7 -3 16 -2 19 1 4 3 -2 6 -13 5 -11 0 -14 -3 -6 -6z"/>
<path d="M17525 5120 c-18 -8 -17 -9 7 -9 15 -1 30 4 33 9 7 12 -12 12 -40 0z"/>
<path d="M17925 5120 c44 -11 67 -11 60 0 -3 6 -25 9 -48 9 -40 -1 -40 -2 -12
-9z"/>
<path d="M8618 5113 c6 -2 18 -2 25 0 6 3 1 5 -13 5 -14 0 -19 -2 -12 -5z"/>
<path d="M9098 5113 c7 -3 16 -2 19 1 4 3 -2 6 -13 5 -11 0 -14 -3 -6 -6z"/>
<path d="M16837 5113 c-54 -2 -95 -7 -93 -12 3 -5 51 -6 107 -4 68 3 99 0 94
-7 -3 -5 1 -10 9 -10 21 0 31 21 15 31 -8 5 -18 8 -24 7 -5 -1 -54 -4 -108 -5z"/>
<path d="M8738 5103 c23 -2 59 -2 80 0 20 2 1 4 -43 4 -44 0 -61 -2 -37 -4z"/>
<path d="M17005 5100 c-4 -6 6 -10 24 -10 16 0 33 5 36 10 4 6 -6 10 -24 10
-16 0 -33 -4 -36 -10z"/>
<path d="M17210 5099 c-11 -7 -4 -8 25 -3 50 8 58 14 19 14 -16 0 -36 -5 -44
-11z"/>
<path d="M18275 5100 c3 -5 30 -10 58 -10 37 0 48 3 37 10 -20 13 -103 13 -95
0z"/>
<path d="M188 5093 c7 -3 16 -2 19 1 4 3 -2 6 -13 5 -11 0 -14 -3 -6 -6z"/>
<path d="M16658 5093 c7 -3 16 -2 19 1 4 3 -2 6 -13 5 -11 0 -14 -3 -6 -6z"/>
<path d="M105 5080 l-40 -7 37 -2 c20 0 40 4 43 9 3 6 5 9 3 9 -2 -1 -21 -5
-43 -9z"/>
<path d="M17088 5083 c7 -3 16 -2 19 1 4 3 -2 6 -13 5 -11 0 -14 -3 -6 -6z"/>
<path d="M18490 5080 c20 -13 53 -13 45 0 -3 6 -18 10 -33 10 -21 0 -24 -2
-12 -10z"/>
<path d="M16215 5060 c-7 -12 2 -12 30 0 19 8 19 9 -2 9 -12 1 -25 -3 -28 -9z"/>
<path d="M16980 5059 c0 -5 5 -7 10 -4 6 3 10 8 10 11 0 2 -4 4 -10 4 -5 0
-10 -5 -10 -11z"/>
<path d="M18677 5049 c-80 -7 -114 -18 -61 -20 16 -1 98 -2 182 -3 138 -1 147
0 95 10 -91 18 -132 20 -216 13z"/>
<path d="M18968 5023 c6 -2 18 -2 25 0 6 3 1 5 -13 5 -14 0 -19 -2 -12 -5z"/>
<path d="M19088 5013 c23 -2 59 -2 80 0 20 2 1 4 -43 4 -44 0 -61 -2 -37 -4z"/>
<path d="M13798 4953 c6 -2 18 -2 25 0 6 3 1 5 -13 5 -14 0 -19 -2 -12 -5z"/>
<path d="M10 4940 c-8 -5 -12 -12 -9 -15 4 -3 12 1 19 10 14 17 11 19 -10 5z"/>
<path d="M12223 4943 c9 -2 25 -2 35 0 9 3 1 5 -18 5 -19 0 -27 -2 -17 -5z"/>
<path d="M2128 4933 c12 -2 30 -2 40 0 9 3 -1 5 -23 4 -22 0 -30 -2 -17 -4z"/>
<path d="M14428 4933 c7 -3 16 -2 19 1 4 3 -2 6 -13 5 -11 0 -14 -3 -6 -6z"/>
<path d="M2308 4913 c18 -2 45 -2 60 0 15 2 0 4 -33 4 -33 0 -45 -2 -27 -4z"/>
<path d="M14620 4912 c0 -12 46 -35 60 -30 6 2 -5 11 -24 21 -20 9 -36 13 -36
9z"/>
<path d="M14408 4903 c7 -3 16 -2 19 1 4 3 -2 6 -13 5 -11 0 -14 -3 -6 -6z"/>
<path d="M1602 4891 c-7 -4 -48 -6 -90 -3 -87 5 -96 -3 -12 -11 31 -3 95 -13
143 -22 48 -9 98 -14 110 -12 15 3 12 5 -11 6 -19 0 -31 5 -27 11 3 6 -2 11
-12 11 -10 1 -2 5 17 9 32 7 33 7 7 9 -16 0 -37 -4 -48 -10 -11 -5 -32 -9 -47
-7 -26 4 -26 4 8 15 l35 11 -30 1 c-16 0 -36 -3 -43 -8z"/>
<path d="M13990 4885 l-55 -13 60 0 c58 -1 171 14 129 17 -12 0 -34 3 -50 5
-16 3 -54 -1 -84 -9z"/>
<path d="M700 4880 c8 -5 22 -9 30 -9 10 0 8 3 -5 9 -27 12 -43 12 -25 0z"/>
<path d="M2118 4883 c6 -2 18 -2 25 0 6 3 1 5 -13 5 -14 0 -19 -2 -12 -5z"/>
<path d="M7020 4871 c0 -10 88 -36 96 -28 3 3 -4 8 -15 12 -12 3 -21 11 -21
16 0 5 -13 9 -30 9 -16 0 -30 -4 -30 -9z"/>
<path d="M728 4853 c7 -3 16 -2 19 1 4 3 -2 6 -13 5 -11 0 -14 -3 -6 -6z"/>
<path d="M13650 4850 c-14 -4 20 -5 75 -3 55 3 102 7 104 9 8 7 -154 2 -179
-6z"/>
<path d="M1803 4838 c15 -10 68 -10 84 0 6 4 -13 7 -43 8 -30 0 -48 -3 -41 -8z"/>
<path d="M13452 4840 c-29 -4 -56 -11 -59 -14 -8 -8 140 4 187 14 31 7 29 8
-20 8 -30 0 -79 -4 -108 -8z"/>
<path d="M5978 4833 c18 -2 45 -2 60 0 15 2 0 4 -33 4 -33 0 -45 -2 -27 -4z"/>
<path d="M13010 4829 c-25 -4 -81 -12 -125 -17 l-80 -9 80 -1 c75 -1 165 14
181 31 8 8 6 8 -56 -4z"/>
<path d="M8855 4820 c-4 -6 -5 -11 -3 -12 10 -5 345 -22 342 -17 -3 5 -72 13
-244 25 -36 3 -70 7 -77 9 -7 2 -15 0 -18 -5z"/>
<path d="M5010 4790 c0 -10 -17 -11 -70 -7 -49 4 -68 3 -64 -5 5 -7 41 -9 113
-4 72 4 101 3 91 -4 -11 -7 1 -10 43 -10 36 0 56 4 52 10 -3 6 1 10 10 10 9 0
13 -4 10 -10 -4 -6 5 -10 19 -10 14 0 26 4 26 9 0 12 -35 19 -142 27 -68 5
-88 3 -88 -6z"/>
<path d="M12427 4789 c-22 -13 -22 -26 1 -32 9 -2 1 -3 -18 -1 -19 2 -29 1
-22 -2 6 -3 10 -10 6 -15 -3 -5 2 -12 10 -15 9 -3 14 -10 11 -14 -3 -5 7 -11
22 -14 29 -7 296 0 386 9 28 3 45 2 37 -2 -8 -3 -20 -12 -27 -19 -13 -13 -8
-14 152 -35 100 -12 141 -12 232 2 40 5 77 8 81 5 14 -8 314 14 344 26 15 6
25 14 22 19 -3 5 1 10 8 10 7 1 -5 6 -27 11 -46 12 -698 17 -790 6 -34 -4 -64
-3 -69 3 -6 6 -3 9 9 9 10 0 16 2 13 5 -5 6 -20 8 -133 24 -33 5 -67 11 -75
14 -30 11 -156 15 -173 6z"/>
<path d="M5965 4779 c-16 -4 25 -7 92 -8 67 0 124 2 126 7 6 9 -176 10 -218 1z"/>
<path d="M13280 4779 c-10 -7 11 -8 70 -3 47 4 87 8 89 10 10 9 -146 3 -159
-7z"/>
<path d="M13788 4782 c-21 -2 -38 -8 -38 -13 0 -11 152 -1 185 12 19 7 -61 8
-147 1z"/>
<path d="M17370 4781 c0 -10 88 -36 96 -28 3 3 -4 8 -15 12 -12 3 -21 11 -21
16 0 5 -13 9 -30 9 -16 0 -30 -4 -30 -9z"/>
<path d="M5269 4770 c-19 -12 -6 -22 25 -18 25 3 25 4 8 15 -11 6 -24 8 -33 3z"/>
<path d="M7195 4770 c-3 -5 1 -10 9 -10 9 0 16 5 16 10 0 6 -4 10 -9 10 -6 0
-13 -4 -16 -10z"/>
<path d="M9350 4776 c0 -2 7 -6 15 -10 8 -3 15 -1 15 4 0 6 -7 10 -15 10 -8 0
-15 -2 -15 -4z"/>
<path d="M9448 4773 c7 -3 16 -2 19 1 4 3 -2 6 -13 5 -11 0 -14 -3 -6 -6z"/>
<path d="M11268 4773 c7 -3 16 -2 19 1 4 3 -2 6 -13 5 -11 0 -14 -3 -6 -6z"/>
<path d="M12993 4773 c9 -2 25 -2 35 0 9 3 1 5 -18 5 -19 0 -27 -2 -17 -5z"/>
<path d="M8988 4763 c12 -2 30 -2 40 0 9 3 -1 5 -23 4 -22 0 -30 -2 -17 -4z"/>
<path d="M7095 4750 c-8 -13 5 -13 25 0 13 8 13 10 -2 10 -9 0 -20 -4 -23 -10z"/>
<path d="M11095 4750 c-16 -7 -11 -9 20 -9 29 -1 36 2 25 9 -17 11 -19 11 -45
0z"/>
<path d="M8788 4743 c7 -3 16 -2 19 1 4 3 -2 6 -13 5 -11 0 -14 -3 -6 -6z"/>
<path d="M9523 4743 c-24 -2 -43 -8 -43 -14 0 -5 -10 -9 -22 -9 -46 0 -6 -13
49 -15 32 -2 94 -9 138 -15 134 -20 364 -15 387 8 7 7 31 12 54 12 52 0 104
10 104 20 0 4 -13 6 -30 4 -16 -2 -30 1 -30 6 0 13 -54 13 -100 1 -48 -13
-318 -22 -325 -11 -3 5 3 11 12 13 21 6 -133 5 -194 0z"/>
<path d="M10659 4746 c-3 -3 -24 -6 -47 -7 -24 -2 -46 -7 -49 -12 -6 -10 389
-3 456 7 75 12 35 16 -156 16 -110 0 -202 -2 -204 -4z"/>
<path d="M9288 4733 c6 -2 18 -2 25 0 6 3 1 5 -13 5 -14 0 -19 -2 -12 -5z"/>
<path d="M4033 4713 c9 -2 25 -2 35 0 9 3 1 5 -18 5 -19 0 -27 -2 -17 -5z"/>
<path d="M5698 4713 c6 -2 18 -2 25 0 6 3 1 5 -13 5 -14 0 -19 -2 -12 -5z"/>
<path d="M5940 4711 c0 -5 27 -21 85 -50 6 -3 4 2 -2 11 -7 8 -11 17 -8 19 2
3 -13 10 -35 16 -22 5 -40 7 -40 4z"/>
<path d="M6590 4710 c20 -13 53 -13 45 0 -3 6 -18 10 -33 10 -21 0 -24 -2 -12
-10z"/>
<path d="M4135 4699 c51 -10 92 -10 50 1 -16 4 -43 8 -60 8 -25 0 -24 -2 10
-9z"/>
<path d="M5798 4703 c7 -3 16 -2 19 1 4 3 -2 6 -13 5 -11 0 -14 -3 -6 -6z"/>
<path d="M5898 4703 c6 -2 18 -2 25 0 6 3 1 5 -13 5 -14 0 -19 -2 -12 -5z"/>
<path d="M6372 4703 c14 -2 32 -11 38 -19 14 -16 35 -20 25 -4 -4 6 7 10 27 9
53 -2 93 -14 91 -27 -3 -14 9 -16 23 -3 5 5 18 11 29 14 12 3 6 5 -15 6 -20 0
-41 6 -47 12 -5 5 -52 12 -104 14 -52 2 -82 1 -67 -2z"/>
<path d="M6795 4700 l-30 -7 27 -7 c14 -4 34 -6 44 -4 14 2 15 5 3 14 -8 6
-27 7 -44 4z"/>
<path d="M15360 4699 c0 -9 -18 -10 -70 -6 -43 4 -68 2 -65 -4 4 -5 34 -9 69
-9 34 0 66 -3 70 -7 3 -4 74 -7 156 -8 82 0 144 3 137 7 -7 4 -25 8 -40 8 -16
0 -36 4 -45 9 -9 5 -61 12 -114 16 -75 5 -98 4 -98 -6z m77 -15 c-3 -3 -12 -4
-19 -1 -8 3 -5 6 6 6 11 1 17 -2 13 -5z"/>
<path d="M5748 4693 c7 -3 16 -2 19 1 4 3 -2 6 -13 5 -11 0 -14 -3 -6 -6z"/>
<path d="M9243 4693 c15 -2 39 -2 55 0 15 2 2 4 -28 4 -30 0 -43 -2 -27 -4z"/>
<path d="M16315 4689 c-16 -4 25 -7 92 -8 67 0 124 2 126 7 6 9 -176 10 -218
1z"/>
<path d="M5836 4670 l-30 -19 30 3 c17 2 30 10 32 20 4 19 5 19 -32 -4z"/>
<path d="M6690 4681 c-25 -7 -25 -7 -3 -13 12 -3 30 0 40 8 21 15 6 17 -37 5z"/>
<path d="M17545 4680 c-3 -5 1 -10 9 -10 9 0 16 5 16 10 0 6 -4 10 -9 10 -6 0
-13 -4 -16 -10z"/>
<path d="M3988 4673 c6 -2 18 -2 25 0 6 3 1 5 -13 5 -14 0 -19 -2 -12 -5z"/>
<path d="M4063 4673 c9 -2 23 -2 30 0 6 3 -1 5 -18 5 -16 0 -22 -2 -12 -5z"/>
<path d="M11953 4673 c32 -2 81 -2 110 0 29 2 3 3 -58 3 -60 0 -84 -1 -52 -3z"/>
<path d="M13775 4670 c-27 -7 -26 -8 15 -9 25 0 52 4 60 9 11 7 8 9 -15 9 -16
-1 -43 -5 -60 -9z"/>
<path d="M5380 4659 c0 -5 9 -9 20 -9 11 0 20 2 20 4 0 2 -9 6 -20 9 -11 3
-20 1 -20 -4z"/>
<path d="M6493 4663 c-24 -9 -13 -23 17 -23 17 0 30 5 30 11 0 5 -5 7 -11 3
-6 -3 -14 -2 -18 3 -3 6 -12 8 -18 6z"/>
<path d="M11310 4647 c-68 -17 -187 -23 -520 -28 -28 0 -229 -33 -226 -37 4
-4 263 -9 586 -12 118 -1 242 -6 275 -10 107 -15 327 -20 435 -10 58 5 193 14
300 20 264 15 320 20 320 31 0 5 -46 9 -102 9 -57 0 -161 7 -233 15 -91 10
-150 12 -195 5 -107 -14 -262 -20 -305 -11 -27 6 -32 9 -15 10 49 2 3 21 -75
31 -103 13 -153 11 -245 -13z m267 -3 c-3 -3 -12 -4 -19 -1 -8 3 -5 6 6 6 11
1 17 -2 13 -5z m96 -61 c-7 -2 -19 -2 -25 0 -7 3 -2 5 12 5 14 0 19 -2 13 -5z"/>
<path d="M17445 4660 c-8 -13 5 -13 25 0 13 8 13 10 -2 10 -9 0 -20 -4 -23
-10z"/>
<path d="M4468 4653 c7 -3 16 -2 19 1 4 3 -2 6 -13 5 -11 0 -14 -3 -6 -6z"/>
<path d="M12583 4653 c9 -2 23 -2 30 0 6 3 -1 5 -18 5 -16 0 -22 -2 -12 -5z"/>
<path d="M19138 4653 c7 -3 16 -2 19 1 4 3 -2 6 -13 5 -11 0 -14 -3 -6 -6z"/>
<path d="M2128 4643 c7 -3 16 -2 19 1 4 3 -2 6 -13 5 -11 0 -14 -3 -6 -6z"/>
<path d="M5448 4643 c6 -2 18 -2 25 0 6 3 1 5 -13 5 -14 0 -19 -2 -12 -5z"/>
<path d="M6108 4643 c7 -3 16 -2 19 1 4 3 -2 6 -13 5 -11 0 -14 -3 -6 -6z"/>
<path d="M6274 4629 c-10 -16 8 -27 35 -20 l24 6 -26 12 c-18 9 -28 9 -33 2z"/>
<path d="M6765 4630 c-30 -8 -30 -8 8 -9 23 -1 36 3 32 9 -3 6 -7 9 -8 9 -1
-1 -15 -5 -32 -9z"/>
<path d="M3028 4623 c12 -2 30 -2 40 0 9 3 -1 5 -23 4 -22 0 -30 -2 -17 -4z"/>
<path d="M5555 4620 c3 -5 21 -10 38 -9 31 1 31 1 7 9 -36 11 -52 11 -45 0z"/>
<path d="M6625 4620 c3 -5 8 -10 11 -10 2 0 4 5 4 10 0 6 -5 10 -11 10 -5 0
-7 -4 -4 -10z"/>
<path d="M9513 4623 c9 -2 25 -2 35 0 9 3 1 5 -18 5 -19 0 -27 -2 -17 -5z"/>
<path d="M16048 4623 c6 -2 18 -2 25 0 6 3 1 5 -13 5 -14 0 -19 -2 -12 -5z"/>
<path d="M16290 4621 c0 -5 27 -21 85 -50 6 -3 4 2 -2 11 -7 8 -11 17 -8 19 2
3 -13 10 -35 16 -22 5 -40 7 -40 4z"/>
<path d="M16940 4620 c20 -13 53 -13 45 0 -3 6 -18 10 -33 10 -21 0 -24 -2
-12 -10z"/>
<path d="M7308 4613 c7 -3 16 -2 19 1 4 3 -2 6 -13 5 -11 0 -14 -3 -6 -6z"/>
<path d="M16148 4613 c7 -3 16 -2 19 1 4 3 -2 6 -13 5 -11 0 -14 -3 -6 -6z"/>
<path d="M16248 4613 c6 -2 18 -2 25 0 6 3 1 5 -13 5 -14 0 -19 -2 -12 -5z"/>
<path d="M16722 4613 c14 -2 32 -11 38 -19 14 -16 35 -20 25 -4 -4 6 7 10 27
9 53 -2 93 -14 91 -27 -3 -14 9 -16 23 -3 5 5 18 11 29 14 12 3 6 5 -15 6 -20
0 -41 6 -47 12 -5 5 -52 12 -104 14 -52 2 -82 1 -67 -2z"/>
<path d="M17145 4610 l-30 -7 27 -7 c14 -4 34 -6 44 -4 14 2 15 5 3 14 -8 6
-27 7 -44 4z"/>
<path d="M16098 4603 c7 -3 16 -2 19 1 4 3 -2 6 -13 5 -11 0 -14 -3 -6 -6z"/>
<path d="M5778 4593 c7 -3 16 -2 19 1 4 3 -2 6 -13 5 -11 0 -14 -3 -6 -6z"/>
<path d="M16186 4580 l-30 -19 30 3 c17 2 30 10 32 20 4 19 5 19 -32 -4z"/>
<path d="M17040 4591 c-25 -7 -25 -7 -3 -13 12 -3 30 0 40 8 21 15 6 17 -37 5z"/>
<path d="M15730 4569 c0 -5 9 -9 20 -9 11 0 20 2 20 4 0 2 -9 6 -20 9 -11 3
-20 1 -20 -4z"/>
<path d="M16843 4573 c-24 -9 -13 -23 17 -23 17 0 30 5 30 11 0 5 -5 7 -11 3
-6 -3 -14 -2 -18 3 -3 6 -12 8 -18 6z"/>
<path d="M7465 4550 c3 -5 8 -10 11 -10 2 0 4 5 4 10 0 6 -5 10 -11 10 -5 0
-7 -4 -4 -10z"/>
<path d="M15798 4553 c6 -2 18 -2 25 0 6 3 1 5 -13 5 -14 0 -19 -2 -12 -5z"/>
<path d="M16458 4553 c7 -3 16 -2 19 1 4 3 -2 6 -13 5 -11 0 -14 -3 -6 -6z"/>
<path d="M6365 4540 c3 -5 8 -10 11 -10 2 0 4 5 4 10 0 6 -5 10 -11 10 -5 0
-7 -4 -4 -10z"/>
<path d="M9380 4540 c0 -6 7 -10 15 -10 8 0 15 2 15 4 0 2 -7 6 -15 10 -8 3
-15 1 -15 -4z"/>
<path d="M16624 4539 c-10 -16 8 -27 35 -20 l24 6 -26 12 c-18 9 -28 9 -33 2z"/>
<path d="M17115 4540 c-30 -8 -30 -8 8 -9 23 -1 36 3 32 9 -3 6 -7 9 -8 9 -1
-1 -15 -5 -32 -9z"/>
<path d="M15905 4530 c3 -5 21 -10 38 -9 31 1 31 1 7 9 -36 11 -52 11 -45 0z"/>
<path d="M16975 4530 c3 -5 8 -10 11 -10 2 0 4 5 4 10 0 6 -5 10 -11 10 -5 0
-7 -4 -4 -10z"/>
<path d="M9558 4523 c7 -3 16 -2 19 1 4 3 -2 6 -13 5 -11 0 -14 -3 -6 -6z"/>
<path d="M17658 4523 c7 -3 16 -2 19 1 4 3 -2 6 -13 5 -11 0 -14 -3 -6 -6z"/>
<path d="M13735 4508 c-66 -4 -133 -11 -150 -16 -27 -8 113 -8 390 -1 l70 1
-50 8 c-90 14 -138 16 -260 8z"/>
<path d="M16128 4503 c7 -3 16 -2 19 1 4 3 -2 6 -13 5 -11 0 -14 -3 -6 -6z"/>
<path d="M13223 4493 c31 -2 83 -2 115 0 31 2 5 3 -58 3 -63 0 -89 -1 -57 -3z"/>
<path d="M11333 4473 c31 -2 83 -2 115 0 31 2 5 3 -58 3 -63 0 -89 -1 -57 -3z"/>
<path d="M12588 4473 c6 -2 18 -2 25 0 6 3 1 5 -13 5 -14 0 -19 -2 -12 -5z"/>
<path d="M11083 4463 c9 -2 23 -2 30 0 6 3 -1 5 -18 5 -16 0 -22 -2 -12 -5z"/>
<path d="M11238 4463 c6 -2 18 -2 25 0 6 3 1 5 -13 5 -14 0 -19 -2 -12 -5z"/>
<path d="M12548 4463 c7 -3 16 -2 19 1 4 3 -2 6 -13 5 -11 0 -14 -3 -6 -6z"/>
<path d="M17815 4460 c3 -5 8 -10 11 -10 2 0 4 5 4 10 0 6 -5 10 -11 10 -5 0
-7 -4 -4 -10z"/>
<path d="M11754 4451 c-2 -3 -170 -6 -372 -8 -397 -3 -810 -18 -594 -21 67 -1
112 -6 112 -12 0 -5 8 -10 18 -10 14 0 15 -2 2 -10 -8 -5 -35 -10 -59 -10 -87
0 -28 -14 107 -26 85 -7 184 -8 262 -3 69 4 168 10 220 13 52 3 136 10 185 16
50 6 203 18 340 26 138 8 275 19 305 23 30 5 79 12 108 16 106 15 39 16 -129
1 -174 -15 -351 -25 -346 -19 2 1 21 10 43 18 38 14 35 15 -79 12 -65 -1 -121
-4 -123 -6z m-786 -38 c-10 -2 -28 -2 -40 0 -13 2 -5 4 17 4 22 1 32 -1 23 -4z
m9 -19 c-3 -3 -12 -4 -19 -1 -8 3 -5 6 6 6 11 1 17 -2 13 -5z"/>
<path d="M16715 4450 c3 -5 8 -10 11 -10 2 0 4 5 4 10 0 6 -5 10 -11 10 -5 0
-7 -4 -4 -10z"/>
<path d="M10315 4430 c-60 -8 -50 -12 25 -10 30 1 59 6 65 11 10 10 -11 10
-90 -1z"/>
<path d="M10783 4403 c15 -2 39 -2 55 0 15 2 2 4 -28 4 -30 0 -43 -2 -27 -4z"/>
<path d="M9693 4393 c7 -7 128 -5 136 2 2 3 -29 5 -69 5 -40 0 -70 -3 -67 -7z"/>
<path d="M12388 4393 c7 -3 16 -2 19 1 4 3 -2 6 -13 5 -11 0 -14 -3 -6 -6z"/>
<path d="M10733 4373 c9 -2 23 -2 30 0 6 3 -1 5 -18 5 -16 0 -22 -2 -12 -5z"/>
</g>
</svg>
