<?xml version="1.0" standalone="no"?>
<!DOCTYPE svg PUBLIC "-//W3C//DTD SVG 20010904//EN"
 "http://www.w3.org/TR/2001/REC-SVG-20010904/DTD/svg10.dtd">
<svg version="1.0" xmlns="http://www.w3.org/2000/svg"
 width="1536.000000pt" height="1024.000000pt" viewBox="0 0 1536.000000 1024.000000"
 preserveAspectRatio="xMidYMid meet">

<g transform="translate(0.000000,1024.000000) scale(0.100000,-0.100000)"
fill="#000000" stroke="none">
<path d="M14901 9763 c-19 -18 -21 -23 -8 -23 9 0 21 9 27 21 16 29 9 29 -19
2z"/>
<path d="M14873 9675 c0 -8 4 -12 9 -9 4 3 8 9 8 15 0 5 -4 9 -8 9 -5 0 -9 -7
-9 -15z"/>
<path d="M14847 9631 c-4 -17 -3 -21 5 -13 5 5 8 16 6 23 -3 8 -7 3 -11 -10z"/>
<path d="M14730 9461 c0 -5 5 -13 10 -16 6 -3 10 -2 10 4 0 5 -4 13 -10 16 -5
3 -10 2 -10 -4z"/>
<path d="M6245 9369 c-4 -6 -5 -13 -2 -16 7 -7 27 6 27 18 0 12 -17 12 -25 -2z"/>
<path d="M5824 9331 c-23 -21 -56 -42 -73 -46 -22 -5 -30 -10 -23 -17 15 -15
42 -2 90 42 44 40 66 49 77 30 3 -5 21 -10 38 -10 27 1 29 2 14 11 -9 5 -21 8
-26 5 -4 -3 -17 1 -27 9 -26 20 -25 20 -70 -24z"/>
<path d="M6183 9363 c9 -2 23 -2 30 0 6 3 -1 5 -18 5 -16 0 -22 -2 -12 -5z"/>
<path d="M6065 9350 c-28 -7 -27 -8 13 -9 23 0 42 4 42 9 0 11 -11 11 -55 0z"/>
<path d="M6294 9339 c-4 -7 0 -9 13 -5 13 4 32 -3 58 -24 21 -16 40 -30 43
-30 11 0 -35 43 -60 56 -33 17 -45 18 -54 3z"/>
<path d="M5985 9330 c-18 -8 -17 -9 8 -9 16 -1 26 3 22 9 -3 6 -7 10 -8 9 -1
0 -11 -4 -22 -9z"/>
<path d="M12930 9330 c8 -5 24 -10 35 -10 17 0 17 2 5 10 -8 5 -24 10 -35 10
-17 0 -17 -2 -5 -10z"/>
<path d="M13000 9332 c0 -12 109 -41 115 -32 4 6 -40 20 -77 24 -3 1 -10 4
-14 9 -10 10 -24 9 -24 -1z"/>
<path d="M12825 9315 c-16 -7 -45 -19 -62 -25 -18 -7 -33 -16 -33 -21 0 -11
15 -11 38 0 9 4 38 18 63 31 25 13 51 20 57 16 6 -3 13 -2 17 4 9 14 -44 11
-80 -5z"/>
<path d="M13140 9315 c-12 -14 -12 -16 1 -15 26 4 40 0 34 -10 -3 -5 -13 -7
-23 -4 -9 3 3 -6 27 -20 23 -14 46 -26 49 -26 3 0 14 -7 24 -17 10 -9 21 -14
24 -11 3 4 -7 14 -21 25 -15 10 -44 35 -64 56 -34 35 -38 37 -51 22z"/>
<path d="M6494 9285 c4 -12 0 -14 -18 -9 -13 3 -27 1 -31 -6 -5 -8 4 -10 31
-8 40 3 56 21 28 32 -12 4 -15 2 -10 -9z"/>
<path d="M6545 9271 c-15 -7 -11 -9 18 -9 21 0 43 -4 50 -8 7 -5 4 -1 -6 9
-21 19 -31 20 -62 8z"/>
<path d="M6848 9273 c7 -3 16 -2 19 1 4 3 -2 6 -13 5 -11 0 -14 -3 -6 -6z"/>
<path d="M14718 9273 c7 -3 16 -2 19 1 4 3 -2 6 -13 5 -11 0 -14 -3 -6 -6z"/>
<path d="M6750 9254 c-26 -11 -40 -13 -52 -5 -26 16 -32 13 -13 -6 14 -13 24
-14 59 -6 23 5 68 7 99 3 32 -3 63 -3 70 2 7 4 -8 8 -34 8 -25 0 -49 3 -53 7
-13 13 -41 12 -76 -3z"/>
<path d="M5600 9253 c-19 -2 -44 -8 -55 -12 -31 -14 -77 -29 -109 -36 -16 -3
-43 -17 -59 -31 -16 -13 -36 -24 -45 -25 -11 0 -12 -2 -4 -6 7 -2 33 7 58 22
24 14 70 33 101 41 31 8 63 20 70 26 7 5 23 8 35 4 13 -3 41 -3 63 1 32 5 35
8 20 14 -11 4 -24 7 -30 7 -5 -1 -26 -3 -45 -5z"/>
<path d="M1863 9237 c-40 -6 -73 -13 -73 -16 0 -8 61 -5 83 4 10 4 40 5 67 3
51 -5 68 5 28 16 -13 3 -25 5 -28 4 -3 -1 -38 -6 -77 -11z"/>
<path d="M6938 9243 c6 -2 18 -2 25 0 6 3 1 5 -13 5 -14 0 -19 -2 -12 -5z"/>
<path d="M12675 9242 c-16 -2 -34 -7 -40 -12 -5 -4 -28 -13 -50 -20 -22 -7
-49 -17 -60 -23 -11 -6 -33 -10 -48 -8 -15 1 -33 -2 -40 -7 -10 -8 -127 -8
-182 0 -5 0 -34 -4 -63 -10 -29 -7 -56 -11 -60 -11 -4 1 -9 0 -12 -1 -3 -2
-23 -4 -45 -5 -41 -2 -79 -17 -153 -61 -37 -23 -56 -26 -165 -30 -88 -4 -124
-9 -130 -19 -9 -17 -41 -24 -147 -30 -150 -9 -169 -15 -252 -73 -31 -22 -49
-43 -53 -62 -4 -17 -18 -39 -32 -50 -14 -11 -24 -23 -21 -25 8 -8 68 63 68 80
0 20 84 75 114 75 14 0 26 4 26 8 0 16 69 32 141 32 78 0 148 13 158 28 11 16
44 23 52 10 6 -10 15 -10 36 -2 15 6 57 12 93 13 46 2 79 10 115 28 28 14 66
34 85 43 19 10 64 21 100 25 36 3 80 11 98 16 22 7 48 7 80 0 32 -7 70 -7 113
0 35 5 78 11 94 14 17 2 59 16 94 30 36 14 72 25 80 25 18 0 48 17 41 22 -3 2
-18 2 -35 0z"/>
<path d="M1728 9233 c12 -2 30 -2 40 0 9 3 -1 5 -23 4 -22 0 -30 -2 -17 -4z"/>
<path d="M8060 9229 c0 -5 5 -7 10 -4 6 3 10 8 10 11 0 2 -4 4 -10 4 -5 0 -10
-5 -10 -11z"/>
<path d="M8420 9225 c-47 -7 -98 -10 -115 -8 l-30 5 29 -16 c33 -18 66 -21 66
-5 0 6 8 8 19 4 10 -3 31 -1 46 5 14 5 31 8 36 4 5 -3 36 -7 69 -9 33 -1 66
-7 73 -13 6 -5 32 -12 57 -16 25 -3 61 -8 80 -11 l35 -6 -40 16 c-22 9 -56 18
-75 21 -19 2 -58 11 -87 19 -29 9 -58 17 -65 19 -7 2 -51 -2 -98 -9z"/>
<path d="M6980 9225 c0 -2 10 -10 23 -16 20 -11 21 -11 8 4 -13 16 -31 23 -31
12z"/>
<path d="M9058 9219 c-4 -11 -102 -45 -157 -54 -22 -3 -54 -25 -37 -25 4 0 53
14 108 31 114 36 164 35 206 -3 l27 -23 -25 29 c-35 39 -114 69 -122 45z"/>
<path d="M1708 9213 c-10 -2 -18 -11 -18 -20 0 -12 3 -13 13 -5 7 6 24 16 38
21 20 8 21 10 4 9 -11 0 -28 -2 -37 -5z"/>
<path d="M2010 9209 c0 -5 9 -9 20 -9 11 0 20 2 20 4 0 2 -9 6 -20 9 -11 3
-20 1 -20 -4z"/>
<path d="M7085 9175 c85 -78 111 -87 202 -73 32 5 78 11 103 12 87 5 94 9 30
16 -38 4 -75 3 -90 -2 -14 -6 -50 -12 -80 -14 -58 -4 -52 -7 -170 72 -19 13
-18 11 5 -11z"/>
<path d="M8036 9193 c-2 -2 -23 -6 -47 -8 -94 -10 -205 -31 -226 -43 -19 -10
-58 -19 -99 -21 -18 -1 -26 -31 -8 -31 8 0 13 4 10 9 -3 5 21 11 54 15 32 4
60 11 62 16 2 5 26 12 53 15 28 3 61 8 75 11 14 3 61 11 105 18 59 9 73 13 53
17 -15 4 -29 4 -32 2z"/>
<path d="M8100 9188 c0 -5 8 -9 18 -10 9 0 22 -2 29 -2 6 -1 15 -5 19 -9 12
-12 46 -8 38 5 -5 8 2 9 24 5 33 -7 98 11 74 20 -8 3 -19 0 -25 -6 -12 -12
-41 -15 -34 -3 3 4 -28 7 -69 7 -41 0 -74 -3 -74 -7z"/>
<path d="M8910 9190 c-9 -6 -10 -10 -3 -10 6 0 15 5 18 10 8 12 4 12 -15 0z"/>
<path d="M2068 9183 c7 -3 16 -2 19 1 4 3 -2 6 -13 5 -11 0 -14 -3 -6 -6z"/>
<path d="M3736 9178 c5 -8 -9 -10 -54 -5 -35 3 -62 1 -62 -4 0 -5 -20 -9 -45
-9 -45 0 -105 -22 -105 -39 0 -4 -10 -13 -22 -20 -23 -11 -23 -11 2 -5 14 3
30 11 35 18 15 18 67 37 100 37 17 0 48 2 70 4 22 2 52 4 68 4 17 1 27 6 27
16 0 8 -5 15 -11 15 -5 0 -7 -5 -3 -12z"/>
<path d="M13330 9179 c0 -5 5 -7 10 -4 6 4 20 -4 31 -17 l20 -23 -17 28 c-16
27 -44 37 -44 16z"/>
<path d="M1610 9155 c-44 -17 -170 -20 -170 -4 0 12 -168 7 -201 -6 -17 -7
-49 -57 -48 -77 0 -7 4 -3 9 10 5 12 18 25 27 29 10 4 20 9 23 13 10 13 87 27
130 24 25 -1 74 -7 110 -13 53 -9 72 -9 112 5 26 8 50 20 53 25 8 12 -2 10
-45 -6z"/>
<path d="M3768 9163 c7 -3 16 -2 19 1 4 3 -2 6 -13 5 -11 0 -14 -3 -6 -6z"/>
<path d="M3840 9156 c0 -5 23 -6 51 -2 39 5 55 3 68 -8 22 -20 71 -38 71 -26
0 6 -7 10 -16 10 -9 0 -27 9 -42 20 -20 16 -37 20 -79 18 -29 -2 -53 -7 -53
-12z"/>
<path d="M2140 9150 c-14 -4 -18 -9 -10 -9 8 -1 25 -4 38 -7 18 -5 21 -3 16
10 -7 18 -8 18 -44 6z"/>
<path d="M7290 9140 c-9 -6 -10 -10 -3 -10 6 0 15 5 18 10 8 12 4 12 -15 0z"/>
<path d="M8803 9143 c9 -2 23 -2 30 0 6 3 -1 5 -18 5 -16 0 -22 -2 -12 -5z"/>
<path d="M4116 9129 c2 -4 -12 -10 -31 -13 -20 -4 -33 -11 -30 -16 3 -5 19 -5
36 0 61 18 172 21 202 5 35 -18 35 -11 0 12 -20 13 -47 18 -104 18 -42 0 -75
-3 -73 -6z"/>
<path d="M5257 9122 c-15 -2 -25 -8 -22 -13 8 -12 42 -11 50 2 9 14 5 15 -28
11z"/>
<path d="M9255 9100 c10 -11 20 -20 23 -20 3 0 -3 9 -13 20 -10 11 -20 20 -23
20 -3 0 3 -9 13 -20z"/>
<path d="M3310 9084 c-30 -13 -46 -24 -35 -24 12 0 37 9 58 19 20 10 40 15 43
10 3 -5 15 -9 27 -9 13 0 17 4 12 9 -21 19 -52 18 -105 -5z"/>
<path d="M7518 9099 c-9 -6 -5 -9 13 -9 15 0 42 -3 60 -6 19 -4 31 -3 27 1
-12 12 -86 23 -100 14z"/>
<path d="M4955 9088 c-21 -5 -49 -17 -60 -28 -14 -13 -42 -21 -89 -26 -56 -6
-65 -9 -46 -16 36 -13 125 9 162 40 14 12 45 15 143 13 131 -1 179 5 169 21
-3 5 -13 6 -23 2 -24 -10 -170 -14 -194 -5 -12 4 -40 4 -62 -1z"/>
<path d="M3045 9064 c-16 -14 -23 -23 -15 -20 8 3 23 9 32 12 17 6 34 34 20
34 -4 -1 -20 -12 -37 -26z"/>
<path d="M3130 9080 l-35 -7 35 -1 c19 0 55 3 80 7 l45 8 -45 0 c-25 0 -61 -3
-80 -7z"/>
<path d="M4400 9081 c-18 -6 -5 -8 45 -8 47 0 80 -5 100 -16 17 -9 39 -17 50
-16 15 1 12 3 -8 9 -16 5 -34 13 -41 19 -17 14 -115 22 -146 12z"/>
<path d="M13420 9080 c0 -5 5 -10 10 -10 6 0 10 5 10 10 0 6 -4 10 -10 10 -5
0 -10 -4 -10 -10z"/>
<path d="M9350 9068 c-38 -14 -20 -18 53 -11 91 7 155 5 179 -8 11 -6 18 -6
18 0 0 5 -8 13 -17 17 -22 10 -207 12 -233 2z"/>
<path d="M2995 9060 c-3 -5 -1 -10 4 -10 6 0 11 5 11 10 0 6 -2 10 -4 10 -3 0
-8 -4 -11 -10z"/>
<path d="M9615 9050 c3 -5 8 -10 11 -10 2 0 4 5 4 10 0 6 -5 10 -11 10 -5 0
-7 -4 -4 -10z"/>
<path d="M1140 9018 c-12 -22 -12 -22 6 -6 10 10 15 20 12 24 -4 3 -12 -5 -18
-18z"/>
<path d="M2970 9030 c0 -5 -11 -12 -25 -16 -22 -5 -56 -34 -41 -34 11 0 48 21
75 41 18 15 20 19 7 19 -9 0 -16 -4 -16 -10z"/>
<path d="M4650 9032 c-52 -7 -40 -20 15 -17 31 2 59 6 61 8 7 7 -47 13 -76 9z"/>
<path d="M9687 8984 c47 -44 142 -96 209 -115 34 -9 50 -9 85 4 39 14 155 30
201 29 10 0 20 4 24 9 11 18 -180 -6 -239 -30 -16 -6 -40 -8 -55 -4 -55 13
-198 88 -243 126 -14 12 -6 4 18 -19z"/>
<path d="M2335 9000 c21 -24 26 -25 19 -6 -3 8 -13 17 -22 21 -13 5 -13 2 3
-15z"/>
<path d="M13499 9009 c-15 -9 36 -14 99 -10 24 2 51 -8 94 -34 76 -48 85 -41
11 9 -50 34 -65 39 -124 41 -37 1 -73 -1 -80 -6z"/>
<path d="M1084 8971 c-16 -10 -45 -33 -64 -51 -32 -29 -29 -28 30 11 80 53 74
48 69 54 -3 2 -18 -4 -35 -14z"/>
<path d="M2377 8970 c15 -16 92 -30 117 -21 16 6 11 9 -23 15 -23 3 -46 4 -51
1 -5 -3 -20 -1 -32 6 -18 9 -21 9 -11 -1z"/>
<path d="M2504 8970 c15 -5 36 -16 45 -24 10 -9 21 -13 24 -10 13 13 -36 44
-67 43 l-31 -1 29 -8z"/>
<path d="M2615 8971 c-10 -17 15 -23 31 -7 14 15 14 16 -5 16 -11 0 -22 -4
-26 -9z"/>
<path d="M2675 8961 c-3 -6 2 -11 12 -11 11 0 23 -4 29 -9 5 -6 25 -6 49 -1
22 5 60 14 85 19 38 8 34 9 -25 3 -87 -7 -106 -7 -126 2 -10 4 -20 3 -24 -3z"/>
<path d="M1000 8949 c0 -5 5 -7 10 -4 6 3 10 8 10 11 0 2 -4 4 -10 4 -5 0 -10
-5 -10 -11z"/>
<path d="M13790 8940 c0 -6 4 -10 9 -10 5 0 34 -20 65 -46 60 -48 78 -47 23 2
-41 35 -97 67 -97 54z"/>
<path d="M10224 8903 c4 -4 26 -15 49 -23 36 -14 45 -14 55 -3 11 11 6 13 -27
13 -22 0 -43 5 -46 10 -3 6 -13 10 -22 10 -9 0 -13 -3 -9 -7z"/>
<path d="M940 8875 c0 -8 2 -15 4 -15 2 0 6 7 10 15 3 8 1 15 -4 15 -6 0 -10
-7 -10 -15z"/>
<path d="M966 8875 c-3 -8 -1 -15 4 -15 13 0 22 18 11 24 -5 3 -11 -1 -15 -9z"/>
<path d="M10374 8833 c16 -18 32 -31 34 -28 3 3 3 6 1 8 -2 1 -17 13 -34 27
l-30 25 29 -32z"/>
<path d="M10486 8795 c-3 -9 0 -15 10 -15 8 0 12 5 9 11 -7 11 29 -7 55 -28 9
-7 43 -15 75 -17 l60 -5 -64 13 c-35 8 -66 18 -70 22 -8 11 -48 34 -60 34 -5
0 -11 -7 -15 -15z"/>
<path d="M11030 8803 c-19 -3 -39 -9 -45 -14 -13 -13 96 0 110 12 9 9 1 9 -65
2z"/>
<path d="M13954 8801 c7 -11 46 -35 46 -28 0 3 -12 12 -26 22 -15 9 -23 12
-20 6z"/>
<path d="M14005 8790 c3 -5 11 -10 16 -10 6 0 7 5 4 10 -3 6 -11 10 -16 10 -6
0 -7 -4 -4 -10z"/>
<path d="M10448 8783 c7 -3 16 -2 19 1 4 3 -2 6 -13 5 -11 0 -14 -3 -6 -6z"/>
<path d="M10884 8775 c-4 -10 -20 -15 -45 -15 -22 0 -39 -5 -39 -11 0 -11 19
-9 103 7 23 5 26 8 16 20 -15 18 -28 18 -35 -1z"/>
<path d="M10943 8765 c0 -8 4 -15 9 -15 4 0 8 7 8 15 0 8 -4 15 -8 15 -5 0 -9
-7 -9 -15z"/>
<path d="M14083 8768 c-13 -6 -23 -15 -23 -20 0 -12 14 -10 35 6 13 9 27 11
42 5 13 -5 23 -5 23 0 0 21 -43 25 -77 9z"/>
<path d="M14252 8740 c7 -10 14 -18 15 -16 6 6 -9 36 -18 36 -5 0 -4 -9 3 -20z"/>
<path d="M10723 8743 c9 -2 23 -2 30 0 6 3 -1 5 -18 5 -16 0 -22 -2 -12 -5z"/>
<path d="M14210 8720 c19 -13 30 -13 30 0 0 6 -10 10 -22 10 -19 0 -20 -2 -8
-10z"/>
<path d="M905 8514 c-9 -14 -14 -28 -12 -31 3 -3 13 9 22 26 19 38 14 41 -10
5z"/>
<path d="M876 8445 c4 -8 8 -15 10 -15 2 0 4 7 4 15 0 8 -4 15 -10 15 -5 0 -7
-7 -4 -15z"/>
<path d="M350 8330 c0 -5 7 -7 15 -4 8 4 15 8 15 10 0 2 -7 4 -15 4 -8 0 -15
-4 -15 -10z"/>
<path d="M14530 8035 c0 -5 5 -17 10 -25 5 -8 10 -10 10 -5 0 6 -5 17 -10 25
-5 8 -10 11 -10 5z"/>
<path d="M306 7987 c3 -10 9 -15 12 -12 3 3 0 11 -7 18 -10 9 -11 8 -5 -6z"/>
<path d="M15010 7795 c-7 -9 -11 -17 -9 -20 3 -2 10 5 17 15 14 24 10 26 -8 5z"/>
<path d="M14979 7724 c-5 -15 -8 -29 -5 -31 2 -2 8 10 14 26 13 38 5 41 -9 5z"/>
<path d="M14921 7404 c0 -11 3 -14 6 -6 3 7 2 16 -1 19 -3 4 -6 -2 -5 -13z"/>
<path d="M971 7374 c0 -11 3 -14 6 -6 3 7 2 16 -1 19 -3 4 -6 -2 -5 -13z"/>
<path d="M952 7128 c-7 -7 -12 -17 -12 -22 0 -6 -9 -22 -20 -36 -11 -14 -20
-29 -19 -35 0 -14 27 22 50 68 20 39 21 45 1 25z"/>
<path d="M14941 7019 c-16 -53 -8 -61 9 -9 7 22 11 42 8 45 -3 3 -10 -13 -17
-36z"/>
<path d="M855 6990 c-16 -16 -26 -32 -24 -34 3 -3 17 10 32 29 34 43 30 45 -8
5z"/>
<path d="M817 6923 c-4 -3 -7 -11 -7 -17 0 -6 5 -5 12 2 6 6 9 14 7 17 -3 3
-9 2 -12 -2z"/>
<path d="M801 6874 c0 -11 3 -14 6 -6 3 7 2 16 -1 19 -3 4 -6 -2 -5 -13z"/>
<path d="M14925 6709 c-9 -17 -15 -33 -13 -35 3 -2 12 12 21 31 21 43 13 47
-8 4z"/>
<path d="M702 6669 c-12 -23 -22 -46 -22 -52 0 -7 12 10 26 37 14 26 24 50 22
52 -3 2 -14 -15 -26 -37z"/>
<path d="M14871 6573 c-1 -6 -4 -20 -7 -30 -5 -17 -5 -17 6 0 6 10 9 23 6 30
-3 9 -5 9 -5 0z"/>
<path d="M14980 5825 c-7 -9 -11 -18 -8 -20 3 -3 11 1 18 10 7 9 11 18 8 20
-3 3 -11 -1 -18 -10z"/>
<path d="M14918 5773 c7 -3 16 -2 19 1 4 3 -2 6 -13 5 -11 0 -14 -3 -6 -6z"/>
<path d="M941 4954 c0 -11 3 -14 6 -6 3 7 2 16 -1 19 -3 4 -6 -2 -5 -13z"/>
<path d="M15091 4944 c0 -11 3 -14 6 -6 3 7 2 16 -1 19 -3 4 -6 -2 -5 -13z"/>
<path d="M926 4915 c-9 -26 -7 -32 5 -12 6 10 9 21 6 23 -2 3 -7 -2 -11 -11z"/>
<path d="M15046 4815 c-9 -26 -7 -32 5 -12 6 10 9 21 6 23 -2 3 -7 -2 -11 -11z"/>
<path d="M860 4765 c-6 -8 -10 -19 -8 -24 1 -6 8 1 15 14 13 28 11 31 -7 10z"/>
<path d="M15015 4748 l-16 -33 20 25 c20 24 26 40 16 40 -2 0 -12 -15 -20 -32z"/>
<path d="M14991 4694 c0 -11 3 -14 6 -6 3 7 2 16 -1 19 -3 4 -6 -2 -5 -13z"/>
<path d="M15003 3933 c-3 -10 -8 -22 -11 -27 -3 -5 0 -6 5 -3 11 7 25 47 17
47 -3 0 -7 -8 -11 -17z"/>
<path d="M751 3904 c0 -11 3 -14 6 -6 3 7 2 16 -1 19 -3 4 -6 -2 -5 -13z"/>
<path d="M14925 3729 c-4 -6 -5 -12 -2 -15 2 -3 7 2 10 11 7 17 1 20 -8 4z"/>
<path d="M15042 2395 c0 -16 2 -22 5 -12 2 9 2 23 0 30 -3 6 -5 -1 -5 -18z"/>
<path d="M15001 2309 c-7 -12 -10 -23 -8 -26 3 -3 11 5 17 17 15 28 8 35 -9 9z"/>
<path d="M891 1874 c0 -11 3 -14 6 -6 3 7 2 16 -1 19 -3 4 -6 -2 -5 -13z"/>
<path d="M14935 1879 c-4 -6 -5 -12 -2 -15 2 -3 7 2 10 11 7 17 1 20 -8 4z"/>
<path d="M14911 1827 c-13 -21 -12 -21 5 -5 10 10 16 20 13 22 -3 3 -11 -5
-18 -17z"/>
<path d="M280 1540 c0 -5 5 -10 11 -10 5 0 7 5 4 10 -3 6 -8 10 -11 10 -2 0
-4 -4 -4 -10z"/>
<path d="M15015 839 c-4 -6 -5 -12 -2 -15 2 -3 7 2 10 11 7 17 1 20 -8 4z"/>
<path d="M4448 787 c-8 -8 -42 -14 -91 -15 -67 -1 -81 -4 -96 -23 -14 -18 -30
-22 -86 -25 -37 -2 -73 -8 -79 -15 -8 -9 8 -10 68 -6 59 4 83 11 100 26 16 15
40 21 101 25 44 2 85 5 90 5 29 3 216 -9 224 -13 5 -3 45 -1 89 5 74 11 83 10
124 -10 67 -32 79 -25 15 9 -52 27 -60 29 -109 20 -43 -8 -250 -8 -268 0 -3 1
-20 1 -39 0 -27 -1 -33 1 -28 14 8 19 3 20 -15 3z"/>
<path d="M4758 793 c7 -3 16 -2 19 1 4 3 -2 6 -13 5 -11 0 -14 -3 -6 -6z"/>
<path d="M1686 733 c-4 -4 -55 -8 -114 -9 -161 -3 -232 -11 -253 -30 -11 -9
-19 -22 -19 -27 0 -6 9 -2 19 7 20 18 155 41 173 30 5 -3 22 0 39 6 21 9 33
10 42 1 8 -6 16 -9 18 -7 2 2 37 7 78 10 52 5 71 4 66 -4 -5 -7 8 -10 42 -8
26 1 72 -5 102 -15 68 -21 59 -10 -11 15 -29 10 -63 16 -76 13 -13 -3 -32 1
-45 10 -23 16 -49 20 -61 8z"/>
<path d="M3150 707 c-33 -21 -46 -22 -215 -22 -121 0 -165 -3 -135 -8 91 -16
189 -19 256 -7 38 7 83 12 101 11 18 0 34 3 37 8 3 4 -7 6 -22 5 -23 -4 -21
-1 13 16 27 13 33 20 20 20 -11 0 -36 -10 -55 -23z"/>
<path d="M3242 703 c18 -17 83 -43 108 -42 8 0 -7 9 -34 19 -27 11 -54 24 -60
30 -5 5 -15 10 -20 10 -6 0 -3 -7 6 -17z"/>
<path d="M2606 701 c-10 -16 -198 -75 -218 -68 -7 2 -30 -4 -50 -14 -21 -11
-44 -19 -51 -19 -8 0 -25 -9 -38 -21 l-24 -20 25 7 c14 4 48 17 77 29 28 13
54 21 56 18 7 -7 123 27 185 54 29 13 61 23 72 23 11 0 20 5 20 10 0 12 -47
13 -54 1z"/>
<path d="M2675 699 c-4 -5 12 -9 34 -9 23 0 41 3 41 8 0 11 -69 12 -75 1z"/>
<path d="M7985 695 c-38 -7 -87 -20 -108 -29 -40 -17 -92 -12 -80 8 5 8 3 8
-8 0 -8 -6 -41 -15 -74 -19 -90 -10 -148 -26 -170 -46 -33 -30 -162 -89 -194
-89 -16 0 -33 -5 -36 -10 -23 -37 190 44 241 91 12 11 25 19 30 18 5 -1 11 0
14 1 9 4 71 9 166 13 52 3 103 11 120 20 27 13 76 25 131 32 12 2 26 6 32 9 5
4 12 2 16 -4 7 -12 71 -40 89 -40 21 1 -28 30 -50 30 -12 0 -24 7 -28 15 -3 8
-9 15 -13 14 -4 0 -39 -7 -78 -14z"/>
<path d="M4066 692 c-3 -5 -67 -9 -143 -10 -151 -2 -181 -6 -197 -23 -8 -8 1
-9 34 -3 41 7 151 13 255 14 40 0 75 14 63 25 -3 4 -8 2 -12 -3z"/>
<path d="M5000 696 c0 -2 19 -16 43 -30 l42 -28 -34 31 c-30 27 -51 39 -51 27z"/>
<path d="M12391 678 c6 -12 17 -17 25 -14 9 3 24 2 34 -4 10 -5 43 -11 73 -12
31 -1 54 -5 52 -8 -3 -4 64 -5 198 -1 15 1 27 6 27 12 0 9 -26 10 -94 5 -94
-7 -210 5 -253 26 -17 8 -26 8 -38 -2 -13 -11 -15 -10 -10 2 4 9 0 15 -9 15
-12 0 -13 -5 -5 -19z"/>
<path d="M5235 663 c-22 -8 -61 -17 -87 -20 -27 -3 -48 -10 -48 -16 0 -6 15
-7 38 -2 20 3 44 8 52 9 8 2 35 9 60 16 52 14 166 7 214 -14 17 -8 56 -17 86
-21 30 -3 69 -15 87 -26 18 -12 33 -17 33 -12 0 18 -63 45 -118 50 -55 4 -100
19 -113 36 -11 16 -162 16 -204 0z"/>
<path d="M12870 672 c-19 -2 -39 -8 -45 -13 -7 -7 7 -8 40 -4 44 5 129 -6 228
-30 15 -4 27 -3 27 1 0 10 -82 33 -135 39 -16 2 -41 5 -55 7 -14 2 -41 2 -60
0z"/>
<path d="M3420 663 c14 -3 34 -12 44 -21 18 -16 18 -16 5 6 -10 15 -23 22 -44
21 -27 -2 -28 -2 -5 -6z"/>
<path d="M8205 660 c-18 -8 -17 -9 8 -9 16 -1 26 3 22 9 -3 6 -7 10 -8 9 -1 0
-11 -4 -22 -9z"/>
<path d="M12265 660 c-132 -11 -183 -26 -271 -77 -74 -43 -84 -46 -149 -46
-38 0 -88 3 -110 6 l-40 7 40 -14 c22 -8 69 -15 105 -15 68 -1 85 5 207 73 47
26 71 34 100 31 20 -2 49 3 65 11 15 8 53 14 85 14 32 0 65 5 73 10 13 9 13
10 0 8 -8 0 -55 -4 -105 -8z"/>
<path d="M1163 643 c-46 -2 -83 -7 -83 -11 0 -4 34 -8 76 -9 56 -2 79 1 91 12
8 8 11 14 6 13 -4 -1 -45 -4 -90 -5z"/>
<path d="M3658 638 c-53 -14 -47 -24 10 -19 26 2 41 6 34 8 -6 3 -10 9 -6 14
3 5 4 9 2 8 -2 -1 -20 -6 -40 -11z"/>
<path d="M6605 630 c-20 -14 -25 -20 -13 -20 9 0 20 5 23 10 4 6 22 8 43 5 35
-6 36 -5 18 9 -26 21 -35 20 -71 -4z"/>
<path d="M9236 636 c-28 -13 -26 -13 30 -14 33 0 79 -5 104 -12 73 -18 106
-23 97 -14 -8 8 -127 41 -177 49 -14 2 -38 -2 -54 -9z"/>
<path d="M962 624 c-18 -8 -61 -17 -95 -21 -34 -3 -69 -12 -77 -19 -9 -7 -49
-30 -90 -50 -85 -42 -85 -42 -78 -50 6 -5 141 63 183 92 11 8 40 14 66 14 26
0 63 7 82 15 20 8 53 15 74 15 28 0 34 3 23 10 -20 13 -49 11 -88 -6z"/>
<path d="M1964 631 c4 -6 16 -16 28 -22 15 -8 18 -8 14 0 -4 6 -16 16 -28 22
-15 8 -18 8 -14 0z"/>
<path d="M6250 629 c-19 -6 -61 -9 -92 -9 -37 0 -58 -4 -58 -11 0 -6 -7 -8
-16 -5 -23 9 -65 -20 -58 -39 4 -8 1 -15 -7 -15 -7 0 -10 -2 -7 -5 3 -3 29 8
59 25 35 21 61 30 78 27 14 -3 45 1 68 9 52 18 118 20 156 5 21 -8 27 -8 27 3
0 8 -17 16 -46 20 -55 7 -58 7 -104 -5z m-170 -38 c0 -5 -7 -12 -16 -15 -24
-9 -28 -7 -14 9 14 17 30 20 30 6z"/>
<path d="M8205 631 c-3 -6 4 -9 15 -8 11 1 20 5 20 9 0 11 -28 10 -35 -1z"/>
<path d="M8297 617 c23 -7 51 -21 62 -31 18 -16 24 -17 34 -6 9 10 9 11 0 6
-8 -4 -24 4 -38 18 -19 19 -36 26 -63 25 l-37 -1 42 -11z"/>
<path d="M9149 614 c-8 -9 -22 -14 -37 -11 -34 7 -151 -21 -191 -46 -24 -15
-36 -17 -39 -9 -2 7 -8 10 -13 6 -14 -9 -10 -24 6 -24 19 0 172 48 198 61 10
5 22 7 28 3 12 -7 99 17 99 28 0 14 -37 8 -51 -8z"/>
<path d="M3572 609 c-18 -3 -36 -9 -39 -13 -10 -10 51 -7 67 4 21 13 9 18 -28
9z"/>
<path d="M6428 608 c9 -9 130 -13 139 -4 3 3 -16 7 -43 8 -27 0 -61 2 -76 2
-15 1 -24 -2 -20 -6z"/>
<path d="M9969 616 c-2 -2 -59 -7 -126 -10 -67 -4 -142 -13 -166 -20 -43 -13
-122 -8 -172 9 l-20 7 20 -14 c31 -23 132 -30 187 -14 25 8 95 16 155 17 119
2 153 7 153 20 0 9 -23 13 -31 5z"/>
<path d="M13150 616 c0 -2 7 -7 16 -10 8 -3 12 -2 9 4 -6 10 -25 14 -25 6z"/>
<path d="M10070 600 l-65 -5 50 -6 c28 -4 78 -5 112 -3 36 3 64 1 68 -6 9 -14
25 -12 25 3 0 10 -17 14 -56 16 -31 1 -60 3 -63 4 -3 1 -35 0 -71 -3z"/>
<path d="M2035 588 c24 -18 62 -28 130 -35 53 -5 60 2 10 10 -40 7 -117 25
-141 33 -18 6 -18 6 1 -8z"/>
<path d="M8615 579 c-27 -10 -60 -18 -72 -19 -12 0 -25 -5 -29 -11 -4 -7 0 -9
12 -6 11 3 37 8 59 12 21 4 52 13 67 21 26 13 36 12 108 -10 44 -13 80 -20 80
-15 0 5 -12 11 -27 15 -16 3 -49 12 -75 20 -56 17 -59 17 -123 -7z"/>
<path d="M11535 593 c-25 -7 -64 -33 -48 -33 6 0 23 7 39 15 26 13 31 13 69
-9 51 -30 85 -41 85 -27 0 6 -8 11 -17 11 -10 0 -38 11 -62 25 -23 14 -44 24
-45 24 0 -1 -10 -4 -21 -6z"/>
<path d="M14422 588 c-19 -19 -166 -88 -185 -87 -12 1 -48 -2 -80 -6 -44 -6
-65 -4 -90 8 -70 35 -145 50 -200 41 -67 -10 -198 -7 -211 6 -6 6 -17 10 -25
10 -10 0 -7 -6 9 -17 19 -13 49 -18 133 -19 60 -1 123 2 138 8 19 6 34 7 42 1
6 -6 34 -16 60 -23 27 -7 54 -18 61 -25 15 -15 90 -30 82 -17 -4 6 10 8 36 5
34 -4 40 -2 28 7 -12 10 -11 11 8 7 15 -4 48 7 90 28 37 18 79 36 94 40 15 4
29 14 32 22 4 8 13 13 21 9 8 -3 15 -1 15 4 0 11 -46 10 -58 -2z"/>
<path d="M5694 583 c7 -7 17 -10 80 -18 21 -3 47 -10 58 -16 12 -7 24 -7 29
-2 6 6 -21 16 -68 26 -85 18 -110 21 -99 10z"/>
<path d="M6720 580 c0 -5 5 -10 11 -10 5 0 7 5 4 10 -3 6 -8 10 -11 10 -2 0
-4 -4 -4 -10z"/>
<path d="M13185 580 c3 -5 8 -10 11 -10 2 0 4 5 4 10 0 6 -5 10 -11 10 -5 0
-7 -4 -4 -10z"/>
<path d="M5965 560 c-3 -5 1 -10 9 -10 8 0 18 5 21 10 3 6 -1 10 -9 10 -8 0
-18 -4 -21 -10z"/>
<path d="M8430 560 c36 -11 70 -12 70 -1 0 5 -21 9 -47 9 -38 -1 -43 -2 -23
-8z"/>
<path d="M10273 563 c13 -22 127 -73 162 -73 19 0 35 -4 35 -8 0 -10 79 -56
85 -50 2 2 -11 12 -30 23 -19 10 -35 24 -35 32 0 13 -24 18 -69 14 -13 -1 -36
6 -50 17 -15 11 -38 23 -51 27 -14 4 -31 13 -39 19 -11 8 -13 8 -8 -1z"/>
<path d="M13249 551 c49 -24 51 -24 51 -12 0 5 -10 11 -22 14 -13 3 -34 8 -48
12 -14 4 -5 -3 19 -14z"/>
<path d="M14478 563 c7 -3 16 -2 19 1 4 3 -2 6 -13 5 -11 0 -14 -3 -6 -6z"/>
<path d="M14522 555 c2 -12 15 -24 34 -30 17 -6 37 -15 45 -21 8 -6 25 -15 39
-19 14 -4 36 -16 49 -26 13 -11 35 -19 50 -18 24 1 23 2 -7 10 -20 6 -30 14
-26 21 4 6 1 9 -7 6 -7 -2 -40 10 -72 29 -32 18 -64 33 -69 33 -6 0 -17 8 -25
18 -13 16 -14 16 -11 -3z"/>
<path d="M283 545 c20 -15 133 -17 118 -2 -4 4 -37 10 -72 12 -56 3 -62 2 -46
-10z m44 -1 c-3 -3 -12 -4 -19 -1 -8 3 -5 6 6 6 11 1 17 -2 13 -5z"/>
<path d="M11320 530 c-30 -16 -61 -29 -69 -30 -7 0 -34 -11 -60 -24 -56 -28
-197 -47 -351 -46 -201 0 -230 -1 -230 -11 0 -17 142 -16 148 1 2 6 8 7 14 4
21 -13 293 -4 348 11 30 9 73 21 95 27 22 6 42 14 45 18 9 13 91 49 103 46 7
-1 8 -1 4 2 -4 2 0 10 10 18 31 24 0 15 -57 -16z"/>
<path d="M11406 548 c2 -3 1 -8 -3 -11 -5 -2 -2 -2 5 0 8 1 25 3 38 3 13 0 24
4 24 8 0 5 -15 8 -34 8 -19 -1 -32 -4 -30 -8z"/>
<path d="M5885 541 c-3 -5 6 -8 20 -7 35 4 44 16 12 16 -14 0 -28 -4 -32 -9z"/>
<path d="M13540 539 c-30 -5 -72 -9 -92 -10 -21 -1 -38 -7 -38 -12 0 -6 20 -7
53 -2 28 5 77 8 107 7 30 0 49 2 42 4 -6 3 -10 10 -6 15 3 5 2 8 -3 8 -4 -1
-33 -5 -63 -10z"/>
<path d="M445 530 c-30 -8 -30 -8 8 -9 23 -1 36 3 32 9 -3 6 -7 9 -8 9 -1 -1
-15 -5 -32 -9z"/>
<path d="M6916 523 c-2 -2 -35 -5 -72 -5 -58 -1 -63 -2 -34 -9 19 -4 60 -6 90
-3 123 9 216 6 259 -10 56 -20 66 -13 15 10 -28 12 -70 18 -146 19 -59 1 -109
0 -112 -2z"/>
<path d="M13335 520 c17 -4 39 -8 50 -8 l20 -1 -20 9 c-11 5 -33 8 -50 8 l-30
0 30 -8z"/>
<path d="M530 509 c19 -5 44 -14 55 -21 19 -10 19 -10 3 9 -11 12 -32 19 -55
20 l-38 2 35 -10z"/>
<path d="M7223 482 c0 -20 40 -25 71 -9 l28 15 -50 3 c-35 3 -49 0 -49 -9z"/>
<path d="M15009 473 c-13 -16 -12 -17 4 -4 9 7 17 15 17 17 0 8 -8 3 -21 -13z"/>
<path d="M14770 450 c0 -7 8 -9 21 -5 12 4 19 3 16 -1 -9 -16 160 -11 175 5
11 11 8 12 -17 5 -38 -10 -66 -10 -137 0 -41 5 -58 4 -58 -4z"/>
<path d="M10578 423 c7 -3 16 -2 19 1 4 3 -2 6 -13 5 -11 0 -14 -3 -6 -6z"/>
</g>
</svg>
